<svg width="478" height="259" viewBox="0 0 478 259" fill="none" xmlns="http://www.w3.org/2000/svg">
<path d="M28.3904 33.891L28.9185 119.089L7.01887 119.225L6.36806 14.2271L52.8672 13.9389L52.9899 33.7385L28.3904 33.891ZM122.477 28.8077L122.939 103.206L107.134 118.605L80.1343 118.772L64.1397 103.571L63.6786 29.1722L79.4835 13.7739L106.483 13.6065L122.477 28.8077ZM100.606 33.4434L85.6061 33.5363L86.0114 98.9351L101.011 98.8421L100.606 33.4434ZM197.564 28.3423L197.718 53.2418L175.819 53.3776L175.692 32.978L160.693 33.0709L161.098 98.4697L176.098 98.3767L175.942 73.3272L197.842 73.1914L198.025 102.741L182.22 118.139L155.221 118.306L139.226 103.105L138.765 28.7067L154.57 13.3085L181.569 13.1411L197.564 28.3423ZM259.663 12.6571L259.786 32.4567L244.786 32.5497L245.314 117.748L223.414 117.884L222.886 32.6854L207.887 32.7784L207.764 12.9788L259.663 12.6571ZM270.24 12.5915L292.14 12.4558L292.475 66.6048L292.775 66.6029L309.689 12.347L328.739 12.2289L329.39 117.227L307.49 117.363L307.154 63.2137L306.854 63.2156L289.94 117.471L270.891 117.59L270.24 12.5915Z" fill="white"/>
<mask id="path-2-outside-1_22_622" maskUnits="userSpaceOnUse" x="-1.94418" y="138.58" width="478.666" height="111.961" fill="black">
<rect fill="white" x="-1.94418" y="138.58" width="478.666" height="111.961"/>
<path d="M52.5672 143.205L52.6899 163.005L37.6902 163.097L38.2183 248.296L16.3187 248.432L15.7906 163.233L0.790893 163.326L0.668169 143.527L52.5672 143.205ZM89.3222 204.028L95.5437 142.939L118.943 142.793L99.2496 232.617L83.4447 248.016L59.8952 248.161L59.7725 228.362L77.3221 228.253L56.2444 143.182L79.644 143.037L89.0222 204.03L89.3222 204.028ZM184.91 157.685L185.154 196.984L169.349 212.382L150.749 212.498L150.967 247.597L129.067 247.733L128.416 142.735L168.916 142.484L184.91 157.685ZM163.039 162.321L150.439 162.399L150.627 192.698L163.226 192.62L163.039 162.321ZM255.417 141.948L256.068 246.946L234.168 247.081L233.904 204.482L218.905 204.575L219.169 247.174L197.269 247.31L196.618 142.312L218.518 142.176L218.782 184.775L233.782 184.682L233.518 142.083L255.417 141.948ZM271.705 141.847L293.604 141.711L293.94 195.86L294.24 195.858L311.154 141.602L330.204 141.484L330.854 246.482L308.955 246.618L308.619 192.469L308.319 192.471L291.405 246.727L272.356 246.845L271.705 141.847ZM402.992 156.333L403.236 195.632L387.431 211.031L368.831 211.146L369.049 246.245L347.149 246.381L346.498 141.383L386.997 141.132L402.992 156.333ZM381.12 160.969L368.521 161.047L368.708 191.346L381.308 191.268L381.12 160.969ZM456.399 140.702L474.15 245.594L451.35 245.735L448.979 226.249L431.58 226.357L429.751 245.869L406.951 246.01L421 140.921L456.399 140.702ZM446.307 206.466L441.073 160.747L438.523 160.763L433.407 206.546L446.307 206.466Z"/>
</mask>
<path d="M52.5672 143.205L54.5671 143.192L54.5547 141.193L52.5548 141.205L52.5672 143.205ZM52.6899 163.005L52.7023 165.004L54.7023 164.992L54.6899 162.992L52.6899 163.005ZM37.6902 163.097L37.6778 161.098L35.6778 161.11L35.6902 163.11L37.6902 163.097ZM38.2183 248.296L38.2307 250.296L40.2306 250.283L40.2182 248.283L38.2183 248.296ZM16.3187 248.432L14.3187 248.444L14.3311 250.444L16.3311 250.432L16.3187 248.432ZM15.7906 163.233L17.7906 163.221L17.7782 161.221L15.7782 161.233L15.7906 163.233ZM0.790893 163.326L-1.20907 163.339L-1.19667 165.339L0.803289 165.326L0.790893 163.326ZM0.668169 143.527L0.655772 141.527L-1.34419 141.539L-1.33179 143.539L0.668169 143.527ZM50.5672 143.217L50.6899 163.017L54.6899 162.992L54.5671 143.192L50.5672 143.217ZM52.6775 161.005L37.6778 161.098L37.7026 165.097L52.7023 165.004L52.6775 161.005ZM35.6902 163.11L36.2183 248.308L40.2182 248.283L39.6901 163.085L35.6902 163.11ZM38.2059 246.296L16.3063 246.432L16.3311 250.432L38.2307 250.296L38.2059 246.296ZM18.3187 248.419L17.7906 163.221L13.7906 163.246L14.3187 248.444L18.3187 248.419ZM15.7782 161.233L0.778497 161.326L0.803289 165.326L15.803 165.233L15.7782 161.233ZM2.79085 163.314L2.66813 143.514L-1.33179 143.539L-1.20907 163.339L2.79085 163.314ZM0.680565 145.527L52.5796 145.205L52.5548 141.205L0.655772 141.527L0.680565 145.527ZM89.3222 204.028L89.3346 206.028L91.13 206.017L91.3119 204.231L89.3222 204.028ZM95.5437 142.939L95.5313 140.939L93.7359 140.95L93.554 142.736L95.5437 142.939ZM118.943 142.793L120.897 143.222L121.433 140.778L118.931 140.794L118.943 142.793ZM99.2496 232.617L100.645 234.05L101.075 233.631L101.203 233.046L99.2496 232.617ZM83.4447 248.016L83.4571 250.015L84.2631 250.01L84.8404 249.448L83.4447 248.016ZM59.8952 248.161L57.8952 248.174L57.9076 250.174L59.9076 250.161L59.8952 248.161ZM59.7725 228.362L59.7601 226.362L57.7601 226.374L57.7725 228.374L59.7725 228.362ZM77.3221 228.253L77.3345 230.253L79.8742 230.237L79.2634 227.772L77.3221 228.253ZM56.2444 143.182L56.232 141.182L53.6923 141.198L54.3031 143.663L56.2444 143.182ZM79.644 143.037L81.6208 142.733L81.3583 141.026L79.6316 141.037L79.644 143.037ZM89.0222 204.03L87.0455 204.334L87.3079 206.041L89.0346 206.03L89.0222 204.03ZM91.3119 204.231L97.5334 143.141L93.554 142.736L87.3325 203.826L91.3119 204.231ZM95.5561 144.938L118.956 144.793L118.931 140.794L95.5313 140.939L95.5561 144.938ZM116.99 142.365L97.296 232.189L101.203 233.046L120.897 143.222L116.99 142.365ZM97.8539 231.185L82.0491 246.583L84.8404 249.448L100.645 234.05L97.8539 231.185ZM83.4324 246.016L59.8828 246.162L59.9076 250.161L83.4571 250.015L83.4324 246.016ZM61.8952 248.149L61.7724 228.349L57.7725 228.374L57.8952 248.174L61.8952 248.149ZM59.7849 230.362L77.3345 230.253L77.3097 226.253L59.7601 226.362L59.7849 230.362ZM79.2634 227.772L58.1857 142.701L54.3031 143.663L75.3808 228.734L79.2634 227.772ZM56.2568 145.182L79.6564 145.037L79.6316 141.037L56.232 141.182L56.2568 145.182ZM77.6672 143.341L87.0455 204.334L90.999 203.726L81.6208 142.733L77.6672 143.341ZM89.0346 206.03L89.3346 206.028L89.3098 202.028L89.0098 202.03L89.0346 206.03ZM184.91 157.685L186.91 157.672L186.905 156.821L186.288 156.235L184.91 157.685ZM185.154 196.984L186.55 198.417L187.159 197.823L187.154 196.972L185.154 196.984ZM169.349 212.382L169.361 214.382L170.167 214.377L170.745 213.815L169.349 212.382ZM150.749 212.498L150.737 210.498L148.737 210.51L148.749 212.51L150.749 212.498ZM150.967 247.597L150.979 249.597L152.979 249.585L152.967 247.585L150.967 247.597ZM129.067 247.733L127.067 247.745L127.08 249.745L129.08 249.733L129.067 247.733ZM128.416 142.735L128.404 140.735L126.404 140.747L126.417 142.747L128.416 142.735ZM168.916 142.484L170.294 141.034L169.709 140.479L168.903 140.484L168.916 142.484ZM163.039 162.321L165.039 162.308L165.026 160.308L163.026 160.321L163.039 162.321ZM150.439 162.399L150.426 160.399L148.426 160.411L148.439 162.411L150.439 162.399ZM150.627 192.698L148.627 192.71L148.639 194.71L150.639 194.698L150.627 192.698ZM163.226 192.62L163.239 194.62L165.239 194.608L165.226 192.608L163.226 192.62ZM182.91 157.697L183.154 196.997L187.154 196.972L186.91 157.672L182.91 157.697ZM183.758 195.552L167.953 210.95L170.745 213.815L186.55 198.417L183.758 195.552ZM169.337 210.382L150.737 210.498L150.762 214.498L169.361 214.382L169.337 210.382ZM148.749 212.51L148.967 247.609L152.967 247.585L152.749 212.485L148.749 212.51ZM150.954 245.597L129.055 245.733L129.08 249.733L150.979 249.597L150.954 245.597ZM131.067 247.72L130.416 142.722L126.417 142.747L127.067 247.745L131.067 247.72ZM128.429 144.735L168.928 144.484L168.903 140.484L128.404 140.735L128.429 144.735ZM167.538 143.933L183.532 159.135L186.288 156.235L170.294 141.034L167.538 143.933ZM163.026 160.321L150.426 160.399L150.451 164.399L163.051 164.321L163.026 160.321ZM148.439 162.411L148.627 192.71L152.627 192.686L152.439 162.386L148.439 162.411ZM150.639 194.698L163.239 194.62L163.214 190.62L150.614 190.698L150.639 194.698ZM165.226 192.608L165.039 162.308L161.039 162.333L161.226 192.632L165.226 192.608ZM255.417 141.948L257.417 141.935L257.405 139.935L255.405 139.948L255.417 141.948ZM256.068 246.946L256.08 248.946L258.08 248.933L258.068 246.933L256.068 246.946ZM234.168 247.081L232.168 247.094L232.181 249.094L234.181 249.081L234.168 247.081ZM233.904 204.482L235.904 204.47L235.892 202.47L233.892 202.482L233.904 204.482ZM218.905 204.575L218.892 202.575L216.892 202.588L216.905 204.587L218.905 204.575ZM219.169 247.174L219.181 249.174L221.181 249.162L221.169 247.162L219.169 247.174ZM197.269 247.31L195.269 247.322L195.282 249.322L197.282 249.31L197.269 247.31ZM196.618 142.312L196.606 140.312L194.606 140.324L194.618 142.324L196.618 142.312ZM218.518 142.176L220.518 142.164L220.505 140.164L218.505 140.176L218.518 142.176ZM218.782 184.775L216.782 184.788L216.794 186.788L218.794 186.775L218.782 184.775ZM233.782 184.682L233.794 186.682L235.794 186.67L235.782 184.67L233.782 184.682ZM233.518 142.083L233.505 140.083L231.505 140.096L231.518 142.096L233.518 142.083ZM253.417 141.96L254.068 246.958L258.068 246.933L257.417 141.935L253.417 141.96ZM256.056 244.946L234.156 245.081L234.181 249.081L256.08 248.946L256.056 244.946ZM236.168 247.069L235.904 204.47L231.904 204.495L232.168 247.094L236.168 247.069ZM233.892 202.482L218.892 202.575L218.917 206.575L233.917 206.482L233.892 202.482ZM216.905 204.587L217.169 247.187L221.169 247.162L220.905 204.563L216.905 204.587ZM219.156 245.174L197.257 245.31L197.282 249.31L219.181 249.174L219.156 245.174ZM199.269 247.298L198.618 142.3L194.618 142.324L195.269 247.322L199.269 247.298ZM196.631 144.312L218.53 144.176L218.505 140.176L196.606 140.312L196.631 144.312ZM216.518 142.189L216.782 184.788L220.782 184.763L220.518 142.164L216.518 142.189ZM218.794 186.775L233.794 186.682L233.769 182.683L218.77 182.776L218.794 186.775ZM235.782 184.67L235.518 142.071L231.518 142.096L231.782 184.695L235.782 184.67ZM233.53 144.083L255.43 143.948L255.405 139.948L233.505 140.083L233.53 144.083ZM271.705 141.847L271.692 139.847L269.692 139.859L269.705 141.859L271.705 141.847ZM293.604 141.711L295.604 141.698L295.592 139.699L293.592 139.711L293.604 141.711ZM293.94 195.86L291.94 195.872L291.952 197.872L293.952 197.86L293.94 195.86ZM294.24 195.858L294.252 197.858L295.714 197.849L296.149 196.453L294.24 195.858ZM311.154 141.602L311.142 139.602L309.68 139.611L309.245 141.007L311.154 141.602ZM330.204 141.484L332.204 141.472L332.191 139.472L330.191 139.484L330.204 141.484ZM330.854 246.482L330.867 248.482L332.867 248.47L332.854 246.47L330.854 246.482ZM308.955 246.618L306.955 246.63L306.967 248.63L308.967 248.618L308.955 246.618ZM308.619 192.469L310.619 192.456L310.607 190.456L308.607 190.469L308.619 192.469ZM308.319 192.471L308.307 190.471L306.845 190.48L306.41 191.875L308.319 192.471ZM291.405 246.727L291.418 248.726L292.879 248.717L293.315 247.322L291.405 246.727ZM272.356 246.845L270.356 246.857L270.368 248.857L272.368 248.845L272.356 246.845ZM271.717 143.847L293.617 143.711L293.592 139.711L271.692 139.847L271.717 143.847ZM291.604 141.723L291.94 195.872L295.94 195.847L295.604 141.698L291.604 141.723ZM293.952 197.86L294.252 197.858L294.228 193.858L293.928 193.86L293.952 197.86ZM296.149 196.453L313.063 142.197L309.245 141.007L292.331 195.263L296.149 196.453ZM311.166 143.602L330.216 143.484L330.191 139.484L311.142 139.602L311.166 143.602ZM328.204 141.496L328.854 246.494L332.854 246.47L332.204 141.472L328.204 141.496ZM330.842 244.482L308.942 244.618L308.967 248.618L330.867 248.482L330.842 244.482ZM310.955 246.605L310.619 192.456L306.619 192.481L306.955 246.63L310.955 246.605ZM308.607 190.469L308.307 190.471L308.332 194.471L308.632 194.469L308.607 190.469ZM306.41 191.875L289.496 246.131L293.315 247.322L310.229 193.066L306.41 191.875ZM291.393 244.727L272.343 244.845L272.368 248.845L291.418 248.726L291.393 244.727ZM274.356 246.832L273.705 141.834L269.705 141.859L270.356 246.857L274.356 246.832ZM402.992 156.333L404.992 156.321L404.987 155.47L404.37 154.883L402.992 156.333ZM403.236 195.632L404.631 197.065L405.241 196.471L405.236 195.62L403.236 195.632ZM387.431 211.031L387.443 213.031L388.249 213.026L388.826 212.463L387.431 211.031ZM368.831 211.146L368.819 209.146L366.819 209.158L366.831 211.158L368.831 211.146ZM369.049 246.245L369.061 248.245L371.061 248.233L371.049 246.233L369.049 246.245ZM347.149 246.381L345.149 246.393L345.161 248.393L347.161 248.381L347.149 246.381ZM346.498 141.383L346.486 139.383L344.486 139.395L344.498 141.395L346.498 141.383ZM386.997 141.132L388.375 139.682L387.791 139.127L386.985 139.132L386.997 141.132ZM381.12 160.969L383.12 160.956L383.108 158.956L381.108 158.969L381.12 160.969ZM368.521 161.047L368.508 159.047L366.508 159.059L366.521 161.059L368.521 161.047ZM368.708 191.346L366.708 191.359L366.721 193.359L368.721 193.346L368.708 191.346ZM381.308 191.268L381.321 193.268L383.32 193.256L383.308 191.256L381.308 191.268ZM400.992 156.346L401.236 195.645L405.236 195.62L404.992 156.321L400.992 156.346ZM401.84 194.2L386.035 209.598L388.826 212.463L404.631 197.065L401.84 194.2ZM387.418 209.031L368.819 209.146L368.843 213.146L387.443 213.031L387.418 209.031ZM366.831 211.158L367.049 246.258L371.049 246.233L370.831 211.134L366.831 211.158ZM369.036 244.245L347.137 244.381L347.161 248.381L369.061 248.245L369.036 244.245ZM349.149 246.369L348.498 141.371L344.498 141.395L345.149 246.393L349.149 246.369ZM346.511 143.383L387.01 143.132L386.985 139.132L346.486 139.383L346.511 143.383ZM385.62 142.582L401.614 157.783L404.37 154.883L388.375 139.682L385.62 142.582ZM381.108 158.969L368.508 159.047L368.533 163.047L381.133 162.969L381.108 158.969ZM366.521 161.059L366.708 191.359L370.708 191.334L370.521 161.035L366.521 161.059ZM368.721 193.346L381.321 193.268L381.296 189.268L368.696 189.346L368.721 193.346ZM383.308 191.256L383.12 160.956L379.12 160.981L379.308 191.281L383.308 191.256ZM456.399 140.702L458.371 140.368L458.087 138.691L456.387 138.702L456.399 140.702ZM474.15 245.594L474.162 247.594L476.514 247.579L476.122 245.26L474.15 245.594ZM451.35 245.735L449.365 245.977L449.58 247.746L451.363 247.735L451.35 245.735ZM448.979 226.249L450.965 226.008L450.749 224.238L448.967 224.249L448.979 226.249ZM431.58 226.357L431.567 224.357L429.757 224.369L429.588 226.171L431.58 226.357ZM429.751 245.869L429.763 247.869L431.573 247.858L431.742 246.056L429.751 245.869ZM406.951 246.01L404.969 245.745L404.664 248.025L406.963 248.01L406.951 246.01ZM421 140.921L420.988 138.921L419.248 138.932L419.018 140.656L421 140.921ZM446.307 206.466L446.319 208.466L448.547 208.452L448.294 206.238L446.307 206.466ZM441.073 160.747L443.06 160.52L442.856 158.736L441.061 158.747L441.073 160.747ZM438.523 160.763L438.511 158.763L436.733 158.774L436.536 160.541L438.523 160.763ZM433.407 206.546L431.419 206.323L431.169 208.56L433.419 208.546L433.407 206.546ZM454.427 141.036L472.178 245.928L476.122 245.26L458.371 140.368L454.427 141.036ZM474.137 243.594L451.338 243.735L451.363 247.735L474.162 247.594L474.137 243.594ZM453.336 245.494L450.965 226.008L446.994 226.491L449.365 245.977L453.336 245.494ZM448.967 224.249L431.567 224.357L431.592 228.357L448.992 228.249L448.967 224.249ZM429.588 226.171L427.759 245.682L431.742 246.056L433.571 226.544L429.588 226.171ZM429.738 243.869L406.939 244.01L406.963 248.01L429.763 247.869L429.738 243.869ZM408.933 246.275L422.982 141.186L419.018 140.656L404.969 245.745L408.933 246.275ZM421.012 142.921L456.412 142.702L456.387 138.702L420.988 138.921L421.012 142.921ZM448.294 206.238L443.06 160.52L439.086 160.975L444.32 206.693L448.294 206.238ZM441.061 158.747L438.511 158.763L438.536 162.763L441.086 162.747L441.061 158.747ZM436.536 160.541L431.419 206.323L435.395 206.768L440.511 160.985L436.536 160.541ZM433.419 208.546L446.319 208.466L446.294 204.466L433.395 204.546L433.419 208.546Z" fill="white" mask="url(#path-2-outside-1_22_622)"/>
</svg>
