<svg width="100" height="100" viewBox="0 0 100 100" fill="none" xmlns="http://www.w3.org/2000/svg">
<g clip-path="url(#clip0_135_933)">
<mask id="mask0_135_933" style="mask-type:luminance" maskUnits="userSpaceOnUse" x="7" y="5" width="86" height="86">
<path d="M93 5H7V91H93V5Z" fill="white"/>
</mask>
<g mask="url(#mask0_135_933)">
<path d="M52.2698 5.03632C49.9043 5.398 48.4282 6.19958 46.8543 7.98845C45.3881 9.66002 44.1466 11.9474 43.3744 14.362C42.9344 15.7598 42.4066 18.0179 42.0156 20.188L41.7614 21.6445L41.4681 21.664C39.1319 21.8595 35.2023 22.7589 33.4525 23.5018C33.296 23.5703 32.6802 23.8243 32.0839 24.0492C30.8522 24.5282 27.8708 26.014 26.7076 26.7276C22.9831 28.9954 20.1288 31.3807 18.467 33.6388C17.1767 35.369 15.5442 38.3015 14.9283 39.9731C13.7846 43.0622 13.55 47.5686 14.3516 50.7748C15.5246 55.4669 18.6331 58.771 22.9636 59.9244C24.0878 60.2275 25.9645 60.2275 27.0986 59.9244C29.2101 59.3672 31.1748 57.9987 32.3577 56.2685C32.8855 55.4962 33.8923 53.2772 33.8923 52.8862C33.8923 52.8373 33.599 52.7786 33.2375 52.7397C29.8649 52.3975 27.4798 50.4131 26.6489 47.2655C26.3361 46.1119 26.2188 44.0103 26.3458 42.1335C26.5609 39.0249 27.1474 36.9037 28.4573 34.4305C30.168 31.2047 33.9608 27.9007 37.8611 26.2389C38.9755 25.7599 40.3635 25.3395 40.9794 25.2906L41.3705 25.2613L41.4388 27.6563C41.5561 31.6054 41.781 34.6749 42.0645 36.151C42.1916 36.8352 42.2013 36.9819 42.0938 37.0895C41.8591 37.3045 39.6988 38.4775 37.0987 39.7874L34.5766 41.0483V43.59C34.5766 44.9879 34.5962 46.1316 34.6255 46.1316C34.8601 46.1316 39.4837 43.678 41.4096 42.5343C42.475 41.8988 42.8269 41.7327 42.8856 41.8305C42.9344 41.9086 42.9931 42.3387 43.0322 42.7982C43.0615 43.2576 43.13 44.0298 43.1789 44.5186C43.5503 48.0572 43.5503 57.0016 43.1789 61.6254C42.9247 64.7632 42.8758 65.3204 42.7488 66.6596C42.2697 71.3713 41.0576 77.2657 39.7477 81.2443C39.6695 81.4887 39.562 81.6158 39.4545 81.6158C39.3665 81.6158 38.7213 81.4007 38.0371 81.1368C35.2706 80.1006 31.6733 79.0546 29.3859 78.6147C27.9784 78.3507 25.0458 78.3801 23.8922 78.6637C21.1747 79.3381 19.6204 80.56 18.8873 82.5932C18.731 83.0234 18.6918 83.3851 18.6918 84.4017V85.6725L19.1121 86.5327C20.0408 88.4291 21.9958 89.8856 24.4886 90.521C25.4759 90.7752 27.3625 91 28.4671 91C29.4935 91 31.2237 90.7849 32.4652 90.5015C35.515 89.8075 38.2814 88.3313 40.5395 86.1808L41.2238 85.5258L41.7907 85.8093C46.3362 88.0967 52.4849 89.2893 58.0079 88.957C62.5632 88.693 66.3561 87.7253 70.012 85.9266C79.2691 81.342 85.0561 72.7203 86.7472 60.9899C86.8841 60.0026 86.9231 59.1522 86.9231 56.591C86.9134 53.7953 86.8841 53.2577 86.6983 52.1139C86.4637 50.6673 86.063 48.7904 85.8283 48.0376C84.8997 45.0465 84.0786 43.1305 82.6221 40.6085C79.9925 36.0434 75.3297 31.1949 70.5007 28.0277C67.3824 25.975 64.2543 24.538 60.1096 23.2281C59.181 22.9446 58.399 22.6806 58.3696 22.6416C58.3403 22.6123 58.4283 22.2897 58.5553 21.9182C58.7802 21.3121 59.1223 19.9826 59.3961 18.7119C59.8359 16.6298 59.9336 13.5897 59.6111 11.8106C59.3276 10.2465 58.8584 8.96598 58.2033 8.01778C57.7635 7.36283 56.7078 6.29733 56.1995 5.96497C55.134 5.29048 53.3744 4.87014 52.2698 5.03632ZM52.9834 11.3805C54.1271 11.6737 54.87 12.4166 55.4077 13.795C55.7791 14.7627 56.0724 16.3659 56.0822 17.4509C56.0822 18.3893 55.8671 19.9925 55.6032 21.0091C55.349 22.0061 55.3002 22.0941 55.1144 22.0453C55.0265 22.016 54.5182 21.928 53.9902 21.84C52.0059 21.5272 50.1682 21.4001 47.8417 21.4099C46.5513 21.4099 45.4858 21.4001 45.476 21.3806C45.4369 21.3513 45.5151 20.9798 45.8475 19.5917C46.0429 18.751 46.6197 17.0697 47.0987 15.9553C48.1349 13.5115 49.3862 11.967 50.7742 11.4293C51.351 11.2045 52.2307 11.185 52.9834 11.3805ZM51.2924 24.5869C52.6218 24.7335 53.9806 25.0267 54.1467 25.1929C54.3617 25.408 52.8954 27.7149 51.3999 29.5136C49.8847 31.3415 45.9354 34.9486 45.7106 34.7238C45.6031 34.6162 45.3685 33.4335 45.1829 32.0552C44.9678 30.4814 44.8406 27.4706 44.9189 25.8478L44.9873 24.4794L45.3294 24.4109C45.867 24.3131 49.8261 24.4207 51.2924 24.5869ZM59.6013 27.0894C61.6052 28.0863 62.2112 28.4578 63.8828 29.7091C68.1351 32.8958 71.2534 37.3241 73.0716 42.7689C74.2641 46.3563 74.8507 50.3447 74.8507 54.9293C74.8507 58.3995 74.4987 61.3223 73.7265 64.3625C73.4724 65.3497 72.7002 67.7252 72.4558 68.2725C72.3873 68.4289 72.2309 68.7808 72.1137 69.0545C71.273 71.0193 69.7969 73.4925 68.4185 75.2618C67.4215 76.5326 65.2221 78.7027 64.0979 79.5336C61.0774 81.7526 57.9786 83.0918 54.2933 83.7859C53.2279 83.9813 52.8075 84.0107 50.4126 84.0107C47.5484 84.0009 47.0206 83.952 44.9189 83.4144C43.9022 83.1602 43.4721 83.0038 43.4721 82.8768C43.4721 82.8278 43.7262 82.4271 44.0391 81.9872C46.1115 79.0155 48.3305 75.1934 50.4418 70.9607C52.1525 67.5394 53.1008 65.4377 54.7137 61.5275C55.0265 60.7748 55.9258 58.4484 56.3461 57.3242C56.4341 57.1091 56.5514 56.7768 56.6295 56.591C57.2552 54.9879 59.3081 48.6535 59.3081 48.3309C59.3081 48.2626 58.8779 48.1257 58.3109 47.9987C56.0137 47.4903 54.1467 46.6789 52.3676 45.4375C51.3314 44.7141 49.4056 42.7492 48.6335 41.6349C47.9687 40.6672 47.0889 39.0347 47.0889 38.7512C47.0889 38.6633 47.9883 37.7053 49.083 36.6202C52.4654 33.2771 54.5866 30.4617 56.4928 26.7765C56.6687 26.4246 56.8545 26.0923 56.8935 26.0238C57.0011 25.8577 57.5778 26.0825 59.6013 27.0894ZM31.4583 81.2638C32.7095 81.6255 34.4691 82.3489 37.1475 83.6099C37.6852 83.8543 38.1446 84.0595 38.1934 84.0595C38.428 84.0595 38.3304 84.392 37.9686 84.7927C36.6099 86.347 34.2833 87.6861 31.8689 88.3216C30.6079 88.6539 28.5355 88.693 27.5384 88.4096C26.385 88.087 25.6811 87.6861 24.9969 87.002C24.254 86.2492 24.0193 85.7018 24.0193 84.7243C24.0193 83.3068 24.7133 82.1534 25.9255 81.5473C27.2061 80.9119 29.7769 80.775 31.4583 81.2638Z" fill="#113596"/>
</g>
</g>
<defs>
<clipPath id="clip0_135_933">
<rect width="86" height="86" fill="white" transform="translate(7 5)"/>
</clipPath>
</defs>
</svg>
