<svg width="96" height="48" viewBox="0 0 96 48" fill="none" xmlns="http://www.w3.org/2000/svg">
<g clip-path="url(#clip0_44_511)">
<path d="M20.3597 28.6172L20.2829 28.7017L21.0432 24.854H21.2967L20.5364 28.7017L20.4672 28.6172H22.8711L22.7712 28.7017L23.5392 24.854H23.7927L22.994 28.8399H17.7408L18.5396 24.854H18.793L18.0327 28.7017L17.9636 28.6172H20.3597ZM27.688 28.8399L26.3133 26.8278L26.5283 26.7279L27.9798 28.8399H27.688ZM24.7158 28.8399L25.5145 24.854H25.768L24.9693 28.8399H24.7158ZM25.2688 26.9276L25.3149 26.7049H26.5437L26.4976 26.9276H25.2688ZM26.536 26.8738L26.2749 26.8124L28.3485 24.854H28.671L26.536 26.8738ZM17.8868 38.4399L18.962 33.0639H20.7975C21.3761 33.0639 21.824 33.1919 22.1415 33.4479C22.464 33.6988 22.6253 34.0546 22.6253 34.5154C22.6253 34.9762 22.5255 35.3653 22.3258 35.6828C22.1312 35.9951 21.8496 36.2332 21.481 36.397C21.1175 36.5557 20.6823 36.6351 20.1754 36.6351H18.3936L18.5319 36.5122L18.1479 38.4399H17.8868ZM18.5319 36.5122L18.4397 36.397H20.1754C20.8717 36.397 21.4119 36.2409 21.7959 35.9286C22.1799 35.6163 22.3719 35.1503 22.3719 34.5308C22.3719 34.1365 22.2362 33.8345 21.9648 33.6246C21.6935 33.4095 21.3044 33.302 20.7975 33.302H19.0618L19.2 33.1714L18.5319 36.5122ZM22.6657 39.9529C22.4917 39.9529 22.3253 39.9222 22.1665 39.8607C22.0079 39.7993 21.885 39.7122 21.7979 39.5996L21.9669 39.4153C22.0539 39.5228 22.1589 39.6022 22.2817 39.6534C22.3995 39.7045 22.5378 39.7302 22.6965 39.7302C22.8757 39.7302 23.0447 39.679 23.2033 39.5766C23.3621 39.4741 23.5336 39.2847 23.7179 39.0082L24.148 38.3478L24.2017 38.2863L26.6977 34.454H26.9742L23.9406 39.0927C23.7922 39.3129 23.6514 39.4844 23.5182 39.6073C23.3903 39.7353 23.2571 39.8249 23.1189 39.8761C22.9806 39.9273 22.8296 39.9529 22.6657 39.9529ZM24.1326 38.5321L23.0805 34.454H23.3416L24.3169 38.271L24.1326 38.5321ZM28.8519 38.463C28.4883 38.463 28.1735 38.3964 27.9072 38.2633C27.641 38.1301 27.4362 37.9407 27.2928 37.695C27.1546 37.4492 27.0855 37.16 27.0855 36.8271C27.0855 36.3612 27.1827 35.949 27.3773 35.5906C27.577 35.2271 27.8458 34.9429 28.1837 34.7382C28.5267 34.5282 28.9184 34.4233 29.3588 34.4233C29.7018 34.4233 29.9988 34.4847 30.2496 34.6076C30.5005 34.7254 30.6925 34.8994 30.8256 35.1298L30.626 35.2681C30.498 35.0581 30.3264 34.9045 30.1114 34.8073C29.8964 34.71 29.6403 34.6614 29.3434 34.6614C28.9594 34.6614 28.6164 34.7561 28.3143 34.9455C28.0122 35.1298 27.7741 35.3859 27.6 35.7135C27.426 36.0361 27.3389 36.4047 27.3389 36.8194C27.3389 37.2649 27.4721 37.6131 27.7383 37.8639C28.0045 38.1097 28.3834 38.2326 28.8749 38.2326C29.1514 38.2326 29.4099 38.1814 29.6506 38.079C29.8913 37.9765 30.091 37.8306 30.2496 37.6412L30.4186 37.7948C30.2496 38.0098 30.0243 38.1762 29.7428 38.294C29.4663 38.4066 29.1694 38.463 28.8519 38.463ZM30.4494 38.4246L30.5109 38.2018C30.5519 38.2069 30.5877 38.2146 30.6184 38.2249C30.6491 38.23 30.6747 38.2326 30.6952 38.2326C30.8795 38.2326 31.0434 38.1507 31.1867 37.9868C31.3352 37.8178 31.4785 37.5541 31.6168 37.1958C31.755 36.8322 31.8984 36.3586 32.0469 35.775L32.3848 34.454H35.0805L34.2817 38.4399H34.0283L34.7963 34.5922L34.8654 34.6844H32.4923L32.5845 34.5922L32.2773 35.8287C32.1596 36.2946 32.0418 36.6966 31.924 37.0345C31.8114 37.3673 31.6936 37.6412 31.5707 37.8562C31.4478 38.0662 31.3173 38.2223 31.179 38.3247C31.046 38.422 30.8975 38.4706 30.7336 38.4706C30.6875 38.4706 30.644 38.4656 30.603 38.4553C30.5621 38.4502 30.5109 38.4399 30.4494 38.4246ZM37.7006 38.463C37.3576 38.463 37.0555 38.3989 36.7943 38.271C36.5384 38.1378 36.3387 37.9484 36.1953 37.7026C36.0571 37.4569 35.9879 37.165 35.9879 36.8271C35.9879 36.4841 36.0417 36.1666 36.1492 35.8748C36.2619 35.583 36.418 35.3295 36.6177 35.1145C36.8226 34.8944 37.0607 34.7254 37.332 34.6076C37.6084 34.4847 37.9131 34.4233 38.2459 34.4233C38.5941 34.4233 38.891 34.4873 39.1367 34.6153C39.3877 34.7433 39.5771 34.9276 39.7051 35.1682C39.8382 35.4037 39.9048 35.6879 39.9048 36.0207C39.9099 36.4866 39.8178 36.9039 39.6283 37.2726C39.4439 37.6412 39.1854 37.933 38.8526 38.1481C38.5249 38.358 38.1409 38.463 37.7006 38.463ZM37.7467 38.2326C38.1307 38.2326 38.4712 38.1404 38.7681 37.9561C39.0651 37.7667 39.298 37.5106 39.467 37.1881C39.6411 36.8604 39.7281 36.4892 39.7281 36.0745C39.7281 35.624 39.5951 35.2758 39.3287 35.03C39.0676 34.7842 38.7016 34.6614 38.2305 34.6614C37.8517 34.6614 37.5112 34.7561 37.2091 34.9455C36.9121 35.1298 36.6767 35.3859 36.5025 35.7135C36.3285 36.0361 36.2414 36.4047 36.2414 36.8194C36.2414 37.2649 36.3719 37.6131 36.6331 37.8639C36.8994 38.1097 37.2705 38.2326 37.7467 38.2326ZM39.298 38.4399L39.5668 37.1113L39.7742 36.5046L39.8126 35.8518L40.0891 34.454H40.3425L39.5515 38.4399H39.298ZM41.2758 38.4399L42.0745 34.454H42.328L41.9517 36.3202H44.824L45.2003 34.454H45.4537L44.655 38.4399H44.4016L44.7856 36.543H41.9133L41.5293 38.4399H41.2758ZM48.0731 38.463C47.7301 38.463 47.428 38.3989 47.1669 38.271C46.9109 38.1378 46.7112 37.9484 46.5678 37.7026C46.4296 37.4569 46.3605 37.165 46.3605 36.8271C46.3605 36.4841 46.4142 36.1666 46.5217 35.8748C46.6344 35.583 46.7905 35.3295 46.9902 35.1145C47.1951 34.8944 47.4332 34.7254 47.7045 34.6076C47.9809 34.4847 48.2856 34.4233 48.6184 34.4233C48.9666 34.4233 49.2635 34.4873 49.5093 34.6153C49.7602 34.7433 49.9496 34.9276 50.0776 35.1682C50.2107 35.4037 50.2773 35.6879 50.2773 36.0207C50.2824 36.4866 50.1903 36.9039 50.0008 37.2726C49.8165 37.6412 49.5579 37.933 49.2251 38.1481C48.8975 38.358 48.5135 38.463 48.0731 38.463ZM48.1192 38.2326C48.5032 38.2326 48.8437 38.1404 49.1406 37.9561C49.4376 37.7667 49.6705 37.5106 49.8395 37.1881C50.0136 36.8604 50.1006 36.4892 50.1006 36.0745C50.1006 35.624 49.9676 35.2758 49.7013 35.03C49.4401 34.7842 49.0741 34.6614 48.603 34.6614C48.2242 34.6614 47.8837 34.7561 47.5816 34.9455C47.2847 35.1298 47.0492 35.3859 46.875 35.7135C46.701 36.0361 46.6139 36.4047 46.6139 36.8194C46.6139 37.2649 46.7445 37.6131 47.0056 37.8639C47.2719 38.1097 47.643 38.2326 48.1192 38.2326ZM49.6705 38.4399L49.9393 37.1113L50.1467 36.5046L50.1851 35.8518L50.4616 34.454H50.715L49.924 38.4399H49.6705ZM20.3674 48.0706C19.8452 48.0706 19.4023 47.9785 19.0388 47.7942C18.6752 47.6098 18.3987 47.3538 18.2093 47.0262C18.0199 46.6933 17.9252 46.3119 17.9252 45.8818C17.9252 45.4467 17.9994 45.0345 18.1479 44.6454C18.2964 44.2563 18.5088 43.9107 18.7853 43.6086C19.0669 43.3065 19.4074 43.0684 19.8068 42.8943C20.2112 42.7203 20.6643 42.6332 21.1661 42.6332C21.5808 42.6332 21.9444 42.6946 22.2567 42.8175C22.5742 42.9404 22.8224 43.1144 23.0016 43.3398L22.8173 43.501C22.6381 43.2911 22.4103 43.135 22.1338 43.0326C21.8573 42.925 21.5297 42.8713 21.1508 42.8713C20.6951 42.8713 20.2829 42.9507 19.9143 43.1094C19.5507 43.2681 19.241 43.4857 18.985 43.7622C18.729 44.0386 18.5319 44.3586 18.3936 44.7222C18.2554 45.0857 18.1863 45.4697 18.1863 45.8742C18.1863 46.2582 18.2682 46.5987 18.432 46.8956C18.601 47.1874 18.8468 47.4178 19.1693 47.5868C19.497 47.7507 19.904 47.8326 20.3904 47.8326C20.7744 47.8326 21.12 47.7762 21.4272 47.6636C21.7344 47.5458 22.0007 47.382 22.226 47.1721L22.3796 47.3641C22.1543 47.5791 21.865 47.7507 21.5117 47.8786C21.1584 48.0066 20.777 48.0706 20.3674 48.0706ZM24.8831 48.063C24.54 48.063 24.238 47.9989 23.9769 47.871C23.7209 47.7378 23.5212 47.5484 23.3779 47.3026C23.2396 47.0569 23.1705 46.765 23.1705 46.4271C23.1705 46.0841 23.2243 45.7666 23.3318 45.4748C23.4444 45.183 23.6006 44.9295 23.8003 44.7145C24.005 44.4944 24.2431 44.3254 24.5145 44.2076C24.791 44.0847 25.0956 44.0233 25.4284 44.0233C25.7765 44.0233 26.0735 44.0873 26.3193 44.2153C26.5702 44.3433 26.7596 44.5276 26.8876 44.7682C27.0207 45.0037 27.0873 45.2879 27.0873 45.6207C27.0924 46.0866 27.0002 46.5039 26.8108 46.8726C26.6265 47.2412 26.3679 47.533 26.0351 47.7481C25.7074 47.958 25.3234 48.063 24.8831 48.063ZM24.9292 47.8326C25.3132 47.8326 25.6536 47.7404 25.9507 47.5561C26.2476 47.3667 26.4806 47.1106 26.6495 46.7881C26.8236 46.4604 26.9107 46.0892 26.9107 45.6745C26.9107 45.224 26.7775 44.8758 26.5113 44.63C26.2502 44.3842 25.884 44.2614 25.4131 44.2614C25.0342 44.2614 24.6936 44.3561 24.3916 44.5455C24.0946 44.7298 23.8591 44.9859 23.6851 45.3135C23.5109 45.6361 23.4239 46.0047 23.4239 46.4194C23.4239 46.8649 23.5545 47.2131 23.8156 47.4639C24.0818 47.7097 24.4531 47.8326 24.9292 47.8326ZM26.4806 48.0399L26.7494 46.7113L26.9567 46.1046L26.9951 45.4518L27.2716 44.054H27.5251L26.734 48.0399H26.4806ZM27.652 48.0246L27.7134 47.8018C27.7543 47.8069 27.7902 47.8146 27.8209 47.8249C27.8517 47.83 27.8772 47.8326 27.8977 47.8326C28.0821 47.8326 28.2458 47.7507 28.3893 47.5868C28.5377 47.4178 28.6811 47.1541 28.8193 46.7958C28.9576 46.4322 29.1009 45.9586 29.2494 45.375L29.5873 44.054H32.283L31.4843 48.0399H31.2309L31.9989 44.1922L32.068 44.2844H29.6949L29.787 44.1922L29.4798 45.4287C29.362 45.8946 29.2442 46.2966 29.1265 46.6345C29.0138 46.9673 28.8961 47.2412 28.7733 47.4562C28.6504 47.6662 28.5198 47.8223 28.3816 47.9247C28.2484 48.022 28.0999 48.0706 27.9361 48.0706C27.8901 48.0706 27.8465 48.0656 27.8056 48.0553C27.7646 48.0502 27.7134 48.0399 27.652 48.0246ZM34.9799 48.063C34.6113 48.063 34.2912 47.9989 34.0199 47.871C33.7536 47.7378 33.5489 47.5484 33.4056 47.3026C33.2673 47.0569 33.1982 46.76 33.1982 46.4118C33.1982 45.9561 33.2903 45.549 33.4747 45.1906C33.6641 44.8323 33.9201 44.5481 34.2427 44.3382C34.5703 44.1282 34.939 44.0233 35.3486 44.0233C35.6916 44.0233 35.986 44.0898 36.2318 44.223C36.4776 44.3509 36.667 44.5378 36.8001 44.7836C36.9332 45.0294 36.9998 45.3238 36.9998 45.6668C36.9998 45.7385 36.9946 45.8101 36.9844 45.8818C36.9792 45.9536 36.9716 46.0201 36.9614 46.0815H33.3902L33.4363 45.8665H36.8462L36.7387 45.974C36.8001 45.6003 36.7771 45.2879 36.6695 45.037C36.562 44.781 36.3931 44.5865 36.1627 44.4534C35.9323 44.3202 35.6583 44.2537 35.3409 44.2537C34.9774 44.2537 34.6522 44.3484 34.3656 44.5378C34.0788 44.7222 33.8535 44.9756 33.6897 45.2982C33.5258 45.6207 33.4439 45.9894 33.4439 46.4041C33.4439 46.8649 33.577 47.2182 33.8433 47.4639C34.1095 47.7097 34.4961 47.8326 35.003 47.8326C35.2948 47.8326 35.5636 47.7839 35.8094 47.6866C36.0551 47.5842 36.2573 47.4435 36.4161 47.2642L36.539 47.4409C36.3751 47.6303 36.155 47.7814 35.8785 47.894C35.602 48.0066 35.3025 48.063 34.9799 48.063ZM40.5126 48.0399L40.8045 46.5423L40.8659 46.6268H39.4221C38.9817 46.6268 38.6464 46.5346 38.416 46.3503C38.1907 46.1609 38.0781 45.8869 38.0781 45.5286C38.0781 45.0678 38.247 44.7068 38.5849 44.4457C38.9229 44.1846 39.3837 44.054 39.9673 44.054H41.5417L40.7507 48.0399H40.5126ZM37.5635 48.0399L38.9843 46.4962H39.2685L37.863 48.0399H37.5635ZM40.8198 46.4886L41.2806 44.1922L41.3344 44.2844H39.9597C39.4476 44.2844 39.0482 44.3945 38.7616 44.6146C38.4748 44.8297 38.3315 45.1343 38.3315 45.5286C38.3315 46.1173 38.7026 46.4118 39.4451 46.4118H40.9043L40.8198 46.4886Z" fill="#E41E37"/>
<path d="M2.84336 2.85433C4.80732 4.75964 6.24366 5.87353 7.38686 6.43043L9.08701 7.22195L43.8228 7.30988C82.7797 7.36844 79.6433 7.19257 78.8225 9.50838C77.9724 11.9413 79.0277 11.7654 64.6057 11.7654H51.7959L49.6268 17.2469L47.4577 22.7578L39.807 22.9043L32.127 23.0509L35.0582 25.6891C40.0415 30.1446 41.0382 30.5258 48.5422 30.5258H53.4082L53.7306 29.7929L54.0824 29.06H51.1511H48.2198L48.3957 28.2393C48.894 26.2167 49.8906 25.1321 52.7633 23.4906C55.1377 22.1422 55.6359 20.8524 53.7599 20.8524C53.1151 20.8524 52.8219 21.0577 52.5581 21.5853C52.2943 22.1715 52.0305 22.318 51.0924 22.318C49.8027 22.318 49.7734 22.2301 50.5648 20.9403C51.7959 18.8884 51.2683 18.9764 66.2473 18.8005L79.7313 18.654L81.4021 17.8332C82.3693 17.3642 83.454 16.5142 84.0109 15.84C85.1541 14.4036 88.7303 6.16662 88.8769 4.58377C89.0528 2.91289 88.232 1.50591 86.6197 0.685115L85.33 0.0402832H42.6503L0 0.0695636L2.84336 2.85433Z" fill="#E41E37"/>
<path d="M15.6825 11.6188C15.6825 11.7067 16.8843 12.9378 18.35 14.3449C23.216 19.0056 23.5091 19.0935 35.6446 19.0935H44.6437L45.9921 15.4001C46.725 13.3775 47.3405 11.648 47.3405 11.5894C47.3405 11.5308 40.2175 11.4722 31.5116 11.4722C22.8056 11.4722 15.6825 11.5308 15.6825 11.6188Z" fill="#E41E37"/>
<path d="M65.9544 21.7316C65.8371 21.9074 65.3974 23.1386 64.9284 24.5163L64.0783 27.0079H64.8405C65.456 27.0079 65.544 27.0959 65.3974 27.6528C65.3094 28.0339 65.2215 28.4149 65.2215 28.5322C65.2215 28.6788 64.8405 28.7667 64.4008 28.7667C63.6972 28.7667 63.4921 28.9426 63.0817 29.9392C62.642 31.1117 62.6127 31.1117 61.1177 31.1117C59.4762 31.1117 59.4469 31.0238 60.121 29.2357C60.2676 28.8253 60.0331 28.7667 58.5382 28.7667H56.8087L54.8448 34.1896C52.3238 41.254 52.2653 43.0127 54.4637 44.2146C55.3137 44.6836 56.5742 44.7423 66.8337 44.8302C82.1058 44.9474 84.1284 44.625 86.0924 41.7524C86.7372 40.8143 88.3787 37.4726 88.3787 37.0916C88.3787 37.0329 83.0438 36.9743 76.5364 36.9743C62.1144 36.9743 63.023 37.2967 64.6646 32.7826C65.1336 31.4048 65.7785 30.0858 66.0423 29.8512C66.4527 29.4702 68.2408 29.3823 77.9726 29.2943C90.9876 29.1478 91.7498 29.0598 93.6844 27.0079C94.6518 26.0112 96 22.9628 96 21.8195C96 21.497 93.1567 21.4385 81.0798 21.4385C71.2893 21.4385 66.0716 21.5264 65.9544 21.7316Z" fill="#E41E37"/>
<path d="M59.7387 25.2491L57.9506 27.0079H59.3576C60.6181 27.0079 60.794 26.9198 61.0578 26.1871C61.7026 24.5162 61.9664 23.4902 61.7613 23.4902C61.6441 23.4902 60.7353 24.2818 59.7387 25.2491Z" fill="#E41E37"/>
<path d="M53.9645 24.9561C53.1731 25.3958 52.323 25.9821 52.0885 26.2459C51.6488 26.6855 51.7661 26.7149 53.261 26.7149H54.9025L55.3423 25.3958C55.6061 24.663 55.7233 24.0768 55.6061 24.106C55.4888 24.106 54.756 24.4871 53.9645 24.9561Z" fill="#E41E37"/>
</g>
<defs>
<clipPath id="clip0_44_511">
<rect width="96" height="48" fill="white"/>
</clipPath>
</defs>
</svg>
