<svg width="100" height="100" viewBox="0 0 100 100" fill="none" xmlns="http://www.w3.org/2000/svg">
<g clip-path="url(#clip0_136_1110)">
<path opacity="0.5" d="M83.0659 76.5787H2.07422L6.33073 49.9373L6.35693 49.7754H87.6193L83.0659 76.5787Z" fill="#2B2A29"/>
<path d="M81.9917 75.6431H1L5.25652 49.0018L5.27834 48.8398H86.545L81.9917 75.6431Z" fill="#D52326"/>
<path opacity="0.5" d="M93.5772 72.4488H7.42969L12.0878 44.3906H98.5802L93.5772 72.4488Z" fill="#2B2A29"/>
<path d="M92.8545 71.5451H6.70703L11.3652 43.4824H97.8576L92.8545 71.5451Z" fill="#2C4592"/>
<path opacity="0.5" d="M96.0628 83.9998H64.8047L68.4544 57.9072H100.001L96.0628 83.9998Z" fill="#2B2A29"/>
<path d="M95.387 83.1502H64.1289L67.7786 57.0576H99.3292L95.387 83.1502Z" fill="#D52326"/>
<path d="M84.1274 75.7957C84.1274 75.7957 84.1274 75.7867 84.1274 75.7822L82.5514 76.7538C82.5514 76.7538 83.0098 76.6009 82.5514 77.1226C82.5252 76.8617 81.5386 76.2905 81.0409 75.7822H80.9536V75.7957L78.4215 78.382C78.3648 78.7869 78.4521 79.3221 78.4521 79.3221C78.4521 79.3221 78.8494 79.4301 79.347 79.4121L80.9929 76.7268C80.9929 76.7268 81.3159 76.7583 81.2199 76.9202L79.8185 79.7359C79.8927 80.1137 80.2158 80.559 80.2158 80.559C80.2158 80.559 80.6786 80.4601 81.0933 80.2622L82.0537 76.9967L82.2982 77.1676L81.6259 80.4961C81.6259 80.4961 81.9752 80.9414 82.5427 81.1843C82.5427 81.1843 82.5427 81.1843 82.5471 81.1843C83.1146 80.9414 83.4639 80.4961 83.4639 80.4961L82.7915 77.1676L83.036 76.9967L83.9965 80.2622C84.4068 80.4601 84.874 80.559 84.874 80.559C84.874 80.559 85.197 80.1137 85.2712 79.7359L83.8699 76.9202C83.7782 76.7583 84.1012 76.7268 84.1012 76.7268L85.7471 79.4121C86.2404 79.4301 86.6377 79.3221 86.6377 79.3221C86.6377 79.3221 86.725 78.7869 86.6682 78.382L84.1362 75.7957H84.1274Z" fill="#FBC80F"/>
<path d="M86.0121 64.5734H86.9071L87.1166 64.8208L87.9286 64.0786L87.4833 63.5524H86.632L87.0642 63.1161H84.423C84.017 63.1161 83.1395 63.1071 83.205 62.6123C82.9081 63.2105 83.2792 63.6109 83.8773 63.6783C83.7201 63.8942 83.122 64.1461 82.9867 63.8582C82.9605 64.2676 83.3665 64.3215 83.3665 64.3215C83.3665 64.3215 82.8863 64.8883 82.5327 65.5495C82.1791 64.8883 81.6988 64.3215 81.6988 64.3215C81.6988 64.3215 82.1092 64.272 82.083 63.8582C81.9477 64.1506 81.3496 63.8942 81.188 63.6783C81.7905 63.6153 82.1572 63.2105 81.8604 62.6123C81.9258 63.1071 81.0483 63.1161 80.6423 63.1161H78.0011L78.4333 63.5524H77.582L77.1367 64.0786L77.9487 64.8208L78.1583 64.5734H79.0532C79.0794 64.6004 79.1056 64.6229 79.1275 64.6454C79.1493 64.6679 79.1668 64.6859 79.1886 64.7039C78.4988 64.7533 77.7043 65.5 77.4161 64.9647C77.5907 65.6169 78.2456 65.527 78.6472 65.2841C78.6472 65.2841 78.5818 65.4865 78.7433 65.6439C78.7695 65.2481 79.7256 65.374 79.7256 65.374C80.232 65.9498 80.411 66.8179 80.0923 67.5735L80.6642 67.2182C80.686 67.3981 80.7078 67.6545 80.6947 67.9199H80.8737C80.8825 67.713 80.8737 67.4791 80.8432 67.2272L81.0964 66.8539C81.2011 67.2497 81.2317 67.6275 81.2317 67.9199H81.6726C81.6595 67.5735 81.6115 67.1867 81.5897 67.0383L81.8123 66.7549C81.8123 66.7549 81.9739 67.3037 82.0044 67.9199H82.4279C82.393 67.5466 82.3319 67.2047 82.2969 67.0158L82.5327 66.9708L82.7684 67.0158C82.7335 67.2002 82.6724 67.5421 82.6374 67.9199H83.0609C83.0958 67.3037 83.253 66.7549 83.253 66.7549L83.4757 67.0383C83.4538 67.1867 83.4058 67.5735 83.3927 67.9199H83.8293C83.8293 67.623 83.8598 67.2497 83.9646 66.8539L84.2178 67.2272C84.1873 67.4836 84.1785 67.713 84.1873 67.9199H84.3663C84.3532 67.6545 84.3706 67.3981 84.3968 67.2182L84.9687 67.5735C84.65 66.8179 84.829 65.9498 85.3354 65.374C85.3354 65.374 86.2915 65.2481 86.3177 65.6439C86.4792 65.491 86.4137 65.2841 86.4137 65.2841C86.8154 65.527 87.4702 65.6169 87.6449 64.9647C87.3567 65.5 86.5622 64.7533 85.8724 64.7039C85.8899 64.6859 85.9117 64.6634 85.9335 64.6454C85.9553 64.6229 85.9815 64.6004 86.0077 64.5734M79.0009 63.8852L78.7346 63.6198H79.8696L79.0009 63.8852ZM85.2045 63.6198H86.3395L86.0732 63.8852L85.2045 63.6198Z" fill="#FBC80F"/>
<path d="M92.4704 68.851C92.4704 68.851 93.4439 68.2123 93.3173 66.8989C93.3173 66.8989 91.8592 67.7715 89.5977 68.0189L89.6458 67.5421C91.5186 67.1373 92.8894 66.1882 92.8894 66.1882C92.8894 66.1882 93.6054 65.0637 92.9811 63.7863C92.9811 63.7863 91.7762 65.464 89.5759 66.53L89.5672 66.4896C89.5454 66.3096 89.5148 66.1477 89.4755 65.9948C89.5759 65.9363 91.4619 64.7534 92.2171 63.3095C92.2171 63.3095 92.4747 61.8027 91.344 60.9121C90.9336 62.5539 89.9688 63.9392 89.0695 64.9468C88.8905 64.6409 88.7333 64.488 88.7333 64.488C88.5587 65.2301 88.061 66.0668 87.1748 66.7055C87.3887 66.9574 87.5284 67.2722 87.5677 67.6275C87.6638 68.5631 87.0089 69.0084 86.1009 69.1074C85.9088 69.1299 85.7254 69.4987 85.5508 69.4582C85.5508 69.4582 85.6861 71.8961 85.7647 71.8871C86.1794 71.8376 86.8779 71.5723 87.0569 71.4688C87.3844 72.4269 87.8297 73.304 87.8297 73.304C87.8297 73.304 88.6897 73.5379 89.3707 73.0521C89.3707 73.0521 88.4408 72.121 87.7292 71.0685L87.9956 70.8751C88.7246 71.7657 89.6196 72.4808 89.6196 72.4808C89.6196 72.4808 90.6542 72.5798 91.1039 71.7252C91.1039 71.7252 89.7898 71.2079 88.5413 70.3218L88.7683 70.034C90.0081 70.7176 91.2174 71.055 91.2174 71.055C91.2174 71.055 92.3394 70.92 92.5839 69.5977C92.5839 69.5977 90.9773 69.7506 89.2179 69.2738L89.3795 68.8825C90.8682 69.1658 92.4704 68.8465 92.4704 68.8465" fill="#FBC80F"/>
<path d="M86.6445 62.8329C87.3256 62.8329 87.4653 62.1357 87.3998 61.8028C87.3736 61.6814 87.3518 61.5689 87.3518 61.479C87.3518 61.4295 87.3561 61.38 87.3911 61.3575C87.5002 61.2856 87.7796 61.3126 88.059 61.5464C88.2293 61.6904 88.3646 61.8928 88.286 62.0412C88.2336 62.1402 88.142 62.2121 88.0415 62.2841C87.928 62.3696 87.8102 62.4595 87.749 62.59C87.6486 62.8104 87.8669 63.5165 88.4388 63.719C88.5349 63.7504 88.4519 63.5031 88.548 63.3636C88.6615 63.2017 88.9321 63.1387 88.8099 63.1027C88.727 63.0802 88.4868 62.9543 88.4606 62.8014C88.4388 62.6574 88.6615 62.4685 88.8186 62.3426L88.8841 62.2886C89.0675 62.1357 89.098 62.0052 89.0893 61.9198C89.0806 61.8433 89.0369 61.7309 88.8623 61.6409C88.8492 61.6364 88.8361 61.6274 88.823 61.6229C88.823 61.6229 88.7881 61.6049 88.6658 61.5464C88.3995 61.4205 88.1943 61.1956 88.0328 61.0112C87.9979 60.9752 87.9717 60.9392 87.9411 60.9077C87.8014 60.7548 87.6574 60.8088 87.5046 60.8628C87.4085 60.8987 87.3038 60.9392 87.1684 60.9482C87.1422 60.9482 86.9938 60.9662 86.9938 60.9662C86.937 60.9797 86.889 61.0022 86.8497 61.0427C86.7886 61.1056 86.758 61.2046 86.7711 61.326C86.7886 61.47 86.8454 61.6319 86.9065 61.8073C87.0287 62.1627 87.0505 62.7474 86.6489 62.8329" fill="#FBC80F"/>
<path d="M76.2001 62.2886L76.2612 62.3426C76.4184 62.4685 76.641 62.6574 76.6192 62.8014C76.5974 62.9543 76.3529 63.0802 76.2699 63.1027C76.1433 63.1387 76.4184 63.2017 76.5275 63.3636C76.6235 63.5031 76.5406 63.7504 76.6366 63.719C77.2042 63.5165 77.4268 62.8104 77.3264 62.59C77.2653 62.455 77.1474 62.3696 77.0339 62.2841C76.9335 62.2076 76.8375 62.1357 76.7851 62.0412C76.7109 61.8973 76.8418 61.6904 77.0121 61.5464C77.2915 61.3126 77.5665 61.2856 77.68 61.3575C77.715 61.38 77.7193 61.4295 77.7193 61.479C77.7193 61.5689 77.6975 61.6814 77.6713 61.8028C77.6015 62.1357 77.7455 62.8329 78.4222 62.8329C78.0206 62.7474 78.0424 62.1627 78.1646 61.8073C78.2257 61.6319 78.2869 61.4655 78.3 61.326C78.3131 61.2046 78.2869 61.1101 78.2214 61.0427C78.1865 61.0022 78.1341 60.9842 78.0773 60.9707C78.0773 60.9707 77.9332 60.9527 77.9071 60.9482C77.7717 60.9392 77.6626 60.8987 77.5665 60.8628C77.4137 60.8088 77.2697 60.7548 77.13 60.9077C77.1038 60.9392 77.0688 60.9707 77.0383 61.0112C76.8768 61.1911 76.6716 61.4205 76.4053 61.5464C76.283 61.6049 76.2525 61.6184 76.2525 61.6184C76.2525 61.6184 76.2263 61.6319 76.2088 61.6364C76.0342 61.7264 75.9905 61.8343 75.9818 61.9153C75.9731 62.0007 76.0036 62.1312 76.187 62.2841" fill="#FBC80F"/>
<path d="M82.2486 61.5781H81.6243C81.5588 62.1359 81.3449 62.4912 81 62.7161C81.6025 62.6846 82.0827 62.1629 82.2529 61.5781" fill="#FBC80F"/>
<path d="M83.4524 61.5781H82.8281C82.994 62.1629 83.4786 62.6846 84.0811 62.7161C83.7318 62.4912 83.5179 62.1359 83.4524 61.5781Z" fill="#FBC80F"/>
<path d="M82.5291 61.1958H83.4634C83.5725 61.0518 83.9087 60.575 83.9087 60.0983C83.9087 59.9003 83.8257 59.7339 83.6511 59.59C83.5682 59.5225 83.3717 59.3966 83.005 59.3291L82.5422 60.1252L82.0795 59.3291C81.7128 59.3921 81.5163 59.518 81.4334 59.59C81.2587 59.7294 81.1758 59.8958 81.1758 60.0983C81.1758 60.5705 81.5076 61.0518 81.6211 61.1958H82.5335H82.5291Z" fill="#FBC80F"/>
<path d="M82.9699 58.5868C82.9699 58.5868 82.804 58.335 82.5377 58.335C82.2714 58.335 82.1055 58.5868 82.1055 58.5868L82.5377 59.401L82.9699 58.5868Z" fill="#FBC80F"/>
<path d="M85.3476 62.7158H86.116C86.2077 62.5944 86.4783 62.2031 86.4783 61.8162C86.4783 61.6543 86.4085 61.5149 86.2688 61.3979C86.1989 61.3395 86.0374 61.236 85.7362 61.1865L85.3563 61.8432L84.9765 61.1865C84.6753 61.2405 84.5138 61.344 84.4439 61.3979C84.3042 61.5149 84.2344 61.6498 84.2344 61.8162C84.2344 62.2076 84.5094 62.5989 84.5967 62.7158H85.3476Z" fill="#FBC80F"/>
<path d="M85.6721 60.6786C85.6721 60.6786 85.5542 60.4941 85.3578 60.4941C85.1613 60.4941 85.0391 60.6786 85.0391 60.6786L85.3578 61.2723L85.6721 60.6786Z" fill="#FBC80F"/>
<path d="M80.0354 60.6786C80.0354 60.6786 79.9175 60.4941 79.7167 60.4941C79.5159 60.4941 79.4023 60.6786 79.4023 60.6786L79.7167 61.2723L80.0354 60.6786Z" fill="#FBC80F"/>
<path d="M79.7109 62.7158H80.4793C80.5709 62.5944 80.846 62.2031 80.846 61.8162C80.846 61.6498 80.7761 61.5149 80.6321 61.3979C80.5622 61.3395 80.4007 61.2405 80.0994 61.1865L79.7196 61.8432L79.3398 61.1865C79.0386 61.2405 78.8771 61.344 78.8072 61.3979C78.6631 61.5149 78.5977 61.6498 78.5977 61.8162C78.5977 62.2076 78.8727 62.5989 78.9644 62.7158H79.7153H79.7109Z" fill="#FBC80F"/>
<path d="M72.611 68.8514C72.611 68.8514 74.2132 69.1707 75.7019 68.8874L75.8635 69.2787C74.1041 69.7555 72.4975 69.6025 72.4975 69.6025C72.742 70.9249 73.864 71.0599 73.864 71.0599C73.864 71.0599 75.0733 70.718 76.3131 70.0388L76.5401 70.3267C75.2916 71.2128 73.9775 71.7301 73.9775 71.7301C74.4272 72.5847 75.4618 72.4857 75.4618 72.4857C75.4618 72.4857 76.3568 71.7705 77.0858 70.88L77.3478 71.0734C76.6362 72.1259 75.7107 73.057 75.7107 73.057C76.3917 73.5382 77.2517 73.3088 77.2517 73.3088C77.2517 73.3088 77.697 72.4317 78.0245 71.4737C78.2078 71.5771 78.9063 71.8425 79.3211 71.892C79.3953 71.901 79.535 69.4631 79.535 69.4631C79.3603 69.5036 79.177 69.1347 78.9849 69.1123C78.0768 69.0133 77.422 68.5635 77.518 67.6324C77.5573 67.2771 77.697 66.9622 77.911 66.7104C77.0247 66.0716 76.527 65.235 76.3524 64.4929C76.3524 64.4929 76.1952 64.6458 76.0163 64.9517C75.1169 63.9441 74.1521 62.5587 73.7417 60.917C72.611 61.8076 72.8686 63.3144 72.8686 63.3144C73.6239 64.7582 75.5098 65.9412 75.6102 65.9997C75.571 66.1526 75.5448 66.319 75.5186 66.4945L75.5098 66.5349C73.3139 65.4689 72.1046 63.7912 72.1046 63.7912C71.4803 65.0686 72.1963 66.1931 72.1963 66.1931C72.1963 66.1931 73.5671 67.1467 75.44 67.547L75.488 68.0238C73.231 67.7764 71.7685 66.9038 71.7685 66.9038C71.6462 68.2172 72.6154 68.8559 72.6154 68.8559" fill="#FBC80F"/>
<path d="M76.8611 77.5045C77.062 77.3246 77.9438 76.5644 78.6947 76.4924C78.3804 75.0351 79.0789 74.4909 79.6464 75.1566C79.8429 75.3905 79.9302 75.6423 79.9651 75.8582L80.6549 75.8717L80.7029 72.9571L79.2535 72.9346C79.3015 73.0695 79.3146 73.155 79.3146 73.155C78.1359 73.1145 77.6513 73.4968 77.5116 74.0051C77.5116 74.0051 77.5073 74.0276 77.5029 74.0411C77.5029 74.0591 77.4985 74.0726 77.4942 74.086C77.4898 74.1175 77.4811 74.149 77.4767 74.185C77.4767 74.194 77.4767 74.203 77.4767 74.212C77.4112 74.8372 77.6732 75.7548 77.3152 75.8088C77.4811 75.9212 77.7081 75.8537 77.8347 75.6783C77.9307 75.8807 78.0617 76.0921 78.1403 76.2091C77.8609 76.3395 77.4549 76.452 77.1798 76.4475C76.7433 76.4475 76.3722 76.317 75.9836 75.8267C75.7392 75.5254 75.4729 75.4174 75.2197 75.8178C74.6521 75.2375 74.2112 74.7832 74.2112 74.7832C74.2112 74.7158 74.1937 74.6438 74.1457 74.5898C74.7394 73.9466 74.1326 73.038 73.6131 73.0155C73.4297 73.0065 73.8008 73.6452 73.469 73.7532C73.3119 73.8027 73.1765 73.4968 73.4123 73.3574C73.1241 73.3034 72.7923 73.5823 72.9757 73.7667C72.7967 73.5823 72.5217 73.9196 72.5741 74.221C72.7138 73.9781 73.0063 74.1175 72.9582 74.284C72.8535 74.6258 72.2335 74.239 72.2423 74.4279C72.2641 74.9631 73.1372 75.5884 73.7703 74.9856C73.8183 75.0306 73.8881 75.0531 73.958 75.0531C73.958 75.0531 74.364 75.4939 74.901 76.0651H74.8966C74.7438 76.1686 74.6434 76.4745 74.9228 76.6994C74.7831 77.1941 75.1629 77.6754 76.4333 77.7114C76.9354 78.2556 77.3239 78.674 77.3545 78.7009C77.4854 78.8359 77.5858 78.8674 77.6426 78.8584C77.6906 78.8494 77.7386 78.8269 77.7736 78.7864C77.8129 78.7459 77.839 78.6964 77.8478 78.647C77.8609 78.5885 77.8216 78.4715 77.6994 78.3456C77.6775 78.3231 77.3326 77.9723 76.8699 77.4955" fill="#FBC80F"/>
<path d="M90.1485 75.4489L89.9389 75.8447L89.6028 76.479L89.2666 75.8447L89.0527 75.4489C88.5987 75.6513 88.28 76.1056 88.245 76.6409C87.9438 76.5014 87.2846 76.281 86.979 76.2001C86.979 76.2001 87.1143 75.9932 87.2628 75.6828C87.3937 75.8582 87.6207 75.9257 87.7823 75.8133C87.4243 75.7638 87.6819 74.8417 87.6208 74.2165C87.6208 74.2075 87.6208 74.1985 87.6208 74.1895C87.6164 74.1535 87.612 74.122 87.6077 74.0905C87.6077 74.0725 87.5989 74.0591 87.5946 74.0456C87.5946 74.0321 87.5946 74.0186 87.5858 74.0051C87.4461 73.5013 86.9659 73.1145 85.7828 73.155C85.7828 73.155 85.7959 73.0695 85.8439 72.9346L84.3945 72.9571L84.4426 75.8717L85.128 75.8582C85.1629 75.6423 85.2458 75.3905 85.4466 75.1566C86.0142 74.4909 86.7127 75.0351 86.3984 76.4924C87.6382 76.6724 88.197 77.5 88.3804 77.8059C88.7209 78.3906 89.546 78.7819 89.8603 78.1702C90.1965 78.3366 90.9648 77.9588 90.812 77.374C90.812 77.374 90.812 77.374 90.812 77.3695C90.9081 77.1761 90.9692 76.9602 90.9692 76.7263C90.9692 76.1506 90.6331 75.6603 90.1572 75.4444" fill="#FBC80F"/>
<path d="M90.0613 74.7796C90.0613 74.7796 89.8867 74.5098 89.6029 74.5098C89.3192 74.5098 89.1445 74.7796 89.1445 74.7796L89.6029 75.6433L90.0613 74.7796Z" fill="#FBC80F"/>
<path d="M72.7994 73.1781C72.8954 73.2816 72.8911 73.448 72.7907 73.547C72.6902 73.6459 72.5287 73.6459 72.4327 73.538C72.3366 73.4345 72.341 73.2681 72.4414 73.1691C72.5418 73.0702 72.7033 73.0747 72.7994 73.1781Z" fill="#FBC80F"/>
<path d="M72.7334 73.5376C72.812 73.6186 72.8076 73.749 72.729 73.83C72.6504 73.911 72.5238 73.9065 72.4452 73.8255C72.371 73.7445 72.371 73.6141 72.454 73.5331C72.5326 73.4522 72.6592 73.4567 72.7377 73.5376" fill="#FBC80F"/>
<path d="M73.0602 73.2183C73.1345 73.2993 73.1345 73.4297 73.0515 73.5107C72.9729 73.5916 72.8463 73.5871 72.7677 73.5062C72.6892 73.4252 72.6935 73.2948 72.7721 73.2138C72.8507 73.1328 72.9773 73.1373 73.0559 73.2183" fill="#FBC80F"/>
<path d="M86.2061 69.8088C83.2767 70.3216 79.9414 73.0068 78.9766 75.5122C79.2996 76.1284 79.9326 76.2364 80.6006 76.2364H81.2336C81.6309 76.2364 81.9277 76.3398 82.1242 76.5512C82.1853 76.5872 82.2421 76.6322 82.2988 76.6817C82.3207 76.7042 82.3425 76.7222 82.3599 76.7446C82.3687 76.7536 82.373 76.7581 82.3774 76.7626C82.4036 76.7941 82.4298 76.8256 82.456 76.8616C82.5171 76.7986 82.5826 76.7446 82.6568 76.6997C82.7179 76.6592 82.779 76.6277 82.8445 76.6007C83.041 76.3578 83.3553 76.2319 83.7788 76.2319H84.4118C85.2195 76.2319 85.9747 76.0699 86.1974 75.0399C86.1974 74.9724 86.2017 74.9005 86.2017 74.824V69.7998L86.2061 69.8088Z" fill="#DE2427"/>
<path d="M81.7414 67.0654C80.3793 67.5557 79.2573 68.4508 78.7422 69.7507V74.3656C78.7422 74.8694 78.8251 75.2427 78.9692 75.5126C79.9253 73.0297 83.2039 70.3759 86.1114 69.8272C86.142 69.8227 86.1725 69.8137 86.1987 69.8092V67.1689C86.0459 67.1329 85.8931 67.0969 85.7403 67.0654H81.737H81.7414Z" fill="#2C4592"/>
<path d="M78.7461 71.1175C79.5232 69.0844 81.3262 67.735 83.4916 67.0693H80.1649C79.6891 67.1503 79.2176 67.2448 78.7461 67.3572V71.122V71.1175Z" fill="#FEFEFE"/>
<path d="M86.4492 68.4147V69.0669C86.7766 69.0084 87.2438 68.9499 87.7764 68.9274L86.9644 68.5046C86.9644 68.5046 86.5977 68.4281 86.4492 68.4102" fill="#B62C2A"/>
<path d="M78.6319 68.4147V69.0669C78.3044 69.0084 77.8373 68.9499 77.3047 68.9274L78.1167 68.5046C78.1167 68.5046 78.4834 68.4281 78.6319 68.4102" fill="#B62C2A"/>
<path d="M86.4767 66.6787H78.6055V74.5591C78.6055 76.1154 79.3389 76.4348 80.439 76.4348H81.1376C81.8142 76.4348 82.2726 76.6912 82.4953 77.2039L82.5433 77.3119L82.5913 77.2039C82.814 76.6956 83.268 76.4348 83.949 76.4348H84.6475C85.7477 76.4348 86.4811 76.1154 86.4811 74.5591V66.6787H86.4767ZM86.1842 74.5456C86.1842 75.8995 85.6036 76.1649 84.5995 76.1649H83.9097C83.3553 76.1649 82.9231 76.3268 82.6306 76.6507L82.5258 76.7631L82.4211 76.6507C82.1286 76.3313 81.6964 76.1649 81.1419 76.1649H80.4521C79.448 76.1649 78.8674 75.8995 78.8674 74.5456V66.9666H86.1886V74.5456H86.1842Z" fill="#FBC80F"/>
<path fill-rule="evenodd" clip-rule="evenodd" d="M80.4648 70.299C80.5346 70.3619 80.5696 70.7533 80.6001 70.9422C80.6001 70.9422 80.491 70.9692 80.5128 71.0366C80.5172 71.0591 80.5521 71.1446 80.5565 71.1716C80.5565 71.2031 80.5346 71.2525 80.539 71.2615C80.5521 71.3425 80.5827 71.4325 80.6176 71.4909C80.6394 71.5314 80.6787 71.5224 80.6831 71.5449C80.8359 72.0937 81.1196 72.0937 81.1196 72.0937V72.3096C81.0061 72.4715 80.801 72.7773 80.8577 72.8358C80.9014 72.8808 80.9319 72.8988 80.9276 72.9348C80.9276 72.9438 80.9014 72.9797 80.8446 73.0157C80.814 73.0382 80.814 73.1417 80.8708 73.1642C80.9232 73.1822 81.0105 73.1912 81.0978 73.1867L81.0061 75.2602C81.0061 75.2872 80.9887 75.3457 80.9407 75.3007C80.8795 75.2422 80.8053 75.1478 80.7224 75.0218C80.6525 74.9139 80.6263 74.9633 80.6176 75.0218C80.6045 75.1208 80.6132 75.2557 80.6394 75.3232C80.67 75.4131 80.8184 75.5346 80.9756 75.5931C81.1065 75.6425 81.1109 75.5571 81.1196 75.3097C81.1196 75.1972 81.1764 74.0952 81.2244 73.1642C81.2419 73.1597 81.2593 73.1552 81.2768 73.1462C81.4252 73.0742 81.5911 72.8628 81.6959 72.6919C81.7439 72.8313 81.7396 73.1417 81.8007 73.2136C81.8836 73.3171 81.9186 73.2811 81.9928 73.488C82.0102 73.5375 82.1849 73.6005 82.2591 73.7309C82.425 74.0188 82.9969 74.3606 83.1759 74.4371C83.237 74.4596 83.3068 74.3966 83.3374 74.4821C83.3811 74.608 83.3985 74.5945 83.4553 74.617C83.5164 74.6395 83.5164 74.8104 83.6124 74.8824C83.7172 74.9588 83.822 74.9184 83.9137 74.9588C84.001 74.9993 84.1058 75.1343 84.1232 75.1253C84.1407 75.1118 84.0665 74.9948 84.0228 74.8869C84.0053 74.8464 84.0097 74.7924 84.0228 74.7474C84.0708 74.4641 83.7565 74.3111 83.7128 74.1852C83.6386 73.9783 83.6037 74.0952 83.5382 73.9963C83.3636 73.7309 83.2195 73.443 83.0056 73.2721C82.9576 73.2316 82.9008 73.2361 82.8877 73.2181C82.8572 73.1777 82.8615 73.1012 82.7699 72.9663C82.748 72.9348 82.8048 72.8178 82.7611 72.7459C82.7393 72.7054 82.7175 72.6739 82.7131 72.5839C82.7087 72.323 82.7393 72.485 82.7961 72.6064C82.8746 72.7728 82.9838 73.0202 83.0405 73.0697C83.0711 73.1012 83.1278 73.0562 83.154 73.1012C83.3025 73.3441 83.4553 73.4925 83.5469 73.5555C83.5862 73.587 83.6081 73.7129 83.7347 73.9018C83.9966 74.2886 84.276 74.4731 84.3502 74.6755C84.4288 74.8869 84.503 74.8374 84.5729 74.9454C84.6427 75.0533 84.7388 75.1568 84.8174 75.1657C84.8959 75.1747 84.9265 75.1388 84.9876 75.1478C85.0575 75.1613 85.2365 75.3052 85.2496 75.2962C85.2627 75.2872 85.1273 75.0803 85.1317 75.0308C85.1404 74.9544 85.1797 74.8734 85.1535 74.8104C85.1099 74.7025 84.9702 74.6665 84.8043 74.5001C84.7213 74.4146 84.7431 74.3381 84.7169 74.2617C84.6165 73.9963 84.5423 73.6589 84.3197 73.3351C84.2411 73.2226 84.1843 73.1912 84.1756 73.0967C84.1538 72.8718 84.0446 72.7279 84.0315 72.6559C84.0184 72.5884 84.1101 72.485 84.0796 72.422C83.9879 72.2241 83.8045 71.8598 83.6474 71.2885C83.6081 71.1536 83.3898 71.0591 83.3898 70.9377C83.3898 70.8252 83.2108 70.7488 83.2108 70.7353C83.2632 70.4564 83.237 70.308 83.2152 70.2135C83.1628 69.9796 82.8877 69.7502 82.4599 69.4399C82.4774 69.3184 82.5341 69.0171 82.5079 68.9361C82.4992 68.9046 82.4686 68.8956 82.4643 68.8641C82.4512 68.7517 82.4031 68.6302 82.3726 68.5987C82.3289 68.5493 82.2984 68.5718 82.2198 68.5718C82.1674 68.5718 82.0975 68.5628 82.0626 68.5358C81.9622 68.4683 81.8356 68.4773 81.6915 68.6797C81.6697 68.7112 81.6304 68.7202 81.613 68.7607C81.5911 68.8281 81.5649 68.9091 81.5562 69.0081C81.5387 69.152 81.5562 69.179 81.5475 69.224C81.3816 69.2195 81.1633 69.224 81.0978 69.2689C80.6525 69.6063 80.3906 70.2225 80.4604 70.2855M81.124 70.9647C81.124 70.8477 81.1633 70.6273 81.1633 70.6273C81.172 70.8342 81.4121 71.5539 81.4121 71.5539C81.4121 71.5539 81.2026 71.23 81.1808 71.1986C81.1589 71.1626 81.1677 71.0456 81.1589 71.0276C81.1458 71.0051 81.124 70.9962 81.124 70.9692V70.9647Z" fill="#FEFEFE"/>
<path d="M87.7779 68.9275C84.4382 67.641 80.6444 67.641 77.3047 68.9275C77.6452 67.8434 77.3047 66.9843 77.3047 66.9843C80.6444 65.6979 84.4382 65.6979 87.7779 66.9843C87.7779 66.9843 87.3413 67.776 87.7779 68.9275Z" fill="#E01F25"/>
<path d="M78.3587 67.6316C78.4285 67.4651 78.5027 67.2987 78.5726 67.1323C78.5726 67.1233 78.5726 67.1098 78.5682 67.1008C78.5595 67.0963 78.5508 67.0918 78.542 67.0918C78.5027 67.1053 78.4591 67.1188 78.4198 67.1278C78.4111 67.1278 78.4067 67.1368 78.4023 67.1458C78.3587 67.2582 78.3107 67.3707 78.267 67.4876L78.136 67.2447C78.136 67.2447 78.1142 67.2267 78.1055 67.2312C78.0662 67.2447 78.0269 67.2582 77.9876 67.2717C77.9789 67.2717 77.9745 67.2807 77.9701 67.2897C77.9701 67.2942 77.9701 67.3077 77.9701 67.3122C78.04 67.4291 78.1098 67.5506 78.184 67.6675C78.1055 67.852 78.0312 68.0319 77.957 68.2118C77.957 68.2208 77.957 68.2343 77.957 68.2433C77.9614 68.2478 77.9701 68.2523 77.9789 68.2523C77.9789 68.2523 77.9832 68.2523 77.9876 68.2523C78.0269 68.2388 78.0662 68.2253 78.1055 68.2118C78.1142 68.2118 78.1186 68.2028 78.1229 68.1983C78.1753 68.0724 78.2233 67.9419 78.2757 67.816C78.3237 67.9059 78.3761 67.9959 78.4242 68.0858C78.4285 68.0948 78.4416 68.1038 78.4547 68.0993C78.494 68.0858 78.5333 68.0768 78.577 68.0634C78.5857 68.0634 78.5901 68.0544 78.5944 68.0499C78.5944 68.0409 78.5944 68.0319 78.5944 68.0274C78.5158 67.8969 78.4416 67.762 78.363 67.6361" fill="#FEFEFE"/>
<path d="M79.1923 67.0067C79.1661 66.9842 79.1312 66.9662 79.0919 66.9617C79.0526 66.9527 79.009 66.9617 78.9609 66.9707C78.9042 66.9842 78.8605 67.0067 78.8256 67.0337C78.7907 67.0607 78.7601 67.0922 78.7339 67.1282C78.7121 67.1641 78.6946 67.2001 78.6815 67.2406C78.6684 67.2766 78.6641 67.3126 78.6641 67.3486V67.7174C78.6641 67.7624 78.6684 67.7984 78.6815 67.8343C78.6903 67.8703 78.7121 67.9018 78.7383 67.9243C78.7645 67.9468 78.795 67.9648 78.8343 67.9738C78.8474 67.9738 78.8605 67.9738 78.8736 67.9738C78.8998 67.9738 78.9347 67.9693 78.9697 67.9603C79.0133 67.9468 79.0526 67.9333 79.0875 67.9108C79.1225 67.8883 79.153 67.8568 79.1792 67.8253C79.2054 67.7939 79.2272 67.7579 79.2403 67.7174C79.2578 67.6769 79.2622 67.6319 79.2622 67.5869V67.2001C79.2622 67.1641 79.2578 67.1282 79.2447 67.0967C79.2316 67.0607 79.2141 67.0337 79.1879 67.0112M79.1006 67.2316V67.6274C79.1006 67.6274 79.1006 67.6679 79.0875 67.6904C79.0788 67.7129 79.0701 67.7264 79.057 67.7444C79.0439 67.7624 79.0308 67.7714 79.0133 67.7849C78.9959 67.7939 78.9784 67.8028 78.9609 67.8073C78.9347 67.8118 78.9129 67.8163 78.8954 67.8073C78.878 67.8073 78.8649 67.7984 78.8562 67.7894C78.8474 67.7804 78.8387 67.7669 78.8343 67.7489C78.8343 67.7309 78.8256 67.7084 78.8256 67.6859V67.3216C78.8256 67.3216 78.8256 67.2856 78.83 67.2676C78.83 67.2496 78.8431 67.2316 78.8518 67.2136C78.8649 67.1956 78.878 67.1776 78.8954 67.1641C78.9173 67.1461 78.9391 67.1372 78.9653 67.1282C78.9784 67.1282 78.9959 67.1237 79.0046 67.1237C79.0133 67.1237 79.0221 67.1237 79.0308 67.1237C79.0482 67.1282 79.0613 67.1372 79.0701 67.1506C79.0788 67.1596 79.0875 67.1731 79.0919 67.1866C79.0919 67.2046 79.1006 67.2181 79.1006 67.2271V67.2316Z" fill="#FEFEFE"/>
<path d="M79.9196 67.281C79.9196 67.281 79.889 67.2495 79.8715 67.2405C79.889 67.227 79.8977 67.209 79.9108 67.191C79.9327 67.155 79.9501 67.11 79.9632 67.0606L80.0374 66.7772C80.0374 66.7772 80.0374 66.7592 80.0331 66.7502C80.0243 66.7457 80.0156 66.7412 80.0069 66.7412C79.9719 66.7502 79.937 66.7547 79.8977 66.7637C79.889 66.7637 79.8803 66.7727 79.8759 66.7817L79.8017 67.0651C79.793 67.0921 79.7799 67.119 79.7711 67.137C79.7624 67.155 79.7493 67.1685 79.7362 67.1775C79.7231 67.1865 79.71 67.1955 79.6969 67.2C79.6838 67.2045 79.6707 67.209 79.6576 67.2135C79.6358 67.218 79.614 67.2225 79.5878 67.2315V66.8627C79.5878 66.8627 79.5878 66.8447 79.579 66.8402C79.5747 66.8357 79.5659 66.8357 79.5572 66.8357C79.5179 66.8447 79.483 66.8537 79.4437 66.8627C79.4306 66.8627 79.4219 66.8762 79.4219 66.8896V67.8117C79.4219 67.8117 79.4219 67.8297 79.4306 67.8342C79.4306 67.8342 79.4393 67.8387 79.4481 67.8387H79.4524C79.4917 67.8297 79.5267 67.8207 79.5659 67.8162C79.579 67.8162 79.5878 67.7982 79.5878 67.7892V67.3889C79.614 67.3844 79.6445 67.3754 79.6751 67.3709C79.6925 67.3709 79.7056 67.3664 79.7231 67.3664C79.7362 67.3664 79.7449 67.3664 79.758 67.3754C79.7668 67.3754 79.7799 67.3889 79.7886 67.4024C79.7973 67.4159 79.8104 67.4384 79.8148 67.4609L79.889 67.7218C79.889 67.7218 79.9065 67.7443 79.9196 67.7398C79.9589 67.7308 79.9981 67.7263 80.0374 67.7173C80.0418 67.7173 80.0505 67.7083 80.0549 67.7038C80.0549 67.6993 80.0593 67.6903 80.0549 67.6813L79.9763 67.4024C79.9632 67.3574 79.9458 67.3169 79.9239 67.2855" fill="#FEFEFE"/>
<path d="M80.6696 67.1593C80.6696 67.1593 80.639 67.1233 80.6172 67.1143C80.6303 67.1008 80.6434 67.0828 80.6565 67.0648C80.6783 67.0288 80.6958 66.9884 80.7088 66.9389L80.7831 66.66C80.7831 66.66 80.7831 66.642 80.7787 66.633C80.7787 66.6285 80.7656 66.624 80.7569 66.624C80.7219 66.6285 80.6827 66.633 80.6477 66.6375C80.6346 66.6375 80.6303 66.6465 80.6259 66.6555L80.5517 66.9299C80.543 66.9614 80.5342 66.9839 80.5211 67.0018C80.5124 67.0198 80.4993 67.0333 80.4862 67.0423C80.4731 67.0513 80.46 67.0603 80.4469 67.0603C80.4294 67.0648 80.4163 67.0693 80.4076 67.0693C80.3858 67.0693 80.3596 67.0783 80.3378 67.0783V66.7095C80.3378 66.7095 80.3378 66.696 80.329 66.687C80.3247 66.6825 80.3159 66.678 80.3072 66.6825C80.2679 66.687 80.2286 66.696 80.1937 66.7005C80.1806 66.7005 80.1719 66.714 80.1719 66.7275V67.6496C80.1719 67.6496 80.1719 67.6675 80.1806 67.672C80.1806 67.6765 80.1937 67.6765 80.1981 67.6765C80.2374 67.6675 80.2766 67.663 80.3116 67.6541C80.3247 67.6541 80.3334 67.6406 80.3334 67.6271V67.2312L80.4164 67.2178C80.4164 67.2178 80.4425 67.2178 80.4556 67.2178H80.46C80.46 67.2178 80.4818 67.2178 80.4949 67.2267C80.5037 67.2267 80.5168 67.2402 80.5255 67.2537C80.5342 67.2672 80.543 67.2897 80.5517 67.3122L80.6259 67.5821C80.6259 67.5821 80.6434 67.6001 80.6521 67.6001C80.6914 67.5956 80.7307 67.5911 80.77 67.5821C80.7787 67.5821 80.7874 67.5776 80.7918 67.5686C80.7918 67.5641 80.7962 67.5551 80.7918 67.5461L80.7132 67.2627C80.7001 67.2133 80.6827 67.1773 80.6608 67.1458" fill="#FEFEFE"/>
<path d="M81.4501 66.5481C81.2799 66.5616 81.1096 66.5796 80.9437 66.5976C80.9306 66.5976 80.9219 66.6111 80.9219 66.6246V67.5467C80.9219 67.5467 80.9219 67.5602 80.9306 67.5692C80.935 67.5692 80.9393 67.5737 80.9481 67.5737C81.114 67.5557 81.2842 67.5377 81.4545 67.5242C81.4676 67.5242 81.4763 67.5107 81.4763 67.4972V67.3893C81.4763 67.3893 81.4763 67.3758 81.4676 67.3713C81.4676 67.3668 81.4545 67.3623 81.4501 67.3668C81.3279 67.3758 81.2056 67.3848 81.0834 67.3982V67.1419C81.1882 67.1284 81.293 67.1194 81.3977 67.1104C81.4108 67.1104 81.4239 67.0969 81.4239 67.0834V66.9844C81.4239 66.9844 81.4239 66.9664 81.4152 66.9664C81.4108 66.9619 81.4021 66.9574 81.3934 66.9574C81.2929 66.9664 81.1882 66.9754 81.0834 66.9889V66.7415C81.2056 66.7281 81.3322 66.7191 81.4545 66.7056C81.4676 66.7056 81.4763 66.6921 81.4763 66.6786V66.5751C81.4763 66.5751 81.4763 66.5616 81.4676 66.5526C81.4676 66.5526 81.4545 66.5436 81.4501 66.5481Z" fill="#FEFEFE"/>
<path d="M82.2307 66.5074C82.1914 66.5074 82.1565 66.5074 82.1172 66.5074C82.1084 66.5074 82.0997 66.5119 82.0953 66.5209C82.0211 66.6649 81.9425 66.8088 81.8683 66.9572C81.8334 67.0202 81.8028 67.0877 81.7679 67.1506V66.5479C81.7679 66.5479 81.7679 66.5344 81.7592 66.5299C81.7548 66.5254 81.7505 66.5209 81.7374 66.5209C81.6981 66.5209 81.6631 66.5209 81.6238 66.5254C81.6108 66.5254 81.5977 66.5389 81.5977 66.5524V67.4745C81.5977 67.4745 81.5977 67.488 81.6064 67.4925C81.6064 67.497 81.6195 67.5015 81.6238 67.5015C81.6588 67.5015 81.6981 67.5015 81.733 67.497C81.7417 67.497 81.7505 67.4925 81.7548 67.4835C81.8334 67.3306 81.912 67.1776 81.9906 67.0247L82.0779 66.8538V67.4565C82.0779 67.4565 82.0779 67.47 82.0866 67.4745C82.091 67.479 82.0997 67.4835 82.1041 67.4835H82.2219C82.2219 67.4835 82.2481 67.4655 82.2481 67.452C82.2481 67.1461 82.2481 66.8358 82.2481 66.5299C82.2481 66.5209 82.2481 66.5164 82.2394 66.5119C82.2394 66.5074 82.2263 66.5074 82.2219 66.5029" fill="#FEFEFE"/>
<path d="M81.7663 66.458C81.7663 66.458 81.8056 66.494 81.8318 66.503C81.8536 66.512 81.8842 66.5165 81.9147 66.5165H81.9322C81.9715 66.5165 82.0021 66.5075 82.0283 66.494C82.0545 66.4805 82.0763 66.4625 82.0937 66.4445C82.1112 66.4265 82.1243 66.4041 82.133 66.3816C82.1374 66.3591 82.1461 66.3411 82.1461 66.3186C82.1461 66.3096 82.1461 66.3051 82.1374 66.2961C82.133 66.2916 82.1243 66.2871 82.1156 66.2871C82.085 66.2871 82.0544 66.2871 82.0239 66.2871C82.0108 66.2871 81.9977 66.3006 81.9977 66.3141C81.9977 66.3186 81.9977 66.3231 81.9977 66.3321C81.9977 66.3366 81.989 66.3456 81.9846 66.3501C81.9802 66.3546 81.9715 66.3636 81.9628 66.3681C81.954 66.3681 81.9453 66.3726 81.9278 66.3771C81.9191 66.3771 81.9104 66.3771 81.906 66.3726C81.8973 66.3726 81.8929 66.3636 81.8842 66.3591C81.8798 66.3546 81.8755 66.3456 81.8711 66.3411C81.8711 66.3366 81.8711 66.3276 81.8667 66.3231C81.8667 66.3096 81.8536 66.2961 81.8405 66.3006C81.81 66.3006 81.775 66.3006 81.7445 66.3051C81.7314 66.3051 81.7227 66.3186 81.7227 66.3321C81.7227 66.3546 81.7227 66.3771 81.7358 66.3951C81.7445 66.4175 81.7576 66.44 81.775 66.4535" fill="#FEFEFE"/>
<path d="M83.102 66.5168C83.0103 66.5168 82.9187 66.5123 82.827 66.5078C82.8226 66.5078 82.8139 66.5078 82.8095 66.5168C82.8051 66.5213 82.8008 66.5303 82.8008 66.5348V67.4569C82.8008 67.4569 82.8095 67.4839 82.827 67.4839C82.8663 67.4839 82.9012 67.4839 82.9405 67.4839C82.9405 67.4839 82.9536 67.4839 82.9579 67.4749C82.9623 67.4749 82.9667 67.4614 82.9667 67.4569V67.115C83.0103 67.115 83.0584 67.115 83.102 67.1195C83.1544 67.1195 83.2024 67.1195 83.2417 67.1015C83.281 67.088 83.3116 67.0656 83.3334 67.0386C83.3596 67.0116 83.3771 66.9801 83.3901 66.9441C83.3989 66.9081 83.4076 66.8721 83.4076 66.8362C83.4076 66.7327 83.3814 66.6562 83.3247 66.6023C83.2723 66.5483 83.1981 66.5213 83.102 66.5168ZM82.9667 66.6697C83.0103 66.6697 83.054 66.6697 83.0933 66.6742C83.1457 66.6742 83.1806 66.6922 83.2024 66.7147C83.2242 66.7417 83.233 66.7777 83.233 66.8272C83.233 66.8452 83.233 66.8631 83.2243 66.8856C83.2243 66.9036 83.2155 66.9171 83.2024 66.9261C83.1893 66.9396 83.1762 66.9486 83.1631 66.9531C83.1457 66.9576 83.1282 66.9621 83.1064 66.9621H83.0976C83.054 66.9621 83.0103 66.9621 82.9667 66.9576V66.6652V66.6697Z" fill="#FEFEFE"/>
<path d="M84.0374 66.6739C84.0112 66.6424 83.9807 66.6154 83.9414 66.593C83.9021 66.5705 83.8584 66.557 83.8061 66.5525C83.7493 66.548 83.7013 66.5525 83.6664 66.566C83.6271 66.5795 83.5965 66.6019 83.5703 66.6334C83.5441 66.6604 83.5267 66.6919 83.5136 66.7279C83.5048 66.7639 83.4961 66.7954 83.4961 66.8313V67.2002C83.4961 67.2407 83.5048 67.2811 83.5136 67.3216C83.5267 67.3621 83.5441 67.3981 83.5703 67.4296C83.5921 67.4611 83.6271 67.488 83.6664 67.5105C83.7056 67.533 83.7493 67.542 83.8061 67.5465C83.8191 67.5465 83.8323 67.5465 83.8453 67.5465C83.8759 67.5465 83.9021 67.5465 83.9283 67.5375C83.9676 67.5285 83.9981 67.5105 84.0287 67.4835C84.0549 67.4611 84.0767 67.4296 84.0942 67.3936C84.1073 67.3576 84.116 67.3171 84.116 67.2721V66.8853C84.116 66.8493 84.1073 66.8089 84.0942 66.7774C84.0811 66.7414 84.0636 66.7054 84.0374 66.6739ZM83.9414 66.8763V67.2721C83.9414 67.2721 83.9414 67.3126 83.9283 67.3306C83.9196 67.3486 83.9108 67.3576 83.9021 67.3711C83.889 67.3801 83.8759 67.3891 83.8628 67.3936C83.8453 67.3936 83.8279 67.3981 83.8104 67.3936C83.7842 67.3936 83.7624 67.3846 83.7449 67.3756C83.7275 67.3666 83.71 67.3531 83.7013 67.3396C83.6882 67.3216 83.6795 67.3036 83.6751 67.2856C83.6707 67.2631 83.6664 67.2407 83.6664 67.2182V66.8538C83.6664 66.8538 83.6664 66.8223 83.6707 66.8044C83.6707 66.7864 83.6795 66.7729 83.6925 66.7594C83.7013 66.7459 83.7144 66.7369 83.7318 66.7279C83.7449 66.7234 83.7624 66.7189 83.7799 66.7189C83.7842 66.7189 83.793 66.7189 83.8017 66.7189C83.8322 66.7189 83.8541 66.7279 83.8715 66.7414C83.889 66.7549 83.9065 66.7684 83.9152 66.7819C83.9283 66.7999 83.9327 66.8134 83.937 66.8313C83.937 66.8493 83.9414 66.8628 83.9458 66.8763H83.9414Z" fill="#FEFEFE"/>
<path d="M84.4295 66.8718C84.4295 66.8718 84.4426 66.8448 84.4557 66.8313C84.4644 66.8223 84.4775 66.8133 84.4949 66.8088C84.5124 66.8043 84.5299 66.8043 84.5517 66.8088C84.5866 66.8133 84.6172 66.8268 84.639 66.8493C84.6608 66.8718 84.6783 66.8943 84.6827 66.9258C84.6827 66.9393 84.7001 66.9483 84.7132 66.9438C84.7481 66.9348 84.7874 66.9258 84.8224 66.9213C84.8311 66.9213 84.8355 66.9168 84.8398 66.9078C84.8398 66.9033 84.8398 66.8943 84.8398 66.8853C84.8224 66.8223 84.7874 66.7683 84.7351 66.7279C84.687 66.6874 84.6259 66.6604 84.5561 66.6514C84.508 66.6469 84.4644 66.6469 84.4295 66.6559C84.3902 66.6649 84.3552 66.6829 84.329 66.7054C84.3028 66.7279 84.281 66.7593 84.2679 66.7953C84.2548 66.8313 84.2461 66.8673 84.2461 66.9123V67.2991C84.2461 67.3441 84.2548 67.3846 84.2679 67.4205C84.281 67.461 84.3028 67.4925 84.329 67.524C84.3552 67.551 84.3858 67.578 84.4251 67.6005C84.46 67.6185 84.5037 67.6319 84.5473 67.6409C84.5692 67.6409 84.5866 67.6409 84.6084 67.6409C84.6565 67.6409 84.6958 67.6319 84.7307 67.614C84.7831 67.587 84.8224 67.542 84.8398 67.479C84.8398 67.4655 84.8398 67.452 84.8267 67.4475L84.7176 67.3936C84.7176 67.3936 84.7001 67.3936 84.6958 67.3936C84.687 67.3936 84.6827 67.4026 84.6827 67.4115C84.6739 67.4385 84.6608 67.4565 84.6434 67.47C84.6215 67.4835 84.591 67.488 84.5604 67.4835C84.5386 67.4835 84.5168 67.4745 84.4993 67.461C84.4775 67.452 84.4644 67.4385 84.4557 67.425C84.4426 67.4115 84.4338 67.3936 84.4295 67.3756C84.4251 67.3576 84.4207 67.3396 84.4207 67.3216V66.9303C84.4207 66.9303 84.4207 66.8943 84.4295 66.8763" fill="#FEFEFE"/>
<path d="M85.1321 66.9838C85.1321 66.9838 85.1452 66.9568 85.1583 66.9478C85.167 66.9388 85.1845 66.9298 85.1976 66.9253C85.2151 66.9208 85.2325 66.9208 85.2544 66.9253C85.2936 66.9343 85.3198 66.9478 85.3417 66.9703C85.3635 66.9928 85.381 67.0198 85.3853 67.0512C85.3853 67.0647 85.4028 67.0737 85.4159 67.0737L85.5207 67.0557C85.5207 67.0557 85.5381 67.0512 85.5381 67.0423C85.5381 67.0378 85.5381 67.0288 85.5381 67.0198C85.5207 66.9568 85.4857 66.8983 85.4377 66.8578C85.3897 66.8129 85.3286 66.7859 85.2587 66.7724C85.2107 66.7634 85.167 66.7634 85.1321 66.7724C85.0928 66.7814 85.0579 66.7949 85.0361 66.8174C85.0099 66.8398 84.9881 66.8713 84.975 66.9073C84.9619 66.9433 84.9531 66.9793 84.9531 67.0243V67.4111C84.9531 67.4561 84.9619 67.4965 84.975 67.537C84.9924 67.5775 85.0099 67.6135 85.0361 67.6405C85.0579 67.672 85.0928 67.6989 85.1277 67.7214C85.167 67.7439 85.2063 67.7574 85.25 67.7664C85.2762 67.7709 85.3024 67.7754 85.3286 67.7754C85.3679 67.7754 85.4028 67.7664 85.4333 67.7574C85.4857 67.7349 85.525 67.69 85.5425 67.627C85.5425 67.6135 85.5425 67.6 85.5294 67.5955C85.4945 67.5775 85.4595 67.555 85.4246 67.5325C85.4159 67.5325 85.4072 67.5325 85.4028 67.5325C85.3941 67.5325 85.3897 67.5415 85.3853 67.5505C85.3766 67.5775 85.3635 67.5955 85.346 67.6045C85.3242 67.618 85.298 67.618 85.2631 67.609C85.2413 67.609 85.2194 67.5955 85.202 67.5865C85.1845 67.573 85.167 67.5595 85.1583 67.546C85.1452 67.528 85.1365 67.5145 85.1277 67.4965C85.1234 67.4786 85.119 67.4561 85.119 67.4381V67.0467C85.119 67.0467 85.119 67.0108 85.1277 66.9973" fill="#FEFEFE"/>
<path d="M86.1861 66.9929C86.1861 66.9929 86.1643 66.9929 86.1599 67.0064C86.0857 67.1279 86.0115 67.2493 85.9373 67.3752L85.8412 67.5417V66.93C85.8412 66.93 85.8325 66.9075 85.8238 66.903C85.7845 66.894 85.7495 66.885 85.7102 66.876C85.7015 66.876 85.6928 66.876 85.6884 66.876C85.6797 66.8805 85.6797 66.8895 85.6797 66.8985V67.8205C85.6797 67.8205 85.6884 67.843 85.7015 67.8475C85.7364 67.8565 85.7714 67.8655 85.8107 67.8745C85.8238 67.8745 85.8325 67.8745 85.8412 67.861C85.9198 67.7306 85.9984 67.6001 86.0726 67.4742L86.1599 67.3303V67.942C86.1599 67.942 86.1686 67.9645 86.1774 67.969C86.2167 67.978 86.2516 67.9915 86.2909 68.0005H86.2952C86.2996 68.0005 86.3083 68.0005 86.3127 67.996C86.3171 67.9915 86.3214 67.9825 86.3214 67.9735V67.0514C86.3214 67.0514 86.3127 67.0289 86.2996 67.0244C86.2647 67.0154 86.2254 67.0064 86.1905 66.9929" fill="#FEFEFE"/>
<path d="M87.1077 67.2807C87.0728 67.2672 87.0379 67.2537 86.9986 67.2447C86.9855 67.2447 86.9768 67.2447 86.968 67.2537C86.8938 67.3707 86.824 67.4876 86.7498 67.6091L86.6537 67.7665V67.1503C86.6537 67.1503 86.645 67.1278 86.6363 67.1233L86.5271 67.0918C86.5271 67.0918 86.5096 67.0918 86.5053 67.0963C86.4966 67.0963 86.4922 67.1098 86.4922 67.1188V68.0409C86.4922 68.0409 86.5009 68.0634 86.5096 68.0679C86.5446 68.0769 86.5795 68.0903 86.6144 68.0993C86.6275 68.0993 86.6363 68.0993 86.645 68.0858C86.7192 67.9599 86.7978 67.8385 86.8764 67.7125L86.9593 67.5731V68.1893C86.9593 68.1893 86.968 68.2118 86.9768 68.2163C87.0161 68.2298 87.051 68.2433 87.0903 68.2568C87.0903 68.2568 87.0946 68.2568 87.099 68.2568C87.1034 68.2568 87.1077 68.2568 87.1165 68.2523C87.1208 68.2478 87.1252 68.2388 87.1252 68.2298V67.3077C87.1252 67.3077 87.1165 67.2852 87.1077 67.2807Z" fill="#FEFEFE"/>
<path d="M56.3255 56.2607L54.2344 68.936H56.3648L58.4603 56.2607H56.3255Z" fill="#FEFEFE"/>
<path d="M59.6311 62.5763H57.8499L57.5312 64.5149H59.6617C60.4431 64.5149 61.6 63.5748 61.7354 62.7517L62.5168 58.0333C62.6522 57.2102 61.8096 56.2656 61.0281 56.2656H58.8977L58.579 58.1863H60.3602L59.6355 62.5807L59.6311 62.5763Z" fill="#FEFEFE"/>
<path d="M49.1895 56.2568C48.3906 56.2568 47.2556 57.1834 47.1159 58.0245L45.6053 67.1689C45.4656 68.01 46.2951 68.9366 47.094 68.9366H47.4433L49.5388 56.2613H49.1895V56.2568Z" fill="#FEFEFE"/>
<path d="M50.1447 66.9979H48.1976L47.8789 68.9366H50.1927C50.9742 68.9366 52.1311 67.9965 52.2664 67.1689L53.7769 58.0245C53.9122 57.2014 53.0697 56.2568 52.2882 56.2568H49.9744L49.6557 58.1775H51.6028L50.1447 66.9934V66.9979Z" fill="#FEFEFE"/>
<path d="M43.0562 68.9321L45.1517 56.2568H43.0213L40.9258 68.9321H43.0562Z" fill="#FEFEFE"/>
<path d="M41.4517 63.2019L42.303 58.0742L40.1594 61.9694L39.3125 67.0971L41.4517 63.2019Z" fill="#FEFEFE"/>
<path d="M36.4453 68.9317H38.5758L40.6713 56.2565L38.5408 56.252L36.4453 68.9317Z" fill="#FEFEFE"/>
<path d="M29.3411 56.252L27.25 68.9272H29.3804L31.4716 56.252H29.3411Z" fill="#FEFEFE"/>
<path d="M33.8551 56.252L32.9689 61.6045H31.0218L30.7031 63.5431H32.6502L31.7596 68.9272H33.9075L36.003 56.252H33.8551Z" fill="#FEFEFE"/>
<path d="M22.2211 56.248C21.4047 56.248 20.2871 57.1566 20.1474 58.0157L18.6369 67.1601C18.4972 68.0192 19.3092 68.9278 20.1256 68.9278H20.4748L22.5703 56.2525H22.2211V56.248Z" fill="#FEFEFE"/>
<path d="M23.1837 66.9891H21.2367L20.918 68.9278H23.2143C24.0132 68.9278 25.1483 68.0012 25.288 67.1601L26.7985 58.0157C26.9382 57.1746 26.1087 56.248 25.3098 56.248H23.0135L22.6948 58.1867H24.6419L23.1881 66.9891H23.1837Z" fill="#FEFEFE"/>
<path d="M17.4569 61.6141L18.3431 56.248H16.2083L14.1172 68.9233H16.2476L17.1339 63.5527H18.8146L19.1377 61.6141H17.4569Z" fill="#FEFEFE"/>
<path opacity="0.5" d="M92.3114 54.1295H7.61328L13.0922 16.9404H98.1395L92.3114 54.1295Z" fill="#2B2A29"/>
<path d="M91.5258 53.189H6.83203L12.3066 16H97.3539L91.5258 53.189Z" fill="#FEFEFE"/>
<path d="M21.9929 31.1671L19.5699 31.1716L20.6701 26.0844L20.2684 25.5941L18.2908 26.4712L17.2736 31.1761L14.8594 31.1806L17.374 19.5399L19.7882 19.5354L18.7972 24.1278L20.7617 23.2552L21.3729 22.7649L22.0714 19.5309L24.5031 19.5264L23.6736 23.4351L22.4556 24.4111L23.2458 25.3602L21.9929 31.1671Z" fill="#DE2427"/>
<path d="M32.0696 19.5127L33.3269 21.069L32.3621 25.531L30.4892 27.0243L27.2019 27.0333L26.3156 31.1624H23.8359L26.3724 19.5262L32.0652 19.5172L32.0696 19.5127ZM27.6603 24.9192H29.5375L30.1792 24.42L30.6726 22.1395L30.2709 21.6492H28.3675L27.6603 24.9192Z" fill="#DE2427"/>
<path d="M38.9917 19.499L38.6512 31.1352H36.2937L36.4771 28.6523H34.6915L33.7267 31.1442H31.3867L36.0973 19.5035H38.9873L38.9917 19.499ZM35.4992 26.5563H36.5819L36.7477 23.2548L35.4948 26.5563H35.4992Z" fill="#DE2427"/>
<path d="M47.5608 19.4863L48.8313 21.0516L48.4471 22.8328L46.0198 22.8193L46.19 22.0367L45.8539 21.6184L44.3172 21.6229L43.7584 22.0771L42.3483 28.5902L42.6844 29.0085H44.2168L44.7668 28.5677L44.9633 27.6636L47.4037 27.6456L46.9889 29.5662L45.0462 31.127L40.9731 31.136L39.707 29.5752L41.5493 21.0696L43.4877 19.4953L47.5608 19.4863Z" fill="#DE2427"/>
<path d="M57.6766 19.4727L55.1882 31.1089L52.7347 31.1133L53.7169 26.5929L51.3857 26.5974L50.3947 31.1178L47.9805 31.1223L50.4951 19.4817L52.9093 19.4772L51.8921 24.2675L54.2234 24.263L55.2493 19.4772L57.6766 19.4727Z" fill="#DE2427"/>
<path d="M63.7642 19.459L63.4237 31.0952H61.0662L61.254 28.5898H59.4684L58.5036 31.1042H56.168L60.8741 19.4635H63.7686L63.7642 19.459ZM60.2761 26.4938H61.3587L61.529 23.1923L60.2761 26.4938Z" fill="#DE2427"/>
<path d="M74.4289 19.4414L71.9055 31.0821H69.4651L70.3688 26.926H69.404L66.6493 31.0911H63.9688L66.9898 26.8225L65.8634 25.4507L66.8195 20.9932L68.7448 19.4504L74.4289 19.4414ZM71.5344 21.5509H69.631L69.0111 22.0502L68.5178 24.3262L68.9456 24.8165H70.8228L71.5301 21.5464L71.5344 21.5509Z" fill="#DE2427"/>
<path d="M28.1035 32.867L24.3446 50.3595L21.0791 50.355L23.3143 39.9198L19.5512 46.0685H17.0889L15.98 39.9198L13.7055 50.346L10.3789 50.3415L14.177 32.8535L18.499 32.858L19.6516 39.8118L23.8295 32.8625L28.1035 32.867Z" fill="#DE2427"/>
<path d="M36.5235 32.8762L36.0607 50.3687H32.4765L32.7428 46.6264H30.0274L28.5736 50.3597H25.0156L32.1229 32.8672H36.5235V32.8762ZM31.2454 43.4689H32.8913L33.1314 38.5121L31.2411 43.4689H31.2454Z" fill="#DE2427"/>
<path d="M64.4153 32.9074L67.5673 32.9119L63.7997 50.4L60.3683 50.3955L62.3765 41.1252L55.8193 50.391H52.8594L56.6226 32.8984L60.0278 32.9029L58.216 41.3366L64.4153 32.9074Z" fill="#DE2427"/>
<path d="M80.3471 32.9256L76.6232 50.4136L72.8862 50.4091L74.3618 43.5992H70.8169L69.3282 50.4046H65.6523L69.4199 32.9121L73.0914 32.9166L71.5678 40.0953L75.1171 40.0998L76.6494 32.9211L80.3471 32.9256Z" fill="#DE2427"/>
<path d="M89.2383 32.9352L88.7756 50.4277H85.1914L85.462 46.6404H82.7466L81.2885 50.4232H77.7305L84.8378 32.9307H89.2383V32.9352ZM83.9646 43.4784H85.6061L85.8462 38.5216L83.9603 43.4784H83.9646Z" fill="#DE2427"/>
<path d="M54.7273 32.8989L51.4269 32.8944L48.3404 47.2158L46.3671 47.2113L49.4143 32.8899H46.1182L43.0317 47.2113L41.0541 47.2158L44.1362 32.8854L40.814 32.8809L37.7275 47.2113L37.0508 50.3734L40.7223 50.3779H42.1062L45.8432 50.3824H47.2621L50.9991 50.3869L54.7273 32.8989Z" fill="#DE2427"/>
<path d="M79.1753 19.3643L79.5027 20.4753L80.8124 20.6102L79.6467 21.4288L79.6773 22.6208L78.6295 22.018L77.3417 22.6208L77.8568 21.4288L77.0273 20.6057L78.3938 20.4753L79.1753 19.3643Z" fill="#DE2427"/>
<path d="M84.8935 19.3691L85.221 20.4801L86.5307 20.6151L85.365 21.4337L85.3956 22.6257L84.3522 22.0184L83.06 22.6257L83.5751 21.4337L82.75 20.6106L84.1121 20.4801L84.8935 19.3691Z" fill="#DE2427"/>
<path d="M90.4995 19.373L90.8269 20.484L92.1366 20.619L90.971 21.4331L91.0015 22.6296L89.9581 22.0223L88.6659 22.6251L89.181 21.4331L88.3516 20.6145L89.718 20.484L90.4995 19.373Z" fill="#DE2427"/>
<path d="M78.2138 23.4844L78.5413 24.5954L79.851 24.7303L78.6897 25.5489L78.7203 26.7409L77.6725 26.1337L76.3803 26.7364L76.8998 25.5489L76.0703 24.7258L77.4368 24.5954L78.2138 23.4844Z" fill="#DE2427"/>
<path d="M83.937 23.4893L84.26 24.6003L85.5741 24.7352L84.4085 25.5493L84.439 26.7458L83.3956 26.1386L82.1034 26.7413L82.6185 25.5493L81.7891 24.7307L83.1555 24.5958L83.937 23.4893Z" fill="#DE2427"/>
<path d="M89.6592 23.4932L89.9866 24.5997L91.2963 24.7346L90.135 25.5532L90.1612 26.7497L89.1178 26.1425L87.8256 26.7452L88.3407 25.5532L87.5156 24.7346L88.8777 24.5997L89.6592 23.4932Z" fill="#DE2427"/>
<path d="M77.351 27.6094L77.6741 28.7204L78.9881 28.8553L77.8225 29.6739L77.8531 30.8659L76.8097 30.2632L75.5131 30.8659L76.0326 29.6739L75.2031 28.8508L76.5696 28.7204L77.351 27.6094Z" fill="#DE2427"/>
<path d="M83.0693 27.6133L83.3967 28.7243L84.7064 28.8592L83.5452 29.6778L83.5714 30.8698L82.528 30.2671L81.2357 30.8698L81.7509 29.6778L80.9258 28.8547L82.2879 28.7243L83.0693 27.6133Z" fill="#DE2427"/>
<path d="M88.7881 27.6182L89.1155 28.7292L90.4252 28.8641L89.2639 29.6827L89.2945 30.8747L88.2467 30.272L86.9545 30.8747L87.474 29.6827L86.6445 28.8596L88.011 28.7292L88.7881 27.6182Z" fill="#DE2427"/>
</g>
<defs>
<clipPath id="clip0_136_1110">
<rect width="99" height="68" fill="white" transform="translate(1 16)"/>
</clipPath>
</defs>
</svg>
