<svg width="86" height="96" viewBox="0 0 86 96" fill="none" xmlns="http://www.w3.org/2000/svg">
<g clip-path="url(#clip0_44_473)">
<path d="M85.1823 7.7815C81.6763 6.52234 78.0704 5.40516 74.4577 4.46713L74.2342 4.40967L74.0497 4.54826C73.1694 5.20742 72.2874 5.87502 71.4274 6.53587L71.2395 6.67953V13.6446L71.3461 13.7747C71.8591 14.4102 72.3704 15.0491 72.8816 15.6931L72.9883 15.8283L72.9053 15.9787C72.0064 17.5995 71.1074 19.2288 70.2051 20.8683L69.9004 21.4226L70.5183 21.5629C71.7795 21.8485 73.0577 22.1612 74.3138 22.4891L74.6846 22.5854L74.8589 22.244C75.5463 20.9071 76.2353 19.5719 76.9226 18.2469L77.0225 18.0576L77.229 18.1167C78.4885 18.4784 79.7515 18.8638 80.9873 19.2609L81.1667 19.3184V24.4885L81.4952 24.595C82.6193 24.9618 83.7501 25.3488 84.8573 25.7511L85.4989 25.9792V7.89474L85.184 7.77981H85.1823V7.7815ZM80.6453 14.7753C79.1589 14.3071 77.6539 13.8643 76.1591 13.4536V9.27896C77.6573 9.69812 79.164 10.1477 80.6453 10.6243V14.7753Z" fill="white"/>
<path d="M68.58 21.1354L69.1556 21.2571V3.20638L68.7747 3.12526C67.5676 2.87004 66.3386 2.63004 65.118 2.41202L64.7997 2.35455L64.627 2.62835C62.7276 5.64864 60.8112 8.72807 58.9355 11.7822L58.453 12.5681V1.403L58.0331 1.35399C56.8752 1.21371 55.7088 1.09202 54.561 0.983847L54.0396 0.936523V18.9686L54.4746 19.0075C55.6969 19.1191 56.9294 19.2526 58.1398 19.3996L58.4445 19.4368L58.6053 19.1748C60.476 16.1123 62.3924 13.021 64.2952 9.98385L64.7777 9.21652V20.3985L65.1705 20.4695C66.3064 20.6757 67.4542 20.8988 68.58 21.1388" fill="white"/>
<path d="M34.0937 0.791099V18.8215L34.6049 18.7843C35.7443 18.7032 36.8988 18.6407 38.0348 18.595L38.4936 18.5765V7.30152L38.9828 8.21251C39.8902 9.89927 40.7942 11.5894 41.683 13.2626L41.8184 13.5179H42.1079C42.4617 13.5128 42.8173 13.5094 43.1711 13.5094C43.3201 13.5094 43.8195 13.5094 44.0751 13.5128L44.2105 13.2576C45.0993 11.5826 46.0033 9.88744 46.9107 8.19899L47.4 7.28631V18.5579L47.8588 18.5765C48.993 18.6204 50.1476 18.6812 51.2886 18.7539L51.7999 18.7877V0.760676L51.3546 0.731944C49.9343 0.638987 48.4953 0.568 47.0749 0.524056L46.7753 0.513916L46.6365 0.775887C45.487 2.94603 44.3223 5.16349 43.1728 7.36406L42.9408 7.80687L42.7089 7.36406C41.5679 5.18377 40.4048 2.97138 39.2469 0.791099L39.1064 0.525747L38.8067 0.535887C37.3881 0.584901 35.9474 0.660958 34.5304 0.758986L34.0852 0.789409H34.0937V0.791099Z" fill="white"/>
<path d="M32.1925 3.73186C31.2936 2.92735 30.3946 2.13468 29.5211 1.36904L29.362 1.22876L29.1503 1.25242C25.5901 1.65637 22.0062 2.22256 18.4951 2.93411L18.1125 3.01186V21.0592L18.6864 20.9426C19.8275 20.711 20.9939 20.493 22.1485 20.2919L22.5446 20.2243V16.5651L22.7613 16.5279C24.9113 16.1662 27.0951 15.8586 29.257 15.6152L29.4364 15.595L29.5566 15.4614C30.437 14.4913 31.3342 13.5144 32.2196 12.5578L32.3466 12.4192V3.87552L32.1874 3.73186H32.1925ZM27.3677 11.5302C25.9389 11.7127 24.4948 11.9223 23.0694 12.1538V6.41918C24.4931 6.18256 25.9372 5.96961 27.3677 5.78369V11.5302Z" fill="white"/>
<path d="M16.8394 20.8362C15.5155 15.4396 14.1968 10.0633 12.8797 4.70889L12.7646 4.24072L12.2956 4.36072C9.86968 4.9827 7.43188 5.68748 5.05334 6.45481L4.79094 6.541L4.73338 6.81143C3.43322 12.9348 2.12629 19.1241 0.854913 25.2086L0.680542 26.0435L1.48637 25.7545C2.65617 25.3354 3.8429 24.9264 5.01609 24.5478L5.28188 24.4616L6.11818 20.2937L6.26377 20.2464C7.92452 19.7258 9.61743 19.234 11.2917 18.7844L11.5524 18.7134L12.3989 22.3945L12.8729 22.2745C14.0647 21.972 15.2751 21.6847 16.4771 21.4176L16.9545 21.3111L16.8377 20.8379L16.8394 20.8362ZM10.5892 15.3737C9.47692 15.6762 8.35283 15.9973 7.25074 16.332L6.83428 16.4571L6.92062 16.0311C7.36924 13.8221 7.81448 11.6182 8.2631 9.41424L8.29357 9.26044L8.44424 9.2165C8.66094 9.15396 8.87763 9.08974 9.09263 9.0272L9.35503 8.95115L10.8279 15.3078L10.5858 15.372L10.5892 15.3737Z" fill="white"/>
<path fill-rule="evenodd" clip-rule="evenodd" d="M71.6187 73.8761H68.3548V64.9742H71.6187V57.2958H67.2865V83.8446H57.2493L57.3542 56.1009L57.3644 55.9911C57.9501 50.1111 61.1023 48.3094 66.6957 48.3127H81.656L81.7051 83.8446H71.6187V73.8761Z" fill="#DD0332"/>
<path fill-rule="evenodd" clip-rule="evenodd" d="M72.7563 72.7386H69.4924V66.1082H72.7563V56.1583H66.1489V82.7071H58.392L58.4918 56.1583L58.4969 56.1043C59.0234 50.8243 61.6931 49.4451 66.6957 49.4485H80.52L80.5674 82.7088H72.7563V72.7386Z" fill="#DD0332"/>
<path fill-rule="evenodd" clip-rule="evenodd" d="M72.7563 72.7386H69.4924V66.1082H72.7563V56.1583H66.1489V82.7071H58.392L58.4918 56.1583L58.4969 56.1043C59.0234 50.8243 61.6931 49.4451 66.6957 49.4485H80.52L80.5674 82.7088H72.7563V72.7386Z" fill="white"/>
<path fill-rule="evenodd" clip-rule="evenodd" d="M79.4281 81.5713L79.3841 50.5825H66.6957C62.1028 50.5825 60.0815 51.6828 59.6295 56.2158L59.5364 81.5713H65.013V55.0225H73.8957V67.2439H70.6351V71.6028H73.8957V81.5713H79.4281Z" fill="#DD0332"/>
<path fill-rule="evenodd" clip-rule="evenodd" d="M6.17578 68.204C6.18425 67.484 6.18425 64.6057 6.17578 63.8874V56.0992C6.17578 51.8401 8.88444 48.3364 13.3537 48.3364H23.1557C27.7316 48.3364 30.5503 51.5054 30.6045 55.9691V55.9945V62.7466H20.508V57.3364H16.2994V74.8023H20.508V68.3223H30.6045V76.0683C30.6045 80.5387 27.7266 83.75 23.1557 83.75H13.3537C8.93523 83.75 6.22826 80.3274 6.17578 76.1122C6.17578 76.1139 6.17578 68.204 6.17578 68.204Z" fill="#DD0332"/>
<path fill-rule="evenodd" clip-rule="evenodd" d="M7.33876 69.3415C7.354 68.2429 7.36924 67.146 7.36924 66.0474C7.36924 64.9488 7.354 63.8519 7.33876 62.7499H7.31506V56.0992C7.31506 52.4688 9.51754 49.4722 13.3537 49.4722H23.1557C27.1069 49.4722 29.4211 52.1392 29.4685 55.9826V61.6141H21.6473V56.204H15.1634V75.9415H21.6473V69.4615H29.4685V76.0716C29.4685 79.915 27.0968 82.6158 23.1557 82.6158H13.3537C9.56664 82.6158 7.35569 79.6919 7.31506 76.1003V69.3398H7.33876V69.3415Z" fill="#DD0332"/>
<path fill-rule="evenodd" clip-rule="evenodd" d="M7.31506 69.3415C7.3303 68.2429 7.33369 63.8485 7.31506 62.7499V56.0992C7.31506 52.4688 9.51754 49.4722 13.3537 49.4722H23.1557C27.1069 49.4722 29.4211 52.1392 29.4685 55.9826V61.6141H21.6473V56.204H15.1634V75.9415H21.6473V69.4615H29.4685V76.0716C29.4685 79.915 27.0968 82.6158 23.1557 82.6158H13.3537C9.56664 82.6158 7.35569 79.6919 7.31506 76.1003V69.3398V69.3415Z" fill="white"/>
<path fill-rule="evenodd" clip-rule="evenodd" d="M28.3327 76.0733V70.6006H22.7867V77.0806H14.0275V55.0716H22.7867V60.4818H28.3327V56.0012C28.2954 52.7849 26.4874 50.613 23.1591 50.613H13.3571C10.1508 50.613 8.45447 53.1111 8.45447 56.1026V61.6192C8.47309 63.0998 8.47309 68.9984 8.45447 70.4823V76.0919C8.49171 79.048 10.1931 81.4868 13.3571 81.4868H23.1591C26.4908 81.4868 28.336 79.2694 28.336 76.0767" fill="#DD0332"/>
<path fill-rule="evenodd" clip-rule="evenodd" d="M53.789 77.2159C53.938 77.3748 54.0835 77.5489 54.2291 77.7365C55.6156 79.5348 55.9915 81.8148 55.9915 84.0289V96.0187H46.1218V84.0289C46.1218 83.5134 46.159 82.9742 46.1082 82.4621C46.093 82.3032 46.0659 82.0954 46.0016 81.9466C45.9 81.71 45.2059 81.6661 45.0197 81.6525L42.8748 81.5258L42.8883 73.1765L44.7302 72.8232C44.9808 72.7742 45.9034 72.5714 46.0862 72.3652C46.1167 72.301 46.1235 72.1252 46.1235 72.061V60.4142H55.9932V72.2148C55.9932 74.2649 55.123 75.928 53.7907 77.2142M31.8302 60.4075H41.6999V96.0086H31.8302V60.4075Z" fill="#DD0332"/>
<path fill-rule="evenodd" clip-rule="evenodd" d="M52.0452 77.1872C52.504 77.5236 52.9255 77.9106 53.3251 78.4261C54.5474 80.0115 54.8504 82.0768 54.8504 84.0255V94.8796H47.256V84.0255C47.256 82.1106 47.5472 80.6655 45.0857 80.5185L44.014 80.456L44.0225 74.1146L44.9451 73.9371C45.5529 73.8205 46.4959 73.6008 46.9309 73.1224C47.1933 72.8317 47.2594 72.4413 47.2594 72.061V61.5517H54.8538V72.2182C54.8538 74.3884 53.6755 76.0295 52.0486 77.1906M32.9695 61.55H40.5639V94.8796H32.9695V61.55Z" fill="white"/>
<path fill-rule="evenodd" clip-rule="evenodd" d="M48.3936 84.0255C48.3936 82.3049 48.7661 79.599 45.1517 79.3861L45.1568 75.0542C47.0054 74.701 48.3936 74.0452 48.3936 72.061V62.6875H53.7128V72.2165C53.7128 74.9562 51.3512 76.4554 49.8428 77.1466C51.5628 78.1675 53.7128 79.0987 53.7128 84.0272V93.7455H48.3936V84.0272V84.0255ZM34.1038 62.6858H39.4229V93.7438H34.1038V62.6858Z" fill="#DD0332"/>
<path fill-rule="evenodd" clip-rule="evenodd" d="M48.441 36.2586L63.8279 36.2299L51.363 45.2384L56.1455 59.8378L43.7127 50.7854L31.28 59.8378L36.0625 45.2384L23.5975 36.2299L38.9844 36.2586L43.7127 21.6389L48.441 36.2586Z" fill="#DD0332"/>
<path fill-rule="evenodd" clip-rule="evenodd" d="M47.8333 37.0935L61.2462 37.0665L50.3794 44.9172L54.5473 57.644L43.7127 49.7544L32.8764 57.644L37.0426 44.9172L26.1792 37.0665L39.5922 37.0935L43.7127 24.3516L47.8333 37.0935Z" fill="white"/>
<path fill-rule="evenodd" clip-rule="evenodd" d="M43.7128 27.0625L47.2256 37.9284L58.6629 37.9048L49.3976 44.5977L52.9527 55.4518L43.7128 48.7217L34.4729 55.4518L38.028 44.5977L28.7627 37.9048L40.2 37.9284L43.7128 27.0625Z" fill="#DD0332"/>
<path d="M1.32385 25.3031C2.61216 19.1493 3.90385 13.0192 5.20232 6.90935C7.59271 6.13864 9.99834 5.44399 12.4192 4.82202C13.7346 10.1747 15.0551 15.551 16.3789 20.9493C15.1702 21.2181 13.9631 21.5037 12.7595 21.8113C12.4785 20.5826 12.194 19.3555 11.913 18.1268C9.83243 18.671 7.7637 19.2693 5.70681 19.9217C5.42748 21.311 5.14984 22.7003 4.87051 24.093C3.68377 24.4784 2.50381 24.884 1.32893 25.3048M6.20791 17.1533C7.93129 16.6141 9.66314 16.1122 11.4052 15.6491C10.8414 13.2136 10.2794 10.7798 9.71562 8.35611C9.10618 8.5285 8.49504 8.70428 7.88897 8.88512C7.32862 11.6384 6.76826 14.3933 6.21129 17.155" fill="#DD0332"/>
<path d="M31.8742 4.08844V12.2349C30.982 13.1949 30.0932 14.1634 29.2044 15.142C26.8191 15.4124 24.4372 15.7538 22.0688 16.1645V19.8237C20.9092 20.0248 19.7495 20.2428 18.5916 20.476V3.40393C22.1077 2.69069 25.6493 2.13126 29.2044 1.729C30.0949 2.50647 30.9837 3.29238 31.8742 4.08844ZM22.0688 13.3369C24.1612 12.9752 26.2621 12.6676 28.3664 12.4124V4.65633C26.2604 4.91154 24.1629 5.21914 22.0688 5.58083V13.3369Z" fill="#DD0332"/>
<path d="M34.5693 18.3111V1.23733C35.9897 1.13761 37.41 1.06325 38.8304 1.01423C40.2016 3.60015 41.5746 6.20804 42.9458 8.84128C44.3171 6.20466 45.6901 3.59001 47.0613 0.999023C48.4817 1.04297 49.9054 1.11395 51.3224 1.20691V18.2824C50.1763 18.2063 49.0268 18.1472 47.879 18.1032V5.39508C46.5162 7.92184 45.1534 10.4689 43.7872 13.0396C43.2235 13.0362 42.6631 13.0396 42.1011 13.043C40.7383 10.4773 39.3721 7.93536 38.0093 5.41367V18.1218C36.8598 18.1692 35.7137 18.2334 34.5659 18.3145" fill="#DD0332"/>
<path d="M68.6798 20.6689C67.5405 20.4289 66.3995 20.2058 65.2584 19.9979V7.55679C62.9154 11.2785 60.5623 15.0695 58.2024 18.9247C56.9767 18.7743 55.7493 18.6441 54.522 18.5326V1.46045C55.6765 1.56693 56.8294 1.68862 57.9806 1.82721V14.2683C60.3388 10.4064 62.6937 6.61369 65.0383 2.88693C66.2556 3.10496 67.4694 3.34158 68.6815 3.59679V20.6689H68.6798Z" fill="#DD0332"/>
<path d="M74.341 4.92676C77.9384 5.8631 81.5037 6.96338 85.025 8.22929V25.3048C83.9043 24.9008 82.7785 24.5172 81.6493 24.147V18.9769C80.0326 18.4479 78.4124 17.9544 76.7805 17.493C76.0017 18.9972 75.2213 20.5082 74.4375 22.0276C73.1712 21.6963 71.9015 21.387 70.6301 21.098C71.6103 19.3132 72.5905 17.5403 73.5673 15.7792C72.9528 15.0068 72.34 14.2361 71.7254 13.4738V6.91098C72.599 6.24 73.4725 5.57915 74.3427 4.92845M81.6459 9.90084C79.4976 9.19774 77.3358 8.55549 75.162 7.97239V14.2175C77.3358 14.8006 79.4993 15.4428 81.6459 16.1459V9.90084Z" fill="#DD0332"/>
<path d="M-0.0219727 26.8463L0.343696 25.1004C1.61507 19.0142 2.922 12.8266 4.22216 6.70153L4.34236 6.13702L4.89255 5.95955C7.28295 5.18885 9.72921 4.48237 12.167 3.85364L13.1438 3.60181L13.3842 4.58209C14.6996 9.93645 16.0201 15.3111 17.3439 20.7094L17.586 21.6981L16.5906 21.9196C15.3937 22.1849 14.1883 22.4705 13.0016 22.7731L12.0113 23.0249L11.1665 19.3505C9.63441 19.7646 8.08877 20.2142 6.56684 20.6908L5.73224 24.857L5.17696 25.0396C4.00885 25.4198 2.82551 25.8255 1.66417 26.2412L-0.0168941 26.8446H-0.0219727V26.8463ZM4.78929 6.53927L4.73173 6.80969C3.43157 12.9331 2.12464 19.1224 0.853263 25.2069L0.678893 26.0418L1.48472 25.7528C2.65452 25.3336 3.84126 24.9246 5.01444 24.546L5.28023 24.4598L6.11653 20.2919L6.26212 20.2446C7.92287 19.7241 9.61578 19.2322 11.2918 18.7827L11.5525 18.7117L12.3989 22.3928L12.8729 22.2728C14.0648 21.9703 15.2752 21.6829 16.4772 21.4159L16.9546 21.3094L16.8394 20.8362C15.5156 15.4396 14.1968 10.0632 12.8797 4.70885L12.7646 4.24068L12.2957 4.36068C9.86972 4.98265 7.43192 5.68744 5.05338 6.45477L4.79098 6.54096L4.78929 6.53927ZM6.83263 16.457L6.91897 16.0311C7.36759 13.8221 7.81283 11.6181 8.26145 9.4142L8.29192 9.2604L8.44259 9.21645C8.65929 9.15392 8.87598 9.08969 9.09098 9.02716L9.35338 8.9511L10.8262 15.3077L10.5841 15.3719C9.47189 15.6745 8.34779 15.9956 7.2457 16.3303L6.82925 16.4553L6.83263 16.457ZM8.74393 9.66941C8.33425 11.6807 7.92626 13.6919 7.51826 15.7066C8.41043 15.4412 9.31444 15.181 10.21 14.9359L8.97417 9.60181C8.89629 9.62547 8.82181 9.64744 8.74393 9.66941Z" fill="#DD0332"/>
<path d="M17.5945 21.6965V2.58772L18.3952 2.42716C21.9182 1.71392 25.519 1.14435 29.0944 0.738712L29.5329 0.689697L29.8664 0.980402C30.7417 1.74604 31.644 2.54209 32.5429 3.34829L32.8764 3.64575V12.6289L32.6106 12.9145C31.7252 13.8728 30.828 14.848 29.9494 15.8131L29.6971 16.092L29.3213 16.1342C27.2441 16.3708 25.1415 16.6632 23.0711 17.0063V20.6621L22.2415 20.8058C21.0904 21.0069 19.929 21.2215 18.7931 21.4531L17.5945 21.6948V21.6965ZM18.1159 3.01195V21.0593L18.6898 20.9427C19.8308 20.7111 20.9972 20.4931 22.1518 20.2919L22.5479 20.2243V16.5652L22.7646 16.528C24.9146 16.1663 27.0985 15.8587 29.2603 15.6153L29.4398 15.595L29.5617 15.4615C30.442 14.4914 31.3392 13.5145 32.2246 12.5579L32.3516 12.4193V3.87561L32.1925 3.73195C31.2935 2.92744 30.3946 2.13477 29.5211 1.36913L29.3619 1.22885L29.1503 1.25251C25.5918 1.65646 22.0062 2.22265 18.4951 2.9342L18.1125 3.01195H18.1159ZM22.5463 12.7691V5.97984L22.7629 5.94266C24.3611 5.67392 25.9863 5.43561 27.5928 5.22942L27.8874 5.19223V11.9866L27.6589 12.0153C26.0641 12.2165 24.4457 12.4531 22.8476 12.715L22.5446 12.7641L22.5463 12.7691ZM23.0677 6.42265V12.1573C24.4965 11.9258 25.9405 11.7145 27.366 11.5336V5.78885C25.9355 5.97308 24.4914 6.18773 23.0677 6.42265Z" fill="#DD0332"/>
<path d="M33.5722 19.3809V0.30768L34.5033 0.243455C35.9287 0.143736 37.3761 0.0693702 38.7982 0.0203561L39.4229 7.39296e-05L39.7141 0.55106C40.7924 2.58599 41.8793 4.64627 42.9458 6.68458C44.0191 4.62937 45.106 2.56233 46.181 0.535848L46.4722 -0.0151367L47.0952 0.00514415C48.5206 0.0490878 49.968 0.120074 51.3935 0.213032L52.3263 0.275566V19.3488L51.2597 19.2778C50.1238 19.2018 48.9743 19.1426 47.8434 19.1004L46.8819 19.0632V9.36176C46.1387 10.746 45.4022 12.1336 44.6709 13.5043L44.3865 14.0384H44.2274C44.2274 14.0384 43.3724 14.0333 43.1659 14.0333C42.8138 14.0333 42.46 14.0333 42.1045 14.0384L41.4967 14.0435L41.2123 13.5077C40.4826 12.137 39.7445 10.7544 39.0047 9.37359V19.0767L38.0448 19.1156C36.914 19.1629 35.7645 19.2271 34.6302 19.3049L33.562 19.3809H33.5722ZM34.0936 0.79106V18.8215L34.6048 18.7843C35.7442 18.7032 36.8987 18.6406 38.0347 18.595L38.4935 18.5764V7.30148L38.9827 8.21247C39.8901 9.89923 40.7941 11.5894 41.6829 13.2626L41.8183 13.5178H42.1078C42.4617 13.5127 42.8172 13.5094 43.171 13.5094C43.32 13.5094 43.8194 13.5094 44.075 13.5127L44.2104 13.2575C45.0992 11.5826 46.0032 9.8874 46.9106 8.19895L47.3999 7.28627V18.5578L47.8587 18.5764C48.9929 18.6204 50.1475 18.6812 51.2885 18.7539L51.7998 18.7877V0.760637L51.3545 0.731905C49.9342 0.638947 48.4952 0.567961 47.0748 0.524017L46.7752 0.513877L46.6364 0.775848C45.4869 2.94599 44.3222 5.16345 43.1727 7.36402L42.9408 7.80683L42.7088 7.36402C41.5678 5.18374 40.4048 2.97134 39.2468 0.79106L39.1063 0.525708L38.8067 0.535848C37.388 0.584862 35.9473 0.660919 34.5304 0.758947L34.0851 0.789369H34.0936V0.79106Z" fill="#DD0332"/>
<path d="M69.6769 21.8976L68.4733 21.6424C67.3492 21.4058 66.2082 21.181 65.0773 20.9765L64.2562 20.8278V11.0283C62.5159 13.8154 60.7671 16.643 59.0505 19.4469L58.7136 19.9962L58.0754 19.9185C56.8717 19.7697 55.641 19.6396 54.4272 19.5281L53.5198 19.4452V0.365234L54.6117 0.466643C55.7612 0.573121 56.9344 0.698191 58.0957 0.836783L58.976 0.943262V10.7275C60.6994 7.93031 62.4499 5.11791 64.1885 2.35453L64.5474 1.78495L65.2127 1.90495C66.4384 2.12636 67.6725 2.36636 68.8847 2.61988L69.6769 2.78721V21.8993V21.8976ZM68.5799 21.1354L69.1555 21.2571V3.20636L68.7746 3.12523C67.5676 2.87002 66.3385 2.63002 65.1179 2.41199L64.7997 2.35453L64.627 2.62833C62.7275 5.64862 60.8112 8.72805 58.9354 11.7821L58.4529 12.5681V1.40298L58.0331 1.35397C56.8751 1.21368 55.7087 1.09199 54.5609 0.983825L54.0395 0.936502V18.9686L54.4746 19.0075C55.6969 19.119 56.9293 19.2526 58.1397 19.3996L58.4445 19.4368L58.6053 19.1748C60.476 16.1123 62.3923 13.021 64.2952 9.98383L64.7776 9.2165V20.3985L65.1704 20.4695C66.3063 20.6757 67.4541 20.8988 68.5799 21.1388" fill="#DD0332"/>
<path d="M86.0221 26.7246L84.6847 26.2429C83.5826 25.8474 82.4534 25.4604 81.3361 25.0936L80.6488 24.8705V19.702C79.5433 19.3488 78.4158 19.004 77.2917 18.6795C76.6383 19.942 75.9831 21.2113 75.3263 22.4857L74.9589 23.1956L74.1853 22.9927C72.9342 22.6649 71.6628 22.3556 70.4067 22.0682L69.1133 21.7742L69.7515 20.6164C70.6251 19.026 71.4986 17.4474 72.3688 15.8773C71.8947 15.2806 71.4207 14.6874 70.9433 14.0975L70.7215 13.8237V6.41753L71.1126 6.11838C71.976 5.45753 72.8597 4.78655 73.74 4.12739L74.126 3.83838L74.5932 3.96007C78.2195 4.90486 81.8423 6.02373 85.3636 7.29134L86.0255 7.52796V26.7229V26.7246H86.0221ZM84.8591 25.7527L85.5007 25.9809V7.89472L85.1858 7.77979C81.6798 6.52063 78.0739 5.40345 74.4612 4.46542L74.2377 4.40796L74.0532 4.54655C73.1729 5.2057 72.2909 5.87331 71.4309 6.53415L71.243 6.67782V13.6429L71.3479 13.773C71.8609 14.4085 72.3721 15.0474 72.8834 15.6913L72.9934 15.8265L72.9105 15.977C72.0115 17.5978 71.1126 19.2271 70.2103 20.8665L69.9056 21.4209L70.5235 21.5612C71.7847 21.8468 73.0628 22.1595 74.319 22.4874L74.6897 22.5837L74.8641 22.2423C75.5514 20.9054 76.2404 19.5702 76.9278 18.2451L77.0277 18.0558L77.2342 18.115C78.4937 18.4767 79.7566 18.862 80.9925 19.2592L81.1719 19.3167V24.4868L81.5003 24.5933C82.6244 24.9601 83.7553 25.3471 84.8625 25.7494M81.1634 15.4851L80.8249 15.3753C79.1726 14.8496 77.4915 14.3527 75.8291 13.8998L75.6361 13.8474V8.59444L75.9679 8.6857C77.6439 9.1488 79.3334 9.65415 80.9857 10.1865L81.1651 10.244V15.4851H81.1634ZM76.1575 13.4536C77.6506 13.8643 79.1573 14.3071 80.6437 14.7753V10.6243C79.1641 10.1511 77.6574 9.6981 76.1575 9.27894V13.4536Z" fill="#DD0332"/>
</g>
<defs>
<clipPath id="clip0_44_473">
<rect width="86" height="96" fill="white"/>
</clipPath>
</defs>
</svg>
