<svg width="100" height="100" viewBox="0 0 100 100" fill="none" xmlns="http://www.w3.org/2000/svg">
<g clip-path="url(#clip0_135_900)">
<mask id="mask0_135_900" style="mask-type:luminance" maskUnits="userSpaceOnUse" x="14" y="10" width="71" height="80">
<path d="M85 10H14V90H85V10Z" fill="white"/>
</mask>
<g mask="url(#mask0_135_900)">
<path d="M84.3235 16.4847C81.429 15.4354 78.452 14.5044 75.4695 13.7227L75.2849 13.6748L75.1326 13.7903C74.4059 14.3396 73.6777 14.8959 72.9677 15.4466L72.8126 15.5664V21.3706L72.9006 21.479C73.3241 22.0086 73.7462 22.541 74.1683 23.0777L74.2563 23.1903L74.1878 23.3157C73.4457 24.6663 72.7035 26.0241 71.9586 27.3903L71.707 27.8522L72.2172 27.9692C73.2584 28.2072 74.3136 28.4677 75.3507 28.741L75.6568 28.8212L75.8007 28.5367C76.3682 27.4227 76.937 26.31 77.5044 25.2058L77.5869 25.0481L77.7574 25.0973C78.7972 25.3987 79.8399 25.7199 80.8602 26.0508L81.0083 26.0987V30.4072L81.2795 30.4959C82.2075 30.8016 83.1411 31.1241 84.0552 31.4593L84.5849 31.6494V16.579L84.3249 16.4833H84.3235V16.4847ZM80.5778 22.3128C79.3507 21.9227 78.1082 21.5537 76.8741 21.2114V17.7325C78.111 18.0818 79.3549 18.4565 80.5778 18.8537V22.3128Z" fill="white"/>
<path d="M70.6176 27.6127L71.0928 27.7141V12.6718L70.7783 12.6042C69.7817 12.3915 68.7671 12.1915 67.7594 12.0099L67.4966 11.962L67.354 12.1901C65.7859 14.707 64.2038 17.2732 62.6552 19.8183L62.2569 20.4733V11.169L61.9102 11.1282C60.9543 11.0113 59.9913 10.9099 59.0437 10.8197L58.6133 10.7803V25.807L58.9724 25.8394C59.9815 25.9324 60.999 26.0437 61.9983 26.1662L62.2499 26.1972L62.3826 25.9788C63.9271 23.4268 65.5092 20.8507 67.0801 18.3197L67.4785 17.6803V26.9986L67.8027 27.0578C68.7405 27.2296 69.6881 27.4155 70.6176 27.6155" fill="white"/>
<path d="M42.1476 10.6587V25.6841L42.5697 25.6531C43.5103 25.5855 44.4635 25.5334 45.4013 25.4953L45.7801 25.4799V16.0841L46.184 16.8432C46.9331 18.2489 47.6794 19.6573 48.4132 21.0516L48.525 21.2644H48.764C49.0561 21.2601 49.3497 21.2573 49.6418 21.2573C49.7648 21.2573 50.1771 21.2573 50.3881 21.2601L50.4999 21.0475C51.2337 19.6516 51.98 18.239 52.7291 16.832L53.1331 16.0714V25.4644L53.5119 25.4799C54.4482 25.5165 55.4014 25.5671 56.3434 25.6277L56.7656 25.6559V10.6334L56.3979 10.6094C55.2253 10.532 54.0373 10.4728 52.8647 10.4362L52.6173 10.4277L52.5027 10.646C51.5537 12.4545 50.5922 14.3024 49.6432 16.1362L49.4516 16.5052L49.2602 16.1362C48.3182 14.3193 47.358 12.4756 46.402 10.6587L46.286 10.4376L46.0386 10.446C44.8674 10.4869 43.678 10.5503 42.5082 10.632L42.1406 10.6573H42.1476V10.6587Z" fill="white"/>
<path d="M40.5773 13.1094C39.8352 12.4389 39.093 11.7784 38.3719 11.1403L38.2405 11.0234L38.0657 11.0432C35.1265 11.3798 32.1677 11.8516 29.269 12.4446L28.9531 12.5094V27.5488L29.4269 27.4516C30.369 27.2586 31.332 27.077 32.2852 26.9094L32.6122 26.8531V23.8037L32.7911 23.7727C34.5661 23.4713 36.369 23.215 38.1538 23.0121L38.3019 22.9953L38.4012 22.884C39.128 22.0756 39.8687 21.2615 40.5997 20.4643L40.7045 20.3488V13.2291L40.5731 13.1094H40.5773ZM36.594 19.608C35.4145 19.7601 34.2222 19.9347 33.0455 20.1276V15.3488C34.2208 15.1516 35.4131 14.9741 36.594 14.8192V19.608Z" fill="white"/>
<path d="M27.899 27.3637C26.8061 22.8666 25.7174 18.3863 24.63 13.9243L24.535 13.5342L24.1478 13.6342C22.145 14.1525 20.1324 14.7398 18.1687 15.3793L17.9521 15.4511L17.9045 15.6764C16.8312 20.7792 15.7522 25.937 14.7026 31.0074L14.5586 31.7032L15.2239 31.4623C16.1896 31.1131 17.1694 30.7722 18.1379 30.4567L18.3574 30.3849L19.0478 26.9117L19.168 26.8722C20.5391 26.4384 21.9367 26.0286 23.319 25.6539L23.5342 25.5947L24.2331 28.6623L24.6244 28.5623C25.6083 28.3102 26.6076 28.0708 27.5999 27.8482L27.9941 27.7595L27.8976 27.3652L27.899 27.3637ZM22.739 22.8117C21.8207 23.0637 20.8927 23.3313 19.9828 23.6102L19.639 23.7145L19.7103 23.3595C20.0807 21.5187 20.4482 19.6821 20.8186 17.8454L20.8438 17.7173L20.9682 17.6807C21.1471 17.6285 21.326 17.575 21.5035 17.5229L21.7201 17.4595L22.9361 22.7567L22.7362 22.8102L22.739 22.8117Z" fill="white"/>
<path fill-rule="evenodd" clip-rule="evenodd" d="M73.1248 71.5636H70.4302V64.1453H73.1248V57.7467H69.5482V79.8707H61.2617L61.3483 56.7509L61.3567 56.6594C61.8403 51.7594 64.4427 50.258 69.0605 50.2607H81.4114L81.452 79.8707H73.1248V71.5636Z" fill="#DD0332"/>
<path fill-rule="evenodd" clip-rule="evenodd" d="M74.0659 70.6155H71.3713V65.0901H74.0659V56.7985H68.611V78.9225H62.207L62.2894 56.7985L62.2936 56.7535C62.7283 52.3535 64.9324 51.2042 69.0624 51.207H80.4755L80.5146 78.924H74.0659V70.6155Z" fill="#DD0332"/>
<path fill-rule="evenodd" clip-rule="evenodd" d="M74.0659 70.6155H71.3713V65.0901H74.0659V56.7985H68.611V78.9225H62.207L62.2894 56.7985L62.2936 56.7535C62.7283 52.3535 64.9324 51.2042 69.0624 51.207H80.4755L80.5146 78.924H74.0659V70.6155Z" fill="white"/>
<path fill-rule="evenodd" clip-rule="evenodd" d="M79.5746 77.9763L79.5382 52.1523H69.0629C65.2711 52.1523 63.6024 53.0693 63.2292 56.8468L63.1523 77.9763H67.6737V55.8523H75.0071V66.0368H72.3152V69.6693H75.0071V77.9763H79.5746Z" fill="#DD0332"/>
<path fill-rule="evenodd" clip-rule="evenodd" d="M19.0977 66.8366C19.1046 66.2366 19.1046 63.838 19.0977 63.2394V56.7493C19.0977 53.2 21.3339 50.2803 25.0236 50.2803H33.116C36.8937 50.2803 39.2208 52.9211 39.2656 56.6409V56.662V62.2888H30.9301V57.7803H27.4555V72.3352H30.9301V66.9352H39.2656V73.3902C39.2656 77.1155 36.8896 79.7916 33.116 79.7916H25.0236C21.3758 79.7916 19.141 76.9394 19.0977 73.4268V66.8366Z" fill="#DD0332"/>
<path fill-rule="evenodd" clip-rule="evenodd" d="M20.0586 67.7843C20.0712 66.8688 20.0838 65.9547 20.0838 65.0392C20.0838 64.1237 20.0712 63.2096 20.0586 62.2913H20.0391V56.7491C20.0391 53.7237 21.8574 51.2266 25.0245 51.2266H33.1168C36.3788 51.2266 38.2894 53.4491 38.3285 56.6519V61.3448H31.8715V56.8364H26.5185V73.2843H31.8715V67.8843H38.3285V73.3927C38.3285 76.5956 36.3705 78.8462 33.1168 78.8462H25.0245C21.8979 78.8462 20.0726 76.4096 20.0391 73.4166V67.7829H20.0586V67.7843Z" fill="#DD0332"/>
<path fill-rule="evenodd" clip-rule="evenodd" d="M20.0391 67.7843C20.0516 66.8688 20.0544 63.2068 20.0391 62.2913V56.7491C20.0391 53.7237 21.8574 51.2266 25.0245 51.2266H33.1168C36.3788 51.2266 38.2894 53.4491 38.3285 56.6519V61.3448H31.8715V56.8364H26.5185V73.2843H31.8715V67.8843H38.3285V73.3927C38.3285 76.5956 36.3705 78.8462 33.1168 78.8462H25.0245C21.8979 78.8462 20.0726 76.4096 20.0391 73.4166V67.7829V67.7843Z" fill="white"/>
<path fill-rule="evenodd" clip-rule="evenodd" d="M37.3877 73.3947V68.8341H32.809V74.2341H25.5776V55.8932H32.809V60.4017H37.3877V56.6679C37.3569 53.9877 35.8642 52.1777 33.1164 52.1777H25.0241C22.377 52.1777 20.9766 54.2595 20.9766 56.7524V61.3496C20.9919 62.5834 20.9919 67.4989 20.9766 68.7355V73.4102C21.0073 75.8736 22.4119 77.9059 25.0241 77.9059H33.1164C35.867 77.9059 37.3904 76.0581 37.3904 73.3975" fill="#DD0332"/>
<path fill-rule="evenodd" clip-rule="evenodd" d="M58.4061 74.3468C58.5291 74.4793 58.6493 74.6243 58.7695 74.7807C59.9141 76.2793 60.2245 78.1793 60.2245 80.0243V90.0158H52.0762V80.0243C52.0762 79.5948 52.1069 79.1454 52.065 78.7187C52.0524 78.5863 52.0301 78.4131 51.977 78.2891C51.8931 78.0919 51.3201 78.0553 51.1663 78.044L49.3956 77.9384L49.4067 70.9807L50.9273 70.6863C51.1342 70.6454 51.8959 70.4764 52.0468 70.3046C52.072 70.2511 52.0776 70.1046 52.0776 70.0511V60.3454H60.2259V70.1793C60.2259 71.8877 59.5074 73.2736 58.4075 74.3454M40.2773 60.3398H48.4256V90.0074H40.2773V60.3398Z" fill="#DD0332"/>
<path fill-rule="evenodd" clip-rule="evenodd" d="M56.9673 74.323C57.3461 74.6033 57.6941 74.9258 58.024 75.3554C59.0331 76.6766 59.2832 78.3977 59.2832 80.0216V89.0667H53.0134V80.0216C53.0134 78.4258 53.2538 77.2216 51.2217 77.0991L50.3369 77.047L50.3439 71.7625L51.1056 71.6146C51.6074 71.5174 52.3859 71.3343 52.745 70.9357C52.9617 70.6934 53.0162 70.3681 53.0162 70.0512V61.2934H59.286V70.1822C59.286 71.9907 58.3132 73.3582 56.9701 74.3258M41.2188 61.292H47.4885V89.0667H41.2188V61.292Z" fill="white"/>
<path fill-rule="evenodd" clip-rule="evenodd" d="M53.9497 80.0214C53.9497 78.5875 54.2573 76.3326 51.2733 76.1552L51.2775 72.5453C52.8037 72.2509 53.9497 71.7044 53.9497 70.0509V62.2397H58.3412V70.1805C58.3412 72.4636 56.3915 73.7129 55.1462 74.2889C56.5662 75.1397 58.3412 75.9157 58.3412 80.0228V88.1214H53.9497V80.0228V80.0214ZM42.1523 62.2383H46.5437V88.1199H42.1523V62.2383Z" fill="#DD0332"/>
<path fill-rule="evenodd" clip-rule="evenodd" d="M53.9908 40.2153L66.6939 40.1914L56.4031 47.6985L60.3515 59.8646L50.0872 52.321L39.823 59.8646L43.7713 47.6985L33.4805 40.1914L46.1836 40.2153L50.0872 28.0322L53.9908 40.2153Z" fill="#DD0332"/>
<path fill-rule="evenodd" clip-rule="evenodd" d="M53.4905 40.9112L64.5639 40.8887L55.5925 47.431L59.0335 58.0366L50.0886 51.462L41.1424 58.0366L44.5819 47.431L35.6133 40.8887L46.6868 40.9112L50.0886 30.293L53.4905 40.9112Z" fill="white"/>
<path fill-rule="evenodd" clip-rule="evenodd" d="M50.0886 32.5518L52.9887 41.6067L62.4311 41.587L54.7819 47.1644L57.7169 56.2095L50.0886 50.6011L42.4603 56.2095L45.3954 47.1644L37.7461 41.587L47.1885 41.6067L50.0886 32.5518Z" fill="#DD0332"/>
<path d="M15.0898 31.0861C16.1534 25.958 17.2198 20.8495 18.2918 15.758C20.2653 15.1157 22.2513 14.5369 24.25 14.0186C25.3359 18.4791 26.4261 22.9594 27.519 27.458C26.5211 27.682 25.5246 27.92 24.5309 28.1763C24.2989 27.1524 24.064 26.1298 23.832 25.1059C22.1144 25.5594 20.4065 26.058 18.7083 26.6016C18.4777 27.7594 18.2485 28.9171 18.0179 30.0777C17.0381 30.3989 16.064 30.7369 15.094 31.0875M19.122 24.2946C20.5448 23.8453 21.9746 23.427 23.4128 23.0411C22.9474 21.0115 22.4834 18.9834 22.0179 16.9636C21.5148 17.1073 21.0102 17.2538 20.5099 17.4045C20.0473 19.6989 19.5846 21.9946 19.1248 24.296" fill="#DD0332"/>
<path d="M40.3135 13.4066V20.1953C39.5769 20.9953 38.8432 21.8024 38.1094 22.6179C36.1401 22.8433 34.1737 23.1278 32.2184 23.47V26.5193C31.261 26.6869 30.3036 26.8686 29.3477 27.0629V12.8362C32.2505 12.2418 35.1744 11.7756 38.1094 11.4404C38.8446 12.0883 39.5783 12.7432 40.3135 13.4066ZM32.2184 21.1137C33.9458 20.8123 35.6803 20.5559 37.4175 20.3433V13.8799C35.6789 14.0925 33.9472 14.3489 32.2184 14.6503V21.1137Z" fill="#DD0332"/>
<path d="M42.538 25.2588V11.0306C43.7106 10.9475 44.8832 10.8856 46.0558 10.8447C47.1879 12.9996 48.3214 15.1729 49.4534 17.3672C50.5856 15.1701 51.7191 12.9912 52.8511 10.832C54.0238 10.8687 55.1992 10.9278 56.369 11.0053V25.2348C55.4228 25.1714 54.4738 25.1222 53.5262 25.0855V14.4954C52.4011 16.601 51.276 18.7236 50.1481 20.8658C49.6827 20.863 49.2201 20.8658 48.7561 20.8687C47.631 18.7306 46.5031 16.6123 45.378 14.5109V25.101C44.429 25.1405 43.4828 25.194 42.5352 25.2616" fill="#DD0332"/>
<path d="M70.7001 27.2238C69.7596 27.0238 68.8176 26.8379 67.8755 26.6647V16.2971C65.9412 19.3985 63.9985 22.5577 62.0502 25.7703C61.0383 25.645 60.025 25.5365 59.0117 25.4436V11.2168C59.9649 11.3055 60.9167 11.4069 61.8671 11.5224V21.89C63.814 18.6718 65.7581 15.5112 67.6938 12.4055C68.6988 12.5872 69.7009 12.7844 70.7015 12.9971V27.2238H70.7001Z" fill="#DD0332"/>
<path d="M75.3722 14.1055C78.3422 14.8858 81.2856 15.8027 84.1928 16.8576V31.0872C83.2675 30.7505 82.3381 30.4308 81.4058 30.1223V25.8139C80.0711 25.3731 78.7335 24.9618 77.3863 24.5773C76.7433 25.8308 76.099 27.09 75.4519 28.3562C74.4065 28.0801 73.3582 27.8223 72.3086 27.5815C73.1178 26.0942 73.9271 24.6168 74.7335 23.1492C74.2262 22.5055 73.7203 21.8633 73.2129 21.228V15.759C73.9341 15.1998 74.6552 14.6491 75.3736 14.1069M81.403 18.2505C79.6294 17.6646 77.8447 17.1294 76.0501 16.6435V21.8478C77.8447 22.3337 79.6308 22.8688 81.403 23.4548V18.2505Z" fill="#DD0332"/>
<path d="M13.9805 32.3714L14.2824 30.9165C15.332 25.8446 16.411 20.6883 17.4843 15.5841L17.5836 15.1137L18.0378 14.9658C20.0113 14.3235 22.0309 13.7348 24.0435 13.2108L24.8499 13.001L25.0484 13.8179C26.1343 18.2798 27.2245 22.7587 28.3174 27.2573L28.5173 28.0812L27.6955 28.2658C26.7074 28.4869 25.7122 28.7249 24.7325 28.9771L23.9149 29.1869L23.2175 26.1249C21.9526 26.47 20.6765 26.8446 19.4201 27.2418L18.731 30.7136L18.2726 30.8658C17.3082 31.1826 16.3313 31.5207 15.3725 31.8671L13.9847 32.37H13.9805V32.3714ZM17.9526 15.4489L17.905 15.6742C16.8316 20.7771 15.7527 25.9348 14.703 31.0052L14.5591 31.701L15.2244 31.4601C16.1901 31.1108 17.1699 30.77 18.1384 30.4545L18.3579 30.3826L19.0483 26.9094L19.1685 26.87C20.5396 26.4362 21.9372 26.0263 23.3209 25.6517L23.5361 25.5926L24.2349 28.6601L24.6262 28.5601C25.6102 28.3081 26.6095 28.0686 27.6019 27.8461L27.996 27.7573L27.9009 27.363C26.808 22.8658 25.7192 18.3855 24.6318 13.9235L24.5368 13.5334L24.1497 13.6334C22.1469 14.1517 20.1343 14.739 18.1706 15.3784L17.954 15.4503L17.9526 15.4489ZM19.6395 23.7136L19.7108 23.3587C20.0812 21.5179 20.4487 19.6812 20.8191 17.8446L20.8443 17.7165L20.9687 17.6798C21.1476 17.6277 21.3265 17.5742 21.504 17.5221L21.7206 17.4587L22.9365 22.7559L22.7366 22.8094C21.8184 23.0616 20.8904 23.3291 19.9805 23.6081L19.6367 23.7122L19.6395 23.7136ZM21.2174 18.0573C20.8792 19.7334 20.5424 21.4094 20.2055 23.0883C20.9421 22.8671 21.6884 22.6503 22.4278 22.4461L21.4075 18.001C21.3432 18.0207 21.2817 18.039 21.2174 18.0573Z" fill="#DD0332"/>
<path d="M28.5234 28.0799V12.1559L29.1845 12.0221C32.093 11.4277 35.0658 10.9531 38.0175 10.6151L38.3796 10.5742L38.6549 10.8165C39.3775 11.4545 40.1224 12.1179 40.8646 12.7897L41.1399 13.0376V20.5236L40.9204 20.7616C40.1895 21.5601 39.4488 22.3728 38.7234 23.1771L38.5151 23.4095L38.2049 23.4446C36.49 23.6418 34.7541 23.8855 33.0448 24.1714V27.2179L32.3599 27.3376C31.4096 27.5052 30.4508 27.6841 29.513 27.8771L28.5234 28.0785V28.0799ZM28.9539 12.5094V27.5489L29.4277 27.4517C30.3697 27.2587 31.3326 27.0771 32.2859 26.9094L32.6129 26.8531V23.8038L32.7918 23.7728C34.5668 23.4714 36.3698 23.2151 38.1545 23.0122L38.3027 22.9953L38.4033 22.8841C39.1301 22.0756 39.8708 21.2616 40.6018 20.4644L40.7066 20.3489V13.2291L40.5753 13.1094C39.8331 12.439 39.091 11.7784 38.3698 11.1404L38.2384 11.0235L38.0637 11.0432C35.1259 11.3799 32.1657 11.8517 29.267 12.4446L28.9511 12.5094H28.9539ZM32.6116 20.6404V14.9827L32.7904 14.9517C34.1098 14.7277 35.4516 14.5291 36.7778 14.3573L37.0211 14.3263V19.9883L36.8324 20.0122C35.5158 20.1799 34.1797 20.3771 32.8603 20.5953L32.6101 20.6362L32.6116 20.6404ZM33.042 15.3517V20.1306C34.2216 19.9376 35.4137 19.7616 36.5906 19.6108V14.8235C35.4096 14.977 34.2174 15.1559 33.042 15.3517Z" fill="#DD0332"/>
<path d="M41.7155 26.1507V10.2563L42.4842 10.2028C43.6609 10.1197 44.8559 10.0577 46.0299 10.0169L46.5457 9.99998L46.7861 10.4591C47.6763 12.1549 48.5736 13.8718 49.4541 15.5704C50.3402 13.8577 51.2375 12.1352 52.125 10.4465L52.3655 9.9873L52.8798 10.0042C54.0566 10.0408 55.2515 10.1 56.4284 10.1774L57.1985 10.2296V26.1239L56.3179 26.0648C55.3801 26.0014 54.4311 25.9521 53.4975 25.9169L52.7037 25.8859V17.8014C52.0901 18.9549 51.4821 20.1113 50.8783 21.2535L50.6435 21.6986H50.5122C50.5122 21.6986 49.8063 21.6943 49.6358 21.6943C49.3451 21.6943 49.0531 21.6943 48.7596 21.6986L48.2578 21.7028L48.023 21.2563C47.4205 20.1141 46.8112 18.9619 46.2004 17.8112V25.8972L45.4079 25.9296C44.4744 25.969 43.5254 26.0225 42.5889 26.0873L41.707 26.1507H41.7155ZM42.1459 10.6591V25.6845L42.5679 25.6535C43.5086 25.5859 44.4617 25.5338 45.3996 25.4958L45.7784 25.4803V16.0845L46.1823 16.8436C46.9314 18.2493 47.6777 19.6578 48.4115 21.0521L48.5233 21.2648H48.7623C49.0545 21.2605 49.348 21.2578 49.64 21.2578C49.7631 21.2578 50.1754 21.2578 50.3864 21.2605L50.4982 21.0478C51.2319 19.6521 51.9783 18.2394 52.7274 16.8324L53.1313 16.0718V25.4648L53.5101 25.4803C54.4465 25.5169 55.3997 25.5676 56.3417 25.6282L56.7638 25.6563V10.6338L56.3962 10.6098C55.2236 10.5324 54.0356 10.4732 52.8629 10.4366L52.6156 10.4281L52.501 10.6465C51.552 12.4549 50.5905 14.3028 49.6414 16.1366L49.45 16.5056L49.2585 16.1366C48.3165 14.3197 47.3563 12.476 46.4003 10.6591L46.2843 10.438L46.037 10.4465C44.8657 10.4873 43.6763 10.5507 42.5065 10.6324L42.1389 10.6577H42.1459V10.6591Z" fill="#DD0332"/>
<path d="M71.5226 28.2483L70.5289 28.0357C69.6009 27.8385 68.6589 27.6512 67.7253 27.4807L67.0474 27.3568V19.1906C65.6106 21.5132 64.1668 23.8695 62.7496 26.2061L62.4715 26.6638L61.9446 26.5991C60.9509 26.4751 59.9348 26.3667 58.9327 26.2737L58.1836 26.2047V10.3047L59.085 10.3892C60.0341 10.4779 61.0026 10.5822 61.9614 10.6976L62.6881 10.7864V18.9399C64.1109 16.6089 65.5561 14.2653 66.9915 11.9624L67.2878 11.4878L67.837 11.5878C68.849 11.7723 69.8678 11.9723 70.8686 12.1836L71.5226 12.323V28.2497V28.2483ZM70.6169 27.6132L71.0921 27.7146V12.6723L70.7777 12.6047C69.7812 12.392 68.7665 12.192 67.7588 12.0103L67.4961 11.9624L67.3535 12.1906C65.7853 14.7075 64.2032 17.2737 62.6546 19.8187L62.2563 20.4737V11.1695L61.9097 11.1286C60.9537 11.0117 59.9907 10.9103 59.0431 10.8202L58.6127 10.7807V25.8075L58.9719 25.8399C59.981 25.9328 60.9984 26.0442 61.9977 26.1667L62.2493 26.1977L62.3821 25.9793C63.9265 23.4272 65.5086 20.8512 67.0796 18.3202L67.4778 17.6807V26.9991L67.8021 27.0582C68.7399 27.2301 69.6875 27.416 70.6169 27.616" fill="#DD0332"/>
<path d="M85.0182 32.2701L83.9141 31.8687C83.0042 31.5391 82.0719 31.2166 81.1495 30.9109L80.5821 30.725V26.4179C79.6694 26.1236 78.7386 25.8363 77.8105 25.5658C77.2711 26.6179 76.7302 27.6757 76.1879 28.7377L75.8846 29.3293L75.2459 29.1602C74.2131 28.887 73.1634 28.6293 72.1264 28.3898L71.0586 28.1448L71.5855 27.1799C72.3067 25.8546 73.0279 24.5391 73.7463 23.2307C73.3549 22.7334 72.9635 22.2391 72.5694 21.7475L72.3863 21.5193V15.3475L72.7092 15.0982C73.422 14.5475 74.1516 13.9884 74.8783 13.4391L75.197 13.1982L75.5827 13.2997C78.5765 14.087 81.5674 15.0194 84.4745 16.0757L85.021 16.2729V32.2687V32.2701H85.0182ZM84.058 31.4602L84.5877 31.6503V16.5785L84.3278 16.4828C81.4333 15.4335 78.4563 14.5025 75.4737 13.7208L75.2892 13.6729L75.1369 13.7884C74.4101 14.3377 73.682 14.894 72.972 15.4447L72.8168 15.5644V21.3687L72.9034 21.4771C73.327 22.0067 73.749 22.5391 74.1711 23.0757L74.2619 23.1883L74.1935 23.3138C73.4513 24.6644 72.7092 26.0222 71.9643 27.3883L71.7127 27.8503L72.2228 27.9673C73.2641 28.2053 74.3192 28.4658 75.3563 28.7391L75.6624 28.8193L75.8063 28.5348C76.3738 27.4208 76.9426 26.3081 77.5101 25.2038L77.5926 25.0461L77.7631 25.0954C78.8029 25.3968 79.8455 25.7179 80.8658 26.0489L81.014 26.0968V30.4053L81.2851 30.494C82.2131 30.7997 83.1468 31.1222 84.0608 31.4574M81.0069 22.9038L80.7275 22.8123C79.3634 22.3743 77.9755 21.9602 76.603 21.5828L76.4437 21.5391V17.1616L76.7176 17.2377C78.1013 17.6236 79.4961 18.0447 80.8602 18.4883L81.0083 18.5363V22.9038H81.0069ZM76.8742 21.2109C78.1068 21.5532 79.3507 21.9222 80.5779 22.3123V18.8532C79.3563 18.4588 78.1124 18.0813 76.8742 17.732V21.2109Z" fill="#DD0332"/>
</g>
</g>
<defs>
<clipPath id="clip0_135_900">
<rect width="71" height="80" fill="white" transform="translate(14 10)"/>
</clipPath>
</defs>
</svg>
