<svg width="100" height="100" viewBox="0 0 100 100" fill="none" xmlns="http://www.w3.org/2000/svg">
<path d="M34.4198 77.1437L33.3672 74.2428L37.7882 72.5851L44.9461 72.3779L51.2619 73.8284L66.6303 89.3689L62.4198 91.8554H62.2093H59.0514L57.5777 90.405L49.9988 86.0536L34.4198 77.1437Z" fill="white"/>
<path d="M83.0547 58.7028L85.3705 52.0722L90.2122 33.2164L91.2648 25.9642C90.7736 24.7209 89.0332 21.6543 86.0016 19.3335C82.9701 17.0128 76.4578 15.3275 73.5806 14.775L70.8438 14.9821H64.1069H55.0543C49.0894 14.6368 36.6964 14.0289 34.8438 14.3605C32.9911 14.692 26.6332 16.9851 23.6859 18.0902L19.4753 20.9911V21.4055L18.8438 23.4776L16.1069 24.5136L14.8438 26.1713L16.949 31.7659L26.2122 37.9821L34.2122 34.874C43.6157 34.9431 62.549 35.1226 63.0543 35.2884C63.5595 35.4542 76.0367 38.3965 82.2122 39.847C82.2823 41.919 82.3806 46.1875 82.2122 46.6848C82.0016 47.3064 75.0547 56.838 74.8442 57.2524C74.6758 57.5839 80.2477 58.3575 83.0547 58.7028Z" fill="white"/>
<path d="M23.7149 8.73538C23.1457 9.13676 24.2337 9.35774 23.0292 9.5246C23.0292 9.58323 23.6486 9.65088 24.172 9.86284C22.7229 9.64637 22.5629 9.99813 22.8006 11.7795C22.8874 12.4334 27.8794 22.8218 28.5149 23.7305C30.5903 26.7002 33.7652 27.751 34.4577 28.6913C36.4943 34.5675 40.5652 37.9454 37.4292 32.7501L37.772 32.6373C39.4269 34.1617 45.4932 38.6061 46.3434 39.7403C47.1937 40.8722 47.6829 43.1925 48.4006 44.3628C47.8452 45.4271 49.164 46.4103 50.2292 46.2795C48.9446 47.8827 48.8943 47.1792 48.4006 46.8432C48.2109 46.7147 47.7469 46.417 47.7149 46.3922C47.612 46.3066 47.9594 46.0675 47.9434 46.054C47.2966 45.5376 47.0726 45.7451 47.0292 45.7158C46.9789 45.6819 47.2463 45.4993 46.2292 44.8138C42.7549 47.0822 39.6394 43.5082 40.6292 41.7697C40.8669 41.3525 43.2897 42.5409 43.372 42.2207C42.1194 41.1721 41.1457 40.4416 39.7149 40.304C39.1526 40.2499 39.2074 40.3919 38.8006 40.5295C38.6726 40.5723 38.3869 39.7854 36.8577 41.8824C36.2772 40.8046 34.3434 40.2319 33.2006 40.304C34.5812 38.0153 38.3206 40.2409 36.5149 37.0344C36.444 36.9081 35.228 35.7085 35.0292 35.5687C31.804 33.298 30.796 35.226 30.572 35.3432C29.8909 35.6995 25.3423 38.4618 25.3149 38.8383C25.3103 38.8969 25.8314 39.8305 25.8863 39.853C27.3469 40.4934 33.0817 38.1664 27.7149 41.206L31.0292 41.3187L27.372 43.1226C29.9754 47.6798 34.6474 57.3172 37.2006 60.9341C41.4017 66.8848 44.5994 66.9682 51.372 68.2625C52.0554 68.3933 53.5549 69.1149 54.2292 68.939C58.5377 63.3762 65.372 60.5327 72.0577 58.7919L72.8577 58.0027C75.4482 53.1923 78.0387 48.3818 80.6292 43.5714C74.3412 40.4776 80.8737 41.9907 81.3149 41.091C75.1252 38.3828 82.2452 40.41 82.6863 39.287C83.0612 38.3332 76.7092 33.8911 75.7149 33.988C74.1857 34.1391 72.0852 37.4019 71.2577 38.6106C71.2417 39.2307 73.4977 38.8767 75.1434 40.5272C71.8086 40.7324 71.5732 41.0436 71.372 44.1351C71.7766 44.3335 73.8292 42.6559 73.772 43.5714C70.588 46.1149 65.516 47.6369 69.5434 47.2919C65.6623 51.1636 62.7297 48.5502 59.1434 53.6057C56.9949 53.3847 58.396 53.0465 58.4577 52.591C58.6337 51.2899 58.2337 51.4139 58.2292 51.3508C58.2154 51.1794 58.7092 50.8818 58.3434 50.4488C57.772 51.344 54.7754 60.0276 54.0006 59.9194C52.7526 58.9318 50.6246 50.5525 50.1149 50.4488C49.9846 50.4218 49.9846 50.6946 50.0006 50.8998H49.772C50.1034 48.5073 47.7172 49.6348 51.9434 47.9684C52.4143 49.0372 52.5332 52.7172 53.6577 52.9292C55.308 53.2381 55.1754 49.159 55.7149 47.9684C57.3972 46.2727 60.2543 50.3857 60.972 48.8704C61.2463 48.2931 59.0977 47.0011 58.6863 46.7282L60.972 42.6694L61.5434 42.1057C65.98 41.7088 68.732 34.6555 69.2006 34.3263C69.7263 33.9565 70.3937 34.6735 70.4577 34.6645C70.6474 34.6397 70.5492 34.2203 70.572 34.2135C70.7869 34.1481 70.7823 34.687 71.2577 34.1008C74.0714 26.2898 77.276 27.327 79.9434 23.2772C80.5103 22.4181 85.3926 11.9824 85.4292 11.3263C85.5046 9.95303 85.1823 9.70725 83.8292 9.86058C84.7023 9.4344 85.5274 9.83578 84.2863 8.73313C86.0669 7.78156 89.8269 5.4748 90.0006 6.36548C86.1903 12.9295 84.2337 20.5466 79.7149 26.6573C80.1126 27.3428 82.7366 24.8444 82.6863 25.9809C82.6657 26.4183 78.1149 32.1548 77.6577 33.1966L85.4292 36.1279C84.2109 42.5161 84.0326 49.1297 82.9149 55.5178C82.6932 56.7873 81.9 57.3263 82.0006 57.7727C85.4634 61.1821 94.796 70.991 95.7149 75.1355C97.0177 81.0095 92.3114 91.576 88.972 92.16C85.6394 92.7417 81.8063 91.6166 78.4577 91.4835C75.3263 91.3595 71.3972 93.3167 67.0292 89.4541C60.6749 90.8521 55.0063 87.3683 54.4577 80.66C46.3023 78.1616 34.9606 76.8267 28.4006 71.4149C22.0829 66.2061 14.924 51.4365 11.6006 43.7946C10.2589 40.7099 5.73315 29.3745 4.97201 26.8828C4.43487 25.1285 2.94458 21.9536 5.77201 21.5838C8.37315 23.3291 20.46 28.2425 21.6577 29.8142L24.2863 36.2407C24.9606 35.81 29.8497 33.9519 29.8863 33.6475C28.0577 31.0168 26.2292 28.3861 24.4006 25.7554L24.5149 25.4171L27.7149 27.2211C24.9309 20.2827 21.4132 13.1933 18.0006 6.36548L18.1149 5.80176C20.0234 6.69921 21.8474 7.76127 23.7149 8.73313V8.73538Z" fill="#061A35"/>
<path d="M47.7131 26.9981C44.6113 27.9339 49.7473 28.4751 47.7131 28.802C45.7999 28.0511 44.0788 27.1875 42.2273 26.3216C42.7256 25.5978 41.8136 25.6858 41.7702 25.6452C39.5233 23.5098 39.8868 20.9257 35.7131 19.7824C35.7336 20.3236 37.8616 21.9742 37.5416 22.2628C37.2696 22.362 37.1988 22.0351 36.9702 22.0373C33.4205 20.1004 34.3645 16.258 30.4559 15.2726C31.1942 18.1859 33.0685 20.5807 35.1416 22.7138C35.0959 22.6867 34.5153 22.7521 34.1131 22.4883C30.4513 20.0913 28.7439 12.4292 26.7988 10.9883C26.6845 10.9026 24.6365 10.0503 24.1702 9.86085C23.6468 9.64889 23.0273 9.58124 23.0273 9.52261C24.2319 9.35575 23.1439 9.13477 23.7131 8.7334C25.7908 9.81575 27.9256 9.37379 29.1988 13.3559C35.7565 16.3662 32.2959 18.1521 39.5988 20.9099C42.4445 25.7917 42.2525 26.4389 47.7131 26.9981Z" fill="#081128"/>
<path d="M84.2853 8.73535C85.5264 9.838 84.7013 9.43663 83.8281 9.8628C83.051 10.2416 81.0098 11.1278 80.6281 11.554C78.8018 14.8191 76.667 22.249 72.8567 22.7157C75.3207 20.9005 76.5984 18.0504 77.8853 15.3873C74.0636 15.5857 74.5321 21.5928 70.571 22.152L72.8567 19.6716L72.7424 19.3334C68.0978 21.55 68.7241 23.0404 67.1424 24.8579C66.3676 25.7486 65.0281 26.0778 65.5424 26.5491C63.6841 27.4443 61.755 28.2876 59.8281 29.0295L61.4281 27.2255C62.299 27.097 63.7733 26.7543 64.5138 26.3236C67.243 24.7361 66.603 20.8803 73.4281 18.4314C74.6853 14.4583 77.8853 14.5868 78.7996 13.5834C79.0853 13.2722 79.5767 11.2045 80.7424 10.3138C81.435 9.78614 83.4213 9.19761 84.2853 8.73535Z" fill="#070E25"/>
<path d="M24.1725 9.86257C24.6388 10.052 26.6868 10.9043 26.8011 10.99C28.7462 12.4286 30.4536 20.0931 34.1154 22.49C34.5176 22.7538 35.0982 22.6885 35.1439 22.7155C35.2011 22.7493 35.3154 22.6817 35.3725 22.7155C35.8571 22.9974 35.8525 23.3401 35.9439 23.392C37.0228 24.0008 39.1485 25.0268 40.4011 25.6469C40.8719 25.8814 41.7405 26.0956 42.2296 26.3234C44.0811 27.1892 45.8022 28.0529 47.7154 28.8037C48.8605 29.2525 51.6422 30.7001 52.6296 30.8332C55.4891 31.2187 57.3268 29.9943 59.8296 29.0292C61.7565 28.2874 63.6856 27.444 65.5439 26.5488C67.2468 25.7281 71.7176 23.5566 72.8582 22.7155C76.6685 22.2487 78.8033 14.8211 80.6296 11.5537C81.0113 11.1276 83.0525 10.2414 83.8296 9.86257C85.1828 9.70924 85.5051 9.95502 85.4296 11.3283C85.3931 11.9822 80.5108 22.4201 79.9439 23.2792C77.2765 27.3268 74.0719 26.2918 71.2582 34.1028C70.7828 34.689 70.7874 34.1501 70.5725 34.2155C68.5634 30.2334 65.7702 43.0096 60.8582 40.9802C58.2502 50.6199 55.0776 42.7413 55.9439 37.2596C55.2696 36.7838 55.3885 38.3578 54.9154 38.4998C54.8285 38.5269 53.1599 38.5539 53.0868 38.4998C52.8239 38.3036 52.7234 33.1828 51.2582 33.7645C50.4468 34.087 51.9371 34.3666 52.2868 37.2596C52.7782 41.3297 51.0594 48.6942 48.4011 44.3626C47.6834 43.1923 47.1942 40.872 46.3439 39.74C45.4936 38.6081 39.4274 34.1614 37.7725 32.6371L37.4296 32.7498C40.5656 37.9451 36.4948 34.5673 34.4582 28.691C33.7656 27.7507 30.5908 26.6999 28.5154 23.7302C27.8799 22.8215 22.8879 12.4354 22.8011 11.7792C22.5634 9.99786 22.7234 9.6461 24.1725 9.86257Z" fill="#FEFEFE"/>
<path d="M47.6018 12.1172C55.3641 11.6482 66.2235 12.1307 73.5446 14.7103C71.7412 18.1784 69.9812 17.9055 66.9161 19.8966C66.1595 21.8201 64.9092 23.5473 63.3732 24.9702C61.9904 25.6444 51.3229 25.5925 49.2018 25.4211C44.8635 25.0716 43.2406 24.5147 41.5446 20.3476C38.8361 17.7928 36.2761 18.4783 34.6875 14.4849C34.8269 13.6844 46.2212 12.2006 47.6018 12.1172Z" fill="#0277BE"/>
<path d="M36.9713 22.0372C35.4947 22.0552 35.2776 21.284 35.3713 22.7136C35.3142 22.6798 35.1999 22.7475 35.1427 22.7136C33.0696 20.5805 31.1953 18.188 30.457 15.2725C34.3656 16.2556 33.4216 20.1002 36.9713 22.0372Z" fill="#D1D3D4"/>
<path d="M72.8585 22.7132C71.7179 23.5543 67.2471 25.7257 65.5442 26.5465C65.0299 26.0753 66.3694 25.746 67.1442 24.8554C68.7259 23.0402 68.0997 21.5474 72.7442 19.3308L72.8585 19.6691L70.5728 22.1495C74.5339 21.5903 74.0654 15.5832 77.8871 15.3848C76.6002 18.0455 75.3225 20.898 72.8585 22.7132Z" fill="#C6C9CA"/>
<path d="M22.0016 19.333C22.4564 19.3668 24.0427 23.0761 23.8301 23.1663L19.6016 21.0242L22.0016 19.333Z" fill="#1177B6"/>
<path d="M88.628 21.3624C88.0154 21.5451 87.6589 22.0614 87.2566 22.4899C88.6417 19.802 87.0349 21.854 84.2852 22.6026L85.9994 19.333C87.1103 19.9103 87.8074 20.7062 88.628 21.3624Z" fill="#1578B6"/>
<path d="M41.7703 25.645C40.7851 25.6991 40.3211 24.7656 40.3989 25.645C39.1463 25.0249 37.0206 23.9989 35.9417 23.3901C35.8503 23.3382 35.8549 22.9955 35.3703 22.7136C35.2766 21.284 35.4937 22.0552 36.9703 22.0371C37.1989 22.0349 37.2697 22.3618 37.5417 22.2626C37.8617 21.9762 35.7337 20.3234 35.7131 19.7822C39.8869 20.9255 39.5234 23.5096 41.7703 25.645Z" fill="#C5C7C9"/>
<path d="M20.7446 23.6149C20.1321 22.8821 19.2909 21.6351 18.6875 21.811C19.4578 21.3217 19.3801 21.0105 20.7446 23.6149Z" fill="#1177B6"/>
<path d="M87.2575 22.4878C87.6598 22.0594 88.0163 21.543 88.6289 21.3604C91.0883 23.3311 92.9466 25.09 92.7432 28.4633C92.4895 32.6687 87.0495 47.0955 85.3146 52.2503L87.2575 35.0003C86.3043 34.3508 80.6746 32.8694 80.6289 32.0689C82.7203 29.3337 85.086 24.8013 87.2575 22.4855V22.4878Z" fill="#0277BE"/>
<path d="M20.7433 23.6156C21.525 24.5514 27.301 32.4301 27.1433 32.9735C27.1136 33.0727 25.4016 33.8732 25.2004 33.7627C24.1742 33.2012 26.0896 28.59 16.1719 24.6303C17.0153 23.6901 17.5753 22.5198 18.6862 21.8117C19.2896 21.6358 20.1307 22.8828 20.7433 23.6156Z" fill="#0575BA"/>
<path d="M17.3135 51.5764L16.8563 52.0274C14.5158 47.3372 12.1706 42.5726 10.2278 37.7088C9.60832 36.1574 5.77975 25.9562 5.65632 25.3068C5.62204 25.1264 5.60147 24.601 5.77061 24.5176C5.93289 25.0881 6.45404 25.3113 6.57061 25.5323C6.94318 26.2336 10.6895 37.2217 12.0563 40.4146C13.6358 44.1037 15.4689 48.0069 17.3135 51.5764Z" fill="#2371A8"/>
<path d="M41.7704 25.6447C41.8139 25.6853 42.7259 25.5974 42.2276 26.3212C41.7384 26.0934 40.8699 25.8792 40.399 25.6447C40.3213 24.7653 40.7853 25.6988 41.7704 25.6447Z" fill="#585865"/>
<path d="M61.4287 27.2235L59.8287 29.0275C57.3258 29.9926 55.4881 31.217 52.6287 30.8314C51.6412 30.6983 48.8595 29.2529 47.7144 28.802C49.7487 28.475 44.6127 27.9338 47.7144 26.998C50.9212 27.325 58.5395 27.6475 61.4287 27.2235Z" fill="#051934"/>
<path d="M70.5732 34.2137C70.5504 34.2204 70.6486 34.6399 70.4589 34.6647C70.3949 34.6737 69.7275 33.9566 69.2018 34.3264C68.7332 34.6556 65.9812 41.709 61.5446 42.1058L60.9732 42.6696L58.6875 46.7284C59.0989 47.0012 61.2475 48.2933 60.9732 48.8705C59.6406 48.1084 58.0795 47.2989 56.8589 46.3902C54.5641 43.2829 55.1995 41.6887 54.4589 41.4294C52.8132 40.8521 52.7675 44.6832 52.2875 45.4882C52.1595 45.6596 51.0144 46.5908 50.6875 46.8411C49.7275 47.574 47.4624 48.3474 47.0304 49.3215C46.6738 49.1682 46.8338 48.4624 46.4589 48.4196C45.8829 48.3542 45.5401 49.8424 47.2589 49.8853C47.0738 49.759 46.9344 49.538 47.0304 49.3215C47.7641 49.6372 50.1366 47.9889 50.9161 47.5176C51.2475 47.5853 51.7641 47.4387 51.9446 47.5176C52.7721 47.8784 52.9458 51.9688 53.6589 52.9294C52.5344 52.7197 52.4155 49.0374 51.9446 47.9686C47.7184 49.635 50.1046 48.5075 49.7732 50.9C49.7344 51.1841 49.8898 51.8853 49.6589 52.0274C49.3069 51.5652 48.5801 51.6486 48.4018 51.5764C47.6978 51.2878 44.7926 49.3238 42.6875 48.5323C44.8978 48.282 46.7561 48.5774 48.4018 46.8411C48.8955 47.1771 48.9458 47.8806 50.2304 46.2774C49.1652 46.4104 47.8464 45.4251 48.4018 44.3607C51.0601 48.6924 52.7789 41.3279 52.2875 37.2578C51.9378 34.3648 50.4475 34.0852 51.2589 33.7627C52.7241 33.1809 52.8246 38.3018 53.0875 38.498C53.1606 38.5521 54.8292 38.5251 54.9161 38.498C55.3892 38.3559 55.2704 36.782 55.9446 37.2578C55.0784 42.7395 58.2509 50.6181 60.8589 40.9784C65.7709 43.0078 68.5641 30.2315 70.5732 34.2137Z" fill="#07152D"/>
<path d="M51.3711 68.2605C54.2488 66.504 56.6877 64.0236 59.4854 62.1723C65.8237 57.9804 70.2282 57.6444 74.2282 48.7556C75.282 46.415 77.0785 42.4667 75.1425 40.5252C73.4968 38.8769 71.2408 39.2287 71.2568 38.6086C72.0842 37.3999 74.1848 34.1371 75.714 33.986C76.7082 33.8868 83.0602 38.3312 82.6854 39.285C82.2442 40.408 75.1242 38.3808 81.314 41.089C80.8728 41.9887 74.3402 40.4734 80.6282 43.5693C78.0378 48.3798 75.4473 53.1903 72.8568 58.0007L72.0568 58.7899C65.3711 60.5307 58.5368 63.3742 54.2282 68.937C53.554 69.1129 52.0545 68.3913 51.3711 68.2605Z" fill="#9EA1A4"/>
<path d="M38.7989 40.5268C38.2115 41.6566 37.9715 42.7502 38.1132 44.0219C32.104 41.5844 40.392 47.0165 43.0275 47.517C44.6457 47.8237 46.6663 47.8508 47.7132 46.3896C47.7452 46.4144 48.2092 46.712 48.3989 46.8406C46.7532 48.5768 44.8949 48.2815 42.6846 48.5318C44.7897 49.3232 47.6949 51.2872 48.3989 51.5759C51.2057 53.6278 52.3189 61.0419 53.4275 62.3994C51.6515 64.51 48.5109 64.2078 45.9989 63.7523C35.2423 61.8041 31.2606 44.2925 30.5703 35.3428C30.7943 35.2256 31.8023 33.2976 35.0275 35.5683C35.2263 35.7081 36.4423 36.9077 36.5132 37.034C38.3189 40.2405 34.5795 38.0126 33.1989 40.3036C34.3417 40.2315 36.2755 40.8042 36.856 41.882C38.3852 39.785 38.6709 40.5719 38.7989 40.5291V40.5268Z" fill="#FEFEFE"/>
<path d="M30.5697 35.3408C31.26 44.2905 35.2417 61.8021 45.9982 63.7503C48.5102 64.2058 51.6508 64.508 53.4268 62.3974C53.852 62.9183 54.0028 63.0829 54.5697 62.5101C54.924 62.1539 57.2897 56.2167 59.1411 53.6033C62.7274 48.5478 65.66 51.1612 69.5411 47.2895C65.5137 47.6345 70.5857 46.1125 73.7697 43.569C73.8268 42.6535 71.7742 44.3311 71.3697 44.1327C71.5708 41.0435 71.8062 40.73 75.1411 40.5248C77.0771 42.4663 75.2805 46.4146 74.2268 48.7552C70.2268 57.6418 65.8222 57.98 59.484 62.1719C56.6862 64.0209 54.2474 66.5036 51.3697 68.2601C44.5971 66.9658 41.3994 66.8846 37.1982 60.9317C34.6451 57.3148 29.9731 47.6774 27.3697 43.1202L31.0268 41.3163L27.7125 41.2036C33.0794 38.164 27.3445 40.491 25.884 39.8506C25.8291 39.8281 25.308 38.8945 25.3125 38.8359C25.34 38.4593 29.8885 35.6971 30.5697 35.3408Z" fill="#D9D9D9"/>
<path d="M39.7154 40.3018C39.3839 41.3977 38.9748 42.8814 39.2582 44.0224C39.5211 45.0822 45.8502 48.7104 47.0296 45.7136C47.0731 45.7429 47.2971 45.5355 47.9439 46.0518C47.9599 46.0654 47.6125 46.3044 47.7154 46.3901C46.6685 47.8512 44.6479 47.8242 43.0296 47.5175C40.3942 47.0169 32.1062 41.5849 38.1154 44.0224C37.9736 42.7507 38.2136 41.657 38.8011 40.5273C39.2079 40.3898 39.1531 40.2477 39.7154 40.3018Z" fill="#090F28"/>
<path d="M47.0267 45.7135C45.8472 48.7103 39.5181 45.0821 39.2552 44.0223C38.9718 42.8814 39.3809 41.3976 39.7124 40.3018C41.1432 40.4393 42.1169 41.1699 43.3695 42.2184C43.2872 42.5386 40.8644 41.3503 40.6267 41.7674C39.6369 43.506 42.7524 47.08 46.2267 44.8116C47.2438 45.4971 46.9764 45.6797 47.0267 45.7135Z" fill="#F9FAFB"/>
<path d="M68.4018 40.5274C69.8921 40.444 70.1001 42.965 69.8875 44.0225C69.4258 46.318 60.9664 48.7939 62.0018 44.1353C66.1458 47.7228 69.579 43.6392 68.5161 41.7676C68.315 41.4113 65.867 42.3787 65.3161 42.2186C65.2773 42.0495 68.2258 40.5364 68.4018 40.5274Z" fill="#F8FBFC"/>
<path d="M56.8566 46.3899C54.068 44.3131 55.3183 42.3108 54.4566 41.8801C53.1126 41.2081 53.5606 43.7855 52.2852 45.4879C52.7652 44.6829 52.8109 40.8518 54.4566 41.4291C55.1972 41.6884 54.5617 43.2804 56.8566 46.3899Z" fill="#D4A141"/>
<path d="M56.8561 46.3896C58.2687 48.3018 56.4676 46.3039 55.7133 47.968C55.1738 49.1586 55.3064 53.2377 53.6561 52.9288C52.943 51.9705 52.7693 47.8778 51.9418 47.5171C51.7613 47.4381 51.2447 47.5847 50.9133 47.5171C50.7076 47.4742 50.3418 47.623 50.2276 47.4043C50.2024 47.357 50.6618 47.1089 50.6847 46.8406C51.0116 46.5903 52.1567 45.659 52.2847 45.4877C53.5601 43.7852 53.1121 41.2078 54.4561 41.8798C55.3178 42.3105 54.0676 44.3128 56.8561 46.3896Z" fill="#E89E12"/>
<path d="M53.658 48.6449V44.3606C53.7814 43.7292 53.3608 42.5589 54.1151 42.6694C54.0877 45.6008 54.3185 51.2335 53.658 49.6596C53.5734 49.4589 53.7357 48.9335 53.658 48.6449Z" fill="#FEEBAC"/>
<path d="M53.6579 48.6447C53.0956 46.5566 53.2648 46.3762 53.6579 44.3604V48.6447Z" fill="#FCF6D6"/>
<path d="M60.972 48.87C60.2543 50.3853 57.3971 46.2724 55.7148 47.9681C56.4691 46.304 58.2703 48.3018 56.8577 46.3896C58.0783 47.2984 59.6394 48.1079 60.972 48.87Z" fill="#D4A141"/>
<path d="M50.6845 46.8408C50.6616 47.1092 50.2022 47.3572 50.2273 47.4045C50.3416 47.6233 50.7073 47.4744 50.9131 47.5173C50.1336 47.9886 47.7611 49.6369 47.0273 49.3212C47.4593 48.3471 49.7245 47.5737 50.6845 46.8408Z" fill="#CFA041"/>
<path d="M47.0291 49.321C46.9331 49.5375 47.0725 49.7585 47.2576 49.8848C45.5388 49.8419 45.8816 48.3537 46.4576 48.4191C46.8325 48.4619 46.6725 49.1677 47.0291 49.321Z" fill="#061A35"/>
<path d="M47.5986 49.998L48.8557 50.5618C48.538 50.8639 47.2214 50.5618 47.5986 49.998Z" fill="#061A35"/>
<path d="M58.228 51.3511C58.1251 52.695 54.9023 61.0742 53.9994 61.0472C51.9766 58.1248 50.9617 54.3073 49.9994 50.9001C49.9834 50.6949 49.9834 50.4221 50.1137 50.4491C50.6234 50.5529 52.7514 58.9298 53.9994 59.9197C54.7743 60.028 57.7708 51.3443 58.3423 50.4491C58.708 50.8821 58.2143 51.1797 58.228 51.3511Z" fill="#CAA357"/>
<path d="M58.227 51.3504C58.2316 51.4135 58.6316 51.2895 58.4556 52.5906C58.3939 53.0461 56.9927 53.3843 59.1413 53.6053C57.2899 56.2165 54.9242 62.1559 54.5699 62.5122C54.003 63.0849 53.8522 62.9203 53.427 62.3994C52.3184 61.042 51.2053 53.6278 48.3984 51.5759C48.5767 51.648 49.3036 51.5646 49.6556 52.0269C49.8864 51.8848 49.731 51.1835 49.7699 50.8994H49.9984C50.9607 54.3066 51.9756 58.1241 53.9984 61.0465C54.9013 61.0735 58.1242 52.6943 58.227 51.3504Z" fill="#0D111E"/>
<path d="M16.8555 52.0272L17.3126 51.5762C29.1229 74.4296 32.636 72.9053 57.084 79.6474L56.9698 80.4367C31.3629 73.9809 28.4966 75.3541 16.8555 52.0272Z" fill="#1376B5"/>
<path d="M70 61.7207C79.7691 60.9496 91.6686 67.7458 94.3429 77.1668C87.6823 74.5151 84.7291 73.568 79.1429 68.9364C78.0914 68.066 75.8697 64.3522 70 62.1717V61.7207Z" fill="#EA0D28"/>
<path d="M38.7998 66.2303V66.4558C33.2638 64.4174 30.3449 62.0948 30.1141 62.5097C30.4226 66.1762 33.5609 69.3376 36.6284 71.1911C37.1198 71.2587 36.9072 70.9047 36.9712 70.7401C37.5152 71.5248 42.3564 72.8056 43.4855 72.995C43.7255 73.0356 43.7072 72.5756 44.9712 73.446C43.7941 73.2701 41.9564 72.6568 43.0284 73.6715C45.4101 73.8767 56.2466 77.6897 56.9712 77.7303C58.0524 77.7912 59.1312 75.153 59.5998 74.1225V74.348L58.2284 77.8431L57.6569 78.1813C51.5724 75.9106 39.1564 73.8338 34.5712 70.2891C30.6375 67.2495 28.3655 61.7115 30.9141 62.1715C31.3529 62.2504 33.9198 64.3903 38.7998 66.2303Z" fill="#C91835"/>
<path d="M38.799 66.4566C39.9441 66.8783 41.1327 67.2052 42.2276 67.6968L41.7704 67.8095C41.5464 67.7847 41.311 67.8186 41.0847 67.8095C39.7681 67.7599 39.5647 68.0328 39.4847 68.035C39.4596 68.035 39.5716 67.7261 39.0276 67.8095C39.0527 67.7171 39.0436 67.3789 39.0276 67.3586C38.207 66.2266 36.2321 69.6743 36.9704 70.7409C36.9064 70.9055 37.119 71.2595 36.6276 71.1919C33.5601 69.3384 30.4219 66.177 30.1133 62.5105C30.3441 62.0956 33.263 64.4159 38.799 66.4566Z" fill="#EB0C29"/>
<path d="M68.6279 63.9756C71.8393 64.032 76.5113 65.908 76.0564 69.7256C75.709 72.6322 68.653 86.608 66.1136 87.8753C62.9913 89.4357 57.4553 85.5708 57.7707 83.0273C57.9056 81.9381 66.2187 65.5788 68.6279 63.9756Z" fill="#0277BE"/>
<path d="M59.6008 74.3481V74.1226C60.1791 72.8531 60.8236 72.2308 60.1722 71.8677C59.6328 71.5678 49.8431 69.818 48.0579 69.3873C47.2625 69.1957 45.2145 68.3117 44.8579 68.2599C43.0248 67.9961 44.6865 68.8462 45.2008 69.3873C45.2854 69.9195 44.9768 69.8135 44.9722 69.8383L43.3722 68.7109V68.4854C43.2945 67.9397 42.2271 67.8585 41.7722 67.8089L42.2294 67.6962C41.1345 67.2046 39.9459 66.8776 38.8008 66.456V66.2305C46.4534 69.1145 59.3905 71.1755 60.4008 71.6422C61.4362 72.1225 60.1791 73.5927 59.6008 74.3481Z" fill="#A93647"/>
<path d="M41.7699 67.8091C42.2247 67.8587 43.2922 67.9399 43.3699 68.4855C41.9573 68.0143 42.8807 68.4855 42.4556 69.0493C42.0282 69.6153 41.5162 69.6761 41.5413 69.7257C41.7127 70.0662 43.0796 69.4777 42.4556 70.2895C41.9642 70.4338 41.3859 69.9963 40.8556 70.2895C40.8922 70.2399 40.819 70.1136 40.8556 70.064C41.7493 68.8328 42.8396 67.9872 40.3984 68.2601V68.0346C40.691 67.9669 41.091 68.1879 41.0842 67.8091C41.3104 67.8181 41.5459 67.7843 41.7699 67.8091Z" fill="#F1A3AE"/>
<path d="M43.3724 68.4859V68.7114L42.9153 70.1771C42.8101 70.38 42.5976 70.2493 42.4581 70.2898C43.0821 69.4781 41.7153 70.0666 41.5439 69.7261C41.5187 69.6765 42.0307 69.6179 42.4581 69.0496C42.8833 68.4859 41.9599 68.0146 43.3724 68.4859Z" fill="#BB2137"/>
<path d="M59.6019 74.1232C59.1334 75.1537 58.0545 77.792 56.9734 77.7311C56.2488 77.6905 45.4122 73.8774 43.0305 73.6722C41.9585 72.6575 43.7962 73.2709 44.9734 73.4468C45.4168 73.5121 45.4739 73.1604 45.7734 73.2213C46.1071 73.6452 46.5117 73.7985 47.0305 73.8977C47.7894 74.0443 48.8705 74.5629 48.9734 74.5742C50.8179 74.7929 52.2419 74.2878 52.4019 74.3487C52.5345 74.3983 51.5334 76.3601 54.1162 74.7997C54.3151 74.7771 54.3265 74.8538 54.3448 75.0252C54.4659 76.1053 58.0225 78.4662 56.2877 72.5448C51.7848 73.9789 55.0419 72.8334 53.0877 71.6428C52.7265 71.4219 49.1448 70.3914 49.3162 71.6428C48.5459 71.1152 49.0602 71.1062 48.6305 70.7409C47.6522 69.9111 47.4945 70.4635 46.8019 70.5154C46.0248 70.5718 45.9334 70.5086 45.8877 70.5154C46.1139 69.8547 45.5379 69.742 45.2019 69.3879C44.6877 68.8468 43.0259 67.9967 44.8591 68.2605C45.2157 68.3123 47.2637 69.1963 48.0591 69.3879C49.8442 69.8186 59.6339 71.5684 60.1734 71.8683C60.8248 72.2314 60.1802 72.8537 59.6019 74.1232Z" fill="#E70B29"/>
<path d="M45.8856 70.5151C45.8444 70.5219 45.6273 70.8985 45.1999 70.9661C45.001 70.9909 44.9919 70.9098 44.9713 70.7406C44.9439 70.5016 44.9301 70.0506 44.9713 69.8387C44.9759 69.8139 45.2844 69.9199 45.1999 69.3877C45.5359 69.7417 46.1119 69.8545 45.8856 70.5151Z" fill="#FAAEBB"/>
<path d="M39.9415 69.6128C40.2341 69.7797 40.5541 69.9082 40.8558 70.0638C40.8192 70.1134 40.8924 70.2397 40.8558 70.2893C40.8398 70.3096 40.5427 70.2171 40.6272 70.7402C40.3507 70.614 40.1792 70.4494 39.9415 70.2893C39.8272 70.0863 39.6398 69.7661 39.4844 69.6128C39.5232 69.6556 39.8569 69.5654 39.9415 69.6128Z" fill="#D76F7B"/>
<path d="M42.457 70.2901C42.345 70.9711 44.3038 70.8831 44.9713 70.7411C44.9918 70.9102 45.001 70.9914 45.1998 70.9666C43.9884 71.1582 42.969 71.1469 41.7713 71.192C41.3827 71.0793 40.9918 70.9057 40.6284 70.7411C40.5438 70.2179 40.841 70.3104 40.857 70.2901C41.3873 69.9969 41.9655 70.4344 42.457 70.2901Z" fill="#E0707D"/>
<path d="M49.3131 71.6422C49.9028 72.0458 50.5039 72.0526 51.1417 72.3187C50.3851 72.1901 50.1268 72.5487 49.9988 72.5442C49.9165 72.5419 49.7154 71.4302 49.0845 72.9951C48.7257 72.9816 48.5748 74.6187 48.6274 70.7402C49.0571 71.1055 48.5428 71.1145 49.3131 71.6422Z" fill="#C61F3A"/>
<path d="M78.2299 70.9657C80.0379 70.3005 83.6059 74.3052 83.8299 75.3627C84.431 78.1904 79.6447 88.5517 77.5441 89.6814C75.695 90.6735 68.9499 90.0151 68.9727 88.4412C68.9796 88.0105 72.9887 82.6867 73.7727 81.2255C74.4859 79.8951 77.6996 71.1619 78.2299 70.9657Z" fill="#0277BD"/>
<path d="M45.8867 72.7703C45.921 72.7523 45.7747 72.3419 46.2296 72.0938C48.5473 70.8311 48.5107 74.1142 45.8867 72.7703Z" fill="#C21A2F"/>
<path d="M50.0002 72.5442L49.3145 73.4462C49.2688 73.4123 49.4608 73.011 49.0859 72.9952C49.7168 71.4325 49.9179 72.542 50.0002 72.5442Z" fill="#FDCED8"/>
<path d="M51.1414 72.3189C53.8386 73.4418 50.3871 74.2941 49.4271 73.8973C49.2169 73.8093 49.3494 73.4734 49.3129 73.4463L49.9986 72.5443C50.1266 72.5489 50.3849 72.1903 51.1414 72.3189Z" fill="#D7122C"/>
<path d="M45.8869 72.7695L47.0298 73.897C46.5109 73.7978 46.1064 73.6444 45.7727 73.2205C45.4732 73.1596 45.4161 73.5114 44.9727 73.446C45.3384 72.6613 45.8367 72.7988 45.8869 72.7695Z" fill="#C91835"/>
<path d="M54.3419 75.0253C54.3236 74.8539 54.3121 74.7773 54.1133 74.7998C54.1864 74.757 54.9864 73.6453 55.3704 73.6724C56.2481 73.7332 56.5796 76.4955 54.3419 75.0253Z" fill="#C6263C"/>
<path d="M86.2271 76.1522C87.0454 75.7891 89.418 77.1353 89.5414 77.6179C90.1311 79.9066 85.0751 90.7572 82.7985 91.0345C82.3231 91.0909 79.9803 90.6647 79.9414 90.2453C85.1163 84.7591 85.5071 76.4724 86.2271 76.1522Z" fill="#0478BE"/>
<path d="M40.6285 78.8579C43.2319 83.9449 52.1622 96.3627 58.2285 89.9069C58.8136 90.2248 62.5782 91.589 62.5713 91.8236C60.8982 93.4764 57.7965 95.4788 55.4856 95.7696C54.9462 95.8373 53.2936 95.835 52.7427 95.7696C45.7827 94.9398 37.7416 82.8603 34.457 77.1689C36.5462 77.5996 38.5667 78.3054 40.6285 78.8601V78.8579Z" fill="#0577BE"/>
<path d="M91.713 77.9561C91.8296 77.9516 93.5758 78.9437 93.6558 79.1963C94.113 80.6507 90.1701 90.4663 89.1987 90.809C89.0707 90.8541 86.5838 90.8564 86.4558 90.809C85.4341 90.4324 88.273 88.1392 89.5416 85.059C90.529 82.6643 90.9107 77.9899 91.713 77.9561Z" fill="#0777BD"/>
<path d="M58.2289 89.9074C52.1626 96.3632 43.2323 83.9455 40.6289 78.8584C44.6929 79.952 48.7592 81.0524 52.8575 82.0153C54.078 86.1462 54.1946 87.7134 58.2289 89.9074Z" fill="#EA0A29"/>
<path d="M42.4213 67.8196L38.2107 66.3691L36.1055 68.234L36.5265 71.1349L43.0528 73.6214L46.4213 74.4502L56.1055 77.3511L56.9476 76.7295L57.5792 75.6935L56.9476 71.1349L46.0002 68.6484L42.4213 67.8196Z" fill="#E70B29"/>
<g clip-path="url(#clip0_139_524)">
<mask id="mask0_139_524" style="mask-type:luminance" maskUnits="userSpaceOnUse" x="37" y="65" width="21" height="13">
<path d="M57.7733 69.9613L39.0352 65.707L37.263 73.2686L56.0011 77.5228L57.7733 69.9613Z" fill="white"/>
</mask>
<g mask="url(#mask0_139_524)">
<path d="M45.36 71.4834C45.2001 71.7676 45.0492 72.0359 44.8982 72.3042C44.9007 72.3063 44.9032 72.3085 44.9058 72.3108C45.0492 72.1804 45.1892 72.0461 45.3367 71.9205C46.0366 71.3238 46.7848 70.7988 47.6192 70.4027C48.0405 70.2027 48.4906 70.3682 48.6422 70.788C48.6797 70.8921 48.6941 71.007 48.7032 71.1183C48.7606 71.8124 48.8134 72.5069 48.8679 73.2012C48.8706 73.2371 48.8747 73.2728 48.8956 73.3115C48.9839 73.1368 49.0697 72.9608 49.161 72.7877C49.2895 72.5437 49.4232 72.3023 49.552 72.0587C49.581 72.004 49.6121 71.985 49.6779 71.9962C49.823 72.0212 49.9704 72.0338 50.1295 72.053C50.1158 72.0828 50.1063 72.107 50.0939 72.1295C49.9034 72.4759 49.7141 72.8228 49.5211 73.1675C49.4525 73.2898 49.436 73.4103 49.5119 73.5312C49.588 73.6526 49.7056 73.685 49.8449 73.6804C50.5122 73.6574 51.1453 73.5028 51.7408 73.1969C51.9681 73.0802 52.0953 72.8563 52.0683 72.6113C52.0421 72.3728 51.8686 72.1722 51.6342 72.1106C51.297 72.0219 50.9628 71.9192 50.6216 71.8493C50.2526 71.7736 49.8771 71.7288 49.5045 71.6704C49.4864 71.6675 49.4683 71.6644 49.4345 71.6588C49.5013 71.5424 49.5609 71.4337 49.6252 71.3279C49.6936 71.2154 49.7681 71.1065 49.8369 70.9942C49.9363 70.8322 50.0808 70.7737 50.2636 70.8071C51.0843 70.9567 51.8942 71.1484 52.6884 71.4037C52.9422 71.4852 53.1736 71.5904 53.3403 71.8059C53.6431 72.1979 53.6467 72.7216 53.3487 73.1232C53.3416 73.1327 53.3369 73.1439 53.3417 73.1667C53.4156 73.1135 53.4893 73.0603 53.5633 73.0071C54.0244 72.6756 54.5067 72.3796 55.0189 72.1318C55.3084 71.9917 55.5829 71.9897 55.8433 72.1859C55.9954 72.3004 56.0824 72.458 56.1085 72.6451C56.228 73.5033 56.294 74.3662 56.3094 75.2327C56.3159 75.6063 55.968 75.8121 55.6313 75.6434C55.0023 75.3281 54.4047 74.9626 53.8399 74.5445C53.8151 74.5261 53.7915 74.5059 53.7553 74.4771C53.8806 74.3677 53.9987 74.2603 54.1232 74.161C54.1413 74.1467 54.1976 74.161 54.2243 74.1793C54.5031 74.3703 54.7794 74.5649 55.0567 74.7583C55.1533 74.8256 55.256 74.8527 55.3659 74.792C55.479 74.7294 55.5098 74.6272 55.5031 74.5048C55.4844 74.1585 55.4711 73.812 55.4517 73.4657C55.4361 73.1859 55.2453 73.0869 55.0047 73.2308C54.5947 73.4758 54.2193 73.7678 53.8656 74.0858C53.55 74.3695 53.2487 74.6691 52.9437 74.9641C52.9042 75.0023 52.8768 75.0079 52.8312 74.9785C52.6392 74.8546 52.4427 74.7376 52.2527 74.6108C52.0788 74.4948 52.0617 74.3005 52.2126 74.1551C52.4502 73.9263 52.6934 73.7032 52.9378 73.4743C52.9203 73.4807 52.9018 73.4845 52.8864 73.4936C51.9459 74.056 50.9279 74.2874 49.839 74.2087C49.6731 74.1966 49.5086 74.1658 49.344 74.1412C49.113 74.1065 48.9529 73.9821 48.8697 73.7635C48.8652 73.7518 48.8646 73.7385 48.8586 73.707C48.728 73.9307 48.559 74.029 48.3309 73.974C48.2294 73.9495 48.1349 73.8925 48.0406 73.8437C47.4608 73.543 46.911 73.1954 46.3889 72.8045C46.377 72.7955 46.3665 72.7845 46.3435 72.7638C46.4764 72.6458 46.6048 72.5318 46.7393 72.4124C46.8133 72.4676 46.8813 72.5213 46.9521 72.5707C47.1829 72.7322 47.415 72.8919 47.6464 73.0525C47.7395 73.1173 47.8392 73.1304 47.9392 73.0747C48.0431 73.0168 48.0804 72.9234 48.0739 72.8054C48.054 72.4468 48.0406 72.0877 48.0201 71.729C48.0059 71.4765 47.8097 71.3753 47.5904 71.5056C47.1634 71.7593 46.7739 72.064 46.4071 72.3956C46.0971 72.6761 45.802 72.9728 45.5003 73.2622C45.4892 73.2728 45.4774 73.2828 45.4573 73.3009C45.2408 73.1629 45.0238 73.0266 44.8093 72.887C44.7179 72.8275 44.6841 72.7353 44.6911 72.5976C44.6492 72.6431 44.6253 72.668 44.6027 72.6939C44.4969 72.8152 44.3682 72.8844 44.2033 72.8607C43.743 72.7949 43.2794 72.745 42.824 72.6556C42.2165 72.5364 41.6091 72.4082 41.0135 72.2422C40.4733 72.0916 39.9476 71.8896 39.4186 71.7015C39.1973 71.6229 38.9793 71.531 38.7689 71.4272C38.6304 71.3589 38.4948 71.2731 38.3809 71.1698C38.1034 70.918 38.0741 70.5901 38.1923 70.262C38.4771 69.4726 38.8759 68.7355 39.2931 68.0084C39.3257 67.9518 39.3606 67.9289 39.4268 67.9354C39.6479 67.9574 39.8696 67.974 40.0911 67.9928C40.0926 68.0021 40.0941 68.0115 40.0956 68.0206C40.0226 68.0869 39.9483 68.1518 39.8767 68.2195C39.6745 68.4106 39.5233 68.6355 39.4302 68.897C39.3192 69.2085 39.3992 69.4894 39.5754 69.7504C39.8286 70.1253 40.187 70.382 40.5727 70.6037C41.0534 70.8801 41.5643 71.0889 42.1018 71.2266C42.5001 71.3286 42.9011 71.4267 43.3064 71.4942C43.917 71.5958 44.5334 71.5868 45.1485 71.5095C45.2125 71.5015 45.2765 71.4937 45.36 71.4834Z" fill="white"/>
<path d="M42.992 68.4926C42.9527 68.4837 42.932 68.4777 42.9108 68.4743C42.4443 68.4006 41.9755 68.359 41.5025 68.3946C41.1333 68.4226 40.7724 68.4843 40.4442 68.6733C40.1107 68.8655 40.0107 69.1792 40.2001 69.511C40.2731 69.639 40.3723 69.7585 40.4811 69.859C40.9776 70.3176 41.5879 70.5702 42.2224 70.7717C42.6363 70.9032 43.0605 70.9918 43.493 71.0422C44.0264 71.1043 44.5587 71.1179 45.0876 71.0006C45.3381 70.9451 45.5805 70.8652 45.7747 70.6856C45.965 70.5097 46.0194 70.2778 45.9109 70.0448C45.8588 69.9331 45.7874 69.8268 45.7076 69.7324C45.5322 69.5254 45.3108 69.3713 45.0788 69.2322C44.654 68.9776 44.1964 68.7984 43.722 68.6612C43.5329 68.6065 43.3379 68.5721 43.1474 68.5289C43.066 68.6716 43.0757 68.6664 43.1425 68.7931C43.179 68.8624 43.1964 68.9546 43.1874 69.0326C43.1653 69.2232 43.0532 69.3738 42.9245 69.5108C42.7759 69.6686 42.6012 69.7893 42.3842 69.8878C42.5911 69.413 42.7884 68.9599 42.992 68.4926ZM43.2914 68.4509C43.9621 68.6053 44.6581 68.8336 45.2969 69.2094C45.6007 69.3883 45.8846 69.5932 46.0977 69.8797C46.2041 70.0227 46.2787 70.179 46.2734 70.3636C46.2677 70.5655 46.1617 70.7133 46.006 70.8278C45.7203 71.0377 45.3856 71.1139 45.0433 71.1597C44.449 71.2392 43.8585 71.2025 43.2693 71.1075C42.5358 70.9891 41.8286 70.7877 41.1585 70.4675C40.8238 70.3076 40.5001 70.126 40.2319 69.868C40.0983 69.7395 39.9714 69.5938 39.8802 69.4341C39.7068 69.1301 39.7969 68.8219 40.0891 68.6227C40.3956 68.4139 40.7472 68.3433 41.1055 68.3014C41.8266 68.2171 42.5367 68.2987 43.2914 68.4509Z" fill="white"/>
<path d="M43.9581 68.9248C44.495 69.1387 45.0117 69.3589 45.3707 69.8194C45.6237 70.144 45.5471 70.4659 45.1825 70.6627C45.1356 70.6881 45.0866 70.7105 45.0369 70.7298C44.6837 70.8667 44.3142 70.891 43.9414 70.885C43.3803 70.8759 42.8335 70.7766 42.3015 70.6069C41.8454 70.4615 41.4045 70.2772 41.0275 69.9759C40.8969 69.8715 40.7755 69.7493 40.6739 69.6169C40.4597 69.3379 40.5296 69.0219 40.8312 68.8379C41.0625 68.6969 41.3211 68.6408 41.5845 68.6087C41.9548 68.5635 42.3248 68.5829 42.6938 68.6252C42.7028 68.6262 42.7114 68.6305 42.7333 68.6377C42.6626 68.8019 42.593 68.9644 42.5226 69.1266C42.413 69.3797 42.3013 69.6322 42.1937 69.886C42.1387 70.0157 42.1943 70.1182 42.3341 70.1412C42.6106 70.1862 42.8796 70.1482 43.1402 70.0485C43.2012 70.0251 43.254 69.9934 43.2938 70.0787C43.33 70.1562 43.3252 70.237 43.2537 70.2776C43.187 70.3154 43.1102 70.3453 43.0348 70.3557C42.6772 70.4051 42.3415 70.3238 42.0194 70.1752C41.9884 70.1609 41.9588 70.1436 41.9179 70.1217C41.896 70.1647 41.8757 70.2043 41.8475 70.2596C41.9862 70.3164 42.1136 70.3745 42.2451 70.4211C42.5414 70.5264 42.8411 70.6258 43.1587 70.6383C43.2914 70.6435 43.4303 70.6291 43.5584 70.5943C43.7485 70.5426 43.7772 70.3957 43.6418 70.2535C43.597 70.2064 43.557 70.1547 43.5148 70.1052C43.5219 70.0939 43.529 70.0828 43.5361 70.0715C43.5948 70.0818 43.6534 70.0922 43.7169 70.1032C43.7472 70.0399 43.7457 69.9947 43.6637 69.9721C43.5955 69.9534 43.5301 69.9247 43.4503 69.8958C43.7807 69.6528 44.0137 69.3719 43.9581 68.9248Z" fill="white"/>
</g>
</g>
<defs>
<clipPath id="clip0_139_524">
<rect width="19.215" height="7.76642" fill="white" transform="matrix(0.975182 0.221403 -0.228186 0.973617 39.0352 65.707)"/>
</clipPath>
</defs>
</svg>
