<svg width="100" height="100" viewBox="0 0 100 100" fill="none" xmlns="http://www.w3.org/2000/svg">
<g clip-path="url(#clip0_135_889)">
<mask id="mask0_135_889" style="mask-type:luminance" maskUnits="userSpaceOnUse" x="13" y="5" width="75" height="90">
<path d="M88 5H13V95H88V5Z" fill="white"/>
</mask>
<g mask="url(#mask0_135_889)">
<path fill-rule="evenodd" clip-rule="evenodd" d="M13.0916 65.2438C13.0916 68.3 13 68.6375 13.5127 69.1625C17.7058 73.2125 21.9539 77.0563 26.6231 80.5438C34.1853 86.1688 41.3447 90.7625 49.8408 94.6625L50.5367 95C50.5367 95 50.5367 95.0187 51.2507 94.7C64.3611 88.775 77.2883 79.1375 87.5606 69.1812C88.1099 68.6562 87.9817 68.3 87.9817 65.2625C88 47.8812 87.8901 30.5 87.8901 13.1H83.7703C78.2588 13.1 72.729 14.2625 67.6203 16.4187L67.5288 16.475L66.3752 17.0375C64.6907 15.0875 63.2075 13.625 61.1934 11.9C59.9117 10.8125 58.4468 9.78125 57.0735 8.80625C54.6565 7.11875 53.4114 6.425 51.0127 5.20625C50.5183 4.9625 50.5183 4.9625 50.0239 5.20625C47.6802 6.36875 46.0688 7.25 43.8716 8.80625C42.5166 9.7625 41.0334 10.8312 39.7517 11.9C37.701 13.5875 36.2177 15.0312 34.5332 17L33.3797 16.4375L33.2881 16.3812C28.1977 14.2062 22.668 13.0625 17.1382 13.0625H13C13.0916 30.4812 13.0916 47.8625 13.0916 65.2438Z" fill="#104533"/>
<path fill-rule="evenodd" clip-rule="evenodd" d="M35.7424 22.269L31.7874 20.319C27.2646 18.3877 22.2842 17.3377 17.2305 17.3002V66.3127C17.2305 67.419 21.2588 70.5877 21.9912 71.319C22.8335 72.1252 23.7856 72.8377 24.6645 73.5877C26.9167 75.4815 36.8411 82.8127 39.2398 83.6752C39.258 82.1002 39.313 80.5627 39.313 78.9877C39.313 78.7065 39.313 78.7065 39.0932 78.5752C39.0017 78.519 38.8552 78.4252 38.6904 78.3502C38.2693 78.069 37.6101 77.769 36.5481 77.0565C31.7874 73.794 30.176 72.4815 25.9463 69.144L23.4744 66.9877C22.7786 66.4252 21.4236 65.3752 21.4053 64.4565C21.3503 62.9377 21.4236 61.2877 21.4236 59.7502C21.4419 47.2815 21.387 34.7565 21.387 22.2502C27.2646 22.344 32.1353 24.8565 36.3284 27.6127C36.9875 28.044 37.1523 27.7815 37.9397 27.4815C41.7849 25.9815 46.1429 25.2502 50.519 25.2502C54.8953 25.2502 59.2349 25.9815 63.0984 27.4815C63.8857 27.7815 64.0322 28.044 64.7097 27.6127C68.9028 24.8752 73.7734 22.3815 79.6511 22.2502C79.6511 34.7752 79.5962 47.2627 79.5962 59.7877C79.5962 61.3252 79.6512 62.9752 79.5962 64.494C79.5779 65.6565 76.0622 68.319 75.0552 69.1815C70.862 72.519 69.2507 73.8315 64.4534 77.094C63.3914 77.8252 62.7322 78.1065 62.3111 78.3877C62.1645 78.4815 62.0181 78.5565 61.9082 78.6127C61.6885 78.7627 61.6885 78.7627 61.6885 79.0252C61.6885 80.6002 61.7434 82.1377 61.7617 83.7127C64.1604 82.8502 74.0847 75.519 76.3369 73.6252C77.1975 72.894 78.1862 72.1815 79.0103 71.3565C79.7427 70.6252 83.771 67.4565 83.771 66.3502V17.3377C78.7356 17.3377 73.7185 18.4065 69.2141 20.3565L65.259 22.3065C64.6731 21.7252 64.197 20.9377 63.6477 20.2815C61.7434 17.994 60.9377 17.1877 58.5757 15.1627C57.6052 14.3564 53.3938 11.1689 51.3796 10.1002C50.519 9.6502 50.4825 9.6502 49.6218 10.1002C47.626 11.1689 43.3963 14.3564 42.4258 15.1627C40.0454 17.1877 39.2398 17.994 37.3354 20.2815C36.8411 20.9002 36.3466 21.6877 35.7424 22.269Z" fill="#CF1F2E"/>
<path fill-rule="evenodd" clip-rule="evenodd" d="M43.3948 77.4689L43.3216 86.0377L50.5359 89.8064L57.7319 86.1127V77.4502L55.7544 82.7002H45.4272L43.3948 77.4689ZM75.6396 62.8627L75.5115 62.9564C74.4678 63.9877 73.0212 65.2627 72.0324 66.1252C70.6409 67.3064 68.938 68.6564 67.2351 69.8939C65.5139 71.1314 63.7744 72.2939 62.8955 72.8752C62.456 73.1752 62.2363 73.3252 62.1081 73.3814L61.9433 73.5314L66.7773 59.8627L70.6225 57.4064L69.2859 61.5877L75.6579 57.5189C75.6396 59.3002 75.6396 61.0814 75.6396 62.8627ZM25.487 62.8627C25.6518 63.0314 25.8899 63.2189 26.0547 63.3877C26.604 63.8939 27.7026 64.9252 29.0942 66.0877C30.4858 67.2689 32.1887 68.6189 33.8916 69.8564C35.5945 71.0939 37.3523 72.2564 38.2312 72.8377C38.6706 73.1377 38.8904 73.2877 39.0185 73.3439L39.1833 73.4939L34.3493 59.8252L30.5042 57.3689L31.8408 61.5502L25.4688 57.5002C25.487 59.3002 25.487 61.0814 25.487 62.8627ZM43.3948 73.4377L45.5188 67.8877H55.5896L57.6404 73.6252L60.2588 66.6877L50.5725 64.0814L40.9045 66.6689L43.3948 73.4377ZM61.3208 63.7814L52.5134 61.4564L53.612 58.3627L60.0756 54.3689L62.5293 56.7502L58.5559 59.1502L62.5659 60.1627L61.3208 63.7814ZM39.7143 63.7814L48.5217 61.4564L47.4231 58.3627L40.9594 54.3689L38.5058 56.7502L42.4975 59.1502L38.4692 60.1627L39.7143 63.7814ZM72.3987 30.8939L75.5664 27.1064V41.1127L72.3987 37.8502V30.8939ZM28.728 30.8939L25.542 27.1064V41.1127L28.728 37.8502V30.8939ZM65.5872 51.8939L62.0532 51.9127L58.8122 48.5939H63.042L64.7266 44.4314L67.8393 45.8189L65.5872 51.8939ZM56.8164 52.9252H44.3102V48.5939H56.8164V52.9252ZM35.5212 51.8939L39.0368 51.9127L42.2595 48.5939H38.0664L36.3635 44.4314L33.2508 45.8189L35.5212 51.8939Z" fill="white"/>
<path fill-rule="evenodd" clip-rule="evenodd" d="M50.5732 46.5877C50.5916 46.5689 51.0493 45.9502 51.0677 45.9314C51.562 45.2752 52.5508 43.9252 53.0451 43.2689C53.5396 42.6127 53.5396 42.6127 53.4663 42.5564C53.393 42.5002 53.2649 42.4252 52.917 42.3502C52.5508 42.2752 51.9831 42.2002 51.4888 42.1814C50.9028 42.1252 50.2986 42.1252 49.7127 42.1814C49.2182 42.2002 48.6323 42.2752 48.2844 42.3502C47.9182 42.4252 47.7901 42.5002 47.7351 42.5564C47.6619 42.6127 47.6619 42.5752 48.1562 43.2689C48.6506 43.9252 49.6394 45.2752 50.1338 45.9314C50.4268 46.4002 50.5183 46.5314 50.5732 46.5877ZM42.6814 35.3939L43.1026 35.9752L44.7871 38.3002C45.2083 38.8814 45.2266 38.9002 45.2266 38.9002L45.0617 38.9752C44.8969 39.0314 44.5674 39.1439 44.2378 39.3127C43.9082 39.4627 43.5786 39.6502 43.249 39.8189C42.9195 39.9877 42.5898 40.1939 42.4068 40.3252L42.2419 40.4189L42.0222 40.2502C41.8025 40.0814 41.363 39.6877 40.7954 39.2564C40.2278 38.8252 39.532 38.3189 39.1841 38.0752C38.8362 37.8314 38.8362 37.8314 38.8362 37.7939C38.8545 37.7752 38.9094 37.7189 39.1109 37.5689C39.3123 37.4189 39.6602 37.1564 40.0813 36.8564C40.5024 36.5752 40.9968 36.2564 41.418 36.0127C41.8391 35.7689 42.2419 35.6002 42.425 35.5064C42.6081 35.4127 42.6631 35.4127 42.6814 35.3939ZM58.3919 35.3939L57.9707 35.9752L56.2862 38.3002C55.865 38.8814 55.8467 38.9002 55.8467 38.9002L56.0115 38.9752C56.1763 39.0314 56.5058 39.1439 56.8354 39.3127C57.1651 39.4627 57.4946 39.6502 57.8242 39.8189C58.1538 39.9877 58.4834 40.1939 58.6665 40.3252L58.8313 40.4189L59.051 40.2502C59.2708 40.0814 59.7102 39.6877 60.2778 39.2564C60.8455 38.8252 61.5412 38.3189 61.8891 38.0752C62.237 37.8314 62.237 37.8314 62.237 37.7939C62.2188 37.7752 62.1638 37.7189 61.9624 37.5689C61.761 37.4189 61.4131 37.1564 60.9919 36.8564C60.5708 36.5752 60.0764 36.2564 59.6552 36.0127C59.2341 35.7689 58.8313 35.6002 58.6482 35.5064C58.4651 35.4127 58.4468 35.4127 58.3919 35.3939ZM49.8042 38.1127C49.3281 38.1689 48.7971 38.2064 48.4492 38.2627C48.1013 38.3189 47.9549 38.3377 47.8816 38.3564L47.8083 38.3752L47.5886 37.7002C47.3689 37.0252 46.9294 35.6189 46.6731 34.9252C46.4534 34.2127 46.4534 34.2127 46.4534 34.1939C46.4534 34.1939 46.4534 34.1752 46.5998 34.1377C46.7463 34.0814 47.0942 34.0064 47.5337 33.9314C47.9732 33.8564 48.5774 33.7814 49.1084 33.7627C50.1521 33.6877 50.9578 33.6877 52.0015 33.7627C52.5508 33.8189 53.1184 33.8564 53.5761 33.9314C54.0156 34.0064 54.3453 34.0814 54.51 34.1377L54.6565 34.1939C54.6565 34.1939 54.6565 34.2127 54.4367 34.9252C54.217 35.6377 53.7776 37.0252 53.5213 37.7002L53.3015 38.3752L53.2283 38.3564C53.155 38.3377 53.0086 38.3002 52.6607 38.2627C52.3127 38.2064 51.7635 38.1689 51.3057 38.1127C50.738 38.0564 50.3901 38.0564 49.8042 38.1127ZM31.219 48.2939C31.2007 48.3127 31.1641 48.3127 31.1641 48.3127L31.8232 48.7439C32.4641 49.1752 33.7825 49.9814 34.4234 50.4127C35.0643 50.8252 35.0643 50.8252 35.0825 50.8252H35.9432C36.7854 50.8252 38.4333 50.8064 39.2573 50.8064H40.0996C40.0996 50.8064 40.1179 50.8064 39.4404 51.5189C38.7446 52.2314 37.3896 53.6752 36.6938 54.3689L35.998 55.0814L34.7163 54.2752C33.4346 53.4689 30.8894 51.8377 29.6076 51.0314L28.326 50.2252L28.6006 51.0314C28.8753 51.8377 29.388 53.4314 29.6443 54.2377L29.919 55.0439L29.2049 54.5939C28.4907 54.1439 27.0258 53.2439 26.3117 52.7939L25.5977 52.3439L25.6893 51.9314C25.7808 51.5189 26.0188 50.7127 26.33 49.7752C26.6597 48.8377 27.0442 47.7689 27.4653 46.8314C27.8865 45.8752 28.2893 45.0314 28.7287 44.2064C29.1682 43.3627 29.626 42.5564 30.2669 41.6564C30.9077 40.7377 31.7317 39.7064 32.1528 39.2002L32.574 38.6939L31.4204 36.7627C30.2669 34.8314 27.9414 30.9689 26.7695 29.0377L25.6159 27.1064L25.854 27.1627C26.092 27.2189 26.5682 27.3127 27.1357 27.5189C27.7217 27.7252 28.4175 28.0064 29.1316 28.3252C29.8457 28.6627 30.5415 29.0377 31.3105 29.4689C32.0796 29.9002 32.8852 30.4252 33.6909 31.0064C34.4783 31.5877 35.2656 32.2439 35.6685 32.5814C36.0713 32.9189 36.0713 32.9377 36.0713 32.9377C36.0713 32.9377 36.0713 32.9564 36.4192 32.7877C36.7487 32.6377 37.408 32.3002 38.0305 32.0377C38.6531 31.7752 39.2207 31.5314 39.5136 31.4002L39.8066 31.2689L40.0996 31.7002C40.3925 32.1314 40.9968 32.9939 41.2898 33.4252L41.5828 33.8564L41.8025 33.7252C42.0222 33.5939 42.4983 33.3127 42.956 33.0877C43.4321 32.8627 43.8716 32.6752 44.3843 32.5252C44.8969 32.3752 45.4646 32.2814 45.7758 32.2252L46.0688 32.1689L45.9224 31.7564C45.7758 31.3814 45.5195 30.6127 45.4097 30.2189L45.2815 29.8439L45.5012 29.7877C45.7209 29.7314 46.1604 29.6564 46.8562 29.5814C47.552 29.5064 48.4859 29.4314 49.2549 29.4127C50.1704 29.3564 51.0493 29.3564 51.9648 29.4127C52.7339 29.4314 53.6677 29.5064 54.3635 29.5814C55.0593 29.6564 55.4987 29.7314 55.7185 29.7877L55.9383 29.8439L55.8101 30.2189C55.6818 30.5939 55.4072 31.3627 55.2974 31.7564C55.1508 32.1314 55.1508 32.1689 55.1508 32.1689C55.1508 32.1689 55.1692 32.1689 55.4438 32.2252C55.7368 32.2814 56.3044 32.3752 56.8354 32.5252C57.3482 32.6752 57.8242 32.8627 58.2636 33.0877C58.7398 33.3127 59.1792 33.5939 59.4172 33.7252L59.637 33.8564L59.9299 33.4252C60.2229 32.9939 60.8271 32.1314 61.1201 31.7002L61.4131 31.2689C61.4131 31.2689 61.4314 31.2689 61.706 31.4002C61.999 31.5314 62.5667 31.7564 63.1892 32.0377C63.8117 32.3189 64.4709 32.6377 64.8005 32.7877C65.1302 32.9377 65.1302 32.9377 65.1484 32.9377C65.1484 32.9377 65.1484 32.9189 65.5513 32.5814C65.9541 32.2439 66.7048 31.5877 67.5288 31.0064C68.3162 30.4252 69.1401 29.9189 69.9092 29.4689C70.6782 29.0189 71.3924 28.6627 72.0881 28.3252C72.8023 27.9877 73.498 27.7252 74.0839 27.5189C74.6699 27.3127 75.146 27.2189 75.3657 27.1627L75.6037 27.1064L74.4502 29.0377C73.2966 30.9689 70.9712 34.8314 69.7993 36.7627C68.6274 38.6939 68.6458 38.6939 68.6458 38.6939L69.0669 39.2002C69.488 39.7064 70.2937 40.7377 70.9529 41.6564C71.5937 42.5752 72.0332 43.3814 72.4909 44.2064C72.9304 45.0502 73.3333 45.8752 73.7544 46.8314C74.1755 47.7877 74.5784 48.8564 74.8896 49.7752C75.2193 50.7127 75.4023 51.5189 75.5305 51.9314L75.6221 52.3439L74.9079 52.7939C74.1938 53.2439 72.729 54.1439 72.0149 54.5939L71.3008 55.0439L71.5755 54.2377C71.8501 53.4314 72.3628 51.8377 72.6191 51.0314L72.8938 50.2252L71.612 51.0314C70.3303 51.8377 67.7852 53.4689 66.5034 54.2752L65.2217 55.0814L64.5258 54.3689C63.83 53.6564 62.4018 52.1377 61.761 51.4814L61.0652 50.7689H61.9258C62.768 50.7689 64.416 50.7877 65.24 50.7877H66.1006L66.7597 50.3752C67.4006 49.9627 68.719 49.1377 69.3599 48.7064C70.0007 48.2939 70.019 48.2752 70.019 48.2752C70.019 48.2752 70.0007 48.2752 69.9641 48.2564C69.9458 48.2377 69.8726 48.1814 68.9937 47.5439C68.1331 46.8877 66.4485 45.6502 65.6062 45.0127L64.7639 44.3752H68.4992L68.3344 44.1314C68.1697 43.8877 67.8218 43.3814 67.4922 42.9127C67.1626 42.4627 66.8513 42.0502 66.5217 41.6752C66.1922 41.3002 65.8625 40.9439 65.6794 40.7564L65.5146 40.5877L63.3723 41.9377C61.23 43.2877 56.8904 45.9314 54.748 47.2814L52.6057 48.6314L53.3198 49.3627C54.0339 50.0939 55.4438 51.5377 56.158 52.2502L56.8721 52.9814L55.8284 53.3377L51.6536 54.7627L50.6099 55.1189L50.5183 55.1002C50.5 55.1002 50.4633 55.0814 50.4451 55.0814L49.5844 54.7814L45.4097 53.3564L44.3659 53.0002L45.08 52.2689C45.7942 51.5377 47.2041 50.0939 47.9182 49.3814L48.6323 48.6502L46.49 47.3002C44.3477 45.9502 40.0081 43.3064 37.8657 41.9564L35.7234 40.6064L35.5586 40.7752C35.3938 40.9439 35.0459 41.3002 34.7163 41.6939C34.3867 42.0689 34.0755 42.4814 33.7458 42.9314C33.4162 43.3814 33.0867 43.8877 32.9036 44.1502L32.7388 44.3939H36.4742L35.6318 45.0314C34.7896 45.6689 33.105 46.9064 32.2443 47.5627C31.3289 48.2189 31.2557 48.2752 31.219 48.2939Z" fill="#C4C4C4"/>
</g>
</g>
<defs>
<clipPath id="clip0_135_889">
<rect width="75" height="90" fill="white" transform="translate(13 5)"/>
</clipPath>
</defs>
</svg>
