<svg width="100" height="100" viewBox="0 0 100 100" fill="none" xmlns="http://www.w3.org/2000/svg">
<g clip-path="url(#clip0_135_975)">
<mask id="mask0_135_975" style="mask-type:luminance" maskUnits="userSpaceOnUse" x="15" y="5" width="70" height="91">
<path d="M85 5H15V96H85V5Z" fill="white"/>
</mask>
<g mask="url(#mask0_135_975)">
<path fill-rule="evenodd" clip-rule="evenodd" d="M84.7655 15.5408C60.7456 16.1139 49.9942 5 49.9942 5C49.9942 5 39.2487 16.1139 15.2306 15.5408L15 50.1406C15.0271 61.305 16.7325 71.8216 25.9703 80.2961C34.2218 87.869 44.6573 93.6742 49.9884 96H50.0116C55.3427 93.6742 65.7782 87.869 74.0297 80.2961C83.2675 71.8216 84.9728 61.305 85 50.1406L84.7655 15.5408Z" fill="#193E73"/>
<path fill-rule="evenodd" clip-rule="evenodd" d="M49.9966 7.24023C49.9966 7.24023 39.9623 17.0251 16.7969 17.0755L16.8124 51.3076C16.8395 62.4738 19.0545 72.1186 28.6102 80.259C35.8908 86.4618 45.4562 91.7668 49.9966 93.9339C54.5371 91.7668 64.1024 86.4674 71.383 80.259C80.9406 72.1186 83.1537 62.4738 83.1808 51.3076L83.1963 17.0755C60.0328 17.0251 49.9966 7.24023 49.9966 7.24023Z" fill="white"/>
<path fill-rule="evenodd" clip-rule="evenodd" d="M49.9942 9.72852C49.9942 9.72852 40.6149 18.8918 18.9766 18.9403L18.9901 51.6063C19.0153 62.0352 21.085 71.0473 30.0108 78.6519C36.8128 84.4384 45.7522 89.4261 49.9942 91.4514C54.2362 89.4261 63.1718 84.4459 69.9776 78.6519C78.9034 71.0473 80.9732 62.0389 80.9983 51.6063L81.0119 18.9403C59.3735 18.8918 49.9942 9.72852 49.9942 9.72852Z" fill="#193E73"/>
<path fill-rule="evenodd" clip-rule="evenodd" d="M53.6901 46.8146L50.6224 37.7353L47.5567 46.8146H37.6329L45.6615 52.4256L42.5938 61.5068L50.6224 55.8938L58.653 61.5068L55.5853 52.4256L63.614 46.8146H53.6901ZM64.5519 29.6882L63.9066 29.4904L64.6081 28.4376L64.5519 29.6882ZM68.3482 23.3958L64.5597 22.2441L63.8426 22.0257L63.6178 22.7164L63.1411 24.163L62.9144 24.8536L63.269 24.9619L58.9631 31.4167L58.3274 31.2301L58.1007 31.9207L57.624 33.3693L57.3973 34.058L58.1143 34.2764L60.9397 35.135L61.6568 35.3534L61.8834 34.6647L62.3582 33.2162L62.5849 32.5255L62.0036 32.3501L62.3428 31.8405L64.4298 32.4751L64.4046 33.0781L63.8233 32.9026L63.5965 33.5914L63.1217 35.0399L62.8931 35.7305L63.6101 35.9489L66.4355 36.8075L67.1525 37.0259L67.3793 36.3353L67.856 34.8868L68.0828 34.198L67.4471 34.0114L67.7784 26.347L68.1331 26.4552L68.3598 25.7665L68.8366 24.318L69.0632 23.6273L68.3463 23.4107V23.3958H68.3482ZM50.1051 30.7578H49.5353V30.2575L50.5623 28.8427L51.3162 30.7578H50.9461V33.7239H55.4032V30.7578H54.6106L52.696 25.9046L54.5447 23.3623H55.4187V20.3887H50.9616V23.1886L49.5508 25.1262V23.351H50.1206V20.3887H45.7293V23.3548H46.2874V30.7578H45.7293V33.7239H50.1031V30.7578H50.1051ZM41.8361 34.7375L41.9776 34.4668L42.7527 32.9866L42.8922 32.7233L42.7992 32.4415L42.3108 30.9613L42.0822 30.2725L41.3652 30.4928L39.8595 30.9538L39.1425 31.1741L39.3711 31.8628L39.5242 32.3277L36.7589 33.1732L34.4334 26.1192L37.2026 25.2737L37.3654 25.7665L37.5941 26.4552L38.3111 26.2368L39.8169 25.7739L40.5339 25.5537L40.3033 24.8648L39.4351 22.2385L39.2083 21.5498L38.4913 21.7682L36.9836 22.2292L36.2666 22.4475L36.3151 22.595L36.1213 22.4943L35.8229 22.5858L32.2417 23.6814L31.9433 23.771L31.7999 24.0399L31.0441 25.4528L31.0073 25.5219L30.986 25.5966V25.6059L30.9297 25.8094L30.9956 26.011L34.0109 35.1332L34.104 35.4188L34.3811 35.557L35.9314 36.3241L36.2085 36.4622L36.505 36.3707L41.5435 34.829L41.8361 34.7375Z" fill="white"/>
<path fill-rule="evenodd" clip-rule="evenodd" d="M52.8803 47.9218L50.6265 41.2523L48.3747 47.9218H41.0825L46.9794 52.0451L44.7295 58.7184L50.6265 54.5968L56.5255 58.7184L54.2717 52.0489L60.1706 47.9255L52.8803 47.9218ZM42.0921 32.6602L41.6037 31.1819L40.0961 31.6522L40.4836 32.8077L36.2784 34.0789L33.4918 25.6455L37.6912 24.3724L38.0788 25.5521L39.5845 25.091L38.7182 22.4628L37.2067 22.9183L37.3385 23.3215L36.5905 23.5511L36.044 23.2748L32.4667 24.3724L31.7109 25.7873L34.7243 34.9076L36.2746 35.6767L41.313 34.1349L42.0882 32.6546L42.0921 32.6602ZM65.2671 30.663L62.7479 29.8957L65.4822 25.7892L65.2671 30.6611V30.663ZM67.6488 25.5334L68.1255 24.0849L64.337 22.9333L63.8622 24.3817L64.4436 24.5572L59.2927 32.2739L58.8276 32.1302L58.3509 33.5805L61.1763 34.4391L61.6531 32.9906L60.8527 32.748L62.0329 30.9765L65.2168 31.9453L65.1122 34.0452L64.3118 33.8026L63.8371 35.2511L66.6605 36.1098L67.1373 34.6613L66.6702 34.5194L67.0578 25.358L67.6391 25.5334H67.6488ZM49.3572 31.4824H48.7874V30.0301L50.7718 27.3068L52.4151 31.4824H51.7021V33H54.6651V31.4824H54.1031L51.8648 25.7967L54.165 22.6327H54.6651V21.1133H51.7021V22.6327H52.2737L48.7855 27.4281V22.6327H49.3553V21.1133H46.4872V22.6327H47.0453V31.4824H46.4872V33H49.3572V31.4824Z" fill="#CE0E2D"/>
<path fill-rule="evenodd" clip-rule="evenodd" d="M54.0769 51.9826L56.2086 58.2955L50.6255 54.3943L45.0445 58.2955L47.1761 51.9826L41.5951 48.0776H48.4939L50.6255 41.7646L52.7572 48.0776H59.6561L54.075 51.9788V51.9826H54.0769ZM50.9415 41.6695L50.6255 40.7361L50.3097 41.6695L48.2517 47.7621H40.5718L41.3993 48.3408L46.7866 52.1039L44.7286 58.1966L44.4127 59.1299L45.2402 58.5513L50.6255 54.7974L56.0129 58.5625L56.8403 59.1411L56.5244 58.2078L54.4665 52.1151L59.8537 48.352L60.6812 47.7734H52.9995L50.9415 41.6806V41.6695ZM36.2795 35.5526L34.8241 34.8246L31.8417 25.7956L32.5529 24.4629L36.0411 23.3989L36.5915 23.6733L37.5081 23.3933L37.3743 22.9901L38.6456 22.6018L39.4382 25.0004L38.1689 25.3906L37.7813 24.209L33.33 25.5717L36.1903 34.2329L40.628 32.8758L40.2405 31.7203L41.5098 31.3302L41.9458 32.648L41.2114 34.0405L36.2679 35.5526H36.2795ZM41.3974 34.2459L42.2249 32.6779L41.6842 31.0372L39.9401 31.571L40.3277 32.7283L36.3647 33.9398L33.6517 25.7266L37.6147 24.5152L38.0023 25.6967L39.7463 25.161L38.8026 22.3069L37.0585 22.8408L37.1922 23.2422L36.6109 23.4288L36.0605 23.1525L32.3785 24.2725L31.6034 25.7303L31.582 25.7956L34.6071 34.9515L34.6226 34.9981L36.2601 35.812L41.3528 34.2552L41.4012 34.2403L41.3974 34.2459ZM65.148 30.5127L62.9388 29.8407L65.336 26.238L65.1422 30.5089L65.148 30.5127ZM65.3825 30.8355L65.6247 25.3644L62.5532 29.9713L65.3825 30.8318V30.8355ZM66.5452 34.5278L66.9464 25.2096L67.5587 25.3962L67.9599 24.1755L64.4097 23.0966L64.0086 24.3154L64.6209 24.5021L59.3325 32.4278L58.8945 32.2934L58.4933 33.5142L61.0804 34.3L61.4816 33.0811L60.6541 32.8123L61.9738 30.8337L65.3418 31.8566L65.2372 34.2067L64.4019 33.9529L64.0008 35.1718L66.5879 35.9595L66.989 34.7387L66.551 34.6062V34.5147L66.5452 34.5278ZM67.7293 25.6781L68.2796 23.9981L64.2546 22.7755L63.7043 24.4554L64.243 24.6197L59.2336 32.1254L58.7395 31.9761L58.1871 33.6561L61.251 34.5894L61.8013 32.9094L61.0416 32.6798L62.0823 31.1174L65.086 32.0302L65.0046 33.8837L64.2411 33.6523L63.6907 35.3323L66.7526 36.2656L67.3048 34.5856L66.8108 34.4363L67.1983 25.5231L67.737 25.6874L67.7293 25.6781ZM49.2322 32.8739H46.6103V31.5953H47.1684V22.5048H46.6103V21.2261H49.2322V22.5048H48.6625V27.8023L52.515 22.5048H51.829V21.2261H54.542V22.5048H54.1022L51.7282 25.7733L54.0188 31.5953H54.542V32.8739H51.829V31.5953H52.5925L50.802 27.0463L48.6703 29.9844V31.5953H49.24V32.8739H49.2322ZM49.4803 31.3545H48.9125V30.0609L50.7321 27.5559L52.2282 31.3545H51.5752V33.1147H54.7882V31.3545H54.1874L52.0034 25.8068L54.2281 22.7456H54.7882V20.9854H51.5752V22.7456H52.0344L48.9125 27.0388V22.7456H49.4803V20.9854H46.3603V22.7456H46.9204V31.3545H46.3603V33.1147H49.4803V31.3545Z" fill="#193E73"/>
<path fill-rule="evenodd" clip-rule="evenodd" d="M72.8349 68.6557L70.0909 70.4382L68.5948 68.3029L69.0444 68.0098L67.186 62.5312L68.9048 61.4112L73.4879 65.1202L73.9394 64.829L75.4355 66.9626L72.8329 68.6538H72.8349V68.6557ZM64.2268 66.7293L64.3004 66.8935L64.4148 66.8469L64.3431 66.6826L64.2268 66.7293ZM65.5484 69.4153L65.3973 69.0738L65.281 69.1204L65.4322 69.462L65.5484 69.4153ZM66.0969 71.9894L69.37 70.6529L68.3254 68.2823L67.8797 68.4689L66.6744 65.7362L67.12 65.5495L66.0755 63.179L60.4131 65.4935L61.4576 67.8642L61.9033 67.6775L63.1086 70.4103L62.6629 70.5969L63.7074 72.9676L66.1008 71.9894H66.0969ZM59.9112 71.1177L59.8491 70.8619L59.7949 70.875L59.8569 71.1289L59.9112 71.1177ZM57.4152 71.6777L56.7214 68.7844L56.2505 68.889L55.6498 66.3709L59.1553 65.5906L59.7561 68.1012L59.1631 68.232L59.2038 68.4055L60.3665 68.1479L62.0758 69.335L62.6126 71.5751L61.6184 73.3782L57.5488 74.2853L56.9443 71.7841L57.4152 71.6795V71.6777ZM52.5704 74.0016L52.6383 74.7483L56.1827 74.4496L55.9501 71.8849L55.4598 71.926L55.1905 68.9692L55.6362 68.93L55.4017 66.3653L49.4602 66.8655L49.6947 69.4321L50.1753 69.3911L50.4446 72.3441L49.652 72.4113L49.8846 74.9779L52.0162 74.7913L52.5782 73.9979L52.5704 74.0016ZM43.8966 72.0548L44.1117 69.0943L43.6291 69.0607L43.8229 66.4922L49.2489 66.8655L48.9931 70.2908L47.8866 70.2161L47.7975 71.4574L48.902 71.5321L48.654 74.9573L43.228 74.584L43.4217 72.0156L43.9042 72.0473L43.8966 72.0548ZM40.327 71.2186L41.3269 71.422L42.978 70.2367L43.4644 68.0303L42.4335 66.244L38.5441 65.4376L37.9879 67.9575L38.4608 68.0546L37.8193 70.9572L37.3465 70.8601L36.7903 73.3801L40.2882 74.0968L40.8424 71.5769L40.2611 71.4593L40.3173 71.2055L40.327 71.2186ZM35.0501 67.9537L34.1974 69.8914L34.649 70.078L33.6045 72.4505L30.3934 71.1439L31.4379 68.7732L31.8914 68.9599L32.7441 67.0111L31.0542 66.3205L32.4495 63.1472L38.1333 65.4711L36.738 68.6444L35.0482 67.9537H35.0501ZM28.9303 64.1048L28.4672 64.8514L30.6356 66.1058L31.6511 64.4781L31.2848 62.4715L29.2559 61.2881L27.2443 61.9189L24.5469 66.2421L24.9112 68.2487L26.944 69.4247L28.9555 68.7975L29.9709 67.1679L27.8044 65.9135L27.3432 66.6602L27.2676 66.6173L28.8547 64.0731L28.9303 64.1048Z" fill="white"/>
<path fill-rule="evenodd" clip-rule="evenodd" d="M70.6396 65.2L69.876 64.571L70.1977 65.4875L70.6396 65.2ZM60.4619 71.3244L60.268 70.4396L60.1091 70.324L59.2235 70.5199L59.5045 71.694L60.3921 71.4962L60.4793 71.3244H60.4619ZM41.1373 69.1163L41.3137 68.321L41.207 68.1344L40.5327 67.9944L40.3079 69.1013L40.9823 69.2395L41.1547 69.1163H41.1373ZM72.2422 66.5029L71.8547 66.1894L70.6919 66.9491L70.8488 67.4139L71.2132 67.1768L72.1608 68.5302L70.2229 69.7845L69.283 68.4237L69.6338 68.196L67.7735 62.7174L68.8799 61.9988L73.465 65.7077L73.8158 65.48L74.7614 66.8315L72.8236 68.0859L71.8837 66.7437L72.25 66.5048H72.2422V66.5029ZM66.1882 69.6669L65.6941 69.8685L66.3568 71.3618L68.723 70.3949L68.0603 68.8923L67.6164 69.0789L66.0293 65.4763L66.4751 65.2896L65.8123 63.787L63.4461 64.7558L64.107 66.2491L64.603 66.0457L65.0585 67.0798L64.0411 67.496L63.5857 66.4619L64.0818 66.2603L63.419 64.7576L61.0529 65.7264L61.7137 67.2198L62.1594 67.0331L63.7562 70.6636L63.3125 70.8504L63.9732 72.3436L66.3394 71.3767L65.6786 69.8834L65.1825 70.0869L64.6496 68.8773L65.6669 68.4592L66.1999 69.6706L66.1882 69.6669ZM58.0007 72.0264L57.088 68.2147L56.6171 68.3191L56.2295 66.7288L58.7798 66.1688L59.1673 67.7592L58.5743 67.8917L58.836 68.9855L60.2623 68.6683L61.642 69.6277L62.0954 71.5224L61.2951 72.9765L57.9116 73.7231L57.524 72.1327L57.9949 72.0282H58.0007V72.0264ZM53.4855 72.5545L53.1328 68.6552L52.1774 68.7355L52.5805 73.1631L51.7472 74.3372L50.3442 74.4566L50.1969 72.8309L50.8635 72.7748L50.9759 72.6162L50.6348 68.8661L50.1543 68.9071L50.005 67.2814L54.9699 66.8632L55.1172 68.489L54.6753 68.5264L55.028 72.4239L55.5184 72.3829L55.6655 74.0086L53.0979 74.2233L52.9487 72.5994L53.4855 72.5545ZM44.3639 72.5545L44.6468 68.6515L44.1643 68.6197L44.2825 66.992L48.7396 67.2907L48.5594 69.7789L47.0614 69.6781L47.1235 68.8176L46.1777 68.7541L46.0944 69.8741L47.4354 69.9637L47.3288 71.4365L45.9879 71.345L45.8929 72.6516L46.8405 72.7151L46.9025 71.8546L48.4005 71.9554L48.2203 74.4436L43.7632 74.145L43.8813 72.5173L44.3639 72.5489V72.5545ZM39.9629 70.6543L39.7033 71.8322L40.2847 71.9498L39.9204 73.5439L37.3817 73.0231L37.7344 71.4271L38.2073 71.5242L39.0522 67.6976L38.5793 67.6005L38.9301 66.0045L42.1295 66.6597L42.9569 68.0989L42.5461 69.9656L41.2226 70.9157L39.9591 70.658L39.9629 70.6543ZM35.5058 66.684L35.1551 67.4792L36.4942 68.0261L37.5057 65.7302L32.725 63.7758L31.7134 66.0717L33.0525 66.6187L33.4013 65.8254L33.752 65.9691L32.1649 69.5698L31.7114 69.3832L31.0507 70.8764L33.3587 71.8209L34.0214 70.3183L33.568 70.1317L35.1551 66.531L35.5058 66.6728V66.684ZM29.5372 64.0708L29.5082 63.884L28.8085 63.4809L28.6148 63.5444L26.6768 66.6448L26.706 66.8315L27.4036 67.2365L27.5973 67.1712L27.985 66.559L29.3124 67.328L28.6438 68.4013L27.0179 68.909L25.3708 67.9552L25.0742 66.335L27.5818 62.3143L29.2077 61.8047L30.855 62.7585L31.1514 64.3788L30.481 65.4521L29.1458 64.6904L29.5372 64.0708Z" fill="#193E73"/>
<path fill-rule="evenodd" clip-rule="evenodd" d="M71.1186 65.2286L69.2699 63.7055H69.2582L70.0334 65.9231L71.1147 65.2212L71.1186 65.2286ZM74.349 66.7611L72.9053 67.6944L72.2871 66.8115L72.7348 66.5222L71.8724 65.8316L70.3434 66.8302L70.6864 67.8587L71.1321 67.5694L71.7503 68.4523L70.3066 69.3856L69.6884 68.5027L69.981 68.3161L68.1207 62.8356L68.859 62.3577L73.444 66.0687L73.7347 65.882L74.3529 66.7649L74.349 66.7611ZM68.3416 70.2517L67.9095 69.2718L67.4638 69.4584L65.6479 65.3351L66.0936 65.1484L65.6615 64.1684L63.8361 64.915L64.2682 65.895L64.7643 65.6916L65.4483 67.2464L63.8884 67.8849L63.2043 66.33L63.7004 66.1284L63.2682 65.1465L61.4427 65.8932L61.8749 66.8732L62.3206 66.6865L64.1423 70.8154L63.6984 71.0021L64.1229 71.971L65.9484 71.2243L65.5181 70.2424L65.0201 70.4458L64.2585 68.7136L65.8088 68.0753L66.5723 69.8093L66.0801 70.0184L66.5122 70.9984L68.3377 70.2517H68.3416ZM60.7839 71.3605L60.5242 70.2779L60.1734 70.0184L58.8654 70.3077L59.2801 72.0344L60.5881 71.7432L60.782 71.3699V71.3605H60.7839ZM61.7973 71.4744L61.1036 72.7175L58.1348 73.3802L57.8887 72.3442L58.3596 72.2397L57.3151 67.8756L56.8422 67.98L56.5942 66.9423L58.5708 66.5036L58.8208 67.5395L58.2278 67.6721L58.6154 69.3184L60.1986 68.9657L61.3808 69.787L61.7858 71.4669L61.7973 71.4744ZM55.3443 73.7517L53.3618 73.9178L53.2649 72.8575L53.8017 72.8128L53.3967 68.3496L51.8561 68.4784L52.2688 73.0909L51.5751 74.0728L50.6061 74.153L50.5093 73.0927L51.0228 73.0498L51.2728 72.6971L50.8968 68.5643L50.4162 68.6035L50.3193 67.5432L54.697 67.1699L54.7939 68.2321L54.3501 68.2694L54.7552 72.7306L55.2454 72.6896L55.3423 73.7517H55.3443ZM47.9357 74.1456L44.0735 73.886L44.1511 72.824L44.6336 72.8557L44.9572 68.387L44.4747 68.3552L44.5522 67.2932L48.4144 67.5526L48.2749 69.4753L47.3641 69.4155L47.4261 68.5549L45.8933 68.4505L45.7711 70.1304L47.1102 70.2201L47.0444 71.1272L45.7053 71.0357L45.5677 72.9136L47.1025 73.0162L47.1645 72.1557L48.0753 72.2173L47.9357 74.14V74.1456ZM41.4148 69.2811L41.6357 68.275L41.409 67.8905L40.3063 67.6776L39.942 69.3297L41.0331 69.5518L41.4031 69.2904L41.4148 69.2811ZM42.283 69.7963L41.1532 70.6064L39.7249 70.3171L39.3374 72.0493L39.9091 72.1669L39.6804 73.2085L37.7174 72.8053L37.948 71.7637L38.4208 71.8608L39.3897 67.4798L38.9169 67.3828L39.1455 66.3412L41.9264 66.9105L42.6357 68.1443L42.2713 69.7963H42.283ZM36.3356 67.6534L35.5372 67.3286L35.888 66.5334L34.9965 66.1694L33.173 70.291L33.6265 70.4776L33.1943 71.4576L31.427 70.7352L31.8572 69.7552L32.3106 69.9418L34.1283 65.811L33.237 65.447L32.8862 66.2403L32.0897 65.9156L32.8648 64.1404L37.1049 65.8745L36.3298 67.6478L36.3356 67.6534ZM28.4446 68.163L27.0512 68.5998L25.6327 67.7785L25.3789 66.3897L27.774 62.5501L29.1674 62.1133L30.586 62.9346L30.8398 64.3233L30.3786 65.07L29.555 64.594L29.8418 64.1311L29.7778 63.7092L28.8399 63.1679L28.4232 63.3116L26.373 66.5819L26.4369 67.0038L27.3749 67.547L27.7915 67.4032L28.0764 66.946L28.9 67.4238L28.4446 68.163Z" fill="#D00B21"/>
</g>
</g>
<defs>
<clipPath id="clip0_135_975">
<rect width="70" height="91" fill="white" transform="translate(15 5)"/>
</clipPath>
</defs>
</svg>
