<svg width="154" height="63" viewBox="0 0 154 63" fill="none" xmlns="http://www.w3.org/2000/svg">
<g clip-path="url(#clip0_44_434)">
<path d="M0.0706787 0.236084V12.0042H154V0.236084H0.0706787Z" fill="#EB222C"/>
<path d="M0 62.8075H154V51.0398H0V62.8075Z" fill="#EB222C"/>
<path fill-rule="evenodd" clip-rule="evenodd" d="M150.147 3.81549H148.004V5.0818H148.967C149.355 5.0818 149.649 5.18864 149.86 5.41283C150.047 5.56913 150.192 5.81286 150.291 6.16347C150.38 6.49446 150.425 6.87468 150.425 7.31277C150.425 7.7026 150.38 8.04353 150.286 8.3455C150.192 8.65754 150.053 8.89103 149.865 9.0664C149.688 9.2911 149.388 9.39794 148.967 9.40733H147.067V2.4605H150.147V3.81549ZM148.778 6.35838H148.004V8.14098H148.762C148.978 8.14098 149.134 8.09298 149.227 7.98554C149.383 7.86824 149.461 7.63497 149.467 7.2835C149.476 6.93293 149.405 6.67917 149.245 6.50384C149.155 6.40638 149 6.35838 148.778 6.35838ZM137.2 2.4605L138.071 5.8609L138.742 2.4605H139.755L138.47 7.98554C138.314 8.6473 138.143 9.0664 137.949 9.25188C137.755 9.43711 137.522 9.52463 137.245 9.51503C137.035 9.51503 136.835 9.48601 136.647 9.40733V8.07276C136.88 8.14098 137.013 8.17021 137.045 8.1805C137.167 8.15123 137.266 8.09298 137.356 8.00431C137.445 7.9171 137.506 7.75201 137.544 7.498L136.086 2.4605H137.2ZM124.792 9.40733V8.07276C125.053 8.14098 125.253 8.07276 125.403 7.84947C125.596 7.56653 125.702 6.88433 125.718 5.79331L125.746 2.4605H128.671V9.40733H127.735V3.81549H126.61L126.588 6.25073C126.588 6.69936 126.571 7.08944 126.538 7.42986C126.51 7.7614 126.455 8.05377 126.372 8.32656C126.289 8.5993 126.167 8.83283 126.001 9.02856C125.712 9.37836 125.313 9.50478 124.792 9.40733ZM115.245 5.42307H115.261L116.63 2.4605H117.722L116.138 5.63757L117.811 9.40733H116.668L115.261 5.97798H115.245L115.261 9.40733H114.325V2.4605H115.261L115.245 5.42307ZM95.1394 2.4605V6.95251L96.7018 2.4605H97.6503V9.40733H96.7018V4.87758L95.1394 9.40733H94.1921V2.4605H95.1394ZM94.7958 0.764893H95.4436C95.4436 0.960043 95.4833 1.11635 95.5663 1.24277C95.6382 1.35929 95.755 1.41806 95.9149 1.42773C96.2263 1.42773 96.3921 1.21382 96.4145 0.764893H97.0407C97.0183 1.15497 96.9188 1.47632 96.7356 1.74908C96.5254 1.99289 96.2529 2.10992 95.9149 2.12017C95.5595 2.12017 95.2887 2.00307 95.0899 1.74908C94.9228 1.47632 94.8284 1.15497 94.7958 0.764893ZM81.8357 2.4605H82.7838V4.98353H83.759C84.0696 4.98353 84.3463 5.0818 84.59 5.29638C84.7787 5.47167 84.9229 5.73417 85.0338 6.09443C85.1323 6.43621 85.1776 6.82523 85.1662 7.2835C85.1662 8.1316 84.9889 8.73537 84.6352 9.10638C84.5235 9.20388 84.4076 9.27211 84.2743 9.33036C84.1301 9.37836 83.9587 9.39794 83.759 9.40733H81.8357V2.4605ZM85.4717 9.40733V2.4605H86.4079V9.40733H85.4717ZM83.5378 6.34823H82.7838V8.07276H83.5593C83.7036 8.07276 83.831 8.02394 83.9528 7.92648C84.0023 7.89747 84.0522 7.82903 84.1085 7.7026C84.1525 7.58551 84.1796 7.42986 84.1918 7.21587C84.1918 6.84563 84.1085 6.59251 83.9418 6.44646C83.8585 6.3874 83.7252 6.35838 83.5378 6.34823ZM73.1885 6.41667H71.747V9.40733H70.8053V2.4605H71.747V5.0818H73.1885V2.4605H74.1192V9.40733H73.1885V6.41667ZM60.5342 2.4605V6.95251L62.0975 2.4605H63.0448V9.40733H62.0975V4.87758L60.5342 9.40733H59.5865V2.4605H60.5342ZM60.1907 0.764893H60.8397C60.8397 0.960043 60.8782 1.11635 60.9611 1.24277C61.033 1.35929 61.149 1.41806 61.3106 1.42773C61.6203 1.42773 61.7865 1.21382 61.809 0.764893H62.4351C62.4131 1.15497 62.3128 1.47632 62.1305 1.74908C61.9202 1.99289 61.6482 2.10992 61.3106 2.12017C60.956 2.12017 60.684 2.00307 60.4847 1.74908C60.318 1.47632 60.2245 1.15497 60.1907 0.764893ZM49.8283 3.81549V5.22816H51.7566V6.47551H49.8283V8.07276H52.0672V9.40733H48.8971V2.4605H52.0283V3.81549H49.8283ZM38.9887 5.42307H39.0053L40.3745 2.4605H41.4669L39.8816 5.63757L41.5548 9.40733H40.4134L39.0053 5.97798H38.9887L39.0053 9.40733H38.0685V2.4605H39.0053L38.9887 5.42307ZM28.1724 5.42307H28.1889L29.5581 2.4605H30.6498L29.0645 5.63757L30.7384 9.40733H29.597L28.1889 5.97798H28.1724L28.1889 9.40733H27.2521V2.4605H28.1889L28.1724 5.42307ZM17.6485 9.58261C17.0281 9.58261 16.5568 9.30134 16.2246 8.72598C15.8369 8.02394 15.6423 7.09883 15.6423 5.92913C15.6423 4.78947 15.8369 3.87375 16.2246 3.16233C16.4018 2.83072 16.6123 2.60742 16.8566 2.46988C17.1001 2.34405 17.361 2.28521 17.6485 2.27583C17.9202 2.27583 18.1811 2.33379 18.4361 2.46988C18.6689 2.60742 18.8793 2.83072 19.0674 3.16233C19.2504 3.48396 19.3895 3.88313 19.4947 4.37037C19.5942 4.83807 19.6439 5.35458 19.6439 5.92913C19.6439 6.48481 19.5992 7.00197 19.4997 7.498C19.4003 7.96656 19.2555 8.37541 19.0674 8.72598C18.7294 9.2911 18.2589 9.57323 17.6485 9.58261ZM17.6485 8.24813C17.7984 8.24813 17.9425 8.20004 18.0917 8.10177C18.2257 8.02394 18.3475 7.82024 18.4585 7.47846C18.5687 7.08944 18.6242 6.57288 18.63 5.92913C18.63 5.30658 18.5745 4.79886 18.4585 4.3903C18.292 3.88313 18.0254 3.62994 17.6485 3.61976C17.4936 3.61976 17.3444 3.65925 17.2003 3.75672C17.067 3.85331 16.9445 4.0593 16.8342 4.3903C16.7124 4.78008 16.6512 5.28614 16.6454 5.92913C16.6454 6.57288 16.7067 7.08944 16.8342 7.47846C16.9394 7.81026 17.0619 8.01456 17.2003 8.11206C17.3444 8.20004 17.4936 8.23844 17.6485 8.24813ZM7.24358 9.40733L6.42281 7.01076L5.59773 9.40733H4.43896L5.82471 5.81286L4.54418 2.4605H5.65248L6.42281 4.7503L7.17657 2.4605H8.29138L7.02164 5.81286L8.41314 9.40733H7.24358Z" fill="white"/>
<path fill-rule="evenodd" clip-rule="evenodd" d="M146.85 60.2485V53.8855H148.828C149.15 53.8855 149.399 53.9656 149.588 54.1263C149.754 54.2686 149.876 54.4645 149.958 54.7242C150.037 54.965 150.07 55.2239 150.064 55.5183C150.058 55.8573 149.992 56.1338 149.865 56.3665C149.743 56.5803 149.588 56.7325 149.399 56.822V56.8653C149.493 56.8838 149.588 56.9279 149.693 56.9999C149.792 57.0715 149.882 57.1688 149.971 57.2939C150.058 57.419 150.126 57.5798 150.18 57.7846C150.23 57.9993 150.253 58.2222 150.258 58.4635C150.258 58.8736 150.197 59.2135 150.076 59.4809C149.954 59.7479 149.792 59.945 149.588 60.0878C149.487 60.1319 149.372 60.1679 149.227 60.2043C149.072 60.2305 148.912 60.2395 148.734 60.2485H146.85ZM148.501 55.0632H147.78V56.4196H148.551C148.712 56.4196 148.834 56.3746 148.918 56.2859C149.039 56.1788 149.1 56 149.106 55.733C149.106 55.4378 149.028 55.2509 148.873 55.1523C148.807 55.0996 148.685 55.0718 148.501 55.0632ZM148.64 57.5613H147.78V59.0883H148.635C148.812 59.0883 148.939 59.0528 149.023 58.9718C149.184 58.838 149.262 58.6148 149.266 58.3028C149.266 57.9993 149.188 57.7846 149.023 57.6423C148.956 57.5883 148.828 57.5613 148.64 57.5613ZM135.991 57.857V53.8855H136.916V57.6153C136.916 58.0619 136.955 58.3825 137.033 58.5878C137.137 58.9808 137.354 59.177 137.692 59.177C138.008 59.177 138.235 58.9988 138.38 58.6238C138.446 58.4279 138.479 58.0975 138.479 57.6153V53.8855H139.405V57.857C139.405 58.2308 139.383 58.5706 139.338 58.883C139.294 59.1865 139.172 59.4899 138.972 59.7938C138.85 59.972 138.69 60.1148 138.49 60.2215C138.291 60.3282 138.024 60.3822 137.692 60.3912C137.115 60.3912 136.7 60.1945 136.434 59.7938C136.306 59.606 136.213 59.3913 136.141 59.1509C136.073 58.9362 136.035 58.7223 136.013 58.4982C136.001 58.3298 135.996 58.115 135.991 57.857ZM127.053 59.0258H128.893V60.2485H126.116V53.8855H127.053V59.0258ZM117.973 57.9993H118.893C118.893 58.214 118.865 58.4635 118.804 58.7485C118.743 59.0433 118.654 59.3022 118.527 59.5255C118.233 60.0963 117.762 60.4006 117.108 60.4538C116.515 60.4538 116.055 60.2125 115.728 59.7123C115.357 59.168 115.174 58.3298 115.168 57.1782C115.168 56 115.357 55.0996 115.745 54.4739C116.044 54.0012 116.482 53.7509 117.07 53.7153C117.667 53.7153 118.117 53.948 118.422 54.4298C118.671 54.8309 118.816 55.3662 118.859 56.0365H117.939C117.923 55.7592 117.857 55.5089 117.73 55.2779C117.601 55.0542 117.397 54.9475 117.114 54.9475C116.814 54.9475 116.576 55.1523 116.399 55.5629C116.31 55.7768 116.249 56.018 116.216 56.2859C116.182 56.5353 116.172 56.8122 116.177 57.125C116.177 57.7405 116.254 58.2402 116.421 58.6238C116.593 59.0258 116.837 59.2212 117.152 59.2302C117.43 59.2302 117.629 59.1059 117.757 58.847C117.879 58.5878 117.951 58.3118 117.973 57.9993ZM96.9865 53.8855L97.8289 56.6429L98.6657 53.8855H99.7027L98.2829 57.857V60.2485H97.3411V57.857L95.928 53.8855H96.9865ZM86.8953 55.1258V56.4196H88.8237V57.5613H86.8953V59.0258H89.1342V60.2485H85.9641V53.8855H89.0945V55.1258H86.8953ZM76.1132 53.8855V56.4822L77.6266 53.8855H78.7947L77.2052 56.5263L78.9165 60.2485H77.737L76.5625 57.5082L76.1132 58.2402V60.2485H75.1765V53.8855H76.1132ZM67.0162 57.9993H67.936C67.936 58.214 67.9085 58.4635 67.848 58.7485C67.7866 59.0433 67.6982 59.3022 67.5704 59.5255C67.2772 60.0963 66.8059 60.4006 66.1514 60.4538C65.5587 60.4538 65.0988 60.2125 64.7718 59.7123C64.4007 59.168 64.2175 58.3298 64.2116 57.1782C64.2116 56 64.4007 55.0996 64.7883 54.4739C65.0874 54.0012 65.5253 53.7509 66.1129 53.7153C66.7116 53.7153 67.1605 53.948 67.4655 54.4298C67.7147 54.8309 67.859 55.3662 67.9025 56.0365H66.9824C66.9667 55.7592 66.8994 55.5089 66.7721 55.2779C66.6452 55.0542 66.44 54.9475 66.1574 54.9475C65.8578 54.9475 65.6196 55.1523 65.4424 55.5629C65.3539 55.7768 65.2926 56.018 65.2596 56.2859C65.2257 56.5353 65.2147 56.8122 65.2207 57.125C65.2207 57.7405 65.2985 58.2402 65.4644 58.6238C65.6365 59.0258 65.8798 59.2212 66.1963 59.2302C66.473 59.2302 66.6727 59.1059 66.8 58.847C66.9219 58.5878 66.9942 58.3118 67.0162 57.9993ZM55.0685 60.4083C54.4474 60.4083 53.977 60.1503 53.644 59.6236C53.2565 58.9808 53.0623 58.133 53.0623 57.0625C53.0623 56.018 53.2565 55.1789 53.644 54.527C53.8213 54.2245 54.0324 54.0183 54.2761 53.8945C54.5194 53.7779 54.7804 53.7248 55.0685 53.7153C55.3401 53.7153 55.6003 53.7685 55.8554 53.8945C56.0877 54.0183 56.2988 54.2245 56.4867 54.527C56.6699 54.8223 56.8091 55.1883 56.914 55.634C57.0134 56.0626 57.0642 56.5353 57.0642 57.0625C57.0642 57.5708 57.0193 58.0435 56.9199 58.4982C56.8196 58.9276 56.6758 59.3022 56.4867 59.6236C56.1495 60.1409 55.6782 60.4006 55.0685 60.4083ZM55.0685 59.1865C55.2187 59.1865 55.3617 59.1415 55.5119 59.0528C55.6452 58.9808 55.7662 58.7939 55.8779 58.481C55.9883 58.1245 56.0437 57.6509 56.05 57.0625C56.05 56.4916 55.9938 56.027 55.8779 55.6516C55.7116 55.1883 55.4446 54.956 55.0685 54.9475C54.9137 54.9475 54.7639 54.9822 54.6196 55.0718C54.4864 55.1613 54.3645 55.349 54.2537 55.6516C54.131 56.0086 54.0705 56.4732 54.0654 57.0625C54.0654 57.6509 54.1259 58.1245 54.2537 58.481C54.359 58.7849 54.4804 58.9718 54.6196 59.0613C54.7639 59.1415 54.9137 59.177 55.0685 59.1865ZM44.8237 57.5082H43.3831V60.2485H42.4414V53.8855H43.3831V56.2859H44.8237V53.8855H45.7553V60.2485H44.8237V57.5082ZM24.3158 55.1258V56.4196H26.2449V57.5613H24.3158V59.0258H26.5547V60.2485H23.3847V53.8855H26.5165V55.1258H24.3158ZM15.2137 57.9993H16.1332C16.1332 58.214 16.1058 58.4635 16.0446 58.7485C15.984 59.0433 15.8947 59.3022 15.7679 59.5255C15.4738 60.0963 15.0033 60.4006 14.349 60.4538C13.7559 60.4538 13.2962 60.2125 12.969 59.7123C12.5979 59.168 12.4149 58.3298 12.4091 57.1782C12.4091 56 12.5979 55.0996 12.9856 54.4739C13.2846 54.0012 13.7228 53.7509 14.3101 53.7153C14.9089 53.7153 15.3578 53.948 15.6627 54.4298C15.9113 54.8309 16.0561 55.3662 16.1001 56.0365H15.1806C15.164 55.7592 15.097 55.5089 14.9694 55.2779C14.8419 55.0542 14.6372 54.9475 14.354 54.9475C14.055 54.9475 13.8172 55.1523 13.6399 55.5629C13.5505 55.7768 13.4893 56.018 13.4569 56.2859C13.4237 56.5353 13.4122 56.8122 13.4179 57.125C13.4179 57.7405 13.4951 58.2402 13.6615 58.6238C13.8337 59.0258 14.0773 59.2212 14.3929 59.2302C14.6704 59.2302 14.87 59.1059 14.9975 58.847C15.1193 58.5878 15.1914 58.3118 15.2137 57.9993ZM4.1134 60.2485V53.8855H5.0502V60.2485H4.1134Z" fill="white"/>
<path d="M59.9059 34.3411C59.1774 36.8772 58.4908 39.2704 57.8033 41.6641C57.8269 41.6764 57.8506 41.6894 57.8743 41.7025C58.7552 40.4137 59.6018 39.0994 60.5228 37.8409C64.8932 31.8636 69.7717 26.3669 75.5585 21.7346C78.4803 19.396 82.2952 19.8972 84.246 22.9456C84.7287 23.7019 85.0511 24.5849 85.3261 25.4492C87.0434 30.8368 88.7255 36.2357 90.4204 41.6306C90.5075 41.909 90.6048 42.184 90.8388 42.4531C91.2077 40.9126 91.5559 39.3664 91.9511 37.8325C92.5078 35.672 93.1094 33.522 93.6696 31.3633C93.7957 30.8789 94.0038 30.6723 94.5373 30.6433C95.7152 30.5799 96.8884 30.4154 98.1652 30.2816C98.1127 30.5413 98.0831 30.7501 98.0277 30.9507C97.1744 34.0326 96.3316 37.1167 95.4558 40.1904C95.1444 41.2814 95.2362 42.2642 96.049 43.084C96.8655 43.9077 97.8424 43.9531 98.9208 43.666C104.086 42.2861 108.743 39.9256 112.831 36.4366C114.391 35.1049 114.974 33.1052 114.315 31.2155C113.675 29.3756 111.954 28.1004 110.012 28.0342C107.219 27.9382 104.423 27.7265 101.633 27.7861C98.6149 27.8501 95.6031 28.1695 92.5886 28.3768C92.4422 28.3868 92.2954 28.395 92.0213 28.411C92.3297 27.3702 92.5958 26.4033 92.9043 25.4512C93.2321 24.4381 93.6142 23.443 93.9454 22.4313C94.4248 20.9709 95.4453 20.2486 96.9332 20.1844C103.611 19.8935 110.281 19.9555 116.946 20.549C119.075 20.7382 121.073 21.1547 122.768 22.56C125.848 25.1168 126.834 29.2531 125.243 32.9657C125.205 33.0535 125.189 33.1504 125.268 33.322C125.747 32.7685 126.225 32.2151 126.705 31.6616C129.697 28.2109 132.919 25.0032 136.463 22.123C138.466 20.495 140.604 19.9859 142.995 21.0703C144.391 21.7034 145.358 22.7935 145.904 24.2272C148.406 30.801 150.499 37.5085 152.204 44.3358C152.938 47.2792 150.6 49.5327 147.664 48.8024C142.179 47.4378 136.847 45.6202 131.675 43.327C131.448 43.2258 131.227 43.1084 130.892 42.9455C131.67 41.8554 132.395 40.7933 133.185 39.7846C133.3 39.6383 133.765 39.6508 134.007 39.7474C136.532 40.7578 139.044 41.8008 141.561 42.833C142.438 43.192 143.289 43.222 144.036 42.544C144.804 41.846 144.857 40.9816 144.581 40.0253C143.802 37.3196 143.064 34.6023 142.28 31.8979C141.646 29.7122 139.976 29.2721 138.362 30.8425C135.611 33.5169 133.215 36.5013 131.037 39.6523C129.093 42.4633 127.29 45.3742 125.449 48.256C125.211 48.6292 125.007 48.7222 124.598 48.5718C122.873 47.9367 121.126 47.3641 119.411 46.7024C117.842 46.0964 117.353 44.5904 118.265 43.1688C119.7 40.9322 121.19 38.7306 122.679 36.4809C122.554 36.563 122.416 36.6263 122.313 36.7261C116.002 42.8641 108.482 46.5232 99.841 47.8561C98.5244 48.0588 97.1845 48.1098 95.8544 48.211C93.9886 48.352 92.5121 47.6547 91.4628 46.0754C91.4061 45.991 91.3774 45.8868 91.2729 45.6485C90.6632 47.6521 89.5239 48.7338 87.6437 48.7077C86.8064 48.6965 85.9649 48.4154 85.1395 48.1985C80.066 46.8614 75.1397 45.0987 70.3504 42.9442C70.2409 42.8945 70.1393 42.8264 69.9219 42.704C70.7431 41.5317 71.5368 40.3992 72.3681 39.213C73.0463 39.517 73.6746 39.8196 74.3176 40.0835C76.4144 40.9462 78.5171 41.7928 80.6164 42.6475C81.4621 42.9931 82.2639 42.9181 82.9425 42.2974C83.6473 41.653 83.7675 40.8472 83.5009 39.9256C82.6895 37.1239 81.9284 34.3076 81.1127 31.5064C80.5394 29.5346 78.8234 29.0866 77.3507 30.5115C74.4831 33.2851 72.0009 36.395 69.745 39.6769C67.8386 42.4526 66.0786 45.3297 64.2535 48.1612C64.1862 48.2654 64.113 48.3652 63.9891 48.5444C62.0467 47.8415 60.1048 47.1532 58.1751 46.4341C57.3535 46.1277 56.9211 45.4587 56.7236 44.3568C56.4803 44.7922 56.339 45.0318 56.2099 45.2774C55.6062 46.4272 54.7283 47.2055 53.3982 47.3148C49.6861 47.6208 45.9778 48.0588 42.2603 48.1694C37.3018 48.3172 32.3274 48.394 27.3761 48.1505C22.8859 47.9294 18.4138 47.2754 13.9417 46.7375C12.071 46.5134 10.2024 46.1778 8.37061 45.7351C7.16505 45.4432 5.94938 45.0078 4.87206 44.3954C2.24614 42.9018 1.41744 40.3606 1.74027 37.5532C2.51853 30.7967 4.28258 24.2497 6.20881 17.7478C6.35938 17.2418 6.59 16.9981 7.11821 16.9304C8.88371 16.7071 10.6442 16.4409 12.4068 16.1914C12.4356 16.2627 12.4644 16.334 12.4932 16.4037C12.045 17.0591 11.5838 17.7058 11.1486 18.3697C9.92067 20.245 9.15177 22.2952 8.90317 24.5313C8.60698 27.1949 9.74484 29.2735 11.5975 31.0214C14.2587 33.5323 17.5246 34.9193 20.9403 35.9805C25.1962 37.3037 29.5653 38.0381 34.0114 38.1617C37.3061 38.2535 40.6144 38.3095 43.9009 38.1151C48.8509 37.8228 53.6444 36.6439 58.3033 34.9281C58.7878 34.7497 59.2726 34.573 59.9059 34.3411Z" fill="#127BCA"/>
<path d="M35.9636 14.9324C35.6408 14.9324 35.4686 14.9222 35.297 14.9339C31.5218 15.1885 27.7875 15.7012 24.1614 16.8329C21.3316 17.7168 18.6286 18.853 16.4134 20.9377C14.1622 23.0578 13.9554 25.7183 16.0401 28.0029C16.8443 28.8845 17.8366 29.652 18.8692 30.2512C23.5828 32.9876 28.8065 33.8894 34.1268 34.344C37.5965 34.6409 41.0692 34.5798 44.5361 34.2016C48.8121 33.7354 52.9908 32.8864 56.903 31.0092C58.7565 30.1196 60.5017 29.0525 61.6889 27.283C62.8519 25.5495 62.8523 23.6172 61.5793 21.969C60.9688 21.1789 60.2174 20.4663 59.4216 19.8631C57.6743 18.5402 55.6651 17.7188 53.6001 17.0352C49.8203 15.7842 45.9216 15.1885 41.9685 14.9552C40.3932 14.8619 38.8086 14.9404 37.2427 14.9404C36.8687 16.2155 36.935 16.1573 37.688 17.0395C38.0995 17.5219 38.4036 18.22 38.4764 18.8536C38.6522 20.4007 38.0534 21.7937 37.2989 23.1086C36.4284 24.6238 35.2855 25.8922 33.7722 27.061C34.5188 22.9333 35.23 18.9949 35.9636 14.9324ZM38.2242 14.0647C43.7403 14.0821 49.5889 14.6378 55.2611 16.4636C57.9582 17.3327 60.5487 18.4441 62.7351 20.3273C63.8275 21.2678 64.6953 22.3705 64.9918 23.8402C65.3163 25.4478 64.7591 26.8073 63.7535 27.9921C61.9085 30.1662 59.436 31.37 56.8485 32.3469C52.3566 34.0431 47.6816 34.8139 42.9102 35.1202C36.9696 35.5012 31.0829 35.1776 25.2683 33.8487C22.3642 33.1847 19.5062 32.3293 16.9416 30.77C15.6639 29.9937 14.4072 29.0692 13.4034 27.9697C11.4945 25.8763 11.6336 23.2765 13.5497 21.1754C15.5595 18.973 18.1738 17.7836 20.8934 16.8082C26.3658 14.8461 32.0564 14.2167 38.2242 14.0647Z" fill="#127BCA"/>
<path d="M44.2995 16.6155C48.8798 17.3429 53.3145 18.1574 56.958 21.1555C59.5261 23.2685 59.5168 25.9526 57.032 28.1645C56.7122 28.4495 56.3712 28.7151 56.0183 28.9572C53.5124 30.6744 50.6736 31.5299 47.7535 32.1518C43.3586 33.0877 38.9101 33.2844 34.4481 32.8974C30.6231 32.5664 26.8463 31.9001 23.3528 30.1937C22.1429 29.6024 20.9719 28.854 19.9371 27.9892C17.7558 26.1662 17.7227 23.5412 19.7404 21.5441C21.2868 20.0135 23.2022 19.1052 25.199 18.3779C28.0058 17.3551 30.9286 16.8439 33.8853 16.5158C33.9574 16.5078 34.0323 16.5268 34.2168 16.5441C33.9653 17.9699 33.7188 19.3802 33.4666 20.7904C33.0739 22.9892 32.6646 25.1867 32.2891 27.3883C32.0967 28.5128 32.7179 29.2242 33.8514 29.1544C36.0911 29.0146 38.121 28.2307 39.9723 26.9738C40.4054 26.6791 40.7592 26.3336 41.2255 26.9365C41.6499 27.4851 41.7601 28.1324 41.2766 28.5818C40.8255 29.0009 40.2807 29.3754 39.7114 29.5931C37.0113 30.6264 34.2427 30.5864 31.4575 29.9894C31.1895 29.9318 30.9272 29.8477 30.5676 29.7485C30.4754 30.1275 30.3896 30.4772 30.2707 30.9654C31.4568 31.1654 32.5572 31.3967 33.6684 31.5291C36.1732 31.8297 38.6939 32.0774 41.1952 31.6063C42.2401 31.4091 43.2973 31.0455 44.2331 30.54C45.6221 29.79 45.5772 28.5762 44.2606 27.6946C43.8248 27.4022 43.4183 27.0653 42.999 26.749C43.0333 26.6473 43.0688 26.5467 43.1035 26.4449C43.5799 26.4208 44.0567 26.3975 44.572 26.3708C44.693 25.8157 44.5986 25.4602 43.9171 25.4295C43.3506 25.404 42.7879 25.2943 42.1125 25.2085C44.2462 22.6931 45.5506 20.0522 44.2995 16.6155Z" fill="#127BCA"/>
</g>
<defs>
<clipPath id="clip0_44_434">
<rect width="154" height="63" fill="white"/>
</clipPath>
</defs>
</svg>
