<svg width="74" height="96" viewBox="0 0 74 96" fill="none" xmlns="http://www.w3.org/2000/svg">
<g clip-path="url(#clip0_44_405)">
<path fill-rule="evenodd" clip-rule="evenodd" d="M73.7521 11.12C48.3596 11.7246 36.9939 0 36.9939 0C36.9939 0 25.6343 11.7246 0.243785 11.12L0 47.6209C0.0286806 59.3987 1.83146 70.4931 11.5972 79.4332C20.3202 87.4222 31.352 93.5464 36.9877 96H37.0123C42.648 93.5464 53.6798 87.4222 62.4028 79.4332C72.1685 70.4931 73.9713 59.3987 74 47.6209L73.7521 11.12Z" fill="#193E73"/>
<path fill-rule="evenodd" clip-rule="evenodd" d="M36.9953 2.36304C36.9953 2.36304 26.3876 12.6855 1.89844 12.7387L1.91483 48.8517C1.94351 60.6314 4.28507 70.8062 14.3868 79.3938C22.0834 85.9374 32.1954 91.5339 36.9953 93.8201C41.7952 91.5339 51.9071 85.9434 59.6038 79.3938C69.7075 70.8062 72.0471 60.6314 72.0757 48.8517L72.0921 12.7387C47.605 12.6855 36.9953 2.36304 36.9953 2.36304Z" fill="white"/>
<path fill-rule="evenodd" clip-rule="evenodd" d="M36.9932 4.98804C36.9932 4.98804 27.0779 14.6548 4.20312 14.706L4.21747 49.1668C4.2441 60.1687 6.43202 69.676 15.8679 77.6984C23.0586 83.8029 32.5088 89.0646 36.9932 91.2012C41.4776 89.0646 50.9238 83.8108 58.1185 77.6984C67.5544 69.676 69.7424 60.1726 69.769 49.1668L69.7833 14.706C46.9085 14.6548 36.9932 4.98804 36.9932 4.98804Z" fill="#193E73"/>
<path fill-rule="evenodd" clip-rule="evenodd" d="M40.9008 44.112L37.6578 34.5338L34.4169 44.112H23.926L32.4134 50.0313L29.1704 59.6115L37.6578 53.6901L46.1473 59.6115L42.9043 50.0313L51.3918 44.112H40.9008ZM52.3833 26.0446L51.7011 25.8359L52.4427 24.7253L52.3833 26.0446ZM56.3965 19.4065L52.3915 18.1915L51.6335 17.9611L51.3958 18.6897L50.8919 20.2158L50.6522 20.9444L51.0271 21.0586L46.4751 27.8681L45.8031 27.6712L45.5634 28.3998L45.0595 29.9279L44.8198 30.6545L45.5778 30.8849L48.5647 31.7907L49.3227 32.0211L49.5623 31.2945L50.0642 29.7664L50.3039 29.0378L49.6894 28.8527L50.0479 28.3151L52.2542 28.9846L52.2276 29.6207L51.613 29.4356L51.3733 30.1622L50.8714 31.6903L50.6297 32.4189L51.3877 32.6493L54.3745 33.5551L55.1325 33.7855L55.3722 33.0569L55.8762 31.5288L56.1159 30.8022L55.4439 30.6053L55.7942 22.5198L56.1691 22.634L56.4088 21.9074L56.9128 20.3793L57.1524 19.6507L56.3945 19.4222V19.4065H56.3965ZM37.1109 27.173H36.5086V26.6452L37.5943 25.1526L38.3913 27.173H38V30.302H42.7118V27.173H41.8739L39.8499 22.0531L41.8042 19.3711H42.7282V16.2341H38.0164V19.1879L36.525 21.2319V19.3592H37.1273V16.2341H32.4851V19.3632H33.0751V27.173H32.4851V30.302H37.1088V27.173H37.1109ZM28.3694 31.3713L28.519 31.0858L29.3384 29.5242L29.4859 29.2465L29.3876 28.9492L28.8713 27.3876L28.6296 26.661L27.8716 26.8934L26.2799 27.3797L25.5219 27.6121L25.7636 28.3387L25.9254 28.8291L23.0021 29.7211L20.5437 22.2795L23.4712 21.3875L23.6433 21.9074L23.885 22.634L24.643 22.4036L26.2348 21.9152L26.9928 21.6829L26.749 20.9562L25.8312 18.1856L25.5915 17.459L24.8335 17.6894L23.2397 18.1758L22.4817 18.4061L22.5329 18.5617L22.3281 18.4554L22.0126 18.5519L18.2268 19.7078L17.9113 19.8023L17.7597 20.0859L16.9607 21.5765L16.9218 21.6494L16.8993 21.7282V21.738L16.8398 21.9527L16.9095 22.1653L20.0971 31.7888L20.1955 32.0901L20.4884 32.2358L22.1273 33.0451L22.4203 33.1908L22.7337 33.0943L28.0601 31.4678L28.3694 31.3713Z" fill="white"/>
<path fill-rule="evenodd" clip-rule="evenodd" d="M40.0431 45.2798L37.6606 38.2439L35.2801 45.2798H27.5712L33.8051 49.6297L31.4266 56.6696L37.6606 52.3216L43.8966 56.6696L41.514 49.6337L47.75 45.2837L40.0431 45.2798ZM28.6385 29.1797L28.1222 27.6201L26.5284 28.1163L26.9381 29.3353L22.4926 30.6763L19.5467 21.7795L23.9861 20.4365L24.3958 21.681L25.9876 21.1946L25.0718 18.422L23.4739 18.9025L23.6132 19.3278L22.8225 19.5701L22.2448 19.2786L18.463 20.4365L17.6641 21.9291L20.8497 31.5506L22.4885 32.3619L27.8149 30.7354L28.6344 29.1738L28.6385 29.1797ZM53.1378 27.0727L50.4746 26.2633L53.3652 21.9311L53.1378 27.0707V27.0727ZM55.6556 21.6613L56.1595 20.1332L52.1545 18.9183L51.6526 20.4463L52.2672 20.6314L46.822 28.7721L46.3303 28.6205L45.8263 30.1505L48.8132 31.0563L49.3172 29.5282L48.4711 29.2723L49.7187 27.4035L53.0846 28.4255L52.974 30.6408L52.1279 30.3848L51.626 31.9129L54.6108 32.8188L55.1148 31.2907L54.621 31.141L55.0308 21.4762L55.6453 21.6613H55.6556ZM36.3187 27.9371H35.7164V26.4051L37.8142 23.5321L39.5514 27.9371H38.7976V29.5381H41.9299V27.9371H41.3358L38.9696 21.939L41.4013 18.6012H41.9299V16.9983H38.7976V18.6012H39.4019L35.7144 23.6601V18.6012H36.3167V16.9983H33.2847V18.6012H33.8747V27.9371H33.2847V29.5381H36.3187V27.9371Z" fill="#CE0E2D"/>
<path fill-rule="evenodd" clip-rule="evenodd" d="M41.3097 49.5644L43.5632 56.2242L37.6611 52.1086L31.7611 56.2242L34.0146 49.5644L28.1146 45.4448H35.4077L37.6611 38.785L39.9146 45.4448H47.2077L41.3077 49.5604V49.5644H41.3097ZM37.9951 38.6846L37.6611 37.7L37.3272 38.6846L35.1516 45.112H27.0329L27.9077 45.7225L33.6028 49.6924L31.4272 56.1198L31.0933 57.1044L31.968 56.494L37.6611 52.5339L43.3563 56.5058L44.231 57.1162L43.8971 56.1316L41.7215 49.7042L47.4166 45.7343L48.2914 45.1239H40.1707L37.9951 38.6964V38.6846ZM22.4953 32.2316L20.9567 31.4636L17.8039 21.9386L18.5558 20.5326L22.2433 19.4102L22.8251 19.6996L23.7941 19.4043L23.6527 18.9789L24.9966 18.5693L25.8345 21.0997L24.4927 21.5113L24.0829 20.2648L19.3773 21.7023L22.401 30.8394L27.0923 29.4078L26.6826 28.1888L28.0245 27.7773L28.4854 29.1675L27.709 30.6365L22.483 32.2316H22.4953ZM27.9056 30.8531L28.7804 29.199L28.2088 27.4681L26.3651 28.0313L26.7748 29.2522L22.5854 30.5302L19.7173 21.8658L23.9068 20.5878L24.3165 21.8342L26.1602 21.2691L25.1626 18.2582L23.3188 18.8214L23.4602 19.2448L22.8456 19.4417L22.2638 19.1502L18.3714 20.3318L17.552 21.8697L17.5294 21.9386L20.7273 31.5975L20.7437 31.6467L22.4748 32.5053L27.8585 30.863L27.9097 30.8472L27.9056 30.8531ZM53.0134 26.9148L50.678 26.2059L53.2122 22.4053L53.0073 26.9108L53.0134 26.9148ZM53.2613 27.2554L53.5174 21.4837L50.2704 26.3437L53.2613 27.2515V27.2554ZM54.4905 31.1505L54.9146 21.3203L55.5619 21.5172L55.986 20.2294L52.2329 19.0912L51.8089 20.377L52.4562 20.574L46.8656 28.9352L46.4026 28.7934L45.9785 30.0812L48.7134 30.9102L49.1375 29.6244L48.2627 29.3408L49.6578 27.2535L53.2183 28.3326L53.1077 30.8118L52.2247 30.544L51.8007 31.8299L54.5356 32.6609L54.9596 31.373L54.4966 31.2332V31.1367L54.4905 31.1505ZM55.7422 21.8146L56.324 20.0423L52.069 18.7525L51.4872 20.5247L52.0567 20.698L46.7611 28.6161L46.2387 28.4586L45.6548 30.2309L48.8937 31.2155L49.4755 29.4432L48.6724 29.201L49.7725 27.5528L52.9479 28.5157L52.8618 30.4711L52.0547 30.2269L51.4729 31.9992L54.7097 32.9838L55.2935 31.2115L54.7712 31.054L55.1809 21.6511L55.7504 21.8244L55.7422 21.8146ZM36.1882 29.4058H33.4164V28.0569H34.0064V18.4669H33.4164V17.118H36.1882V18.4669H35.5859V24.0555L39.6585 18.4669H38.9333V17.118H41.8014V18.4669H41.3364L38.8268 21.915L41.2483 28.0569H41.8014V29.4058H38.9333V28.0569H39.7405L37.8476 23.258L35.5941 26.3575V28.0569H36.1964V29.4058H36.1882ZM36.4504 27.8029H35.8502V26.4382L37.7738 23.7956L39.3553 27.8029H38.665V29.6598H42.0616V27.8029H41.4265L39.1177 21.9504L41.4695 18.721H42.0616V16.864H38.665V18.721H39.1505L35.8502 23.2501V18.721H36.4504V16.864H33.1521V18.721H33.7442V27.8029H33.1521V29.6598H36.4504V27.8029Z" fill="#193E73"/>
<path fill-rule="evenodd" clip-rule="evenodd" d="M61.1411 67.1533L58.2403 69.0338L56.6587 66.7811L57.134 66.4719L55.1694 60.6923L56.9865 59.5108L61.8315 63.4236L62.3088 63.1164L63.8903 65.3672L61.139 67.1513H61.1411V67.1533ZM52.0412 65.1211L52.119 65.2943L52.2399 65.2451L52.1641 65.0718L52.0412 65.1211ZM53.4383 67.9547L53.2785 67.5944L53.1556 67.6436L53.3154 68.0039L53.4383 67.9547ZM54.0181 70.6702L57.4782 69.2603L56.374 66.7594L55.9028 66.9563L54.6286 64.0734L55.0997 63.8765L53.9955 61.3757L48.0095 63.8174L49.1137 66.3183L49.5849 66.1214L50.8591 69.0043L50.3879 69.2012L51.4921 71.7021L54.0222 70.6702H54.0181ZM47.4789 69.7506L47.4133 69.4808L47.356 69.4946L47.4215 69.7624L47.4789 69.7506ZM44.8403 70.3414L44.1069 67.2891L43.6091 67.3994L42.974 64.743L46.6799 63.9198L47.315 66.5684L46.6881 66.7063L46.7311 66.8894L47.9603 66.6176L49.7672 67.87L50.3347 70.2331L49.2837 72.1353L44.9816 73.0923L44.3425 70.4536L44.8403 70.3433V70.3414ZM39.7187 72.793L39.7904 73.5807L43.5374 73.2656L43.2915 70.56L42.7732 70.6033L42.4885 67.4841L42.9597 67.4427L42.7118 64.7371L36.4307 65.2648L36.6786 67.9724L37.1867 67.9291L37.4714 71.0444L36.6335 71.1153L36.8794 73.8229L39.1328 73.626L39.7269 72.7891L39.7187 72.793ZM30.5492 70.7392L30.7766 67.616L30.2664 67.5806L30.4713 64.871L36.2074 65.2648L35.937 68.8783L34.7672 68.7995L34.673 70.109L35.8407 70.1878L35.5785 73.8012L29.8424 73.4074L30.0472 70.6978L30.5573 70.7313L30.5492 70.7392ZM26.7756 69.857L27.8327 70.0716L29.5781 68.8212L30.0923 66.4936L29.0025 64.6091L24.8909 63.7584L24.3029 66.4168L24.8028 66.5192L24.1247 69.5813L23.6248 69.4789L23.0369 72.1373L26.7346 72.8934L27.3205 70.235L26.706 70.111L26.7654 69.8432L26.7756 69.857ZM21.1972 66.4128L20.2958 68.4569L20.7732 68.6538L19.669 71.1566L16.2744 69.7782L17.3786 67.2773L17.858 67.4742L18.7594 65.4184L16.973 64.6898L18.448 61.3422L24.4566 63.7938L22.9816 67.1414L21.1952 66.4128H21.1972ZM14.7277 62.3524L14.2381 63.14L16.5305 64.4633L17.604 62.7462L17.2168 60.6293L15.0719 59.3809L12.9454 60.0464L10.0938 64.6071L10.4789 66.724L12.6279 67.9646L14.7543 67.3029L15.8278 65.5838L13.5375 64.2605L13.0499 65.0482L12.97 65.0029L14.6478 62.3189L14.7277 62.3524Z" fill="white"/>
<path fill-rule="evenodd" clip-rule="evenodd" d="M58.8175 63.5082L58.0103 62.8446L58.3504 63.8115L58.8175 63.5082ZM48.0582 69.9691L47.8533 69.0357L47.6853 68.9137L46.7491 69.1204L47.0461 70.359L47.9844 70.1503L48.0766 69.9691H48.0582ZM27.6294 67.6396L27.8158 66.8007L27.7031 66.6038L26.9902 66.4561L26.7526 67.6238L27.4655 67.7696L27.6478 67.6396H27.6294ZM60.5117 64.8827L60.102 64.5519L58.8728 65.3534L59.0387 65.8437L59.4239 65.5936L60.4256 67.0213L58.377 68.3446L57.3834 66.909L57.7542 66.6688L55.7876 60.8892L56.9573 60.1311L61.8044 64.0438L62.1752 63.8036L63.1749 65.2293L61.1263 66.5526L60.1327 65.1367L60.5199 64.8847H60.5117V64.8827ZM54.1118 68.2205L53.5894 68.4332L54.29 70.0085L56.7914 68.9885L56.0908 67.4033L55.6216 67.6002L53.9438 63.7997L54.415 63.6027L53.7144 62.0175L51.213 63.0396L51.9116 64.6149L52.436 64.4003L52.9175 65.4912L51.842 65.9303L51.3605 64.8394L51.885 64.6267L51.1843 63.0415L48.683 64.0635L49.3816 65.6389L49.8527 65.442L51.5408 69.272L51.0717 69.469L51.7702 71.0443L54.2716 70.0243L53.573 68.4489L53.0486 68.6636L52.4852 67.3875L53.5607 66.9464L54.1241 68.2244L54.1118 68.2205ZM45.4564 70.7096L44.4915 66.6885L43.9937 66.7987L43.584 65.121L46.28 64.5302L46.6897 66.208L46.0628 66.3478L46.3394 67.5017L47.8472 67.167L49.3058 68.1791L49.7851 70.1779L48.9391 71.7119L45.3622 72.4996L44.9525 70.8218L45.4503 70.7115H45.4564V70.7096ZM40.6832 71.2668L40.3103 67.1532L39.3003 67.2379L39.7265 71.9088L38.8455 73.1474L37.3624 73.2734L37.2067 71.5583L37.9114 71.4992L38.0302 71.3318L37.6696 67.3757L37.1616 67.419L37.0038 65.7039L42.2524 65.2628L42.4081 66.9779L41.941 67.0173L42.3138 71.129L42.8322 71.0857L42.9878 72.8008L40.2734 73.0273L40.1157 71.3141L40.6832 71.2668ZM31.0403 71.2668L31.3394 67.1493L30.8293 67.1158L30.9543 65.3986L35.6661 65.7137L35.4756 68.3387L33.892 68.2323L33.9576 67.3245L32.9578 67.2576L32.8697 68.4391L34.2874 68.5336L34.1747 70.0873L32.7571 69.9908L32.6567 71.3692L33.6585 71.4362L33.724 70.5284L35.3076 70.6347L35.1171 73.2597L30.4053 72.9446L30.5302 71.2275L31.0403 71.2609V71.2668ZM26.3879 69.2622L26.1134 70.5048L26.728 70.6288L26.3429 72.3105L23.6592 71.7611L24.032 70.0774L24.5319 70.1798L25.4251 66.143L24.9252 66.0406L25.296 64.3569L28.6783 65.0481L29.553 66.5664L29.1187 68.5356L27.7195 69.5379L26.3838 69.2661L26.3879 69.2622ZM21.6761 65.0737L21.3053 65.9126L22.7209 66.4896L23.7903 64.0675L18.7364 62.0057L17.667 64.4278L19.0826 65.0048L19.4513 64.1679L19.8221 64.3195L18.1443 68.1181L17.6649 67.9212L16.9664 69.4965L19.4063 70.4929L20.1069 68.9077L19.6275 68.7108L21.3053 64.9123L21.6761 65.0619V65.0737ZM15.3664 62.3169L15.3357 62.1199L14.5961 61.6946L14.3913 61.7616L12.3426 65.0324L12.3734 65.2293L13.1109 65.6566L13.3157 65.5877L13.7255 64.9418L15.1288 65.7531L14.422 66.8854L12.7032 67.421L10.9619 66.4147L10.6484 64.7055L13.2993 60.4639L15.0181 59.9263L16.7595 60.9325L17.0729 62.6418L16.3641 63.7741L14.9526 62.9706L15.3664 62.3169Z" fill="#193E73"/>
<path fill-rule="evenodd" clip-rule="evenodd" d="M59.3261 63.538L57.3717 61.9312H57.3594L58.1789 64.2706L59.322 63.5302L59.3261 63.538ZM62.7411 65.1547L61.2149 66.1393L60.5614 65.2079L61.0346 64.9027L60.123 64.1741L58.5066 65.2276L58.8692 66.3126L59.3404 66.0074L59.9939 66.9388L58.4677 67.9234L57.8142 66.992L58.1235 66.7951L56.1569 61.0135L56.9374 60.5094L61.7844 64.4242L62.0917 64.2273L62.7452 65.1587L62.7411 65.1547ZM56.3904 68.8371L55.9336 67.8033L55.4624 68.0002L53.5428 63.6503L54.014 63.4534L53.5572 62.4195L51.6274 63.2072L52.0842 64.241L52.6087 64.0264L53.3318 65.6667L51.6827 66.3402L50.9595 64.6999L51.484 64.4872L51.0271 63.4514L49.0973 64.2391L49.5542 65.2729L50.0254 65.076L51.9511 69.4318L51.4819 69.6287L51.9306 70.6508L53.8604 69.8631L53.4056 68.8273L52.8791 69.0419L52.074 67.2145L53.7129 66.5411L54.52 68.3704L53.9997 68.591L54.4565 69.6248L56.3863 68.8371H56.3904ZM48.4008 70.0068L48.1263 68.8647L47.7555 68.591L46.3727 68.8962L46.8111 70.7177L48.1939 70.4105L48.3988 70.0167V70.0068H48.4008ZM49.4722 70.127L48.7388 71.4384L45.6004 72.1375L45.3402 71.0446L45.838 70.9343L44.7338 66.3304L44.2339 66.4406L43.9717 65.3458L46.0613 64.883L46.3256 65.9759L45.6987 66.1157L46.1084 67.8525L47.7821 67.4804L49.0318 68.3468L49.46 70.1191L49.4722 70.127ZM42.6504 72.5294L40.5546 72.7046L40.4522 71.5861L41.0197 71.5389L40.5915 66.8305L38.9629 66.9664L39.3992 71.8323L38.6658 72.8681L37.6415 72.9527L37.5391 71.8342L38.082 71.7889L38.3462 71.4168L37.9488 67.057L37.4407 67.0983L37.3383 65.9798L41.9661 65.586L42.0686 66.7065L41.5994 66.7459L42.0276 71.4522L42.5459 71.4089L42.6483 72.5294H42.6504ZM34.8185 72.9449L30.7356 72.6711L30.8176 71.5507L31.3277 71.5842L31.6698 66.8699L31.1597 66.8364L31.2416 65.716L35.3245 65.9897L35.177 68.018L34.2142 67.9549L34.2797 67.0471L32.6593 66.9369L32.5302 68.7091L33.9458 68.8037L33.8762 69.7607L32.4606 69.6642L32.3151 71.6452L33.9376 71.7535L34.0032 70.8457L34.966 70.9107L34.8185 72.939V72.9449ZM27.9249 67.8132L28.1585 66.7518L27.9188 66.3461L26.7531 66.1216L26.368 67.8644L27.5214 68.0987L27.9126 67.823L27.9249 67.8132ZM28.8427 68.3567L27.6484 69.2113L26.1385 68.9061L25.7288 70.7335L26.3332 70.8575L26.0914 71.9563L24.0162 71.531L24.26 70.4322L24.7598 70.5346L25.7841 65.9129L25.2843 65.8105L25.526 64.7117L28.4658 65.3123L29.2156 66.6139L28.8304 68.3567H28.8427ZM22.5555 66.096L21.7115 65.7534L22.0823 64.9145L21.1399 64.5305L19.2122 68.8785L19.6916 69.0754L19.2347 70.1092L17.3664 69.3472L17.8212 68.3133L18.3005 68.5102L20.2221 64.1524L19.2798 63.7684L18.909 64.6053L18.067 64.2627L18.8864 62.39L23.3688 64.2194L22.5494 66.0901L22.5555 66.096ZM14.2136 66.6336L12.7406 67.0944L11.241 66.228L10.9727 64.7629L13.5047 60.7123L14.9777 60.2515L16.4773 61.1179L16.7456 62.583L16.2581 63.3707L15.3874 62.8685L15.6906 62.3802L15.623 61.9351L14.6315 61.3641L14.191 61.5157L12.0236 64.9657L12.0912 65.4107L13.0827 65.9838L13.5232 65.8321L13.8243 65.3497L14.695 65.8538L14.2136 66.6336Z" fill="#D00B21"/>
</g>
<defs>
<clipPath id="clip0_44_405">
<rect width="74" height="96" fill="white"/>
</clipPath>
</defs>
</svg>
