<svg width="96" height="96" viewBox="0 0 96 96" fill="none" xmlns="http://www.w3.org/2000/svg">
<g clip-path="url(#clip0_44_509)">
<path d="M50.535 0.0405432C47.8944 0.444284 46.2467 1.33907 44.4898 3.33594C42.8531 5.20188 41.4673 7.75527 40.6052 10.4506C40.1141 12.0109 39.5249 14.5316 39.0885 16.954L38.8047 18.5799L38.4773 18.6017C35.8694 18.8199 31.4829 19.8239 29.5296 20.6532C29.355 20.7296 28.6676 21.0132 28.0019 21.2642C26.627 21.7989 23.2989 23.4575 22.0004 24.2541C17.8429 26.7856 14.6567 29.4482 12.8017 31.9689C11.3613 33.9003 9.53896 37.1738 8.85151 39.0397C7.57482 42.488 7.31293 47.5184 8.20771 51.0974C9.51714 56.3352 12.9871 60.0234 17.8211 61.311C19.076 61.6493 21.171 61.6493 22.4369 61.311C24.7939 60.689 26.9871 59.1613 28.3075 57.2299C28.8967 56.3679 30.0206 53.8908 30.0206 53.4544C30.0206 53.3998 29.6932 53.3343 29.2896 53.2908C25.5249 52.9088 22.8625 50.6937 21.9349 47.1801C21.5858 45.8924 21.4548 43.5464 21.5966 41.4513C21.8367 37.9813 22.4914 35.6134 23.9536 32.8527C25.8632 29.2518 30.097 25.5636 34.4509 23.7085C35.6949 23.1738 37.2443 22.7046 37.9318 22.65L38.3683 22.6173L38.4446 25.2907C38.5755 29.6991 38.8266 33.1255 39.143 34.7732C39.2849 35.537 39.2957 35.7007 39.1757 35.8208C38.9138 36.0608 36.5023 37.3702 33.5998 38.8325L30.7845 40.24V43.0772C30.7845 44.6376 30.8063 45.9143 30.839 45.9143C31.1009 45.9143 36.2622 43.1754 38.412 41.8987C39.6013 41.1894 39.9941 41.0039 40.0596 41.1131C40.1141 41.2003 40.1796 41.6804 40.2233 42.1933C40.256 42.7062 40.3324 43.5682 40.387 44.1138C40.8016 48.0639 40.8016 58.0483 40.387 63.2097C40.1033 66.7124 40.0487 67.3344 39.9069 68.8293C39.3721 74.0889 38.0191 80.6687 36.5569 85.1099C36.4696 85.3827 36.3496 85.5246 36.2295 85.5246C36.1313 85.5246 35.4111 85.2845 34.6473 84.9899C31.5592 83.8332 27.5436 82.6656 24.9902 82.1746C23.419 81.8799 20.1454 81.9127 18.8577 82.2292C15.8242 82.9821 14.0892 84.3461 13.2708 86.6157C13.0963 87.0959 13.0526 87.4996 13.0526 88.6345V90.053L13.5218 91.0133C14.5585 93.1302 16.7408 94.756 19.5234 95.4653C20.6255 95.7491 22.7315 96 23.9645 96C25.1103 96 27.0417 95.7599 28.4275 95.4435C31.832 94.6688 34.9201 93.021 37.4407 90.6204L38.2046 89.8893L38.8374 90.2057C43.9115 92.7591 50.7751 94.0904 56.9403 93.7194C62.0253 93.4248 66.2592 92.3445 70.3402 90.3367C80.6738 85.219 87.1337 75.5947 89.0214 62.5004C89.1742 61.3983 89.2178 60.449 89.2178 57.59C89.2069 54.4692 89.1742 53.8691 88.9668 52.5923C88.7049 50.9774 88.2576 48.8823 87.9957 48.042C86.9591 44.7031 86.0425 42.5643 84.4166 39.749C81.4813 34.6531 76.2763 29.2408 70.8858 25.7053C67.4049 23.4139 63.9131 21.8099 59.2864 20.3477C58.2498 20.0312 57.3769 19.7365 57.3441 19.693C57.3114 19.6602 57.4096 19.3001 57.5514 18.8854C57.8024 18.2089 58.1843 16.7248 58.4899 15.3063C58.9809 12.9821 59.09 9.58848 58.7299 7.60251C58.4135 5.85659 57.8897 4.42714 57.1585 3.36868C56.6675 2.63758 55.4891 1.44818 54.9217 1.07718C53.7322 0.324253 51.7681 -0.144959 50.535 0.0405432ZM51.3316 7.12238C52.6083 7.44974 53.4376 8.27905 54.0378 9.81763C54.4524 10.8979 54.7798 12.6875 54.7907 13.8987C54.7907 14.9462 54.5506 16.7358 54.256 17.8706C53.9723 18.9836 53.9178 19.0818 53.7104 19.0273C53.6122 18.9946 53.0448 18.8964 52.4555 18.7981C50.2404 18.449 48.189 18.3071 45.592 18.318C44.1516 18.318 42.9622 18.3071 42.9512 18.2853C42.9076 18.2526 42.9949 17.8379 43.3659 16.2884C43.5841 15.35 44.2279 13.4731 44.7626 12.2292C45.9193 9.50118 47.3161 7.77709 48.8655 7.17694C49.5094 6.92597 50.4914 6.90415 51.3316 7.12238ZM49.4439 21.8644C50.9279 22.0281 52.4447 22.3554 52.6301 22.5409C52.8702 22.781 51.2334 25.3562 49.5639 27.364C47.8726 29.4045 43.4641 33.431 43.2131 33.1801C43.0931 33.06 42.8312 31.7397 42.624 30.2011C42.3839 28.4443 42.242 25.0835 42.3293 23.272L42.4057 21.7444L42.7876 21.668C43.3877 21.5588 47.8071 21.6789 49.4439 21.8644ZM58.719 24.6579C60.9559 25.7708 61.6324 26.1855 63.4984 27.5822C68.2451 31.1395 71.726 36.0827 73.7556 42.1606C75.0868 46.1652 75.7416 50.6173 75.7416 55.735C75.7416 59.6087 75.3487 62.8714 74.4867 66.2651C74.203 67.3671 73.341 70.0188 73.0682 70.6298C72.9918 70.8044 72.8172 71.1972 72.6863 71.5027C71.7479 73.696 70.1001 76.4567 68.5615 78.4318C67.4485 79.8504 64.9934 82.2728 63.7385 83.2003C60.3667 85.6773 56.9076 87.1722 52.7938 87.947C51.6045 88.1652 51.1352 88.198 48.4618 88.198C45.2646 88.187 44.6754 88.1325 42.3293 87.5323C41.1944 87.2486 40.7143 87.074 40.7143 86.9322C40.7143 86.8776 40.998 86.4302 41.3473 85.9392C43.6606 82.622 46.1376 78.3554 48.4945 73.6306C50.4041 69.8114 51.4626 67.4653 53.2631 63.1005C53.6122 62.2603 54.6161 59.6633 55.0853 58.4084C55.1835 58.1683 55.3145 57.7974 55.4017 57.59C56.1001 55.8005 58.3917 48.7295 58.3917 48.3694C58.3917 48.2931 57.9115 48.1403 57.2786 47.9985C54.7143 47.431 52.6301 46.5253 50.6442 45.1395C49.4875 44.332 47.3378 42.1387 46.4759 40.8948C45.7338 39.8145 44.7517 37.9922 44.7517 37.6758C44.7517 37.5776 45.7557 36.5082 46.9777 35.297C50.7533 31.5651 53.1212 28.4224 55.249 24.3086C55.4454 23.9158 55.6528 23.5449 55.6964 23.4684C55.8165 23.283 56.4602 23.5339 58.719 24.6579ZM27.3036 85.1317C28.7003 85.5354 30.6645 86.343 33.6543 87.7506C34.2545 88.0234 34.7673 88.2525 34.8218 88.2525C35.0837 88.2525 34.9747 88.6236 34.5709 89.0709C33.0542 90.8059 30.4571 92.3008 27.7619 93.0102C26.3543 93.3811 24.0409 93.4248 22.9279 93.1084C21.6403 92.7483 20.8546 92.3008 20.0908 91.5371C19.2615 90.6968 18.9996 90.0857 18.9996 88.9946C18.9996 87.4123 19.7743 86.1247 21.1274 85.4482C22.5569 84.7389 25.4267 84.5861 27.3036 85.1317Z" fill="#113596"/>
</g>
<defs>
<clipPath id="clip0_44_509">
<rect width="96" height="96" fill="white"/>
</clipPath>
</defs>
</svg>
