<svg width="80" height="96" viewBox="0 0 80 96" fill="none" xmlns="http://www.w3.org/2000/svg">
<g clip-path="url(#clip0_44_415)">
<path fill-rule="evenodd" clip-rule="evenodd" d="M0.0976562 64.2599C0.0976562 67.5199 0 67.8799 0.546875 68.4399C5.01953 72.7599 9.55078 76.8599 14.5313 80.5799C22.5977 86.5799 30.2344 91.4799 39.2969 95.6399L40.0391 95.9999C40.0391 95.9999 40.0391 96.0199 40.8008 95.6799C54.7852 89.3599 68.5742 79.0799 79.5313 68.4599C80.1172 67.8999 79.9805 67.5199 79.9805 64.2799C80 45.7399 79.8828 27.1999 79.8828 8.6399H75.4883C69.6094 8.6399 63.7109 9.8799 58.2617 12.1799L58.1641 12.2399L56.9336 12.8399C55.1367 10.7599 53.5547 9.1999 51.4063 7.3599C50.0391 6.1999 48.4766 5.0999 47.0117 4.0599C44.4336 2.2599 43.1055 1.5199 40.5469 0.219902C40.0195 -0.0400977 40.0195 -0.0400977 39.4922 0.219902C36.9922 1.4599 35.2734 2.3999 32.9297 4.0599C31.4844 5.0799 29.9023 6.2199 28.5352 7.3599C26.3477 9.1599 24.7656 10.6999 22.9687 12.7999L21.7383 12.1999L21.6406 12.1399C16.2109 9.8199 10.3125 8.5999 4.41406 8.5999H0C0.0976562 27.1799 0.0976562 45.7199 0.0976562 64.2599Z" fill="#104533"/>
<path fill-rule="evenodd" clip-rule="evenodd" d="M24.2578 18.4201L20.0391 16.3401C15.2148 14.2801 9.90234 13.1601 4.51172 13.1201V65.4001C4.51172 66.5801 8.80859 69.9601 9.58984 70.7401C10.4883 71.6001 11.5039 72.3601 12.4414 73.1601C14.8437 75.1801 25.4297 83.0001 27.9883 83.9201C28.0078 82.2401 28.0664 80.6001 28.0664 78.9201C28.0664 78.6201 28.0664 78.6201 27.832 78.4801C27.7344 78.4201 27.5781 78.3201 27.4023 78.2401C26.9531 77.9401 26.25 77.6201 25.1172 76.8601C20.0391 73.3801 18.3203 71.9801 13.8086 68.4201L11.1719 66.1201C10.4297 65.5201 8.98438 64.4001 8.96484 63.4201C8.90625 61.8001 8.98437 60.0401 8.98437 58.4001C9.00391 45.1001 8.94531 31.7401 8.94531 18.4001C15.2148 18.5001 20.4102 21.1801 24.8828 24.1201C25.5859 24.5801 25.7617 24.3001 26.6016 23.9801C30.7031 22.3801 35.3516 21.6001 40.0195 21.6001C44.6875 21.6001 49.3164 22.3801 53.4375 23.9801C54.2773 24.3001 54.4336 24.5801 55.1562 24.1201C59.6289 21.2001 64.8242 18.5401 71.0937 18.4001C71.0937 31.7601 71.0352 45.0801 71.0352 58.4401C71.0352 60.0801 71.0938 61.8401 71.0352 63.4601C71.0156 64.7001 67.2656 67.5401 66.1914 68.4601C61.7187 72.0201 60 73.4201 54.8828 76.9001C53.75 77.6801 53.0469 77.9801 52.5977 78.2801C52.4414 78.3801 52.2852 78.4601 52.168 78.5201C51.9336 78.6801 51.9336 78.6801 51.9336 78.9601C51.9336 80.6401 51.9922 82.2801 52.0117 83.9601C54.5703 83.0401 65.1562 75.2201 67.5586 73.2001C68.4766 72.4201 69.5312 71.6601 70.4102 70.7801C71.1914 70.0001 75.4883 66.6201 75.4883 65.4401V13.1601C70.1172 13.1601 64.7656 14.3001 59.9609 16.3801L55.7422 18.4601C55.1172 17.8401 54.6094 17.0001 54.0234 16.3001C51.9922 13.8601 51.1328 13.0001 48.6133 10.8401C47.5781 9.98008 43.0859 6.58008 40.9375 5.44008C40.0195 4.96008 39.9805 4.96008 39.0625 5.44008C36.9336 6.58008 32.4219 9.98008 31.3867 10.8401C28.8477 13.0001 27.9883 13.8601 25.957 16.3001C25.4297 16.9601 24.9023 17.8001 24.2578 18.4201Z" fill="#CF1F2E"/>
<path fill-rule="evenodd" clip-rule="evenodd" d="M32.4219 77.3001L32.3438 86.4401L40.0391 90.4601L47.7148 86.5201V77.2801L45.6055 82.8801H34.5898L32.4219 77.3001ZM66.8164 61.7201L66.6797 61.8201C65.5664 62.9201 64.0234 64.2801 62.9687 65.2001C61.4844 66.4601 59.668 67.9001 57.8516 69.2201C56.0156 70.5401 54.1602 71.7801 53.2227 72.4001C52.7539 72.7201 52.5195 72.8801 52.3828 72.9401L52.207 73.1001L57.3633 58.5201L61.4648 55.9001L60.0391 60.3601L66.8359 56.0201C66.8164 57.9201 66.8164 59.8201 66.8164 61.7201ZM13.3203 61.7201C13.4961 61.9001 13.75 62.1001 13.9258 62.2801C14.5117 62.8201 15.6836 63.9201 17.168 65.1601C18.6523 66.4201 20.4687 67.8601 22.2852 69.1801C24.1016 70.5001 25.9766 71.7401 26.9141 72.3601C27.3828 72.6801 27.6172 72.8401 27.7539 72.9001L27.9297 73.0601L22.7734 58.4801L18.6719 55.8601L20.0977 60.3201L13.3008 56.0001C13.3203 57.9201 13.3203 59.8201 13.3203 61.7201ZM32.4219 73.0001L34.6875 67.0801H45.4297L47.6172 73.2001L50.4102 65.8001L40.0781 63.0201L29.7656 65.7801L32.4219 73.0001ZM51.543 62.7001L42.1484 60.2201L43.3203 56.9201L50.2148 52.6601L52.832 55.2001L48.5938 57.7601L52.8711 58.8401L51.543 62.7001ZM28.4961 62.7001L37.8906 60.2201L36.7188 56.9201L29.8242 52.6601L27.207 55.2001L31.4648 57.7601L27.168 58.8401L28.4961 62.7001ZM63.3594 27.6201L66.7383 23.5801V38.5201L63.3594 35.0401V27.6201ZM16.7773 27.6201L13.3789 23.5801V38.5201L16.7773 35.0401V27.6201ZM56.0938 50.0201L52.3242 50.0401L48.8672 46.5001H53.3789L55.1758 42.0601L58.4961 43.5401L56.0938 50.0201ZM46.7383 51.1201H33.3984V46.5001H46.7383V51.1201ZM24.0234 50.0201L27.7734 50.0401L31.2109 46.5001H26.7383L24.9219 42.0601L21.6016 43.5401L24.0234 50.0201Z" fill="white"/>
<path fill-rule="evenodd" clip-rule="evenodd" d="M40.0781 44.3601C40.0977 44.3401 40.5859 43.6801 40.6055 43.6601C41.1328 42.9601 42.1875 41.5201 42.7148 40.8201C43.2422 40.1201 43.2422 40.1201 43.1641 40.0601C43.0859 40.0001 42.9492 39.9201 42.5781 39.8401C42.1875 39.7601 41.582 39.6801 41.0547 39.6601C40.4297 39.6001 39.7852 39.6001 39.1602 39.6601C38.6328 39.6801 38.0078 39.7601 37.6367 39.8401C37.2461 39.9201 37.1094 40.0001 37.0508 40.0601C36.9727 40.1201 36.9727 40.0801 37.5 40.8201C38.0273 41.5201 39.082 42.9601 39.6094 43.6601C39.9219 44.1601 40.0195 44.3001 40.0781 44.3601ZM31.6602 32.4201L32.1094 33.0401L33.9062 35.5201C34.3555 36.1401 34.375 36.1601 34.375 36.1601L34.1992 36.2401C34.0234 36.3001 33.6719 36.4201 33.3203 36.6001C32.9687 36.7601 32.6172 36.9601 32.2656 37.1401C31.9141 37.3201 31.5625 37.5401 31.3672 37.6801L31.1914 37.7801L30.957 37.6001C30.7227 37.4201 30.2539 37.0001 29.6484 36.5401C29.043 36.0801 28.3008 35.5401 27.9297 35.2801C27.5586 35.0201 27.5586 35.0201 27.5586 34.9801C27.5781 34.9601 27.6367 34.9001 27.8516 34.7401C28.0664 34.5801 28.4375 34.3001 28.8867 33.9801C29.3359 33.6801 29.8633 33.3401 30.3125 33.0801C30.7617 32.8201 31.1914 32.6401 31.3867 32.5401C31.582 32.4401 31.6406 32.4401 31.6602 32.4201ZM48.418 32.4201L47.9687 33.0401L46.1719 35.5201C45.7227 36.1401 45.7031 36.1601 45.7031 36.1601L45.8789 36.2401C46.0547 36.3001 46.4062 36.4201 46.7578 36.6001C47.1094 36.7601 47.4609 36.9601 47.8125 37.1401C48.1641 37.3201 48.5156 37.5401 48.7109 37.6801L48.8867 37.7801L49.1211 37.6001C49.3555 37.4201 49.8242 37.0001 50.4297 36.5401C51.0352 36.0801 51.7773 35.5401 52.1484 35.2801C52.5195 35.0201 52.5195 35.0201 52.5195 34.9801C52.5 34.9601 52.4414 34.9001 52.2266 34.7401C52.0117 34.5801 51.6406 34.3001 51.1914 33.9801C50.7422 33.6801 50.2148 33.3401 49.7656 33.0801C49.3164 32.8201 48.8867 32.6401 48.6914 32.5401C48.4961 32.4401 48.4766 32.4401 48.418 32.4201ZM39.2578 35.3201C38.75 35.3801 38.1836 35.4201 37.8125 35.4801C37.4414 35.5401 37.2852 35.5601 37.207 35.5801L37.1289 35.6001L36.8945 34.8801C36.6602 34.1601 36.1914 32.6601 35.918 31.9201C35.6836 31.1601 35.6836 31.1601 35.6836 31.1401C35.6836 31.1401 35.6836 31.1201 35.8398 31.0801C35.9961 31.0201 36.3672 30.9401 36.8359 30.8601C37.3047 30.7801 37.9492 30.7001 38.5156 30.6801C39.6289 30.6001 40.4883 30.6001 41.6016 30.6801C42.1875 30.7401 42.793 30.7801 43.2812 30.8601C43.75 30.9401 44.1016 31.0201 44.2773 31.0801L44.4336 31.1401C44.4336 31.1401 44.4336 31.1601 44.1992 31.9201C43.9648 32.6801 43.4961 34.1601 43.2227 34.8801L42.9883 35.6001L42.9102 35.5801C42.832 35.5601 42.6758 35.5201 42.3047 35.4801C41.9336 35.4201 41.3477 35.3801 40.8594 35.3201C40.2539 35.2601 39.8828 35.2601 39.2578 35.3201ZM19.4336 46.1801C19.4141 46.2001 19.375 46.2001 19.375 46.2001L20.0781 46.6601C20.7617 47.1201 22.168 47.9801 22.8516 48.4401C23.5352 48.8801 23.5352 48.8801 23.5547 48.8801H24.4727C25.3711 48.8801 27.1289 48.8601 28.0078 48.8601H28.9062C28.9062 48.8601 28.9258 48.8601 28.2031 49.6201C27.4609 50.3801 26.0156 51.9201 25.2734 52.6601L24.5312 53.4201L23.1641 52.5601C21.7969 51.7001 19.082 49.9601 17.7148 49.1001L16.3477 48.2401L16.6406 49.1001C16.9336 49.9601 17.4805 51.6601 17.7539 52.5201L18.0469 53.3801L17.2852 52.9001C16.5234 52.4201 14.9609 51.4601 14.1992 50.9801L13.4375 50.5001L13.5352 50.0601C13.6328 49.6201 13.8867 48.7601 14.2187 47.7601C14.5703 46.7601 14.9805 45.6201 15.4297 44.6201C15.8789 43.6001 16.3086 42.7001 16.7773 41.8201C17.2461 40.9201 17.7344 40.0601 18.418 39.1001C19.1016 38.1201 19.9805 37.0201 20.4297 36.4801L20.8789 35.9401L19.6484 33.8801C18.418 31.8201 15.9375 27.7001 14.6875 25.6401L13.457 23.5801L13.7109 23.6401C13.9648 23.7001 14.4727 23.8001 15.0781 24.0201C15.7031 24.2401 16.4453 24.5401 17.207 24.8801C17.9687 25.2401 18.7109 25.6401 19.5312 26.1001C20.3516 26.5601 21.2109 27.1201 22.0703 27.7401C22.9102 28.3601 23.75 29.0601 24.1797 29.4201C24.6094 29.7801 24.6094 29.8001 24.6094 29.8001C24.6094 29.8001 24.6094 29.8201 24.9805 29.6401C25.332 29.4801 26.0352 29.1201 26.6992 28.8401C27.3633 28.5601 27.9687 28.3001 28.2812 28.1601L28.5937 28.0201L28.9062 28.4801C29.2187 28.9401 29.8633 29.8601 30.1758 30.3201L30.4883 30.7801L30.7227 30.6401C30.957 30.5001 31.4648 30.2001 31.9531 29.9601C32.4609 29.7201 32.9297 29.5201 33.4766 29.3601C34.0234 29.2001 34.6289 29.1001 34.9609 29.0401L35.2734 28.9801L35.1172 28.5401C34.9609 28.1401 34.6875 27.3201 34.5703 26.9001L34.4336 26.5001L34.668 26.4401C34.9023 26.3801 35.3711 26.3001 36.1133 26.2201C36.8555 26.1401 37.8516 26.0601 38.6719 26.0401C39.6484 25.9801 40.5859 25.9801 41.5625 26.0401C42.3828 26.0601 43.3789 26.1401 44.1211 26.2201C44.8633 26.3001 45.332 26.3801 45.5664 26.4401L45.8008 26.5001L45.6641 26.9001C45.5273 27.3001 45.2344 28.1201 45.1172 28.5401C44.9609 28.9401 44.9609 28.9801 44.9609 28.9801C44.9609 28.9801 44.9805 28.9801 45.2734 29.0401C45.5859 29.1001 46.1914 29.2001 46.7578 29.3601C47.3047 29.5201 47.8125 29.7201 48.2812 29.9601C48.7891 30.2001 49.2578 30.5001 49.5117 30.6401L49.7461 30.7801L50.0586 30.3201C50.3711 29.8601 51.0156 28.9401 51.3281 28.4801L51.6406 28.0201C51.6406 28.0201 51.6602 28.0201 51.9531 28.1601C52.2656 28.3001 52.8711 28.5401 53.5352 28.8401C54.1992 29.1401 54.9023 29.4801 55.2539 29.6401C55.6055 29.8001 55.6055 29.8001 55.625 29.8001C55.625 29.8001 55.625 29.7801 56.0547 29.4201C56.4844 29.0601 57.2851 28.3601 58.1641 27.7401C59.0039 27.1201 59.8828 26.5801 60.7031 26.1001C61.5234 25.6201 62.2852 25.2401 63.0273 24.8801C63.7891 24.5201 64.5312 24.2401 65.1562 24.0201C65.7812 23.8001 66.2891 23.7001 66.5234 23.6401L66.7773 23.5801L65.5469 25.6401C64.3164 27.7001 61.8359 31.8201 60.5859 33.8801C59.3359 35.9401 59.3555 35.9401 59.3555 35.9401L59.8047 36.4801C60.2539 37.0201 61.1133 38.1201 61.8164 39.1001C62.5 40.0801 62.9687 40.9401 63.457 41.8201C63.9258 42.7201 64.3555 43.6001 64.8047 44.6201C65.2539 45.6401 65.6836 46.7801 66.0156 47.7601C66.3672 48.7601 66.5625 49.6201 66.6992 50.0601L66.7969 50.5001L66.0351 50.9801C65.2734 51.4601 63.7109 52.4201 62.9492 52.9001L62.1875 53.3801L62.4805 52.5201C62.7734 51.6601 63.3203 49.9601 63.5937 49.1001L63.8867 48.2401L62.5195 49.1001C61.1523 49.9601 58.4375 51.7001 57.0703 52.5601L55.7031 53.4201L54.9609 52.6601C54.2187 51.9001 52.6953 50.2801 52.0117 49.5801L51.2695 48.8201H52.1875C53.0859 48.8201 54.8437 48.8401 55.7227 48.8401H56.6406L57.3437 48.4001C58.0273 47.9601 59.4336 47.0801 60.1172 46.6201C60.8008 46.1801 60.8203 46.1601 60.8203 46.1601C60.8203 46.1601 60.8008 46.1601 60.7617 46.1401C60.7422 46.1201 60.6641 46.0601 59.7266 45.3801C58.8086 44.6801 57.0117 43.3601 56.1133 42.6801L55.2148 42.0001H59.1992L59.0234 41.7401C58.8477 41.4801 58.4766 40.9401 58.125 40.4401C57.7734 39.9601 57.4414 39.5201 57.0898 39.1201C56.7383 38.7201 56.3867 38.3401 56.1914 38.1401L56.0156 37.9601L53.7305 39.4001C51.4453 40.8401 46.8164 43.6601 44.5312 45.1001L42.2461 46.5401L43.0078 47.3201C43.7695 48.1001 45.2734 49.6401 46.0352 50.4001L46.7969 51.1801L45.6836 51.5601L41.2305 53.0801L40.1172 53.4601L40.0195 53.4401C40 53.4401 39.9609 53.4201 39.9414 53.4201L39.0234 53.1001L34.5703 51.5801L33.457 51.2001L34.2187 50.4201C34.9805 49.6401 36.4844 48.1001 37.2461 47.3401L38.0078 46.5601L35.7227 45.1201C33.4375 43.6801 28.8086 40.8601 26.5234 39.4201L24.2383 37.9801L24.0625 38.1601C23.8867 38.3401 23.5156 38.7201 23.1641 39.1401C22.8125 39.5401 22.4805 39.9801 22.1289 40.4601C21.7773 40.9401 21.4258 41.4801 21.2305 41.7601L21.0547 42.0201H25.0391L24.1406 42.7001C23.2422 43.3801 21.4453 44.7001 20.5273 45.4001C19.5508 46.1001 19.4727 46.1601 19.4336 46.1801Z" fill="#C4C4C4"/>
</g>
<defs>
<clipPath id="clip0_44_415">
<rect width="80" height="96" fill="white"/>
</clipPath>
</defs>
</svg>
