<svg width="100" height="100" viewBox="0 0 100 100" fill="none" xmlns="http://www.w3.org/2000/svg">
<g clip-path="url(#clip0_135_999)">
<mask id="mask0_135_999" style="mask-type:luminance" maskUnits="userSpaceOnUse" x="0" y="25" width="100" height="50">
<path d="M100 25H0V75H100V25Z" fill="white"/>
</mask>
<g mask="url(#mask0_135_999)">
<path d="M21.2085 54.8096L21.1285 54.8977L21.9205 50.8896H22.1845L21.3926 54.8977L21.3205 54.8096H23.8245L23.7205 54.8977L24.5205 50.8896H24.7845L23.9526 55.0416H18.4805L19.3126 50.8896H19.5765L18.7845 54.8977L18.7126 54.8096H21.2085ZM28.8421 55.0416L27.4102 52.9457L27.6341 52.8416L29.1461 55.0416H28.8421ZM25.7461 55.0416L26.5781 50.8896H26.8421L26.0102 55.0416H25.7461ZM26.3221 53.0496L26.3702 52.8177H27.6502L27.6021 53.0496H26.3221ZM27.6421 52.9936L27.3702 52.9296L29.5302 50.8896H29.8661L27.6421 52.9936ZM18.6326 65.0416L19.7526 59.4416H21.6645C22.2672 59.4416 22.7338 59.575 23.0645 59.8416C23.4005 60.103 23.5685 60.4736 23.5685 60.9536C23.5685 61.4336 23.4645 61.8389 23.2565 62.1696C23.0538 62.495 22.7605 62.743 22.3765 62.9136C21.9979 63.0789 21.5445 63.1616 21.0165 63.1616H19.1605L19.3045 63.0336L18.9045 65.0416H18.6326ZM19.3045 63.0336L19.2085 62.9136H21.0165C21.7418 62.9136 22.3045 62.751 22.7045 62.4257C23.1045 62.1004 23.3045 61.615 23.3045 60.9696C23.3045 60.5589 23.1632 60.2443 22.8805 60.0257C22.5979 59.8016 22.1926 59.6896 21.6645 59.6896H19.8565L20.0005 59.5536L19.3045 63.0336ZM23.6106 66.6177C23.4293 66.6177 23.256 66.5857 23.0906 66.5216C22.9254 66.4577 22.7973 66.3669 22.7066 66.2497L22.8827 66.0577C22.9733 66.1696 23.0827 66.2524 23.2106 66.3057C23.3333 66.3589 23.4773 66.3857 23.6427 66.3857C23.8293 66.3857 24.0054 66.3324 24.1706 66.2257C24.336 66.1189 24.5146 65.9216 24.7066 65.6336L25.1546 64.9457L25.2106 64.8816L27.8106 60.8896H28.0986L24.9386 65.7216C24.784 65.951 24.6373 66.1296 24.4986 66.2577C24.3654 66.391 24.2266 66.4843 24.0827 66.5377C23.9386 66.591 23.7813 66.6177 23.6106 66.6177ZM25.1386 65.1377L24.0427 60.8896H24.3146L25.3306 64.8657L25.1386 65.1377ZM30.0545 65.0657C29.6758 65.0657 29.3479 64.9963 29.0705 64.8577C28.7932 64.7189 28.5798 64.5216 28.4305 64.2657C28.2865 64.0096 28.2145 63.7084 28.2145 63.3616C28.2145 62.8763 28.3158 62.4469 28.5185 62.0736C28.7265 61.695 29.0065 61.3989 29.3585 61.1857C29.7158 60.9669 30.1238 60.8577 30.5826 60.8577C30.9398 60.8577 31.2492 60.9216 31.5105 61.0497C31.7718 61.1724 31.9718 61.3536 32.1105 61.5936L31.9026 61.7377C31.7692 61.5189 31.5905 61.3589 31.3665 61.2577C31.1426 61.1563 30.8758 61.1057 30.5665 61.1057C30.1665 61.1057 29.8092 61.2043 29.4945 61.4016C29.1798 61.5936 28.9318 61.8604 28.7505 62.2016C28.5692 62.5377 28.4785 62.9216 28.4785 63.3536C28.4785 63.8177 28.6172 64.1804 28.8945 64.4416C29.1718 64.6977 29.5665 64.8257 30.0785 64.8257C30.3665 64.8257 30.6358 64.7724 30.8865 64.6657C31.1372 64.5589 31.3453 64.4069 31.5105 64.2097L31.6865 64.3696C31.5105 64.5936 31.2758 64.7669 30.9826 64.8896C30.6945 65.0069 30.3853 65.0657 30.0545 65.0657ZM31.7186 65.0257L31.7827 64.7936C31.8254 64.7989 31.8627 64.8069 31.8946 64.8177C31.9266 64.823 31.9533 64.8257 31.9746 64.8257C32.1666 64.8257 32.3373 64.7404 32.4866 64.5697C32.6413 64.3936 32.7906 64.1189 32.9346 63.7457C33.0786 63.3669 33.228 62.8736 33.3827 62.2657L33.7346 60.8896H36.5427L35.7106 65.0416H35.4466L36.2466 61.0336L36.3186 61.1296H33.8466L33.9427 61.0336L33.6227 62.3216C33.5001 62.8069 33.3773 63.2257 33.2546 63.5777C33.1373 63.9243 33.0146 64.2097 32.8866 64.4336C32.7586 64.6524 32.6227 64.815 32.4786 64.9216C32.3401 65.023 32.1854 65.0736 32.0146 65.0736C31.9666 65.0736 31.9213 65.0684 31.8786 65.0577C31.836 65.0524 31.7827 65.0416 31.7186 65.0257ZM39.2719 65.0657C38.9146 65.0657 38.5999 64.9989 38.3279 64.8657C38.0613 64.7269 37.8533 64.5296 37.7039 64.2736C37.5599 64.0177 37.4879 63.7136 37.4879 63.3616C37.4879 63.0043 37.5439 62.6736 37.6559 62.3697C37.7733 62.0657 37.9359 61.8016 38.1439 61.5777C38.3573 61.3484 38.6054 61.1724 38.888 61.0497C39.1759 60.9216 39.4933 60.8577 39.8399 60.8577C40.2027 60.8577 40.5119 60.9243 40.7679 61.0577C41.0293 61.191 41.2266 61.383 41.3599 61.6336C41.4986 61.8789 41.568 62.175 41.568 62.5216C41.5733 63.0069 41.4773 63.4416 41.2799 63.8257C41.0879 64.2096 40.8186 64.5136 40.4719 64.7377C40.1306 64.9563 39.7306 65.0657 39.2719 65.0657ZM39.3199 64.8257C39.7199 64.8257 40.0746 64.7296 40.3839 64.5377C40.6933 64.3404 40.9359 64.0736 41.1119 63.7377C41.2933 63.3963 41.3839 63.0097 41.3839 62.5777C41.3839 62.1084 41.2454 61.7457 40.9679 61.4896C40.6959 61.2336 40.3146 61.1057 39.8239 61.1057C39.4293 61.1057 39.0746 61.2043 38.7599 61.4016C38.4506 61.5936 38.2054 61.8604 38.0239 62.2016C37.8427 62.5377 37.7519 62.9216 37.7519 63.3536C37.7519 63.8177 37.8879 64.1804 38.1599 64.4416C38.4373 64.6977 38.8239 64.8257 39.3199 64.8257ZM40.9359 65.0416L41.2159 63.6577L41.4319 63.0257L41.4719 62.3457L41.7599 60.8896H42.0239L41.1999 65.0416H40.9359ZM42.9961 65.0416L43.8281 60.8896H44.0921L43.7002 62.8336H46.6921L47.0841 60.8896H47.3481L46.5161 65.0416H46.2521L46.6521 63.0657H43.6602L43.2602 65.0416H42.9961ZM50.0766 65.0657C49.7193 65.0657 49.4046 64.9989 49.1327 64.8657C48.866 64.7269 48.658 64.5296 48.5086 64.2736C48.3646 64.0177 48.2927 63.7136 48.2927 63.3616C48.2927 63.0043 48.3486 62.6736 48.4606 62.3697C48.578 62.0657 48.7406 61.8016 48.9486 61.5777C49.162 61.3484 49.41 61.1724 49.6927 61.0497C49.9806 60.9216 50.298 60.8577 50.6446 60.8577C51.0073 60.8577 51.3166 60.9243 51.5727 61.0577C51.834 61.191 52.0313 61.383 52.1646 61.6336C52.3033 61.8789 52.3727 62.175 52.3727 62.5216C52.378 63.0069 52.282 63.4416 52.0846 63.8257C51.8927 64.2096 51.6233 64.5136 51.2766 64.7377C50.9354 64.9563 50.5354 65.0657 50.0766 65.0657ZM50.1246 64.8257C50.5246 64.8257 50.8793 64.7296 51.1886 64.5377C51.498 64.3404 51.7406 64.0736 51.9166 63.7377C52.098 63.3963 52.1886 63.0097 52.1886 62.5777C52.1886 62.1084 52.0501 61.7457 51.7727 61.4896C51.5006 61.2336 51.1193 61.1057 50.6286 61.1057C50.234 61.1057 49.8793 61.2043 49.5646 61.4016C49.2554 61.5936 49.0101 61.8604 48.8286 62.2016C48.6473 62.5377 48.5566 62.9216 48.5566 63.3536C48.5566 63.8177 48.6927 64.1804 48.9646 64.4416C49.242 64.6977 49.6286 64.8257 50.1246 64.8257ZM51.7406 65.0416L52.0206 63.6577L52.2366 63.0257L52.2766 62.3457L52.5646 60.8896H52.8286L52.0046 65.0416H51.7406ZM21.2165 75.0736C20.6726 75.0736 20.2112 74.9777 19.8326 74.7857C19.4538 74.5936 19.1658 74.3269 18.9685 73.9857C18.7712 73.6389 18.6726 73.2416 18.6726 72.7936C18.6726 72.3404 18.7498 71.911 18.9045 71.5057C19.0592 71.1004 19.2805 70.7404 19.5685 70.4257C19.8618 70.111 20.2165 69.863 20.6326 69.6816C21.0538 69.5004 21.5258 69.4097 22.0485 69.4097C22.4805 69.4097 22.8592 69.4736 23.1845 69.6016C23.5153 69.7297 23.7738 69.9109 23.9605 70.1457L23.7685 70.3136C23.5818 70.095 23.3445 69.9324 23.0565 69.8257C22.7685 69.7136 22.4272 69.6577 22.0326 69.6577C21.5579 69.6577 21.1285 69.7404 20.7445 69.9057C20.3658 70.071 20.0432 70.2977 19.7765 70.5857C19.5098 70.8736 19.3045 71.2069 19.1605 71.5857C19.0165 71.9643 18.9445 72.3643 18.9445 72.7857C18.9445 73.1857 19.0298 73.5404 19.2005 73.8496C19.3765 74.1536 19.6326 74.3936 19.9685 74.5696C20.3098 74.7404 20.7338 74.8257 21.2405 74.8257C21.6405 74.8257 22.0005 74.7669 22.3205 74.6497C22.6405 74.5269 22.9179 74.3563 23.1526 74.1377L23.3126 74.3377C23.0779 74.5616 22.7765 74.7404 22.4085 74.8736C22.0405 75.0069 21.6432 75.0736 21.2165 75.0736ZM25.9204 75.0657C25.563 75.0657 25.2484 74.9989 24.9764 74.8657C24.7097 74.7269 24.5017 74.5297 24.3524 74.2736C24.2084 74.0177 24.1364 73.7136 24.1364 73.3616C24.1364 73.0043 24.1924 72.6736 24.3044 72.3697C24.4217 72.0657 24.5844 71.8016 24.7924 71.5777C25.0057 71.3484 25.2537 71.1724 25.5364 71.0496C25.8244 70.9216 26.1417 70.8577 26.4884 70.8577C26.851 70.8577 27.1604 70.9243 27.4164 71.0577C27.6778 71.191 27.8751 71.383 28.0084 71.6336C28.147 71.8789 28.2164 72.175 28.2164 72.5216C28.2217 73.0069 28.1257 73.4416 27.9284 73.8257C27.7364 74.2097 27.467 74.5136 27.1204 74.7377C26.779 74.9563 26.379 75.0657 25.9204 75.0657ZM25.9684 74.8257C26.3684 74.8257 26.723 74.7296 27.0324 74.5377C27.3417 74.3404 27.5844 74.0736 27.7604 73.7377C27.9417 73.3963 28.0324 73.0096 28.0324 72.5777C28.0324 72.1084 27.8937 71.7457 27.6164 71.4897C27.3444 71.2336 26.963 71.1057 26.4724 71.1057C26.0778 71.1057 25.723 71.2043 25.4084 71.4016C25.099 71.5936 24.8537 71.8604 24.6724 72.2016C24.491 72.5377 24.4004 72.9216 24.4004 73.3536C24.4004 73.8177 24.5364 74.1804 24.8084 74.4416C25.0857 74.6977 25.4724 74.8257 25.9684 74.8257ZM27.5844 75.0416L27.8644 73.6577L28.0804 73.0257L28.1204 72.3457L28.4084 70.8897H28.6724L27.8484 75.0416H27.5844ZM28.8046 75.0257L28.8686 74.7936C28.9112 74.7989 28.9486 74.8069 28.9806 74.8177C29.0127 74.823 29.0392 74.8257 29.0606 74.8257C29.2527 74.8257 29.4232 74.7404 29.5727 74.5696C29.7272 74.3936 29.8766 74.1189 30.0206 73.7457C30.1646 73.3669 30.3139 72.8736 30.4686 72.2657L30.8206 70.8897H33.6286L32.7966 75.0416H32.5327L33.3327 71.0336L33.4046 71.1297H30.9327L31.0286 71.0336L30.7086 72.3216C30.5859 72.8069 30.4632 73.2257 30.3406 73.5777C30.2232 73.9243 30.1006 74.2096 29.9727 74.4336C29.8446 74.6524 29.7086 74.815 29.5646 74.9216C29.4259 75.023 29.2712 75.0736 29.1006 75.0736C29.0527 75.0736 29.0072 75.0684 28.9646 75.0577C28.9219 75.0524 28.8686 75.0416 28.8046 75.0257ZM36.4379 75.0657C36.0539 75.0657 35.7205 74.9989 35.4379 74.8657C35.1605 74.7269 34.9472 74.5297 34.798 74.2736C34.6539 74.0177 34.5819 73.7084 34.5819 73.3457C34.5819 72.871 34.6779 72.4469 34.8699 72.0736C35.0672 71.7004 35.3339 71.4043 35.6699 71.1857C36.0112 70.9669 36.3953 70.8577 36.8219 70.8577C37.1792 70.8577 37.4859 70.9269 37.7419 71.0657C37.998 71.1989 38.1953 71.3936 38.3339 71.6496C38.4725 71.9057 38.5419 72.2124 38.5419 72.5697C38.5419 72.6443 38.5365 72.7189 38.5259 72.7936C38.5205 72.8684 38.5125 72.9377 38.5019 73.0016H34.7819L34.8299 72.7777H38.3819L38.2699 72.8896C38.3339 72.5004 38.3099 72.175 38.1979 71.9136C38.0859 71.6469 37.9099 71.4443 37.6699 71.3057C37.4299 71.1669 37.1445 71.0977 36.8139 71.0977C36.4353 71.0977 36.0965 71.1963 35.798 71.3936C35.4992 71.5857 35.2645 71.8496 35.0939 72.1857C34.9232 72.5216 34.8379 72.9057 34.8379 73.3377C34.8379 73.8177 34.9765 74.1857 35.2539 74.4416C35.5312 74.6977 35.9339 74.8257 36.4619 74.8257C36.7659 74.8257 37.0459 74.775 37.3019 74.6736C37.5579 74.5669 37.7685 74.4204 37.9339 74.2336L38.0619 74.4177C37.8912 74.615 37.6619 74.7724 37.3739 74.8897C37.0859 75.0069 36.7739 75.0657 36.4379 75.0657ZM42.2011 75.0416L42.5052 73.4816L42.5691 73.5697H41.0652C40.6064 73.5697 40.2571 73.4736 40.0171 73.2816C39.7824 73.0843 39.6652 72.7989 39.6652 72.4257C39.6652 71.9457 39.8411 71.5697 40.1931 71.2977C40.5452 71.0257 41.0252 70.8897 41.6331 70.8897H43.2731L42.4491 75.0416H42.2011ZM39.1291 75.0416L40.6091 73.4336H40.9052L39.4411 75.0416H39.1291ZM42.5211 73.4257L43.0011 71.0336L43.0571 71.1297H41.6252C41.0917 71.1297 40.6757 71.2443 40.3771 71.4736C40.0784 71.6977 39.9291 72.015 39.9291 72.4257C39.9291 73.0389 40.3157 73.3457 41.0891 73.3457H42.6091L42.5211 73.4257Z" fill="#E41E37"/>
<path d="M2.96183 27.9733C5.00763 29.958 6.50381 31.1183 7.69465 31.6984L9.46564 32.5229L45.6488 32.6145C86.2289 32.6755 82.9618 32.4923 82.1068 34.9046C81.2213 37.4389 82.3205 37.2557 67.2976 37.2557H53.9541L51.6946 42.9656L49.4351 48.7061L41.4656 48.8587L33.4656 49.0114L36.519 51.7595C41.7099 56.4007 42.7481 56.7977 50.5648 56.7977H55.6335L55.9694 56.0343L56.3358 55.2709H53.2824H50.229L50.4122 54.416C50.9313 52.3091 51.9694 51.1793 54.9618 49.4694C57.4351 48.0648 57.9541 46.7213 55.9999 46.7213C55.3282 46.7213 55.0228 46.9351 54.748 47.4847C54.4732 48.0953 54.1984 48.2479 53.2213 48.2479C51.8778 48.2479 51.8473 48.1564 52.6717 46.8128C53.9541 44.6754 53.4045 44.7671 69.0076 44.5839L83.0534 44.4313L84.7939 43.5763C85.8014 43.0877 86.9313 42.2023 87.5114 41.5C88.7022 40.0038 92.4274 31.4236 92.5801 29.7748C92.7633 28.0343 91.9083 26.5687 90.2289 25.7137L88.8854 25.042H44.4274L0 25.0725L2.96183 27.9733Z" fill="#E41E37"/>
<path d="M16.3359 37.1029C16.3359 37.1945 17.5878 38.4769 19.1146 39.9426C24.1833 44.7975 24.4886 44.889 37.1298 44.889H46.5039L47.9084 41.0418C48.6719 38.9349 49.313 37.1333 49.313 37.0723C49.313 37.0112 41.8932 36.9502 32.8246 36.9502C23.7558 36.9502 16.3359 37.0112 16.3359 37.1029Z" fill="#E41E37"/>
<path d="M68.7044 47.6373C68.5823 47.8205 68.1242 49.103 67.6357 50.5381L66.7502 53.1335H67.5441C68.1853 53.1335 68.2769 53.2252 68.1242 53.8053C68.0326 54.2022 67.941 54.5991 67.941 54.7213C67.941 54.874 67.5441 54.9656 67.0861 54.9656C66.3532 54.9656 66.1395 55.1488 65.712 56.1869C65.254 57.4083 65.2235 57.4083 63.6662 57.4083C61.9563 57.4083 61.9258 57.3167 62.628 55.4541C62.7807 55.0266 62.5364 54.9656 60.9792 54.9656H59.1777L57.1319 60.6144C54.5059 67.9732 54.445 69.8052 56.735 71.0571C57.6204 71.5457 58.9334 71.6068 69.6204 71.6984C85.5288 71.8205 87.6357 71.4846 89.6815 68.4923C90.3532 67.5152 92.0631 64.0342 92.0631 63.6373C92.0631 63.5762 86.5059 63.5152 79.7274 63.5152C64.7044 63.5152 65.6509 63.851 67.3609 59.1488C67.8494 57.7136 68.5212 56.3396 68.796 56.0953C69.2235 55.6984 71.0861 55.6068 81.2234 55.5152C94.7807 55.3626 95.5747 55.2709 97.5899 53.1335C98.5976 52.0953 100.002 48.9198 100.002 47.7289C100.002 47.393 97.0402 47.332 84.4601 47.332C74.2616 47.332 68.8265 47.4236 68.7044 47.6373Z" fill="#E41E37"/>
<path d="M62.2259 51.3009L60.3633 53.133H61.8289C63.1419 53.133 63.3252 53.0412 63.5999 52.278C64.2716 50.5375 64.5464 49.4688 64.3328 49.4688C64.2107 49.4688 63.264 50.2933 62.2259 51.3009Z" fill="#E41E37"/>
<path d="M56.215 50.996C55.3906 51.454 54.5051 52.0647 54.2608 52.3395C53.8028 52.7974 53.925 52.8281 55.4821 52.8281H57.192L57.6502 51.454C57.925 50.6907 58.047 50.08 57.925 50.1105C57.8028 50.1105 57.0394 50.5074 56.215 50.996Z" fill="#E41E37"/>
</g>
</g>
<defs>
<clipPath id="clip0_135_999">
<rect width="100" height="50" fill="white" transform="translate(0 25)"/>
</clipPath>
</defs>
</svg>
