<svg width="100" height="100" viewBox="0 0 100 100" fill="none" xmlns="http://www.w3.org/2000/svg">
<g clip-path="url(#clip0_135_1014)">
<mask id="mask0_135_1014" style="mask-type:luminance" maskUnits="userSpaceOnUse" x="0" y="30" width="100" height="41">
<path d="M100 30H0V71H100V30Z" fill="white"/>
</mask>
<g mask="url(#mask0_135_1014)">
<path d="M0.046875 30.1533V37.8119H100.001V30.1533H0.046875Z" fill="#EB222C"/>
<path d="M0 70.8742H100V63.2158H0V70.8742Z" fill="#EB222C"/>
<path fill-rule="evenodd" clip-rule="evenodd" d="M97.4984 32.4824H96.1069V33.3065H96.7322C96.9841 33.3065 97.175 33.376 97.3121 33.5219C97.4335 33.6236 97.5276 33.7823 97.5919 34.0104C97.6497 34.2258 97.6789 34.4733 97.6789 34.7584C97.6789 35.0121 97.6497 35.234 97.5887 35.4305C97.5276 35.6336 97.4374 35.7855 97.3153 35.8996C97.2004 36.0459 97.0056 36.1154 96.7322 36.1215H95.4984V31.6006H97.4984V32.4824ZM96.6095 34.1373H96.1069V35.2974H96.5991C96.7393 35.2974 96.8406 35.2661 96.901 35.1962C97.0023 35.1199 97.053 34.9681 97.0569 34.7393C97.0627 34.5112 97.0166 34.346 96.9127 34.2319C96.8543 34.1685 96.7536 34.1373 96.6095 34.1373ZM89.0913 31.6006L89.6569 33.8135L90.0926 31.6006H90.7504L89.916 35.1962C89.8147 35.6269 89.7036 35.8996 89.5776 36.0203C89.4517 36.1409 89.3004 36.1979 89.1205 36.1916C88.9841 36.1916 88.8543 36.1727 88.7322 36.1215V35.253C88.8835 35.2974 88.9698 35.3164 88.9906 35.3231C89.0698 35.3041 89.1341 35.2661 89.1926 35.2084C89.2504 35.1517 89.29 35.0442 89.3147 34.8789L88.3679 31.6006H89.0913ZM81.0341 36.1215V35.253C81.2036 35.2974 81.3335 35.253 81.4309 35.1077C81.5562 34.9235 81.625 34.4796 81.6354 33.7695L81.6536 31.6006H83.553V36.1215H82.9452V32.4824H82.2147L82.2004 34.0672C82.2004 34.3592 82.1893 34.613 82.1679 34.8346C82.1497 35.0504 82.114 35.2406 82.0601 35.4182C82.0062 35.5957 81.927 35.7476 81.8192 35.875C81.6315 36.1027 81.3724 36.1849 81.0341 36.1215ZM74.8348 33.5286H74.8452L75.7341 31.6006H76.4432L75.4147 33.6682L76.501 36.1215H75.7588L74.8452 33.8897H74.8348L74.8452 36.1215H74.2374V31.6006H74.8452L74.8348 33.5286ZM61.7792 31.6006V34.5239L62.7937 31.6006H63.4097V36.1215H62.7937V33.1736L61.7792 36.1215H61.1641V31.6006H61.7792ZM61.5561 30.4971H61.9767C61.9767 30.6241 62.0025 30.7258 62.0564 30.8081C62.1031 30.8839 62.1789 30.9221 62.2828 30.9284C62.485 30.9284 62.5926 30.7892 62.6072 30.4971H63.0138C62.9993 30.7509 62.9347 30.9601 62.8157 31.1376C62.6792 31.2962 62.5023 31.3724 62.2828 31.3791C62.052 31.3791 61.8761 31.3029 61.7471 31.1376C61.6386 30.9601 61.5773 30.7509 61.5561 30.4971ZM53.1404 31.6006H53.7561V33.2425H54.3893C54.591 33.2425 54.7707 33.3065 54.9289 33.4461C55.0515 33.5602 55.1451 33.731 55.2171 33.9655C55.2811 34.1879 55.3105 34.4411 55.3031 34.7393C55.3031 35.2913 55.188 35.6842 54.9583 35.9257C54.8858 35.9891 54.8105 36.0335 54.7239 36.0714C54.6303 36.1027 54.519 36.1154 54.3893 36.1215H53.1404V31.6006ZM55.5015 36.1215V31.6006H56.1094V36.1215H55.5015ZM54.2457 34.1307H53.7561V35.253H54.2597C54.3534 35.253 54.4361 35.2212 54.5152 35.1578C54.5473 35.1389 54.5797 35.0944 54.6163 35.0121C54.6449 34.9359 54.6625 34.8346 54.6704 34.6953C54.6704 34.4544 54.6163 34.2896 54.508 34.1946C54.4539 34.1562 54.3674 34.1373 54.2457 34.1307ZM47.5254 34.1752H46.5893V36.1215H45.9778V31.6006H46.5893V33.3065H47.5254V31.6006H48.1297V36.1215H47.5254V34.1752ZM39.3083 31.6006V34.5239L40.3234 31.6006H40.9386V36.1215H40.3234V33.1736L39.3083 36.1215H38.6929V31.6006H39.3083ZM39.0852 30.4971H39.5067C39.5067 30.6241 39.5317 30.7258 39.5855 30.8081C39.6322 30.8839 39.7075 30.9221 39.8124 30.9284C40.0136 30.9284 40.1215 30.7892 40.1361 30.4971H40.5426C40.5284 30.7509 40.4632 30.9601 40.3449 31.1376C40.2083 31.2962 40.0317 31.3724 39.8124 31.3791C39.5822 31.3791 39.4056 31.3029 39.2761 31.1376C39.1679 30.9601 39.1072 30.7509 39.0852 30.4971ZM32.3564 32.4824V33.4017H33.6086V34.2135H32.3564V35.253H33.8102V36.1215H31.7517V31.6006H33.785V32.4824H32.3564ZM25.3177 33.5286H25.3285L26.2176 31.6006H26.9269L25.8975 33.6682L26.984 36.1215H26.2428L25.3285 33.8897H25.3177L25.3285 36.1215H24.7202V31.6006H25.3285L25.3177 33.5286ZM18.2941 33.5286H18.3049L19.1939 31.6006H19.9028L18.8734 33.6682L19.9604 36.1215H19.2192L18.3049 33.8897H18.2941L18.3049 36.1215H17.6965V31.6006H18.3049L18.2941 33.5286ZM11.4604 36.2356C11.0576 36.2356 10.7515 36.0525 10.5358 35.6781C10.2841 35.2212 10.1577 34.6192 10.1577 33.8579C10.1577 33.1162 10.2841 32.5203 10.5358 32.0573C10.6509 31.8415 10.7876 31.6962 10.9462 31.6067C11.1043 31.5248 11.2737 31.4865 11.4604 31.4804C11.6369 31.4804 11.8063 31.5181 11.9719 31.6067C12.123 31.6962 12.2597 31.8415 12.3818 32.0573C12.5006 32.2666 12.591 32.5264 12.6593 32.8435C12.7239 33.1479 12.7561 33.484 12.7561 33.8579C12.7561 34.2196 12.7271 34.5561 12.6625 34.8789C12.598 35.1839 12.5039 35.4499 12.3818 35.6781C12.1623 36.0459 11.8568 36.2295 11.4604 36.2356ZM11.4604 35.3671C11.5578 35.3671 11.6513 35.3358 11.7482 35.2719C11.8352 35.2212 11.9143 35.0886 11.9864 34.8662C12.058 34.613 12.094 34.2769 12.0978 33.8579C12.0978 33.4528 12.0617 33.1224 11.9864 32.8565C11.8783 32.5264 11.7052 32.3616 11.4604 32.355C11.3599 32.355 11.263 32.3807 11.1694 32.4441C11.0828 32.507 11.0033 32.641 10.9317 32.8565C10.8526 33.1101 10.8128 33.4395 10.8091 33.8579C10.8091 34.2769 10.8489 34.613 10.9317 34.8662C11 35.0822 11.0795 35.2151 11.1694 35.2786C11.263 35.3358 11.3599 35.3608 11.4604 35.3671ZM4.70399 36.1215L4.17103 34.5618L3.63526 36.1215H2.88281L3.78265 33.7823L2.95114 31.6006H3.67081L4.17103 33.0907L4.66048 31.6006H5.38438L4.55988 33.7823L5.46345 36.1215H4.70399Z" fill="white"/>
<path fill-rule="evenodd" clip-rule="evenodd" d="M95.358 69.2088V65.0678H96.6424C96.8515 65.0678 97.0132 65.1199 97.1359 65.2245C97.2437 65.3171 97.3229 65.4446 97.3762 65.6136C97.4275 65.7703 97.4489 65.9388 97.445 66.1304C97.4411 66.351 97.3982 66.531 97.3158 66.6824C97.2366 66.8216 97.1359 66.9206 97.0132 66.9789V67.007C97.0742 67.0191 97.1359 67.0478 97.2041 67.0946C97.2684 67.1412 97.3268 67.2045 97.3846 67.286C97.4411 67.3674 97.4852 67.472 97.5203 67.6053C97.5528 67.745 97.5677 67.8901 97.571 68.0471C97.571 68.314 97.5314 68.5352 97.4528 68.7092C97.3736 68.883 97.2684 69.0113 97.1359 69.1042C97.0703 69.1329 96.9956 69.1563 96.9015 69.18C96.8008 69.1971 96.6969 69.2029 96.5813 69.2088H95.358ZM96.4301 65.8342H95.9619V66.717H96.4625C96.5671 66.717 96.6463 66.6877 96.7008 66.63C96.7794 66.5603 96.819 66.4439 96.8229 66.2701C96.8229 66.078 96.7723 65.9564 96.6716 65.8922C96.6288 65.8579 96.5495 65.8398 96.4301 65.8342ZM96.5203 67.46H95.9619V68.4537H96.5171C96.632 68.4537 96.7145 68.4306 96.769 68.3779C96.8736 68.2909 96.9242 68.1456 96.9268 67.9425C96.9268 67.745 96.8762 67.6053 96.769 67.5127C96.7255 67.4776 96.6424 67.46 96.5203 67.46ZM88.3067 67.6524V65.0678H88.9073V67.4951C88.9073 67.7858 88.9327 67.9944 88.9833 68.128C89.0508 68.3838 89.1917 68.5115 89.4112 68.5115C89.6164 68.5115 89.7638 68.3955 89.858 68.1514C89.9008 68.024 89.9223 67.8089 89.9223 67.4951V65.0678H90.5236V67.6524C90.5236 67.8957 90.5093 68.1168 90.4801 68.3201C90.4515 68.5177 90.3723 68.7151 90.2424 68.9129C90.1632 69.0289 90.0593 69.1218 89.9294 69.1912C89.8002 69.2607 89.6268 69.2958 89.4112 69.3017C89.0365 69.3017 88.7671 69.1737 88.5943 68.9129C88.5112 68.7907 88.4508 68.6509 88.4041 68.4945C88.3599 68.3548 88.3352 68.2156 88.321 68.0697C88.3132 67.9601 88.3099 67.8203 88.3067 67.6524ZM82.5028 68.4131H83.6976V69.2088H81.8943V65.0678H82.5028V68.4131ZM76.6067 67.745H77.2041C77.2041 67.8848 77.1859 68.0471 77.1463 68.2326C77.1067 68.4245 77.0489 68.593 76.9664 68.7383C76.7755 69.1097 76.4697 69.3078 76.045 69.3424C75.6599 69.3424 75.3612 69.1854 75.1489 68.8598C74.908 68.5056 74.7891 67.9601 74.7852 67.2107C74.7852 66.4439 74.908 65.8579 75.1599 65.4507C75.3541 65.1431 75.6385 64.9802 76.0203 64.957C76.408 64.957 76.7002 65.1085 76.8982 65.422C77.0599 65.6831 77.1541 66.0314 77.182 66.4677H76.5846C76.5742 66.2872 76.5314 66.1243 76.4489 65.974C76.3651 65.8284 76.2327 65.7589 76.0489 65.7589C75.8541 65.7589 75.6995 65.8922 75.5846 66.1594C75.5268 66.2986 75.4872 66.4556 75.4658 66.63C75.4437 66.7923 75.4372 66.9725 75.4404 67.176C75.4404 67.5766 75.4904 67.9018 75.5989 68.1514C75.7106 68.4131 75.869 68.5402 76.0736 68.5461C76.2541 68.5461 76.3833 68.4652 76.4664 68.2967C76.5456 68.128 76.5924 67.9484 76.6067 67.745ZM62.9791 65.0678L63.5261 66.8623L64.0695 65.0678H64.7428L63.8209 67.6524V69.2088H63.2093V67.6524L62.2917 65.0678H62.9791ZM56.4264 65.875V66.717H57.6786V67.46H56.4264V68.4131H57.8802V69.2088H55.8217V65.0678H57.8544V65.875H56.4264ZM49.425 65.0678V66.7577L50.4077 65.0678H51.1662L50.1341 66.7864L51.2453 69.2088H50.4794L49.7167 67.4254L49.425 67.9018V69.2088H48.8167V65.0678H49.425ZM43.5178 67.745H44.1151C44.1151 67.8848 44.0973 68.0471 44.058 68.2326C44.0181 68.4245 43.9607 68.593 43.8777 68.7383C43.6873 69.1097 43.3813 69.3078 42.9563 69.3424C42.5714 69.3424 42.2728 69.1854 42.0604 68.8598C41.8195 68.5056 41.7005 67.9601 41.6967 67.2107C41.6967 66.4439 41.8195 65.8579 42.0712 65.4507C42.2654 65.1431 42.5497 64.9802 42.9313 64.957C43.3201 64.957 43.6116 65.1085 43.8096 65.422C43.9714 65.6831 44.0651 66.0314 44.0934 66.4677H43.4959C43.4857 66.2872 43.442 66.1243 43.3593 65.974C43.2769 65.8284 43.1437 65.7589 42.9602 65.7589C42.7656 65.7589 42.611 65.8922 42.4959 66.1594C42.4384 66.2986 42.3986 66.4556 42.3772 66.63C42.3552 66.7923 42.348 66.9725 42.3519 67.176C42.3519 67.5766 42.4025 67.9018 42.5102 68.1514C42.6219 68.4131 42.7799 68.5402 42.9854 68.5461C43.1651 68.5461 43.2948 68.4652 43.3775 68.2967C43.4566 68.128 43.5036 67.9484 43.5178 67.745ZM35.7596 69.3128C35.3563 69.3128 35.0508 69.1449 34.8346 68.8021C34.583 68.3838 34.4569 67.832 34.4569 67.1354C34.4569 66.4556 34.583 65.9095 34.8346 65.4853C34.9497 65.2884 35.0868 65.1542 35.2451 65.0737C35.403 64.9978 35.5725 64.9632 35.7596 64.957C35.936 64.957 36.1049 64.9917 36.2706 65.0737C36.4214 65.1542 36.5585 65.2884 36.6805 65.4853C36.7995 65.6775 36.8899 65.9156 36.958 66.2057C37.0225 66.4846 37.0555 66.7923 37.0555 67.1354C37.0555 67.4662 37.0264 67.7738 36.9618 68.0697C36.8967 68.3492 36.8033 68.5929 36.6805 68.8021C36.4615 69.1388 36.1555 69.3078 35.7596 69.3128ZM35.7596 68.5177C35.8571 68.5177 35.95 68.4884 36.0475 68.4306C36.1341 68.3838 36.2127 68.2622 36.2852 68.0585C36.3569 67.8265 36.3928 67.5183 36.3969 67.1354C36.3969 66.7638 36.3604 66.4615 36.2852 66.2172C36.1772 65.9156 36.0038 65.7645 35.7596 65.7589C35.6591 65.7589 35.5618 65.7815 35.4681 65.8398C35.3816 65.8981 35.3025 66.0202 35.2305 66.2172C35.1508 66.4495 35.1115 66.7519 35.1082 67.1354C35.1082 67.5183 35.1475 67.8265 35.2305 68.0585C35.2989 68.2563 35.3777 68.3779 35.4681 68.4362C35.5618 68.4884 35.6591 68.5115 35.7596 68.5177ZM29.1071 67.4254H28.1717V69.2088H27.5602V65.0678H28.1717V66.63H29.1071V65.0678H29.7121V69.2088H29.1071V67.4254ZM15.7903 65.875V66.717H17.043V67.46H15.7903V68.4131H17.2441V69.2088H15.1857V65.0678H17.2193V65.875H15.7903ZM9.87986 67.745H10.4769C10.4769 67.8848 10.4591 68.0471 10.4194 68.2326C10.3801 68.4245 10.3221 68.593 10.2397 68.7383C10.0488 69.1097 9.74324 69.3078 9.31837 69.3424C8.93324 69.3424 8.63473 69.1854 8.42226 68.8598C8.18129 68.5056 8.06246 67.9601 8.05869 67.2107C8.05869 66.4439 8.18129 65.8579 8.43304 65.4507C8.6272 65.1431 8.91174 64.9802 9.29311 64.957C9.68194 64.957 9.97343 65.1085 10.1714 65.422C10.3328 65.6831 10.4269 66.0314 10.4554 66.4677H9.85837C9.84759 66.2872 9.80408 66.1243 9.72123 65.974C9.63843 65.8284 9.50551 65.7589 9.32162 65.7589C9.12746 65.7589 8.97304 65.8922 8.85791 66.1594C8.79986 66.2986 8.76012 66.4556 8.73908 66.63C8.71752 66.7923 8.71006 66.9725 8.71376 67.176C8.71376 67.5766 8.76389 67.9018 8.87194 68.1514C8.98376 68.4131 9.14194 68.5402 9.34688 68.5461C9.52707 68.5461 9.65668 68.4652 9.73947 68.2967C9.81856 68.128 9.86538 67.9484 9.87986 67.745ZM2.67188 69.2088V65.0678H3.28019V69.2088H2.67188Z" fill="white"/>
<path d="M38.8988 52.3488C38.4258 53.9993 37.9799 55.5568 37.5335 57.1146C37.5488 57.1226 37.5642 57.131 37.5796 57.1396C38.1516 56.3008 38.7013 55.4455 39.2994 54.6265C42.1373 50.7365 45.3052 47.1593 49.0628 44.1446C50.9601 42.6226 53.4373 42.9488 54.7041 44.9327C55.0175 45.4249 55.2269 45.9995 55.4054 46.562C56.5206 50.0682 57.6128 53.5818 58.7134 57.0928C58.77 57.274 58.8332 57.4529 58.9851 57.6281C59.2247 56.6255 59.4508 55.6193 59.7074 54.621C60.0689 53.215 60.4595 51.8158 60.8233 50.4109C60.9052 50.0956 61.0403 49.9612 61.3867 49.9423C62.1516 49.9011 62.9134 49.794 63.7425 49.7069C63.7084 49.8759 63.6892 50.0118 63.6532 50.1424C63.0991 52.148 62.5519 54.1552 61.9832 56.1555C61.781 56.8655 61.8406 57.5051 62.3684 58.0386C62.8986 58.5747 63.5329 58.6042 64.2332 58.4174C67.5872 57.5194 70.6112 55.9832 73.2658 53.7126C74.2787 52.8459 74.6573 51.5445 74.2294 50.3147C73.8138 49.1173 72.6963 48.2874 71.4352 48.2443C69.6216 48.1819 67.806 48.0441 65.9943 48.0829C64.0345 48.1245 62.0788 48.3324 60.1213 48.4673C60.0263 48.4738 59.931 48.4791 59.753 48.4895C59.9532 47.8122 60.126 47.1829 60.3263 46.5633C60.5392 45.904 60.7873 45.2564 61.0024 44.598C61.3137 43.6476 61.9763 43.1775 62.9425 43.1357C67.2787 42.9464 71.6099 42.9868 75.9378 43.373C77.3203 43.4961 78.6177 43.7672 79.7184 44.6818C81.7184 46.3457 82.3586 49.0376 81.3255 51.4537C81.3008 51.5109 81.2904 51.5739 81.3417 51.6856C81.6528 51.3254 81.9632 50.9652 82.2749 50.605C84.2177 48.3593 86.3099 46.2718 88.6112 44.3974C89.9119 43.3379 91.3002 43.0065 92.8528 43.7123C93.7593 44.1243 94.3872 44.8337 94.7417 45.7668C96.3664 50.0449 97.7255 54.4101 98.8326 58.8533C99.3093 60.7689 97.7911 62.2354 95.8846 61.7601C92.3229 60.8721 88.8606 59.6892 85.5021 58.1968C85.3547 58.1309 85.2112 58.0545 84.9937 57.9485C85.4989 57.2391 85.9697 56.5479 86.4826 55.8914C86.5573 55.7962 86.8593 55.8043 87.0164 55.8672C88.656 56.5248 90.2872 57.2035 91.9216 57.8753C92.4911 58.1089 93.0437 58.1285 93.5287 57.6872C94.0274 57.233 94.0619 56.6704 93.8826 56.0481C93.3768 54.2872 92.8976 52.5188 92.3885 50.7588C91.9768 49.3364 90.8924 49.0499 89.8443 50.072C88.058 51.8124 86.5021 53.7547 85.0878 55.8053C83.8255 57.6347 82.6547 59.5291 81.4593 61.4045C81.3047 61.6474 81.1723 61.7079 80.9067 61.6101C79.7865 61.1968 78.6521 60.8241 77.5385 60.3935C76.5197 59.9991 76.2021 59.019 76.7943 58.0938C77.7261 56.6383 78.6937 55.2055 79.6606 53.7414C79.5794 53.7948 79.4898 53.836 79.4229 53.901C75.3249 57.8955 70.4417 60.2769 64.8307 61.1443C63.9758 61.2762 63.1057 61.3094 62.242 61.3753C61.0304 61.467 60.0717 61.0132 59.3903 59.9854C59.3535 59.9305 59.3349 59.8627 59.267 59.7076C58.8711 61.0115 58.1313 61.7155 56.9104 61.6985C56.3667 61.6912 55.8202 61.5083 55.2843 61.3671C51.9898 60.497 48.7909 59.3498 45.681 57.9477C45.6099 57.9153 45.5439 57.871 45.4027 57.7913C45.936 57.0284 46.4513 56.2914 46.9912 55.5194C47.4315 55.7173 47.8395 55.9142 48.2571 56.0859C49.6186 56.6474 50.984 57.1983 52.3472 57.7546C52.8963 57.9795 53.417 57.9307 53.8576 57.5267C54.3153 57.1074 54.3934 56.5829 54.2202 55.9832C53.6934 54.1598 53.1991 52.327 52.6695 50.504C52.2972 49.2208 51.1829 48.9292 50.2266 49.8565C48.3645 51.6616 46.7527 53.6855 45.2878 55.8213C44.0499 57.6277 42.9071 59.5001 41.7219 61.3429C41.6782 61.4107 41.6307 61.4756 41.5502 61.5922C40.2889 61.1348 39.028 60.6869 37.7749 60.2189C37.2414 60.0195 36.9606 59.5841 36.8324 58.867C36.6744 59.1503 36.5826 59.3063 36.4988 59.4661C36.1068 60.2144 35.5367 60.7209 34.673 60.792C32.2626 60.9912 29.8546 61.2762 27.4406 61.3482C24.2208 61.4444 20.9907 61.4944 17.7756 61.3359C14.8599 61.192 11.9559 60.7664 9.05193 60.4163C7.83719 60.2705 6.62381 60.0521 5.43434 59.764C4.65151 59.574 3.86211 59.2906 3.16255 58.8921C1.45741 57.9201 0.919293 56.2663 1.12892 54.4392C1.63429 50.0421 2.77977 45.7814 4.03057 41.55C4.12834 41.2207 4.2781 41.0621 4.62109 41.018C5.76752 40.8727 6.9107 40.6995 8.05524 40.5371C8.07394 40.5835 8.09264 40.6299 8.11135 40.6753C7.82031 41.1018 7.52083 41.5227 7.23823 41.9547C6.44087 43.1752 5.94159 44.5094 5.78016 45.9647C5.58783 47.6981 6.3267 49.0509 7.52972 50.1884C9.25777 51.8225 11.3785 52.7251 13.5965 53.4157C16.36 54.2769 19.1971 54.7548 22.0842 54.8352C24.2236 54.895 26.3719 54.9314 28.506 54.8049C31.7202 54.6147 34.8329 53.8475 37.8582 52.7308C38.1728 52.6147 38.4876 52.4997 38.8988 52.3488Z" fill="#127BCA"/>
<path d="M23.3511 39.718C23.1415 39.718 23.0297 39.7114 22.9182 39.719C20.4668 39.8847 18.0419 40.2183 15.6873 40.9548C13.8498 41.5301 12.0946 42.2695 10.6562 43.6262C9.19434 45.006 9.06006 46.7374 10.4138 48.2242C10.936 48.798 11.5803 49.2974 12.2508 49.6874C15.3116 51.4682 18.7036 52.0551 22.1584 52.351C24.4114 52.5442 26.6664 52.5044 28.9177 52.2583C31.6943 51.9549 34.4077 51.4024 36.9481 50.1807C38.1517 49.6017 39.2849 48.9073 40.0558 47.7557C40.811 46.6276 40.8113 45.37 39.9847 44.2974C39.5882 43.7832 39.1003 43.3194 38.5836 42.9269C37.449 42.0659 36.1443 41.5314 34.8034 41.0865C32.349 40.2724 29.8173 39.8847 27.2504 39.7329C26.2275 39.6721 25.1985 39.7232 24.1817 39.7232C23.9388 40.553 23.9819 40.5152 24.4708 41.0893C24.738 41.4032 24.9355 41.8576 24.9828 42.2699C25.0969 43.2767 24.7081 44.1833 24.2182 45.039C23.6529 46.0251 22.9108 46.8506 21.9281 47.6112C22.4129 44.9249 22.8747 42.3619 23.3511 39.718ZM24.819 39.1533C28.4009 39.1646 32.1987 39.5263 35.8819 40.7145C37.6333 41.2801 39.3154 42.0034 40.7352 43.229C41.4445 43.8411 42.008 44.5587 42.2006 45.5152C42.4113 46.5614 42.0495 47.4461 41.3965 48.2172C40.1984 49.6321 38.5929 50.4155 36.9127 51.0513C33.9959 52.1551 30.9602 52.6568 27.8619 52.8561C24.0043 53.1041 20.1818 52.8935 16.4061 52.0286C14.5203 51.5965 12.6645 51.0398 10.9991 50.025C10.1695 49.5198 9.35343 48.9182 8.70161 48.2026C7.46207 46.8402 7.55239 45.1483 8.79661 43.7809C10.1017 42.3476 11.7993 41.5736 13.5653 40.9388C17.1188 39.6619 20.814 39.2522 24.819 39.1533Z" fill="#127BCA"/>
<path d="M28.7662 40.8132C31.7404 41.2866 34.6201 41.8166 36.986 43.7678C38.6536 45.1429 38.6476 46.8897 37.0341 48.3292C36.8264 48.5147 36.605 48.6875 36.3758 48.8451C34.7486 49.9626 32.9053 50.5194 31.0091 50.9241C28.1553 51.5332 25.2666 51.6612 22.3692 51.4093C19.8855 51.1939 17.433 50.7603 15.1645 49.6498C14.3788 49.265 13.6184 48.7779 12.9465 48.2151C11.5301 47.0287 11.5086 45.3204 12.8188 44.0207C13.8229 43.0246 15.0667 42.4335 16.3633 41.9601C18.1859 41.2945 20.0838 40.9618 22.0038 40.7483C22.0506 40.7431 22.0992 40.7555 22.219 40.7667C22.0557 41.6946 21.8956 42.6124 21.7319 43.5302C21.4769 44.9611 21.2111 46.3913 20.9673 47.8241C20.8423 48.5559 21.2457 49.0188 21.9817 48.9734C23.4361 48.8824 24.7542 48.3723 25.9564 47.5543C26.2376 47.3625 26.4673 47.1377 26.7701 47.53C27.0457 47.887 27.1173 48.3083 26.8033 48.6008C26.5104 48.8735 26.1566 49.1172 25.7869 49.2589C24.0336 49.9314 22.2358 49.9054 20.4273 49.5168C20.2532 49.4793 20.0829 49.4246 19.8494 49.3601C19.7895 49.6067 19.7338 49.8343 19.6566 50.152C20.4268 50.2822 21.1414 50.4327 21.8629 50.5189C23.4894 50.7145 25.1262 50.8757 26.7505 50.5691C27.429 50.4408 28.1154 50.2041 28.7231 49.8752C29.6251 49.3871 29.5959 48.5971 28.741 48.0234C28.458 47.8331 28.194 47.6138 27.9217 47.408C27.944 47.3418 27.9671 47.2763 27.9896 47.2101C28.299 47.1944 28.6086 47.1792 28.9432 47.1619C29.0217 46.8006 28.9604 46.5693 28.5179 46.5493C28.1501 46.5327 27.7847 46.4613 27.3461 46.4055C28.7316 44.7684 29.5786 43.0498 28.7662 40.8132Z" fill="#127BCA"/>
</g>
</g>
<defs>
<clipPath id="clip0_135_1014">
<rect width="100" height="41" fill="white" transform="translate(0 30)"/>
</clipPath>
</defs>
</svg>
