<svg width="442" height="570" viewBox="0 0 442 570" fill="none" xmlns="http://www.w3.org/2000/svg">
<g clip-path="url(#clip0_83_94)">
<path d="M302.18 35.9505L301.72 76.6105L289.28 68.1705L229.63 102.2L230.15 49.4605L278.11 22.1005L272.43 18.1805L230.19 42.2805L230.26 27.9205L259.7 11.1305C278.69 0.300485 302.29 14.0905 302.18 35.9505ZM274.42 97.1405L274.49 103.22L283.92 97.8405C287.09 100.49 292.45 106.98 289.21 119.02C286.02 130.85 273.42 139.84 267.9 143.3L268.12 100.73L264.47 102.81L230.27 122.32L230.34 128.4L262.64 109.97L262.42 152.69L267.86 149.59C268.32 149.33 268.33 149.32 268.86 149.02C273.19 146.55 290.21 135.98 294.4 120.42C299.96 99.7705 284.39 91.6105 284.24 91.5305L274.42 97.1305V97.1405Z" fill="white"/>
<path d="M20.31 183.46L78.43 150.31C74.24 146.31 71.14 141.93 70.25 140.66L8.04 176.14L7.91001 176.22C7.88001 182.6 14.76 186.62 20.3 183.46H20.31Z" fill="white"/>
<path d="M20.08 226.53L123.56 167.5C116.61 167.59 109.74 166.55 103.4 164.69L7.68003 219.29C7.65003 225.67 14.53 229.69 20.07 226.53H20.08Z" fill="white"/>
<path d="M20.1901 205.001L95.7302 161.911C91.8102 160.211 88.2401 158.191 85.1601 155.941C84.5601 155.501 83.9802 155.061 83.4202 154.621L7.80015 197.751C7.77015 204.131 14.6501 208.151 20.1901 204.991V205.001Z" fill="white"/>
<path d="M97.5802 232.41L7.3502 283.88C7.3202 290.26 14.2002 294.28 19.7402 291.12L105.32 242.3C105.19 242.23 105.06 242.18 104.93 242.11C101.19 239.93 98.6002 236.45 97.5702 232.41H97.5802Z" fill="white"/>
<path d="M19.9702 248.061L105.55 199.251C105.42 199.181 105.29 199.131 105.16 199.051C101.42 196.871 98.8402 193.391 97.8102 189.351L7.58018 240.821C7.55018 247.201 14.4302 251.221 19.9702 248.061Z" fill="white"/>
<path d="M19.86 269.59L105.44 220.78C105.31 220.71 105.18 220.66 105.05 220.58C101.31 218.4 98.73 214.92 97.7 210.88L7.47007 262.35C7.44007 268.73 14.32 272.75 19.86 269.59Z" fill="white"/>
<path d="M141.56 165.931C141.56 165.931 141.59 165.421 141.62 164.351L104.2 185.701C104.17 192.081 111.05 196.101 116.59 192.941L142.7 178.041C141.92 175.041 141.52 171.901 141.54 168.681V165.921L141.56 165.931Z" fill="white"/>
<path d="M104.09 207.23C104.06 213.61 110.94 217.63 116.48 214.47L152.04 194.19C149.03 191.22 146.61 187.77 144.85 183.98L104.09 207.23Z" fill="white"/>
<path d="M159.24 199.7C158.54 199.29 157.85 198.86 157.19 198.41L103.98 228.76C103.95 235.14 110.84 239.16 116.38 236L172.06 204.24C167.63 203.58 163.29 202.07 159.23 199.7H159.24Z" fill="white"/>
<path fill-rule="evenodd" clip-rule="evenodd" d="M8.01998 154.693C8.01998 154.692 8.01999 154.691 8.01999 154.69L7.98999 154.71L8.01998 154.693ZM164.51 86.8853L76.49 137.1C76.49 137.1 80.9 143.86 89.42 150.09C102.07 159.33 127.31 165.36 146.73 154.28L149.17 152.89L169.33 141.39L169.28 148.57L149.13 160.07L149.08 168.74C148.97 190.41 172.35 204.07 191.17 193.34L221.7 175.93L222.45 32.3804L8.01998 154.693C7.99207 161.071 14.8708 165.089 20.41 161.93L212.1 52.5904L211.38 79.0904L205.02 82.7204L205.026 82.5458L162.12 88.2608L164.51 86.8853Z" fill="white"/>
<path d="M236.28 146.191L229.63 149.991L229.52 171.471L254.83 157.031C254.88 147.481 244.58 141.461 236.28 146.191Z" fill="white"/>
<path d="M374.92 80.0802L374.87 80.2102C374.48 81.1302 374.27 81.7802 374.19 82.0202L363 111.98L392.48 95.1602C395.34 93.5302 396.74 90.4002 396.04 87.1802C395.81 86.1402 395.37 85.2102 394.79 84.4002C395.24 83.2402 396.02 81.9702 397.42 81.2502C401.68 78.9202 408.51 80.2602 408.57 80.2702L414.5 81.4802L411.3 76.3502C411.03 75.9202 404.58 65.7802 393.36 66.6402C381.68 67.5402 376.66 76.0702 374.93 80.0802H374.92ZM390.95 88.2802C391.03 88.6502 391.19 89.9002 389.9 90.6402L372.89 100.34L378.4 85.6102L389.01 86.5702C389.01 86.5702 389.01 86.6002 389.01 86.6102L389.3 86.6302C390.54 86.8902 390.88 87.9402 390.95 88.2902V88.2802ZM402.71 74.7202C400.18 74.8502 397.35 75.3602 394.92 76.6902C394.86 76.7202 394.81 76.7502 394.75 76.7802C392.58 78.0202 391.23 79.8302 390.39 81.5502C390.09 81.4902 389.79 81.4202 389.48 81.4002L380.45 80.5802C382.24 77.3002 386.15 72.4102 393.75 71.8202C397.43 71.5402 400.48 73.0202 402.71 74.7202ZM427.05 89.3602C419.68 86.4402 409.93 92.0102 398.63 98.4502L350.79 125.74L362.26 91.9602C363.71 88.7902 363.43 85.1702 361.49 82.2602C360.35 80.5502 358.75 79.2902 356.93 78.5502C356.8 75.5002 357.59 72.9102 359.35 70.6802C365.19 63.2802 379.39 62.4702 379.53 62.4702L384.23 62.2302L381.53 58.3802C372.64 45.7002 359.56 43.6902 345.69 52.8802C330.8 62.7402 327.82 75.5102 327.94 84.4802C328.1 96.7302 328.19 131 328.21 138.63L9.1301 320.63L9.10011 324C8.97011 339.76 25.9801 349.73 39.6701 341.92L312.35 186.38L295.07 178.82L327.65 160.24C327.44 166.86 327.08 178.91 327.14 185.62C327.21 195.06 329.6 201.8 334.23 205.64C338.02 208.78 343.12 209.8 349.38 208.67C354.35 207.77 358.71 206.03 362.45 203.89C373.9 197.36 379.67 187.2 379.99 186.64L383.78 179.83L376.66 183C370.88 185.57 361.26 188.49 357.94 186.94C352.86 184.56 353.96 178.88 354.41 177.23L357.39 176.99C359.08 176.86 360.67 176.37 362.09 175.56C363.89 174.53 365.39 173.01 366.4 171.1C368.21 167.7 368.14 163.68 366.24 160.34L354.1 146.28L398.72 134.51C400.12 134.14 401.44 133.6 402.65 132.9C405.7 131.16 408.12 128.45 409.52 125.11C410.55 122.65 410.94 120.05 410.72 117.49C412.41 116.67 416.04 115.2 417.54 117.07C419.81 119.91 419.47 125.68 419.15 127.66L418 134.53L423.37 130.09C424.06 129.52 440.12 116 435.16 99.8902C433.43 94.2802 430.77 90.8402 427.03 89.3602H427.05ZM361.82 168.65C360.84 170.49 359.09 171.64 357 171.8L337.93 173.31L337.9 178.53L349.03 177.65C348.35 182.09 349.17 188.55 355.75 191.64C359.45 193.38 365.37 192.33 370.34 190.86C365.89 195.73 358.56 201.73 348.48 203.55C343.79 204.39 340.12 203.75 337.57 201.63C333.34 198.12 332.4 190.96 332.36 185.58C332.29 176.17 333.02 155.97 333.03 155.77L333.2 151.1L283.54 179.43L300.82 186.99L37.3201 337.28C26.9601 343.19 14.0901 335.67 14.1601 323.74L333.4 141.64V140.13C333.4 139.71 333.3 98.1902 333.12 84.4102C332.97 73.2402 338.16 64.0902 348.55 57.2102C358.79 50.4302 367.47 50.6602 374.41 57.8602C368.93 58.8102 360.16 61.2602 355.27 67.4502C352.88 70.4802 351.68 74.0202 351.7 78.0002L338.76 80.2402L338.84 85.3302L353.08 83.0302C354.73 82.9902 356.25 83.7802 357.17 85.1602C358.12 86.5802 358.24 88.3402 357.51 89.8802L340.86 138.88L361.86 163.12C362.78 164.88 362.78 166.89 361.83 168.66L361.82 168.65ZM404.16 113.39C405.87 116.38 406.08 119.92 404.75 123.1C403.42 126.28 400.74 128.6 397.41 129.48L350.34 141.9L346.73 137.72L348.28 133.16L398.96 104.25L404.17 113.38L404.16 113.39ZM430.22 101.42C432.66 109.35 428.22 116.89 424.47 121.5C424.18 118.89 423.41 116.04 421.63 113.82C418.45 109.85 413.19 110.68 409.43 112.31C409.2 111.8 408.96 111.3 408.68 110.8L403.47 101.67C412.02 96.8202 420.51 92.3402 425.15 94.1802C427.33 95.0402 428.99 97.4102 430.22 101.41V101.42Z" fill="white"/>
<path d="M223.699 415.042H194.075V430.477H223.699C230.263 430.477 233.542 427.904 233.542 422.754C233.542 417.603 230.263 415.036 223.699 415.042ZM223.699 427.893H196.66V417.626H223.699C230.127 417.626 230.996 420.221 230.996 422.754C230.996 425.287 230.127 427.893 223.699 427.893ZM245.374 405.913C240.901 401.975 233.997 399.98 224.961 399.98H196.66V396.399H245.135V377.496H151.34L150.573 378.595L127.904 411.2L105.07 378.675L104.292 377.575H61.7611L60.9939 378.425L40.0413 401.544H21.3277V377.575H0V445.589H21.3277V421.62H40.0413L60.9939 444.739L61.7611 445.589H88.6125L84.7368 441.283L58.1014 411.591L83.7253 383.021L114.282 426.533L115.049 427.632H116.368L106.65 441.521L103.803 445.583H128.245L129.023 444.484L172.878 381.638L175.35 378.057V445.555H224.984C234.025 445.555 240.896 443.56 245.396 439.622C249.897 435.684 252.341 429.933 252.341 422.771C252.341 415.608 249.96 409.931 245.379 405.902L245.374 405.913ZM82.8388 442.954H62.9091L41.1892 418.985H18.742V442.954H2.63116V380.12H18.742V404.088H41.1892L62.9091 380.12H81.7022L82.1852 380.799L54.6121 411.54L82.8388 442.954ZM126.926 442.954H108.787L121.317 425.003H116.379L85.4813 380.998L86.2712 380.103H102.911L127.87 415.648L152.652 380.103H170.695L126.932 442.954H126.926ZM243.675 437.667C239.64 441.192 233.406 442.954 224.961 442.954H177.913V380.12H242.555V393.849H194.075V402.559H224.961C233.394 402.559 239.628 404.326 243.675 407.857C247.721 411.387 249.738 416.356 249.732 422.759C249.732 429.168 247.721 434.137 243.692 437.667H243.675ZM321.734 398.609C317.841 395.561 311.198 394.031 301.804 394.025C292.405 394.019 285.762 395.544 281.875 398.609C277.993 401.663 276.044 405.941 276.038 411.443C276.033 416.946 277.965 421.241 281.829 424.329C285.693 427.355 292.354 428.868 301.804 428.868C311.255 428.868 317.915 427.355 321.779 424.329C325.644 421.303 327.576 417.008 327.57 411.443C327.565 405.879 325.621 401.601 321.734 398.609ZM320.188 422.3C316.813 424.941 310.63 426.284 301.804 426.284C292.979 426.284 286.802 424.941 283.42 422.3C280.198 419.767 278.624 416.226 278.624 411.443C278.624 406.661 280.209 403.199 283.477 400.643C286.745 398.082 293.041 396.614 301.804 396.614C310.567 396.614 316.733 397.974 320.143 400.643C323.399 403.205 324.985 406.74 324.985 411.443C324.985 416.147 323.416 419.767 320.188 422.3ZM335.401 385.542C328.241 379.213 316.938 376 301.816 376C286.694 376 275.396 379.213 268.236 385.542C261.075 391.872 257.308 400.666 257.308 411.443C257.308 422.221 260.984 431.032 268.236 437.441C275.487 443.849 286.654 447 301.804 447C316.955 447 328.235 443.787 335.39 437.458C342.55 431.128 346.318 422.306 346.318 411.46C346.318 400.615 342.641 391.951 335.39 385.542H335.401ZM333.685 435.509C326.979 441.436 316.358 444.393 301.816 444.393C287.273 444.393 276.652 441.43 269.946 435.509C263.241 429.582 259.888 421.564 259.899 411.443C259.905 401.323 263.258 393.334 269.946 387.475C276.646 381.547 287.273 378.59 301.816 378.59C316.358 378.59 326.985 381.553 333.685 387.475C340.385 393.402 343.738 401.386 343.744 411.443C343.749 421.496 340.397 429.519 333.674 435.509H333.685ZM411.494 411.54L438.136 381.836L442 377.53H415.149L414.381 378.38L393.423 401.499H374.709V377.53H353.382V445.544H374.709V421.575H393.423L414.381 444.694L415.149 445.544H442L438.136 441.237L411.494 411.534V411.54ZM416.285 442.954L394.554 418.985H372.118V442.954H355.956V380.12H372.118V404.088H394.554L416.285 380.12H436.215L408.022 411.54L436.215 442.954H416.285Z" fill="white"/>
<path d="M79.1048 474.004C84.3683 478.697 87 485.01 87 492.955C87 500.9 84.3683 507.235 79.1048 511.973C73.8413 516.648 65.4943 518.994 54.075 519C44.1466 519 36.5677 517.209 31.3324 513.628C28.808 511.962 26.6506 509.797 24.9959 507.258C23.3412 504.719 22.223 501.863 21.7147 498.871H12.69V517.821H0V468.145H12.69V487.095H21.7147C22.2286 484.109 23.3468 481.258 25.0016 478.725C26.6563 476.192 28.8136 474.027 31.3381 472.372C36.579 468.791 44.1579 467 54.0806 467C65.4999 466.989 73.8413 469.323 79.0991 474.01L79.1048 474.004ZM69.7638 503.138C72.7965 500.752 74.3157 497.358 74.31 492.955C74.3044 488.551 72.7796 485.168 69.7299 482.805C66.669 480.419 61.4506 479.224 54.075 479.224C46.6993 479.224 41.481 480.419 38.4201 482.805C35.3591 485.191 33.8286 488.574 33.8286 492.955C33.8286 497.335 35.3478 500.73 38.3805 503.138C41.4189 505.524 46.6485 506.72 54.0693 506.72C61.4902 506.72 66.7254 505.524 69.7695 503.138H69.7581H69.7638Z" fill="white"/>
<path d="M142.464 468H155V517.971H142.464V498.937H108.536V518H96V468.029H108.536V487.091H142.464V468.006V468Z" fill="white"/>
<path d="M215.382 468H226V518H213.255V485.785L176.63 518H166V468H178.745V500.215L215.382 468Z" fill="white"/>
<path d="M295.128 509.597C292.827 512.361 289.317 514.616 284.603 516.372C279.888 518.128 274.01 519 266.961 519C255.531 519 247.182 516.661 241.908 511.976C236.64 507.292 234 500.981 234 493.034C234 485.087 236.634 478.709 241.908 474.024C247.176 469.334 255.531 466.994 266.961 467C274.015 467 279.843 467.759 284.433 469.271C289.029 470.784 292.426 472.772 294.625 475.231C296.733 477.468 298.073 480.329 298.435 483.387L285.66 485.721C284.959 483.79 283.201 482.22 280.408 481.042C277.616 479.864 273.128 479.252 266.955 479.252C259.516 479.252 254.282 480.447 251.252 482.832C248.216 485.217 246.702 488.61 246.702 493.011C246.702 497.413 248.228 500.743 251.286 503.156C254.344 505.57 259.567 506.765 266.955 506.736C273.167 506.736 277.803 505.989 280.861 504.499C283.919 503.009 285.66 501.18 286.084 499.004L299 500.488C298.695 503.859 297.332 507.042 295.117 509.586L295.128 509.597Z" fill="white"/>
<path d="M365.087 474.024C370.362 478.714 373 485.024 373 492.966C373 500.908 370.362 507.241 365.087 511.976C359.812 516.655 351.447 518.994 339.997 519C328.547 519.006 320.188 516.666 314.913 511.976C309.637 507.297 307 500.964 307 492.966C307 484.968 309.637 478.652 314.913 474.024C320.188 469.345 328.553 467.006 339.997 467C351.442 466.994 359.807 469.334 365.087 474.024ZM355.72 503.145C358.765 500.76 360.282 497.367 360.282 492.966C360.282 488.565 358.748 485.183 355.681 482.821C352.619 480.436 347.389 479.241 339.992 479.241C332.594 479.241 327.364 480.436 324.302 482.821C321.246 485.234 319.718 488.616 319.712 492.966C319.706 497.316 321.223 500.709 324.268 503.145C327.302 505.53 332.549 506.725 339.992 506.725C347.434 506.725 352.681 505.53 355.715 503.145H355.72Z" fill="white"/>
<path d="M428.251 468H441V517.971H428.251V498.937H393.749V518H381V468.029H393.749V487.091H428.251V468.006V468Z" fill="white"/>
<path d="M40 419L63 443L61.4381 441.327L40.5578 419H40.0059H40Z" fill="white"/>
<path d="M79.9487 378.006H61.1913L40.2974 401.38H40.2178L39.3939 402.305H19V404H41.4452L63.1631 379.695H82L79.9487 378V378.006Z" fill="white"/>
<path d="M150.482 378.192L128.556 410.516L128.523 410.471L127 412.713L128.567 415L152.533 379.662H170L168.01 378H150.614L150.482 378.197V378.192Z" fill="white"/>
<path d="M2.14012 379.684H19L16.8599 378H0V441.316L2.14012 443V379.684Z" fill="white"/>
<path d="M116 424.994L85.0547 380.574L85.8458 379.687H102.511L100.456 378H83.7911L83 378.887L113.945 423.318L116 425V424.994Z" fill="white"/>
<path d="M108.909 443L121 425H117.91L116.16 427.589H116.231L107 441.319L108.914 442.994L108.909 443Z" fill="white"/>
<path d="M394.006 419L413.968 441.327L416 443L394.533 419H394H394.006Z" fill="white"/>
<path d="M393.316 401.38H393.242L392.407 402.305H372V404H394.459L416.202 379.695H436L434.095 378H414.223L393.316 401.374V401.38Z" fill="white"/>
<path d="M373 377.952V400.262L375 402V377H373V377.952Z" fill="white"/>
<path d="M356.028 379.684H372L369.972 378H354V441.316L356.028 443V379.684Z" fill="white"/>
<path d="M322.036 397.592C321.769 397.387 321.485 397.188 321.194 397C324.33 399.995 325.898 403.936 325.904 408.816C325.956 411.549 325.364 414.26 324.167 416.731C323.349 418.57 322.071 420.176 320.457 421.4C320.387 421.452 320.294 421.508 320.219 421.571L319.992 421.759C316.055 424.8 309.249 426.32 299.581 426.32C290.563 426.32 284.036 424.999 280 422.351C280.401 422.733 280.825 423.097 281.26 423.439C285.209 426.48 292.014 428 301.671 428C311.328 428 318.134 426.48 322.083 423.439C326.031 420.398 328.006 416.082 328 410.49C327.994 404.898 326.008 400.599 322.036 397.592Z" fill="white"/>
<path d="M299.887 377C286.349 377 276.213 379.602 269.478 384.81C269.103 385.108 268.734 385.406 268.387 385.716C265.378 388.38 262.902 391.612 261.102 395.228C258.966 399.927 257.905 405.056 258.007 410.225C258.007 420.482 261.357 428.59 268.052 434.55C268.615 435.054 269.222 435.536 269.841 436C263.322 430.029 260.062 421.995 260.057 411.909C260.051 401.824 263.401 393.744 270.097 387.67C276.792 381.676 287.411 378.685 301.943 378.685C315.248 378.685 325.271 381.2 332 386.232L331.739 385.979C325.027 379.991 314.407 377 299.881 377H299.887Z" fill="white"/>
<path d="M281.824 420.422C282.099 420.63 282.379 420.82 282.67 421C280.246 418.599 279.068 415.429 279.068 411.333C279.068 406.67 280.663 403.169 283.951 400.639C287.239 398.108 293.581 396.65 302.393 396.65C310.496 396.65 316.443 397.8 320 400.061C319.623 399.674 319.217 399.32 318.782 398.989C315.351 396.33 309.147 395 300.329 395C291.511 395 285.598 396.285 282.116 398.81C280.469 400.111 279.131 401.75 278.182 403.607C277.358 405.531 276.958 407.602 277.004 409.683C276.992 414.407 278.57 417.914 281.824 420.422Z" fill="white"/>
<path d="M229.574 417C230.573 418.264 231.079 419.809 231 421.38C231.051 422.702 230.708 424.013 230.012 425.167C229.765 425.646 229.405 426.062 228.951 426.385C227.333 427.763 224.767 428.466 221.246 428.466H194V430H223.273C229.759 430 232.999 427.638 232.999 422.91C233.033 420.106 231.876 418.134 229.579 417H229.574Z" fill="white"/>
<path d="M245.162 406.177C244.679 405.755 244.169 405.366 243.642 405C247.854 408.92 249.992 414.305 249.992 421.045C250.093 425.036 249.15 428.983 247.26 432.503C246.312 434.318 245.027 435.94 243.479 437.283C243.198 437.522 242.907 437.755 242.593 437.983C238.178 441.552 231.547 443.368 222.964 443.368H176V445H224.995C233.92 445 240.702 443.046 245.145 439.187C249.588 435.329 252 429.688 252 422.677C252 415.665 249.678 410.119 245.151 406.177H245.162Z" fill="white"/>
<path d="M335.092 385.481C334.503 384.959 333.886 384.477 333.258 384C340.334 390.4 343.956 399.052 343.956 409.747C344.064 415.494 342.819 421.179 340.328 426.354C338.658 429.849 336.303 432.963 333.399 435.511C332.946 435.914 332.505 436.299 331.973 436.674C324.84 442.41 313.937 445.321 299.61 445.321C285.282 445.321 275.155 442.631 268 437.258L268.204 437.446C275.336 443.783 286.584 447 301.653 447C316.722 447 327.982 443.783 335.114 437.446C342.247 431.108 346 422.274 346 411.415C346 400.556 342.315 391.898 335.097 385.481H335.092Z" fill="white"/>
<path d="M57.9742 411.102L83.1961 382.621L81.2164 381L56 409.481L82.1782 439.041L85.9811 443.339H60.0713L60.8039 444.158L61.5589 445H88L84.1971 440.707L57.9797 411.108L57.9742 411.102Z" fill="white"/>
<path d="M173.093 377L171.382 379.391L171.243 379.589H171.318L126.583 442.422H126.519L125.869 443.334H104.195L103 445H127.964L128.747 443.901L176 377.516L173.088 377.006L173.093 377Z" fill="white"/>
<path d="M391.508 420H373.031V443.376H354V445H375.057V421.63H393L391.508 420Z" fill="white"/>
<path d="M411.047 411.003L438.079 381.312L442 377H438.396L436.044 379.584H436.124L409 409.377L435.997 439.028L439.918 443.34H413.192L413.953 444.161L414.732 445H441.994L438.073 440.694L411.041 411.003H411.047Z" fill="white"/>
<path d="M19 377.952V400.262L21 402V377H19V377.952Z" fill="white"/>
<path d="M178.061 379.684H243L240.939 378H176V441.316L178.061 443V379.684Z" fill="white"/>
<path d="M245 393.729V377H242.97V394.664H195V398.287L197.03 400V396.371H245V393.729Z" fill="white"/>
<path d="M221.466 415.006H195V426.187L197.013 428V416.825H223.473C225.014 416.758 226.549 417.023 228 417.602C227.194 416.104 225.392 415 221.466 415V415.006Z" fill="white"/>
<path d="M125.905 409.31L128 411L104.677 378.112L103.894 377H103L125.911 409.304L125.905 409.31Z" fill="white"/>
<path d="M37.9506 420H19.2563V443.376H0V445H21.3057V421.63H40L37.9506 420Z" fill="white"/>
<path d="M194 402.737H224.881C232.273 402.737 237.977 404.16 242 407C241.841 406.852 241.705 406.68 241.545 406.543C237.506 402.844 231.267 400.994 222.824 401H194V402.743V402.737Z" fill="white"/>
<path d="M286.523 540.58V569.607H279.334V543.405H281.816L264.272 560.976L264.187 558.809H292V563.84H258.753V559.196L277.323 540.58H286.523Z" fill="white"/>
<path d="M224.628 550.798C224.799 548.579 225.598 546.67 227.024 545.07C228.45 543.445 230.333 542.193 232.672 541.316C235.04 540.439 237.721 540 240.716 540C243.569 540 246.065 540.4 248.205 541.2C250.344 541.974 252.013 543.07 253.211 544.489C254.409 545.909 255.008 547.56 255.008 549.443C255.008 550.888 254.594 552.23 253.767 553.468C252.94 554.707 251.613 555.958 249.788 557.222C247.991 558.461 245.594 559.803 242.599 561.248L232.886 566.085L232.33 564.305H255.907V569.607H225.098V564.963L238.834 557.687C241.116 556.5 242.899 555.481 244.182 554.629C245.466 553.752 246.379 552.939 246.921 552.191C247.463 551.443 247.734 550.643 247.734 549.792C247.734 548.889 247.463 548.089 246.921 547.392C246.379 546.695 245.566 546.154 244.482 545.767C243.426 545.38 242.086 545.186 240.46 545.186C238.548 545.186 236.98 545.444 235.753 545.96C234.526 546.45 233.599 547.121 232.972 547.973C232.373 548.824 232.016 549.766 231.902 550.798H224.628Z" fill="white"/>
<path d="M203.567 570.188C199.973 570.188 196.864 569.569 194.239 568.33C191.644 567.066 189.632 565.298 188.206 563.028C186.78 560.757 186.067 558.113 186.067 555.094C186.067 552.075 186.78 549.43 188.206 547.16C189.632 544.889 191.644 543.135 194.239 541.896C196.864 540.632 199.973 540 203.567 540C207.133 540 210.214 540.632 212.81 541.896C215.434 543.135 217.46 544.889 218.886 547.16C220.312 549.43 221.025 552.075 221.025 555.094C221.025 558.113 220.312 560.757 218.886 563.028C217.46 565.298 215.434 567.066 212.81 568.33C210.214 569.569 207.133 570.188 203.567 570.188ZM203.567 564.847C206.791 564.847 209.287 563.995 211.056 562.292C212.853 560.564 213.751 558.164 213.751 555.094C213.751 551.998 212.853 549.598 211.056 547.895C209.287 546.192 206.791 545.341 203.567 545.341C200.344 545.341 197.834 546.192 196.037 547.895C194.239 549.598 193.341 551.998 193.341 555.094C193.341 558.19 194.239 560.59 196.037 562.292C197.834 563.995 200.344 564.847 203.567 564.847Z" fill="white"/>
<path d="M151 550.798C151.171 548.579 151.97 546.67 153.396 545.07C154.823 543.445 156.705 542.193 159.044 541.316C161.412 540.439 164.094 540 167.089 540C169.941 540 172.437 540.4 174.577 541.2C176.716 541.974 178.385 543.07 179.583 544.489C180.781 545.909 181.38 547.56 181.38 549.443C181.38 550.888 180.967 552.23 180.139 553.468C179.312 554.707 177.986 555.958 176.16 557.222C174.363 558.461 171.967 559.803 168.971 561.248L159.258 566.085L158.702 564.305H182.279V569.607H151.471V564.963L165.206 557.687C167.488 556.5 169.271 555.481 170.555 554.629C171.838 553.752 172.751 552.939 173.293 552.191C173.835 551.443 174.106 550.643 174.106 549.792C174.106 548.889 173.835 548.089 173.293 547.392C172.751 546.695 171.938 546.154 170.854 545.767C169.799 545.38 168.458 545.186 166.832 545.186C164.921 545.186 163.352 545.444 162.125 545.96C160.899 546.45 159.971 547.121 159.344 547.973C158.745 548.824 158.388 549.766 158.274 550.798H151Z" fill="white"/>
</g>
<defs>
<clipPath id="clip0_83_94">
<rect width="442" height="570" fill="white"/>
</clipPath>
</defs>
</svg>
