<svg width="96" height="62" viewBox="0 0 96 62" fill="none" xmlns="http://www.w3.org/2000/svg">
<g clip-path="url(#clip0_44_518)">
<path d="M3.48 24.6012C7.72314 21.6693 12.2421 19.1541 16.9733 17.0908C21.5065 15.0712 26.2206 13.4807 31.0533 12.3404C30.3675 8.54589 30.7743 4.63572 32.2267 1.06154L32.68 0L33.3733 0.902308C34.5733 2.49462 36.1733 3.82154 37.9333 4.98923C39.72 6.18346 41.6667 7.16538 43.5333 8.06769C44.3333 8.49231 45.16 8.86385 46.0133 9.34154C46.76 9.73961 47.5067 10.1908 48.2267 10.6685C48.0133 9.63346 47.96 8.49231 47.9867 7.35115C48.0667 5.49346 48.3867 3.63577 48.7867 2.28231L49.1333 1.11462L49.9333 2.01692C50.9467 3.13154 53.4533 4.37885 56.28 5.75885C57.7728 6.48603 59.2487 7.247 60.7067 8.04115C64.2644 9.89042 67.4974 12.3013 70.28 15.18C73.2133 16.4538 75.8 17.8604 78.6267 19.3996L78.9733 19.5854L79.5333 19.9038L79.2667 20.4612C78.9905 21.058 78.688 21.6424 78.36 22.2127C81.4957 23.9143 84.4526 25.9235 87.1867 28.2104C90.2525 30.7592 93.0573 33.6039 95.56 36.7027L95.96 37.2069L95.5333 37.6315C94.7997 38.3579 94.0155 39.0318 93.1867 39.6485L95.24 42.09L95.88 42.8596L94.92 43.1781C85.72 46.1504 76.3867 49.4412 67.0533 52.7319C61.6933 54.6427 56.3333 56.5269 51.1067 58.305C47.4351 59.5682 43.755 60.8067 40.0667 62.0204L39.4267 62.2592L39.2133 61.6223C36.6609 53.0555 31.8553 45.3228 25.2933 39.2238C19.16 33.6508 11.4533 29.7231 2.25333 26.7773L1 26.3792L2.06667 25.5831C2.5049 25.2647 2.94943 24.955 3.4 24.6542L3.48 24.5746V24.6012Z" fill="#FDB016"/>
<path d="M3.77334 25.2383C12.2511 19.3815 21.7717 15.1845 31.8267 12.8714C30.9731 9.01267 31.3172 4.98696 32.8133 1.32715C35.32 4.61792 39.4533 6.87369 43.2133 8.6783C44.8667 9.47446 46.4933 10.2971 48.04 11.3852L49.1067 11.4383C48.2267 8.78446 48.7067 4.83023 49.4 2.4683C51.0267 4.27292 56.04 6.23676 60.36 8.62523C64.4667 10.881 67.1867 12.9775 69.88 15.7375C72.9467 17.0645 75.64 18.5506 78.6267 20.196C78.2903 20.9786 77.8605 21.7182 77.3467 22.3987L77.32 22.4518C84.1759 26.0879 90.2038 31.093 95.0267 37.1541C94.0933 38.0829 93.16 38.8525 92.1733 39.5425L94.7067 42.5148C80.2267 47.2121 65.4533 52.6791 50.8667 57.6948C47.16 58.9687 43.48 60.216 39.8267 61.4102C33.5067 42.0106 21.0533 32.1118 2.46667 26.1671L3.85334 25.1587L3.77334 25.2383Z" fill="#041E42"/>
<path d="M2.46667 26.1671C11.2566 19.8177 21.242 15.2958 31.8267 12.8714C30.9731 9.01267 31.3172 4.98696 32.8133 1.32715C35.32 4.61792 39.4533 6.87369 43.2133 8.6783C44.8667 9.47446 46.4933 10.2971 48.04 11.3852L49.1067 11.4383C48.2267 8.78446 48.7067 4.83023 49.4 2.4683C51.0267 4.27292 56.04 6.23676 60.36 8.62523C64.4667 10.881 67.1867 12.9775 69.88 15.7375C72.9467 17.0645 75.64 18.5506 78.6267 20.196C78.2903 20.9786 77.8605 21.7182 77.3467 22.3987L77.32 22.4518C84.1759 26.0879 90.2038 31.093 95.0267 37.1541C93.2227 39.0643 90.9684 40.4967 88.4681 41.3215C85.9677 42.1464 83.3 42.3376 80.7067 41.8779L80.3333 41.586L79.3733 42.9129L50.4133 51.9891C44.76 53.5814 40.2267 51.591 38.44 46.9468C37.9592 45.4909 37.7161 43.9677 37.72 42.4352L36.1467 43.4968C36.28 41.586 36.4933 40.0468 36.8933 38.3483C26.6979 31.3378 14.8208 27.1353 2.46667 26.1671Z" fill="#041E42"/>
<path fill-rule="evenodd" clip-rule="evenodd" d="M37.3467 36.4639C28.3799 30.3233 18.0826 26.3769 7.29333 24.9462C14.0802 20.8529 21.3662 17.6421 28.9733 15.3923L32.3067 14.5962C33.792 19.4574 36.4465 23.8846 40.04 27.4939C38.8133 29.7231 37.7733 32.2708 36.84 34.447L38.3067 33.7304C37.9469 34.6273 37.6266 35.5393 37.3467 36.4639Z" fill="#FEFEFE"/>
<path fill-rule="evenodd" clip-rule="evenodd" d="M40.0933 31.5013L41.4533 30.8378C39.9318 33.8695 38.8628 37.1059 38.28 40.4448L39.6133 39.5424C38.52 46.2567 41.64 52.2809 49.88 50.264L78.2533 41.3736L78.92 40.4448C78.4126 40.1049 77.8969 39.7775 77.3733 39.4628L76.7333 39.7282L50.2 44.4521C50.1733 41.4532 51.2134 35.9067 52.2267 33.1997L50.52 31.5013C60.3867 31.2359 73.08 33.7305 81.4 40.1528C84.6 40.4978 87.8 39.8874 90.0667 38.7463C88.3633 38.6723 86.7283 38.0586 85.4 36.9947L86.84 36.464C87.9302 36.0866 89.0559 35.8198 90.2 35.6678C90.68 35.6148 91.16 35.6148 91.5867 35.6678C86.2533 29.9355 80.76 26.1405 75.7467 23.6724L75.5067 23.7521C74.2 24.1501 72.68 23.8317 71.0534 23.3009L72.2267 21.7882C73.8 22.2394 75.2134 22.5844 76.0134 21.3636L76.2267 20.939C73.9867 19.6651 71.6934 18.4709 69.3467 17.4094C65.4891 15.6303 61.4472 14.2777 57.2934 13.3755L58.2267 14.5963C55.6014 13.9456 52.925 13.5194 50.2267 13.3224C50.4934 13.7736 50.7067 14.2513 50.8667 14.7555C51.08 15.4721 51.2933 16.799 51.1867 17.489C49.7405 14.8949 47.5237 12.8092 44.84 11.5178L42.44 10.3236C40.3692 9.35619 38.3727 8.23856 36.4667 6.97975C36.6267 7.72283 36.8133 8.4659 37.0267 8.83744C35.65 8.09115 34.4211 7.10199 33.4 5.91821L33.2667 7.11244L32.9733 6.79398C32.4667 13.6409 36.44 22.3986 41.88 26.804L42.3067 27.1755C41.3733 28.6882 40.8133 29.8824 40.0933 31.5013Z" fill="white"/>
<path fill-rule="evenodd" clip-rule="evenodd" d="M10.52 25.4506C16.3867 26.5121 22.4134 28.476 27.8 30.9706C31.0534 29.5906 37.24 27.786 40.0667 27.5206C40.0667 27.4675 38.1734 25.5037 37.9867 25.2914C35.7232 22.5157 33.9554 19.3739 32.76 16.0029L32.68 15.8171L29.2934 16.6133C25.88 17.5687 22.2267 18.9487 18.7334 20.4879C15.4672 21.9072 12.2723 23.4837 9.16003 25.2118L10.4934 25.4771L10.52 25.4506Z" fill="#FDB016"/>
<path fill-rule="evenodd" clip-rule="evenodd" d="M73.24 30.9441L72.3067 29.511C76.5733 31.0502 82.28 34.6329 85.3733 36.9948C86.68 36.4906 88.3067 35.8537 90.2267 35.6679C85.2856 30.8406 79.5834 26.8513 73.3467 23.8583C72.5669 23.7418 71.7993 23.5552 71.0533 23.301V22.4518H72.2267V21.7618L73.16 22.0271L73.8267 21.2045C70.0933 19.0814 65.1067 17.0114 60.04 15.4191L60.9733 16.8256C57.8533 15.6844 53.7733 15.021 50.8667 14.7556C51.0267 15.2864 51.2667 16.3744 51.1867 17.4891C47.3467 13.641 42.4667 12.0221 37.3733 9.04984C35.662 8.11229 34.2065 6.77314 33.1333 5.14868C32.76 7.24522 32.8933 9.9256 33.4 12.2875C34.6267 18.0198 38.0933 23.9644 42.3333 27.1491C48.2533 26.2733 62.1733 26.1671 73.24 30.9441Z" fill="#FDB016"/>
<path fill-rule="evenodd" clip-rule="evenodd" d="M65.0533 13.8001C64.9033 13.6837 64.7522 13.5686 64.6 13.4551C63.1333 12.3405 61.48 11.3055 59.5333 10.2174C58.0933 9.42123 56.6533 8.67815 55.2667 7.98815C54.28 7.48392 53.6667 7.192 52.7867 6.68777C53 7.27162 53.2667 7.85546 53.7467 8.43931C53.2933 8.20046 51.4533 7.24508 50.5467 6.60815C50.3067 7.98815 50.4667 10.3235 51.08 11.5708C52.0933 11.6239 53.4267 11.7832 54.3867 11.9424L53.2667 10.5624C57.7733 11.5178 61.4267 12.4997 65.0533 13.8001Z" fill="#FEFEFE"/>
<path fill-rule="evenodd" clip-rule="evenodd" d="M50.4933 6.42236C50.28 7.8289 50.4933 10.3235 51.08 11.5708C52.0933 11.6504 53.4267 11.7831 54.3867 11.9424L53.24 10.5624C56.44 11.2258 58.84 11.8362 61.4267 12.6324C58.9467 11.0401 56.36 9.79275 53.7467 8.43929C52.6045 7.87876 51.5233 7.2029 50.52 6.42236H50.4933Z" fill="#FDB016"/>
<path fill-rule="evenodd" clip-rule="evenodd" d="M92.68 36.8091C91.9066 37.446 89.5333 37.446 88.0667 37.0479C89.0267 36.6764 91.6666 36.0394 92.68 36.7825V36.8091Z" fill="#FEFEFE"/>
<path fill-rule="evenodd" clip-rule="evenodd" d="M47.2134 23.0619L43.9334 25.2646C47.1334 24.8931 49.9334 24.7604 52.5467 24.8931C48.12 18.4177 39.1067 13.5877 34.28 8.81079C36.4134 13.0569 45.3734 19.8773 47.2134 23.0619Z" fill="#041E42"/>
<path fill-rule="evenodd" clip-rule="evenodd" d="M61.24 25.875C60.0134 25.3177 59.1067 24.1235 59.2134 21.4696L60.28 21.735L60.4134 20.4612L62.1467 20.9123C63.48 21.1777 64.28 21.7881 65.48 22.0535C66.0134 22.1862 66.8134 22.2658 66.9734 22.2923L70.9734 22.425L68.12 24.5216C66.3867 25.7954 63.3467 26.8835 61.24 25.875Z" fill="#041E42"/>
<path fill-rule="evenodd" clip-rule="evenodd" d="M62.0666 22.1863C61.7466 26.167 65.6933 24.2563 67.0799 23.2478C65.4799 22.8763 63.8533 22.5047 62.0666 22.1863Z" fill="#FEFEFE"/>
<path fill-rule="evenodd" clip-rule="evenodd" d="M43.7733 58.1991L41 59.1279C38.6077 52.1139 34.7429 45.6869 29.6623 40.2739C24.5818 34.8609 18.4019 30.5859 11.5333 27.7329C27.4267 31.9791 38.1733 45.3014 43.8 58.1991H43.7733Z" fill="#E3000F"/>
<path d="M52.0933 42.2759L75.0533 38.2951C68.4925 35.2228 61.3674 33.5246 54.1199 33.3059C53.6666 34.3144 53.3199 35.5351 52.9999 36.809L57.2933 34.9778L58.6266 37.0744L62.1733 35.429L63.5599 37.4724L66.2266 36.4109L72.3599 37.8971L66.6799 37.3398L63.0799 38.9851L61.8799 37.2071L57.7999 39.1709L56.6533 37.3398L52.4933 39.3567C52.3333 40.3917 52.2266 41.4001 52.1199 42.2759H52.0933Z" fill="white"/>
<path d="M73.48 22.5047C72.1467 24.6277 70.0134 24.1766 68.1734 23.7254C64.7334 22.8497 61.0267 22.2393 56.5734 21.4166L58.5734 19.0547C62.52 19.6916 66.7867 21.0716 69.1067 21.8147C70.4667 22.1331 71.64 22.5312 72.2534 21.1512L72.28 21.0981L69.2134 18.8689C71.08 19.7181 72.6 20.4612 74.1734 21.2308C73.9867 21.6554 73.7467 22.1066 73.48 22.4781V22.5047Z" fill="#041E42"/>
<path d="M39.8266 61.4101C33.5333 42.0105 21.08 32.1116 2.49329 26.167C4.27995 26.2997 7.02662 26.5385 10.76 27.3347C16.7866 29.962 22.0399 32.9078 26.9733 37.4193C33.4161 43.3604 38.2417 50.8288 40.9999 59.1278C44.1198 58.1009 47.231 57.0482 50.3333 55.9697C55.88 54.0855 61.0533 52.2543 66.2533 50.3966C74.7599 47.3978 83.24 44.4255 91.6666 41.6389L90.6533 40.4712C91.1866 40.2058 91.72 39.8608 92.2266 39.5158L94.76 42.5147C80.28 47.212 65.5066 52.6789 50.9199 57.6947L39.8799 61.4101H39.8266Z" fill="#041E42"/>
<path fill-rule="evenodd" clip-rule="evenodd" d="M41 59.1278L91.64 41.6389L84.3867 43.7885L41.3467 56.6066L41 59.1278Z" fill="#E3000F"/>
</g>
<defs>
<clipPath id="clip0_44_518">
<rect width="96" height="62" fill="white"/>
</clipPath>
</defs>
</svg>
