<svg width="100" height="100" viewBox="0 0 100 100" fill="none" xmlns="http://www.w3.org/2000/svg">
<g clip-path="url(#clip0_135_968)">
<mask id="mask0_135_968" style="mask-type:luminance" maskUnits="userSpaceOnUse" x="0" y="18" width="100" height="65">
<path d="M100 18H0V83H100V18Z" fill="white"/>
</mask>
<g mask="url(#mask0_135_968)">
<path d="M3.6263 43.7916C8.04624 40.7178 12.7535 38.0809 17.6818 35.9178C22.4039 33.8005 27.3144 32.133 32.3485 30.9375C31.6341 26.9594 32.0579 22.86 33.5708 19.1129L34.043 18L34.7652 18.946C36.0152 20.6153 37.6818 22.0065 39.5152 23.2306C41.3763 24.4827 43.4041 25.5121 45.3485 26.4581C46.1818 26.9032 47.043 27.2927 47.9318 27.7935C48.7096 28.2109 49.4875 28.6839 50.2375 29.1847C50.0152 28.0996 49.9596 26.9032 49.9874 25.7069C50.0708 23.7593 50.4041 21.8117 50.8208 20.3927L51.1818 19.1686L52.0152 20.1145C53.0708 21.2831 55.6818 22.5907 58.6263 24.0375C60.1813 24.7999 61.7187 25.5977 63.2375 26.4302C66.9434 28.369 70.3111 30.8965 73.2096 33.9145C76.2652 35.25 78.9596 36.7246 81.9041 38.3383L82.2652 38.5331L82.8485 38.8669L82.5708 39.4513C82.2831 40.0769 81.968 40.6896 81.6263 41.2875C84.8927 43.0714 87.9728 45.1779 90.8208 47.5754C94.0143 50.2475 96.936 53.2299 99.543 56.4786L99.9596 57.0072L99.5152 57.4524C98.751 58.2139 97.9341 58.9204 97.0708 59.567L99.2096 62.1266L99.8763 62.9334L98.8763 63.2674C89.293 66.3835 79.5708 69.8335 69.8485 73.2834C64.2652 75.2867 58.6818 77.2621 53.2375 79.1262C49.4129 80.4505 45.5794 81.749 41.7375 83.0214L41.0708 83.2717L40.8485 82.604C38.1897 73.6227 33.1839 65.5158 26.3485 59.1217C19.9596 53.2791 11.9318 49.1613 2.34852 46.073L1.04297 45.6556L2.15408 44.821C2.61057 44.4872 3.07363 44.1625 3.54297 43.8471L3.6263 43.7637V43.7916Z" fill="#FDB016"/>
<path d="M3.93143 44.4597C12.7624 38.3196 22.6797 33.9195 33.1537 31.4944C32.2645 27.449 32.6229 23.2285 34.1814 19.3916C36.7925 22.8416 41.098 25.2065 45.0147 27.0985C46.737 27.9331 48.4314 28.7956 50.0425 29.9363L51.1537 29.992C50.237 27.2097 50.737 23.0642 51.4592 20.588C53.1537 22.4799 58.3759 24.5388 62.8759 27.0428C67.1537 29.4077 69.987 31.6057 72.7925 34.4992C75.987 35.8904 78.7925 37.4484 81.9037 39.1735C81.5533 39.9939 81.1056 40.7693 80.5703 41.4827L80.5425 41.5384C87.6841 45.3505 93.9632 50.5977 98.987 56.9521C98.0147 57.9259 97.0425 58.7327 96.0147 59.4561L98.6537 62.5722C83.5703 67.4968 68.1814 73.2283 52.987 78.4867C49.1259 79.8223 45.2925 81.1299 41.487 82.3819C34.9037 62.0436 21.9314 51.6658 2.57031 45.4335L4.01476 44.3763L3.93143 44.4597Z" fill="#041E42"/>
<path d="M2.57031 45.4335C11.7265 38.7769 22.1279 34.0362 33.1537 31.4944C32.2645 27.449 32.6229 23.2285 34.1814 19.3916C36.7925 22.8416 41.098 25.2065 45.0147 27.0985C46.737 27.9331 48.4314 28.7956 50.0425 29.9363L51.1537 29.992C50.237 27.2097 50.737 23.0642 51.4592 20.588C53.1537 22.4799 58.3759 24.5388 62.8759 27.0428C67.1537 29.4077 69.987 31.6057 72.7925 34.4992C75.987 35.8904 78.7925 37.4484 81.9037 39.1735C81.5533 39.9939 81.1056 40.7693 80.5703 41.4827L80.5425 41.5384C87.6841 45.3505 93.9632 50.5977 98.987 56.9521C97.1078 58.9547 94.7596 60.4565 92.1551 61.3212C89.5506 62.186 86.7717 62.3864 84.0703 61.9045L83.6814 61.5985L82.6814 62.9896L52.5147 72.5049C46.6259 74.1743 41.9037 72.0876 40.0425 67.2187C39.5417 65.6923 39.2885 64.0954 39.2925 62.4888L37.6537 63.6017C37.7925 61.5985 38.0147 59.9848 38.4314 58.2041C27.8112 50.8544 15.4392 46.4485 2.57031 45.4335Z" fill="#041E42"/>
<path fill-rule="evenodd" clip-rule="evenodd" d="M38.9032 56.2286C29.5628 49.7908 18.8365 45.6535 7.59766 44.1535C14.6673 39.8622 22.2569 36.496 30.181 34.1374L33.6532 33.3027C35.2004 38.3992 37.9655 43.0406 41.7088 46.8245C40.431 49.1616 39.3476 51.8326 38.3754 54.1141L39.9032 53.3628C39.5285 54.3031 39.1948 55.2592 38.9032 56.2286Z" fill="#FEFEFE"/>
<path fill-rule="evenodd" clip-rule="evenodd" d="M41.7667 51.0251L43.1834 50.3295C41.5985 53.5079 40.4849 56.9009 39.8778 60.4013L41.2667 59.4553C40.1278 66.4945 43.3778 72.8102 51.9612 70.6957L81.5167 61.3751L82.2112 60.4013C81.6826 60.045 81.1454 59.7017 80.6 59.3718L79.9334 59.6501L52.2945 64.6025C52.2667 61.4585 53.3501 55.6437 54.4057 52.8057L52.6278 51.0251C62.9057 50.7468 76.1278 53.3622 84.7945 60.0952C88.1278 60.4569 91.4612 59.817 93.8223 58.6207C92.0479 58.5431 90.3448 57.8997 88.9612 56.7843L90.4612 56.2279C91.5968 55.8323 92.7694 55.5525 93.9612 55.3932C94.4612 55.3376 94.9612 55.3376 95.4056 55.3932C89.85 49.3835 84.1278 45.4049 78.9056 42.8174L78.6556 42.9009C77.2945 43.3182 75.7112 42.9844 74.0168 42.4279L75.239 40.842C76.8778 41.315 78.3501 41.6767 79.1835 40.3969L79.4056 39.9517C77.0723 38.6162 74.6835 37.3642 72.239 36.2513C68.2207 34.3861 64.0103 32.9681 59.6835 32.0222L60.6557 33.3021C57.921 32.6199 55.133 32.1731 52.3223 31.9666C52.6001 32.4396 52.8223 32.9404 52.989 33.469C53.2112 34.2203 53.4334 35.6114 53.3223 36.3348C51.8159 33.6151 49.5067 31.4285 46.7112 30.0746L44.2112 28.8227C42.0541 27.8084 39.9744 26.6367 37.989 25.317C38.1557 26.096 38.35 26.8751 38.5723 27.2646C37.1383 26.4822 35.8582 25.4452 34.7945 24.2041L34.6557 25.4561L34.35 25.1222C33.8223 32.3005 37.9612 41.4819 43.6278 46.1005L44.0723 46.49C43.1 48.0759 42.5167 49.3279 41.7667 51.0251Z" fill="white"/>
<path fill-rule="evenodd" clip-rule="evenodd" d="M10.9596 44.6817C17.0708 45.7945 23.3486 47.8535 28.9596 50.4688C32.3486 49.022 38.7929 47.1301 41.7374 46.8518C41.7374 46.7962 39.7652 44.7373 39.5707 44.5148C37.2129 41.6048 35.3715 38.3109 34.1263 34.7768L34.0429 34.582L30.5152 35.4168C26.9596 36.4184 23.1541 37.8652 19.5152 39.4788C16.1129 40.9668 12.7849 42.6196 9.54297 44.4313L10.9319 44.7095L10.9596 44.6817Z" fill="#FDB016"/>
<path fill-rule="evenodd" clip-rule="evenodd" d="M76.2932 50.441L75.321 48.9386C79.7654 50.5523 85.7099 54.3083 88.932 56.7845C90.2932 56.2559 91.9877 55.5882 93.9877 55.3934C88.8407 50.3325 82.9009 46.1502 76.4043 43.0124C75.592 42.8902 74.7925 42.6946 74.0154 42.4281V41.5378H75.2377V40.8144L76.2099 41.0926L76.9043 40.2302C73.0154 38.0043 67.821 35.8342 62.5432 34.1648L63.5154 35.6394C60.2654 34.443 56.0154 33.7475 52.9877 33.4692C53.1543 34.0257 53.4043 35.1664 53.321 36.335C49.321 32.3007 44.2377 30.6035 38.932 27.4874C37.1494 26.5045 35.6333 25.1005 34.5154 23.3975C34.1265 25.5954 34.2654 28.4055 34.7932 30.8817C36.071 36.8914 39.682 43.1236 44.0987 46.4624C50.2654 45.5442 64.7654 45.4329 76.2932 50.441Z" fill="#FDB016"/>
<path fill-rule="evenodd" clip-rule="evenodd" d="M67.7651 32.4677C67.6088 32.3456 67.4514 32.225 67.2929 32.106C65.7651 30.9375 64.0429 29.8524 62.0151 28.7116C60.5151 27.8769 59.0151 27.0979 57.5707 26.3745C56.5429 25.8459 55.904 25.5398 54.9873 25.0112C55.2095 25.6233 55.4873 26.2354 55.9873 26.8475C55.5151 26.5971 53.5984 25.5955 52.654 24.9277C52.404 26.3745 52.5707 28.8229 53.2095 30.1305C54.2651 30.1862 55.654 30.3532 56.654 30.5201L55.4873 29.0733C60.1817 30.0749 63.9873 31.1044 67.7651 32.4677Z" fill="#FEFEFE"/>
<path fill-rule="evenodd" clip-rule="evenodd" d="M52.5998 24.7334C52.3776 26.208 52.5998 28.8233 53.211 30.131C54.2665 30.2144 55.6555 30.3535 56.6555 30.5205L55.461 29.0738C58.7943 29.7693 61.2943 30.4092 63.9888 31.2439C61.4055 29.5746 58.711 28.2669 55.9888 26.8479C54.799 26.2603 53.6727 25.5517 52.6276 24.7334H52.5998Z" fill="#FDB016"/>
<path fill-rule="evenodd" clip-rule="evenodd" d="M96.5438 56.5898C95.7382 57.2575 93.266 57.2575 91.7383 56.8401C92.7383 56.4506 95.4882 55.7828 96.5438 56.5619V56.5898Z" fill="#FEFEFE"/>
<path fill-rule="evenodd" clip-rule="evenodd" d="M49.1832 42.178L45.7666 44.4873C49.0999 44.0978 52.0166 43.9587 54.7387 44.0978C50.1276 37.3091 40.7387 32.2454 35.7109 27.2373C37.9332 31.6889 47.2666 38.8393 49.1832 42.178Z" fill="#041E42"/>
<path fill-rule="evenodd" clip-rule="evenodd" d="M63.7918 45.1269C62.5141 44.5427 61.5696 43.2907 61.6808 40.5084L62.7918 40.7866L62.9308 39.4512L64.7363 39.9241C66.1251 40.2023 66.9585 40.8423 68.2085 41.1205C68.7641 41.2596 69.5974 41.3431 69.7641 41.3709L73.9308 41.51L70.9585 43.708C69.1529 45.0435 65.9863 46.1842 63.7918 45.1269Z" fill="#041E42"/>
<path fill-rule="evenodd" clip-rule="evenodd" d="M64.6559 41.2598C64.3225 45.4331 68.4337 43.4299 69.8781 42.3726C68.2114 41.9832 66.517 41.5936 64.6559 41.2598Z" fill="#FEFEFE"/>
<path fill-rule="evenodd" clip-rule="evenodd" d="M45.599 79.0156L42.7101 79.9893C40.2181 72.6359 36.1923 65.8979 30.9 60.223C25.6078 54.5481 19.1704 50.0662 12.0156 47.0752C28.5712 51.5269 39.7656 65.4938 45.6268 79.0156H45.599Z" fill="#E3000F"/>
<path d="M54.2656 62.322L78.1823 58.1486C71.3481 54.9276 63.9261 53.1473 56.3767 52.918C55.9045 53.9753 55.5433 55.255 55.21 56.5906L59.6823 54.6708L61.0711 56.8688L64.7656 55.1438L66.21 57.2861L68.9878 56.1732L75.3767 57.7313L69.46 57.1471L65.71 58.872L64.46 57.0079L60.21 59.0668L59.0156 57.1471L54.6823 59.2615C54.5156 60.3466 54.4045 61.4038 54.2933 62.322H54.2656Z" fill="white"/>
<path d="M76.5446 41.594C75.1558 43.8197 72.9336 43.3468 71.0169 42.8737C67.4336 41.9556 63.5724 41.3157 58.9336 40.4532L61.0169 37.977C65.128 38.6447 69.5724 40.0915 71.9891 40.8706C73.4058 41.2044 74.628 41.6217 75.2669 40.175L75.2946 40.1193L72.1003 37.7822C74.0446 38.6725 75.628 39.4516 77.2669 40.2584C77.0725 40.7036 76.8225 41.1766 76.5446 41.5661V41.594Z" fill="#041E42"/>
<path d="M41.4865 82.382C34.931 62.0437 21.9588 51.6658 2.59766 45.4336C4.45876 45.5727 7.31988 45.8231 11.2088 46.6578C17.4865 49.4122 22.9587 52.5006 28.0977 57.2304C34.8089 63.4589 39.8356 71.2887 42.7087 79.9893C45.9586 78.9127 49.1994 77.809 52.431 76.6784C58.2088 74.703 63.5977 72.7832 69.0143 70.8356C77.8754 67.6917 86.7088 64.5756 95.4865 61.6541L94.431 60.4299C94.9865 60.1517 95.5421 59.79 96.0699 59.4283L98.7088 62.5723C83.6255 67.4969 68.2365 73.2283 53.042 78.4868L41.542 82.382H41.4865Z" fill="#041E42"/>
<path fill-rule="evenodd" clip-rule="evenodd" d="M42.7109 79.9885L95.4609 61.6533L87.9054 63.9069L43.0721 77.3453L42.7109 79.9885Z" fill="#E3000F"/>
</g>
</g>
<defs>
<clipPath id="clip0_135_968">
<rect width="100" height="65" fill="white" transform="translate(0 18)"/>
</clipPath>
</defs>
</svg>
