<svg width="83" height="83" viewBox="0 0 83 83" fill="none" xmlns="http://www.w3.org/2000/svg">
<g clip-path="url(#clip0_0_599)">
<path d="M41.5019 82.4488C18.9221 82.4488 0.551086 64.0816 0.551086 41.5018C0.551086 18.9221 18.9221 0.551025 41.5019 0.551025C64.0816 0.551025 82.4527 18.9221 82.4527 41.5018C82.4527 64.0816 64.0816 82.4526 41.5019 82.4526V82.4488Z" fill="white"/>
<path d="M41.5019 83C18.6164 83 0 64.3836 0 41.5019C0 18.6202 18.6164 0 41.5019 0C64.3874 0 83.0038 18.6164 83.0038 41.5019C83.0038 64.3874 64.3874 83.0038 41.5019 83.0038V83ZM41.5019 1.10219C19.2241 1.10219 1.10219 19.2241 1.10219 41.5019C1.10219 63.7797 19.2241 81.9016 41.5019 81.9016C63.7797 81.9016 81.9016 63.7797 81.9016 41.5019C81.9016 19.2241 63.7759 1.10219 41.5019 1.10219Z" fill="#17457A"/>
<path d="M20.5527 67.1845L21.2586 65.116L19.3033 66.0974L20.5527 67.1845Z" fill="#17457A"/>
<path d="M30.0421 72.6879L31.6086 73.2276L31.484 71.0459L30.0421 72.6879Z" fill="#17457A"/>
<path d="M46.0918 74.4695L47.73 74.2052L46.59 72.3406L46.0918 74.4695Z" fill="#17457A"/>
<path d="M16.2346 18.873L17.1934 20.8396L18.2956 19.6015L16.2346 18.873Z" fill="#17457A"/>
<path d="M10.1537 35.6927L10.4972 34.0696L8.34564 34.4621L10.1537 35.6927Z" fill="#17457A"/>
<path d="M23.8216 16.5517L25.8372 15.2381L23.7838 12.0901L22.24 13.0979L22.5873 13.6264C23.3082 14.7323 23.6517 15.6345 23.8253 16.5517H23.8216Z" fill="#17457A"/>
<path d="M56.0115 12.2448L57.2533 12.8713L58.0573 11.2709L56.8381 10.6594C56.2417 10.3575 55.7397 10.4443 55.4679 10.9878C55.2301 11.4559 55.4151 11.9466 56.0115 12.2485V12.2448Z" fill="#17457A"/>
<path d="M74.8657 34.2282L72.7104 33.8469L73.0652 35.4662L74.8657 34.2282Z" fill="#17457A"/>
<path d="M53.86 69.8341L52.8937 70.2682L54.4299 73.7031L55.3962 73.269C56.4229 72.8123 56.8042 71.8082 56.3474 70.7853C55.8983 69.7775 54.8904 69.3774 53.8638 69.8341H53.86Z" fill="#17457A"/>
<path d="M41.4943 2.11377C19.7412 2.11377 2.10999 19.7488 2.10999 41.5019C2.10999 63.255 19.745 80.89 41.4981 80.89C63.2512 80.89 80.8862 63.255 80.8862 41.5019C80.8862 19.7488 63.2474 2.11377 41.4943 2.11377ZM76.6133 34.5113L71.0458 38.4595L70.74 37.0592L71.9857 36.2061L71.4232 33.628L69.936 33.3676L69.6378 32.0012L76.3453 33.277L76.6133 34.5113ZM72.801 24.2104L70.3777 25.456L73.9598 26.46L74.7185 27.9321L71.2043 26.8828L69.2226 30.8839L68.4677 29.4193L69.9474 26.4865L68.9509 26.1883L67.2561 27.0602L66.6295 25.841L72.1782 22.9912L72.8047 24.2104H72.801ZM64.0439 17.8011C65.3688 16.6196 67.3429 16.6536 68.6149 18.0804C69.3963 18.9599 69.502 19.7488 69.4642 20.5603L68.2148 20.5754C68.2224 19.9262 68.1393 19.4468 67.6675 18.9146C66.9692 18.1295 65.8104 18.1446 64.9988 18.8693C64.2024 19.5789 64.0288 20.7264 64.7384 21.5228C65.214 22.0551 65.716 22.1909 66.3766 22.2589L66.2596 23.5347C65.3197 23.5121 64.5685 23.229 63.7645 22.3306C62.5416 20.9604 62.6926 19.0014 64.0439 17.7973V17.8011ZM54.2638 10.282C54.8451 9.127 55.9851 8.84391 57.2911 9.50069L59.8389 10.7841L57.0344 16.3554L55.8077 15.7364L56.706 13.9547L55.7435 13.4716L53.6523 14.653L52.218 13.9321L54.5809 12.6261C54.0034 12.007 53.8033 11.1955 54.2638 10.282ZM46.424 6.10354L47.7489 6.38286L46.8996 10.384L50.4326 6.95283L51.6782 7.21705L50.3835 13.3206L49.0586 13.0375L49.9079 9.03641L46.39 12.4713L45.1255 12.2033L46.4202 6.09976L46.424 6.10354ZM37.614 6.07334L39.4258 8.59478L40.8866 5.85441L42.3625 5.75627L42.7777 11.9806L41.4188 12.0712L41.147 8.00972L39.573 10.7841H39.5391L37.6291 8.27017L37.8971 12.3052L36.5533 12.3958L36.1381 6.17148L37.614 6.07334ZM32.4541 6.99435L32.8467 8.14938L29.6835 9.22514L30.0912 10.4217L32.8731 9.47427L33.2657 10.6293L30.4838 11.5767L30.9065 12.8148L34.1112 11.7239L34.5037 12.879L30.0082 14.4115L27.9963 8.50797L32.4503 6.99057L32.4541 6.99435ZM24.2556 10.3009L26.9847 14.487L27.6113 14.0793L28.8494 16.3025L27.8868 16.9291L27.1772 15.8383L23.9084 17.9709L24.5463 19.1109L23.5083 19.7865L22.123 17.6576L22.6137 17.3368C22.4136 16.1818 22.0211 15.1702 20.8585 13.3885L20.4584 12.7771L24.2594 10.3009H24.2556ZM15.4382 17.2915L21.9041 19.4808L20.9491 20.549L19.5261 20.0432L17.7709 22.0098L18.4352 23.3649L17.5029 24.4066L14.5964 18.2276L15.4382 17.2839V17.2915ZM9.3346 26.4223L11.7654 27.6566L10.4783 24.1651L11.2295 22.6854L12.4411 26.1467L16.8461 25.4031L16.1025 26.8752L12.8601 27.3999L13.1998 28.3813L14.9022 29.2419L14.2831 30.4649L8.71934 27.6453L9.33837 26.4223H9.3346ZM6.86977 33.4884L13.5659 32.171L13.2677 33.5752L11.7805 33.8432L11.237 36.425L12.4864 37.2705L12.1958 38.6407L6.60178 34.7264L6.86223 33.4884H6.86977ZM7.44352 44.5895C7.44352 43.8119 8.07388 43.1816 8.85145 43.1816C9.62902 43.1816 10.2594 43.8119 10.2594 44.5895C10.2594 45.3671 9.62902 45.9974 8.85145 45.9974C8.07388 45.9974 7.44352 45.3671 7.44352 44.5895ZM8.45134 55.0376C8.10407 54.1582 8.05878 53.1503 8.40227 52.2105L9.6026 52.6068C9.37989 53.3013 9.32327 53.9543 9.58372 54.6187C9.79133 55.1396 10.1235 55.3736 10.4783 55.2301C10.8029 55.1018 10.8897 54.8376 10.7539 53.7694C10.5878 52.4822 10.6142 51.6027 11.7805 51.1385C12.8337 50.7195 13.8641 51.2894 14.3322 52.4747C14.6681 53.3202 14.687 54.1468 14.4492 54.9206L13.2262 54.6375C13.3772 53.9807 13.3923 53.3919 13.1998 52.905C13.0073 52.4181 12.6789 52.2482 12.3807 52.3652C11.9995 52.5162 11.9731 52.8144 12.1165 53.9166C12.275 55.215 12.1165 56.0455 11.0898 56.4531C9.93854 56.9098 8.94581 56.287 8.44756 55.0376H8.45134ZM14.2039 64.7346L13.2602 63.3833L14.3284 60.2768L13.3017 60.1145L11.739 61.2054L10.9539 60.0805L16.0647 56.506L16.8499 57.6308L14.6153 59.1935L18.2993 59.7031L19.2505 61.0619L15.6269 60.4995L14.2076 64.7309L14.2039 64.7346ZM20.7151 70.7929L19.6355 69.8492L20.1262 68.4186L18.137 66.6861L16.7895 67.3655L15.7363 66.4483L21.8776 63.4701L22.8326 64.3005L20.7226 70.7929H20.7151ZM15.14 41.5019C15.14 26.9734 26.962 15.1513 41.4905 15.1513C56.019 15.1513 67.8411 26.9734 67.8411 41.5019C67.8411 56.0304 56.019 67.8525 41.4905 67.8525C26.962 67.8525 15.14 56.0304 15.14 41.5019ZM31.7558 76.0434L31.6728 74.5335L29.1777 73.6729L28.1813 74.8091L26.8601 74.3523L31.435 69.283L32.6315 69.6945L33.1147 76.5039L31.7596 76.0358L31.7558 76.0434ZM40.7696 73.0463C40.3317 72.5669 39.9467 72.2725 39.2371 72.2084C38.1915 72.114 37.3573 72.9142 37.2554 73.9975C37.1573 75.062 37.8141 76.0169 38.8785 76.1151C39.5881 76.1793 40.0486 75.9377 40.5771 75.5376L41.3622 76.5492C40.6601 77.1758 39.9165 77.4815 38.72 77.372C36.8931 77.2059 35.6625 75.6697 35.8286 73.8692C35.9909 72.1027 37.4517 70.7778 39.3617 70.9514C40.5318 71.0571 41.1508 71.5629 41.6755 72.1819L40.7734 73.0463H40.7696ZM49.187 76.6133L48.4019 75.3224L45.7974 75.7452L45.4577 77.2173L44.0761 77.44L45.7106 70.8118L46.96 70.6079L50.6025 76.3831L49.187 76.6133ZM55.8945 74.3976L53.675 75.3904L51.1309 69.6945L53.3504 68.7017C55.1395 67.9015 56.9249 68.5772 57.6497 70.1965C58.3668 71.8007 57.6874 73.5974 55.8945 74.3976ZM61.798 71.2005L57.9516 66.2898L61.6545 63.3871L62.4057 64.3496L59.7748 66.4106L60.5561 67.4071L62.87 65.5952L63.6211 66.5578L61.3073 68.3696L62.115 69.4L64.7799 67.3127L65.5311 68.2752L61.7904 71.2043L61.798 71.2005ZM70.9816 62.0056L67.7505 59.5257L68.7961 62.5416L68.7735 62.568L65.6217 62.3415L68.8301 64.8026L68.011 65.8708L63.0625 62.0735L63.9646 60.8996L67.056 61.2054L65.9614 58.2989L66.8635 57.125L71.812 60.9223L70.9816 62.0056ZM74.2919 55.9926L72.0196 55.0527L67.6147 55.8228L68.2261 54.3393L71.1099 53.9204L69.3736 51.565L69.97 50.1231L72.5217 53.7694L74.8204 54.7206L74.2957 55.9888L74.2919 55.9926ZM73.6918 45.9937C72.9142 45.9937 72.2838 45.3633 72.2838 44.5857C72.2838 43.8082 72.9142 43.1778 73.6918 43.1778C74.4693 43.1778 75.0997 43.8082 75.0997 44.5857C75.0997 45.3633 74.4693 45.9937 73.6918 45.9937Z" fill="#17457A"/>
<path d="M41.5019 16.0347C27.4603 16.0347 16.0345 27.4604 16.0345 41.502C16.0345 55.5436 27.4603 66.9693 41.5019 66.9693C55.5434 66.9693 66.9692 55.5436 66.9692 41.502C66.9692 27.4604 55.5434 16.0347 41.5019 16.0347ZM41.5019 65.7275C28.1209 65.7275 17.2764 54.883 17.2764 41.502C17.2764 28.121 28.1209 17.2765 41.5019 17.2765C54.8829 17.2765 65.7274 28.121 65.7274 41.502C65.7274 54.883 54.8829 65.7275 41.5019 65.7275Z" fill="#17457A"/>
<path fill-rule="evenodd" clip-rule="evenodd" d="M56.1134 47.5037H54.3469V42.6722H56.1134V38.505H53.7656V52.9127H48.3264L48.383 37.8557L48.3905 37.7953C48.7076 34.6058 50.4175 33.6282 53.4485 33.6282H61.5526L61.579 52.9127H56.1134V47.5037Z" fill="#E42313"/>
<path fill-rule="evenodd" clip-rule="evenodd" d="M56.7324 46.8883H54.9659V43.291H56.7324V37.8896H53.1541V52.2973H48.9492L49.002 37.8896V37.8594C49.2889 34.9944 50.7346 34.2471 53.4485 34.2471H60.9373L60.9638 52.2973H56.7324V46.8883Z" fill="white"/>
<path fill-rule="evenodd" clip-rule="evenodd" d="M56.7324 46.8883H54.9659V43.291H56.7324V37.8896H53.1541V52.2973H48.9492L49.002 37.8896V37.8594C49.2889 34.9944 50.7346 34.2471 53.4485 34.2471H60.9373L60.9638 52.2973H56.7324V46.8883Z" fill="white"/>
<path fill-rule="evenodd" clip-rule="evenodd" d="M60.3448 51.682L60.3221 34.8623H53.4485C50.9611 34.8623 49.8627 35.4587 49.6173 37.9197L49.5682 51.682H52.5351V37.2743H57.3477V43.9063H55.5812V46.273H57.3477V51.682H60.3448Z" fill="#E4261D"/>
<path fill-rule="evenodd" clip-rule="evenodd" d="M20.6773 44.4273C20.6811 44.0385 20.6849 43.6459 20.6849 43.2571C20.6849 42.8684 20.6811 42.4758 20.6773 42.087H20.6547V37.8594C20.6547 35.5494 22.123 33.647 24.5425 33.647H29.8534C32.3333 33.647 33.8583 35.3682 33.8885 37.7877V37.8028V41.468H28.4153V38.5313H26.1354V48.0094H28.4153V44.4914H33.8885V48.6964C33.8885 51.1234 32.3295 52.8635 29.8534 52.8635H24.5425C22.1494 52.8635 20.6811 51.0064 20.6547 48.719V44.4273H20.6773Z" fill="#E42313"/>
<path fill-rule="evenodd" clip-rule="evenodd" d="M21.285 45.0426C21.2926 44.4462 21.3039 43.8498 21.3039 43.2534C21.3039 42.6571 21.2963 42.0607 21.285 41.4643H21.2737V37.8558C21.2737 35.8854 22.4665 34.2585 24.5463 34.2585H29.8572C31.9974 34.2585 33.2543 35.708 33.277 37.7916V40.849H29.0381V37.9124H25.5239V48.6247H29.0381V45.1106H33.277V48.6964C33.277 50.7838 31.9898 52.2484 29.8572 52.2484H24.5463C22.4929 52.2484 21.2963 50.663 21.2737 48.7115V45.0426H21.285Z" fill="white"/>
<path fill-rule="evenodd" clip-rule="evenodd" d="M21.285 45.0426C21.2926 44.4462 21.3039 43.8498 21.3039 43.2534C21.3039 42.6571 21.2963 42.0607 21.285 41.4643H21.2737V37.8558C21.2737 35.8854 22.4665 34.2585 24.5463 34.2585H29.8572C31.9974 34.2585 33.2543 35.708 33.277 37.7916V40.849H29.0381V37.9124H25.5239V48.6247H29.0381V45.1106H33.277V48.6964C33.277 50.7838 31.9898 52.2484 29.8572 52.2484H24.5463C22.4929 52.2484 21.2963 50.663 21.2737 48.7115V45.0426H21.285Z" fill="white"/>
<path fill-rule="evenodd" clip-rule="evenodd" d="M32.6579 48.6964V45.7258H29.6533V49.24H24.9087V37.2933H29.6533V40.23H32.6579V37.7991C32.6391 36.0552 31.6577 34.8738 29.8534 34.8738H24.5425C22.8062 34.8738 21.8852 36.2289 21.8852 37.8519V40.8452H21.8927C21.9041 41.6492 21.9154 42.4494 21.9192 43.2496C21.9192 44.0499 21.9041 44.8501 21.8927 45.6541H21.8852V48.7002C21.9041 50.3044 22.8288 51.6293 24.5425 51.6293H29.8534C31.6577 51.6293 32.6579 50.4252 32.6579 48.6926" fill="#E42313"/>
<path fill-rule="evenodd" clip-rule="evenodd" d="M46.4542 49.3155C46.5334 49.4023 46.6127 49.4967 46.692 49.5986C47.4431 50.5762 47.6469 51.8105 47.6469 53.0146V59.5221H42.2983V53.0146C42.2983 52.7353 42.3172 52.4447 42.2908 52.1653C42.2832 52.0785 42.2681 51.9653 42.2341 51.886C42.1775 51.7577 41.8038 51.735 41.7019 51.7275L40.5393 51.6595L40.5469 47.1262L41.5434 46.9337C41.6793 46.9073 42.1775 46.7978 42.2757 46.6846C42.2908 46.6506 42.2945 46.5563 42.2945 46.5185V40.196H47.6432V46.6016C47.6432 47.7151 47.1713 48.6172 46.4504 49.3155M34.5528 40.196H39.9014V59.5183H34.5528V40.196Z" fill="#E42313"/>
<path fill-rule="evenodd" clip-rule="evenodd" d="M45.5105 49.3042C45.7596 49.4854 45.9899 49.6967 46.205 49.9761C46.8656 50.8367 47.0316 51.9577 47.0316 53.0146V58.9068H42.9173V53.0146C42.9173 51.9766 43.0758 51.1915 41.7396 51.1122L41.1583 51.0783V47.6358L41.6604 47.5414C41.9888 47.4773 42.5021 47.3603 42.7361 47.0998C42.8796 46.9413 42.9135 46.7299 42.9135 46.5223V40.8188H47.0279V46.6053C47.0279 47.783 46.39 48.6738 45.5067 49.3042M35.168 40.8188H39.2824V58.9068H35.168V40.8188Z" fill="white"/>
<path fill-rule="evenodd" clip-rule="evenodd" d="M43.5288 53.0146C43.5288 52.0823 43.7289 50.6139 41.7699 50.4969V48.1453C42.7739 47.9528 43.5288 47.598 43.5288 46.5223V41.4341H46.4089V46.6053C46.4089 48.0925 45.1293 48.904 44.3102 49.2815C45.2425 49.8364 46.4089 50.3422 46.4089 53.0146V58.2877H43.5288V53.0146ZM35.7871 41.4341H38.6709V58.2915H35.7871V41.4341Z" fill="#E42313"/>
<path fill-rule="evenodd" clip-rule="evenodd" d="M43.5552 27.0905L51.8934 27.0754L45.1368 31.9635L47.73 39.8864L40.9923 34.9719L34.2584 39.8864L36.8478 31.9635L30.095 27.0754L38.4331 27.0905L40.9923 19.1562L43.5552 27.0905Z" fill="#E42313"/>
<path fill-rule="evenodd" clip-rule="evenodd" d="M43.2269 27.5434L50.493 27.5283L44.6046 31.7898L46.8656 38.6974L40.9923 34.4132L35.1228 38.6974L37.38 31.7898L31.4916 27.5283L38.7615 27.5434L40.9923 20.6245L43.2269 27.5434Z" fill="white"/>
<path fill-rule="evenodd" clip-rule="evenodd" d="M40.9923 22.0967L42.8985 27.9964L49.0926 27.9813L44.0724 31.6163L45.9974 37.5047L40.9923 33.8546L35.9872 37.5047L37.9122 31.6163L32.892 27.9813L39.0899 27.9964L40.9923 22.0967Z" fill="#E42313"/>
</g>
<defs>
<clipPath id="clip0_0_599">
<rect width="83" height="83" fill="white"/>
</clipPath>
</defs>
</svg>
