<svg width="144" height="89" viewBox="0 0 144 89" fill="none" xmlns="http://www.w3.org/2000/svg">
<g clip-path="url(#clip0_47_583)">
<path d="M32.6094 26H6V63H32.6094V26Z" fill="url(#paint0_linear_47_583)"/>
<path d="M112.827 36.8491L104.567 53.2895H112.105L114.914 47.6982H127.031L128.851 44.0794H116.72L118.2 41.1206H135.848L138 36.8491H112.827Z" fill="#000100"/>
<path d="M83.2865 53.2895L86.0955 47.6981H96.9126L94.2697 53.2895H101.953L108.423 40.3881C109.376 38.6403 107.058 36.849 104.256 36.8418H84.0014L75.7478 53.2895H83.2793H83.2865ZM89.641 41.1205C93.6126 41.0915 97.3097 41.0915 101.108 41.1205L99.5844 44.0794H88.1824L89.641 41.1205Z" fill="#000100"/>
<path d="M60.9157 41.1205C64.8872 41.0915 68.5844 41.0915 72.3826 41.1205L70.859 44.0794H59.457L60.9157 41.1205ZM54.4673 53.2895L57.2763 47.6981H62.2443L66.2664 53.2895H73.7979L69.7758 47.6981H72.5487C75.5526 47.6981 76.4697 46.6538 77.264 45.0656L79.6831 40.272C80.499 38.6476 78.2605 36.849 75.466 36.8418H55.1894L46.9358 53.2895H54.4673Z" fill="#000100"/>
<path d="M52.5683 36.8491C52.5683 36.8491 33.0716 36.8491 26.3705 36.8491L19.8427 49.8666C19.0195 51.491 21.2508 53.2968 24.0598 53.2968H27.2587H38.0541L37.2309 54.943H43.4915L48.9361 44.0867H34.0753L37.628 47.7055H40.567L39.9604 48.9093H29.2661C28.609 48.9093 28.053 48.4814 28.2479 48.1043L31.7501 41.1278L50.4814 41.0046L52.5683 36.8491Z" fill="#000100"/>
</g>
<defs>
<linearGradient id="paint0_linear_47_583" x1="11.4085" y1="59.6931" x2="25.621" y2="32.5841" gradientUnits="userSpaceOnUse">
<stop stop-color="#7CB93D"/>
<stop offset="0.67" stop-color="#ADCA27"/>
<stop offset="1" stop-color="#C8D41D"/>
</linearGradient>
<clipPath id="clip0_47_583">
<rect width="132" height="37" fill="white" transform="translate(6 26)"/>
</clipPath>
</defs>
</svg>
