<svg width="75" height="96" viewBox="0 0 75 96" fill="none" xmlns="http://www.w3.org/2000/svg">
<g clip-path="url(#clip0_13_305)">
<path fill-rule="evenodd" clip-rule="evenodd" d="M74.2521 11.12C48.8596 11.7246 37.4939 0 37.4939 0C37.4939 0 26.1343 11.7246 0.743785 11.12L0.5 47.6209C0.528681 59.3987 2.33146 70.4931 12.0972 79.4332C20.8202 87.4222 31.852 93.5464 37.4877 96H37.5123C43.148 93.5464 54.1798 87.4222 62.9028 79.4332C72.6685 70.4931 74.4713 59.3987 74.5 47.6209L74.2521 11.12Z" fill="#193E73"/>
<path fill-rule="evenodd" clip-rule="evenodd" d="M37.4953 2.36328C37.4953 2.36328 26.8876 12.6858 2.39844 12.7389L2.41483 48.8519C2.44351 60.6316 4.78507 70.8064 14.8868 79.3941C22.5834 85.9377 32.6954 91.5341 37.4953 93.8204C42.2952 91.5341 52.4071 85.9436 60.1038 79.3941C70.2075 70.8064 72.5471 60.6316 72.5757 48.8519L72.5921 12.7389C48.105 12.6858 37.4953 2.36328 37.4953 2.36328Z" fill="white"/>
<path fill-rule="evenodd" clip-rule="evenodd" d="M37.4932 4.98828C37.4932 4.98828 27.5779 14.655 4.70312 14.7062L4.71747 49.1671C4.7441 60.1689 6.93202 69.6762 16.3679 77.6987C23.5586 83.8032 33.0088 89.0648 37.4932 91.2014C41.9776 89.0648 51.4238 83.811 58.6185 77.6987C68.0544 69.6762 70.2423 60.1729 70.269 49.1671L70.2833 14.7062C47.4085 14.655 37.4932 4.98828 37.4932 4.98828Z" fill="#193E73"/>
<path fill-rule="evenodd" clip-rule="evenodd" d="M41.4008 44.1122L38.1579 34.5341L34.9169 44.1122H24.426L32.9134 50.0316L29.6704 59.6117L38.1579 53.6903L46.6473 59.6117L43.4043 50.0316L51.8918 44.1122H41.4008ZM52.8833 26.0449L52.2011 25.8361L52.9427 24.7255L52.8833 26.0449ZM56.8965 19.4067L52.8915 18.1917L52.1335 17.9614L51.8958 18.69L51.3919 20.2161L51.1522 20.9447L51.5271 21.0589L46.9751 27.8684L46.3031 27.6714L46.0634 28.4L45.5595 29.9281L45.3198 30.6548L46.0778 30.8851L49.0647 31.791L49.8227 32.0214L50.0623 31.2947L50.5642 29.7667L50.8039 29.0381L50.1894 28.8529L50.5479 28.3154L52.7542 28.9849L52.7276 29.6209L52.113 29.4358L51.8733 30.1625L51.3714 31.6905L51.1297 32.4192L51.8877 32.6495L54.8745 33.5554L55.6325 33.7858L55.8722 33.0572L56.3762 31.5291L56.6159 30.8024L55.9439 30.6055L56.2942 22.52L56.6691 22.6342L56.9088 21.9076L57.4128 20.3795L57.6525 19.6509L56.8945 19.4225V19.4067H56.8965ZM37.6109 27.1732H37.0086V26.6455L38.0943 25.1528L38.8913 27.1732H38.5V30.3023H43.2118V27.1732H42.3739L40.3499 22.0533L42.3042 19.3713H43.2282V16.2344H38.5164V19.1882L37.025 21.2322V19.3595H37.6273V16.2344H32.9851V19.3634H33.5751V27.1732H32.9851V30.3023H37.6088V27.1732H37.6109ZM28.8694 31.3715L29.019 31.086L29.8384 29.5244L29.9859 29.2468L29.8876 28.9494L29.3713 27.3879L29.1296 26.6612L28.3716 26.8936L26.7799 27.38L26.0219 27.6124L26.2636 28.339L26.4254 28.8293L23.5021 29.7214L21.0437 22.2798L23.9712 21.3877L24.1433 21.9076L24.385 22.6342L25.143 22.4038L26.7348 21.9155L27.4928 21.6831L27.249 20.9565L26.3312 18.1858L26.0915 17.4592L25.3335 17.6896L23.7397 18.176L22.9817 18.4064L23.0329 18.562L22.8281 18.4556L22.5126 18.5521L18.7268 19.708L18.4113 19.8025L18.2597 20.0861L17.4607 21.5768L17.4218 21.6496L17.3993 21.7284V21.7383L17.3398 21.9529L17.4095 22.1656L20.5971 31.789L20.6955 32.0903L20.9884 32.236L22.6273 33.0454L22.9203 33.1911L23.2337 33.0946L28.5601 31.468L28.8694 31.3715Z" fill="white"/>
<path fill-rule="evenodd" clip-rule="evenodd" d="M40.5431 45.2798L38.1606 38.2439L35.7801 45.2798H28.0712L34.3051 49.6297L31.9266 56.6696L38.1606 52.3216L44.3966 56.6696L42.014 49.6337L48.25 45.2837L40.5431 45.2798ZM29.1385 29.1797L28.6222 27.6201L27.0284 28.1163L27.4381 29.3353L22.9926 30.6763L20.0467 21.7795L24.4861 20.4365L24.8958 21.681L26.4876 21.1946L25.5718 18.422L23.9739 18.9025L24.1132 19.3278L23.3225 19.5701L22.7448 19.2786L18.963 20.4365L18.1641 21.9291L21.3497 31.5506L22.9885 32.3619L28.3149 30.7354L29.1344 29.1738L29.1385 29.1797ZM53.6378 27.0727L50.9746 26.2633L53.8652 21.9311L53.6378 27.0707V27.0727ZM56.1556 21.6613L56.6595 20.1332L52.6545 18.9183L52.1526 20.4463L52.7672 20.6314L47.322 28.7721L46.8303 28.6205L46.3263 30.1505L49.3132 31.0563L49.8172 29.5282L48.9711 29.2723L50.2187 27.4035L53.5846 28.4255L53.474 30.6408L52.6279 30.3848L52.126 31.9129L55.1108 32.8188L55.6148 31.2907L55.121 31.141L55.5308 21.4762L56.1453 21.6613H56.1556ZM36.8187 27.9371H36.2164V26.4051L38.3142 23.5321L40.0514 27.9371H39.2976V29.5381H42.4299V27.9371H41.8358L39.4696 21.939L41.9013 18.6012H42.4299V16.9983H39.2976V18.6012H39.9019L36.2144 23.6601V18.6012H36.8167V16.9983H33.7847V18.6012H34.3747V27.9371H33.7847V29.5381H36.8187V27.9371Z" fill="#CE0E2D"/>
<path fill-rule="evenodd" clip-rule="evenodd" d="M41.8097 49.5644L44.0631 56.2242L38.1611 52.1086L32.2611 56.2242L34.5145 49.5644L28.6145 45.4448H35.9076L38.1611 38.785L40.4146 45.4448H47.7076L41.8076 49.5604V49.5644H41.8097ZM38.495 38.6846L38.1611 37.7L37.8272 38.6846L35.6515 45.112H27.5329L28.4076 45.7225L34.1028 49.6924L31.9271 56.1198L31.5932 57.1044L32.468 56.494L38.1611 52.5339L43.8562 56.5058L44.731 57.1162L44.3971 56.1316L42.2214 49.7042L47.9166 45.7343L48.7913 45.1239H40.6706L38.495 38.6964V38.6846ZM22.9952 32.2316L21.4567 31.4636L18.3039 21.9386L19.0557 20.5326L22.7432 19.4102L23.325 19.6996L24.294 19.4043L24.1527 18.9789L25.4966 18.5693L26.3344 21.0997L24.9926 21.5113L24.5829 20.2648L19.8772 21.7023L22.901 30.8394L27.5923 29.4078L27.1826 28.1888L28.5244 27.7773L28.9853 29.1675L28.2089 30.6365L22.9829 32.2316H22.9952ZM28.4056 30.8531L29.2803 29.199L28.7088 27.4681L26.865 28.0313L27.2747 29.2522L23.0853 30.5302L20.2173 21.8658L24.4067 20.5878L24.8164 21.8342L26.6602 21.2691L25.6625 18.2582L23.8187 18.8214L23.9601 19.2448L23.3455 19.4417L22.7637 19.1502L18.8713 20.3318L18.0519 21.8697L18.0294 21.9386L21.2272 31.5975L21.2436 31.6467L22.9747 32.5053L28.3585 30.863L28.4097 30.8472L28.4056 30.8531ZM53.5134 26.9148L51.178 26.2059L53.7121 22.4053L53.5072 26.9108L53.5134 26.9148ZM53.7613 27.2554L54.0173 21.4837L50.7703 26.3437L53.7613 27.2515V27.2554ZM54.9904 31.1505L55.4145 21.3203L56.0619 21.5172L56.4859 20.2294L52.7329 19.0912L52.3088 20.377L52.9562 20.574L47.3655 28.9352L46.9025 28.7934L46.4784 30.0812L49.2133 30.9102L49.6374 29.6244L48.7627 29.3408L50.1578 27.2535L53.7182 28.3326L53.6076 30.8118L52.7247 30.544L52.3006 31.8299L55.0355 32.6609L55.4596 31.373L54.9966 31.2332V31.1367L54.9904 31.1505ZM56.2421 21.8146L56.8239 20.0423L52.569 18.7525L51.9872 20.5247L52.5567 20.698L47.261 28.6161L46.7386 28.4586L46.1548 30.2309L49.3936 31.2155L49.9754 29.4432L49.1724 29.201L50.2725 27.5528L53.4478 28.5157L53.3618 30.4711L52.5546 30.2269L51.9728 31.9992L55.2096 32.9838L55.7935 31.2115L55.2711 31.054L55.6808 21.6511L56.2503 21.8244L56.2421 21.8146ZM36.6881 29.4058H33.9164V28.0569H34.5064V18.4669H33.9164V17.118H36.6881V18.4669H36.0858V24.0555L40.1585 18.4669H39.4333V17.118H42.3013V18.4669H41.8363L39.3267 21.915L41.7482 28.0569H42.3013V29.4058H39.4333V28.0569H40.2404L38.3475 23.258L36.094 26.3575V28.0569H36.6963V29.4058H36.6881ZM36.9503 27.8029H36.3501V26.4382L38.2738 23.7956L39.8553 27.8029H39.1649V29.6598H42.5615V27.8029H41.9264L39.6176 21.9504L41.9694 18.721H42.5615V16.864H39.1649V18.721H39.6504L36.3501 23.2501V18.721H36.9503V16.864H33.6521V18.721H34.2441V27.8029H33.6521V29.6598H36.9503V27.8029Z" fill="#193E73"/>
<path fill-rule="evenodd" clip-rule="evenodd" d="M61.6411 67.1533L58.7403 69.0338L57.1587 66.7811L57.634 66.4719L55.6694 60.6923L57.4865 59.5108L62.3315 63.4236L62.8088 63.1164L64.3903 65.3672L61.639 67.1513H61.6411V67.1533ZM52.5412 65.1211L52.619 65.2943L52.7399 65.2451L52.6641 65.0718L52.5412 65.1211ZM53.9383 67.9547L53.7785 67.5944L53.6556 67.6436L53.8154 68.0039L53.9383 67.9547ZM54.5181 70.6702L57.9782 69.2603L56.874 66.7594L56.4028 66.9563L55.1286 64.0734L55.5997 63.8765L54.4955 61.3757L48.5095 63.8174L49.6137 66.3183L50.0849 66.1214L51.3591 69.0043L50.8879 69.2012L51.9921 71.7021L54.5222 70.6702H54.5181ZM47.9789 69.7506L47.9133 69.4808L47.856 69.4946L47.9215 69.7624L47.9789 69.7506ZM45.3403 70.3414L44.6069 67.2891L44.1091 67.3994L43.474 64.743L47.1799 63.9198L47.815 66.5684L47.1881 66.7063L47.2311 66.8894L48.4603 66.6176L50.2672 67.87L50.8347 70.2331L49.7837 72.1353L45.4816 73.0923L44.8425 70.4536L45.3403 70.3433V70.3414ZM40.2187 72.793L40.2904 73.5807L44.0374 73.2656L43.7915 70.56L43.2732 70.6033L42.9885 67.4841L43.4597 67.4427L43.2118 64.7371L36.9307 65.2648L37.1786 67.9724L37.6867 67.9291L37.9714 71.0444L37.1335 71.1153L37.3794 73.8229L39.6328 73.626L40.2269 72.7891L40.2187 72.793ZM31.0492 70.7392L31.2766 67.616L30.7664 67.5806L30.9713 64.871L36.7074 65.2648L36.437 68.8783L35.2672 68.7995L35.173 70.109L36.3407 70.1878L36.0785 73.8012L30.3424 73.4074L30.5472 70.6978L31.0573 70.7313L31.0492 70.7392ZM27.2756 69.857L28.3327 70.0716L30.0781 68.8212L30.5923 66.4936L29.5025 64.6091L25.3909 63.7584L24.8029 66.4168L25.3028 66.5192L24.6247 69.5813L24.1248 69.4789L23.5369 72.1373L27.2346 72.8934L27.8205 70.235L27.206 70.111L27.2654 69.8432L27.2756 69.857ZM21.6972 66.4128L20.7958 68.4569L21.2732 68.6538L20.169 71.1566L16.7744 69.7782L17.8786 67.2773L18.358 67.4742L19.2594 65.4184L17.473 64.6898L18.948 61.3422L24.9566 63.7938L23.4816 67.1414L21.6952 66.4128H21.6972ZM15.2277 62.3524L14.7381 63.14L17.0305 64.4633L18.104 62.7462L17.7168 60.6293L15.5719 59.3809L13.4454 60.0464L10.5938 64.6071L10.9789 66.724L13.1279 67.9646L15.2543 67.3029L16.3278 65.5838L14.0375 64.2605L13.5499 65.0482L13.47 65.0029L15.1478 62.3189L15.2277 62.3524Z" fill="white"/>
<path fill-rule="evenodd" clip-rule="evenodd" d="M59.3174 63.5082L58.5103 62.8446L58.8503 63.8115L59.3174 63.5082ZM48.5581 69.9691L48.3532 69.0357L48.1853 68.9137L47.249 69.1204L47.5461 70.359L48.4844 70.1503L48.5765 69.9691H48.5581ZM28.1293 67.6396L28.3158 66.8007L28.2031 66.6038L27.4902 66.4561L27.2525 67.6238L27.9654 67.7696L28.1478 67.6396H28.1293ZM61.0116 64.8827L60.6019 64.5519L59.3727 65.3534L59.5387 65.8437L59.9238 65.5936L60.9256 67.0213L58.877 68.3446L57.8834 66.909L58.2542 66.6688L56.2875 60.8892L57.4573 60.1311L62.3043 64.0438L62.6751 63.8036L63.6748 65.2293L61.6262 66.5526L60.6326 65.1367L61.0198 64.8847H61.0116V64.8827ZM54.6118 68.2205L54.0894 68.4332L54.79 70.0085L57.2913 68.9885L56.5907 67.4033L56.1216 67.6002L54.4438 63.7997L54.9149 63.6027L54.2143 62.0175L51.713 63.0396L52.4115 64.6149L52.936 64.4003L53.4174 65.4912L52.3419 65.9303L51.8605 64.8394L52.3849 64.6267L51.6843 63.0415L49.1829 64.0635L49.8815 65.6389L50.3527 65.442L52.0407 69.272L51.5716 69.469L52.2702 71.0443L54.7715 70.0243L54.073 68.4489L53.5485 68.6636L52.9852 67.3875L54.0607 66.9464L54.624 68.2244L54.6118 68.2205ZM45.9564 70.7096L44.9915 66.6885L44.4937 66.7987L44.0839 65.121L46.7799 64.5302L47.1896 66.208L46.5628 66.3478L46.8393 67.5017L48.3471 67.167L49.8057 68.1791L50.2851 70.1779L49.439 71.7119L45.8621 72.4996L45.4524 70.8218L45.9502 70.7115H45.9564V70.7096ZM41.1831 71.2668L40.8102 67.1532L39.8003 67.2379L40.2264 71.9088L39.3455 73.1474L37.8623 73.2734L37.7066 71.5583L38.4113 71.4992L38.5301 71.3318L38.1696 67.3757L37.6615 67.419L37.5038 65.7039L42.7523 65.2628L42.908 66.9779L42.4409 67.0173L42.8138 71.129L43.3321 71.0857L43.4878 72.8008L40.7734 73.0273L40.6156 71.3141L41.1831 71.2668ZM31.5403 71.2668L31.8394 67.1493L31.3293 67.1158L31.4542 65.3986L36.166 65.7137L35.9755 68.3387L34.3919 68.2323L34.4575 67.3245L33.4578 67.2576L33.3697 68.4391L34.7873 68.5336L34.6746 70.0873L33.257 69.9908L33.1566 71.3692L34.1584 71.4362L34.224 70.5284L35.8075 70.6347L35.617 73.2597L30.9052 72.9446L31.0302 71.2275L31.5403 71.2609V71.2668ZM26.8879 69.2622L26.6134 70.5048L27.2279 70.6288L26.8428 72.3105L24.1591 71.7611L24.532 70.0774L25.0318 70.1798L25.925 66.143L25.4252 66.0406L25.796 64.3569L29.1782 65.0481L30.053 66.5664L29.6187 68.5356L28.2195 69.5379L26.8838 69.2661L26.8879 69.2622ZM22.1761 65.0737L21.8053 65.9126L23.2209 66.4896L24.2902 64.0675L19.2363 62.0057L18.1669 64.4278L19.5825 65.0048L19.9513 64.1679L20.3221 64.3195L18.6443 68.1181L18.1649 67.9212L17.4663 69.4965L19.9062 70.4929L20.6068 68.9077L20.1274 68.7108L21.8053 64.9123L22.1761 65.0619V65.0737ZM15.8663 62.3169L15.8356 62.1199L15.0961 61.6946L14.8912 61.7616L12.8426 65.0324L12.8733 65.2293L13.6108 65.6566L13.8157 65.5877L14.2254 64.9418L15.6287 65.7531L14.9219 66.8854L13.2031 67.421L11.4618 66.4147L11.1484 64.7055L13.7993 60.4639L15.5181 59.9263L17.2594 60.9325L17.5728 62.6418L16.864 63.7741L15.4525 62.9706L15.8663 62.3169Z" fill="#193E73"/>
<path fill-rule="evenodd" clip-rule="evenodd" d="M59.8261 63.538L57.8717 61.9312H57.8594L58.6789 64.2706L59.822 63.5302L59.8261 63.538ZM63.2411 65.1547L61.7149 66.1393L61.0614 65.2079L61.5346 64.9027L60.623 64.1741L59.0066 65.2276L59.3692 66.3126L59.8404 66.0074L60.4939 66.9388L58.9677 67.9234L58.3142 66.992L58.6235 66.7951L56.6569 61.0135L57.4374 60.5094L62.2844 64.4242L62.5917 64.2273L63.2452 65.1587L63.2411 65.1547ZM56.8904 68.8371L56.4336 67.8033L55.9624 68.0002L54.0428 63.6503L54.514 63.4534L54.0572 62.4195L52.1274 63.2072L52.5842 64.241L53.1087 64.0264L53.8318 65.6667L52.1827 66.3402L51.4595 64.6999L51.984 64.4872L51.5271 63.4514L49.5973 64.2391L50.0542 65.2729L50.5254 65.076L52.4511 69.4318L51.9819 69.6287L52.4306 70.6508L54.3604 69.8631L53.9056 68.8273L53.3791 69.0419L52.574 67.2145L54.2129 66.5411L55.02 68.3704L54.4997 68.591L54.9565 69.6248L56.8863 68.8371H56.8904ZM48.9008 70.0068L48.6263 68.8647L48.2555 68.591L46.8727 68.8962L47.3111 70.7177L48.6939 70.4105L48.8988 70.0167V70.0068H48.9008ZM49.9722 70.127L49.2388 71.4384L46.1004 72.1375L45.8402 71.0446L46.338 70.9343L45.2338 66.3304L44.7339 66.4406L44.4717 65.3458L46.5613 64.883L46.8256 65.9759L46.1987 66.1157L46.6084 67.8525L48.2821 67.4804L49.5318 68.3468L49.96 70.1191L49.9722 70.127ZM43.1504 72.5294L41.0546 72.7046L40.9522 71.5861L41.5197 71.5389L41.0915 66.8305L39.4629 66.9664L39.8992 71.8323L39.1658 72.8681L38.1415 72.9527L38.0391 71.8342L38.582 71.7889L38.8462 71.4168L38.4488 67.057L37.9407 67.0983L37.8383 65.9798L42.4661 65.586L42.5686 66.7065L42.0994 66.7459L42.5276 71.4522L43.0459 71.4089L43.1483 72.5294H43.1504ZM35.3185 72.9449L31.2356 72.6711L31.3176 71.5507L31.8277 71.5842L32.1698 66.8699L31.6597 66.8364L31.7416 65.716L35.8245 65.9897L35.677 68.018L34.7142 67.9549L34.7797 67.0471L33.1593 66.9369L33.0302 68.7091L34.4458 68.8037L34.3762 69.7607L32.9606 69.6642L32.8151 71.6452L34.4376 71.7535L34.5032 70.8457L35.466 70.9107L35.3185 72.939V72.9449ZM28.4249 67.8132L28.6585 66.7518L28.4188 66.3461L27.2531 66.1216L26.868 67.8644L28.0214 68.0987L28.4126 67.823L28.4249 67.8132ZM29.3427 68.3567L28.1484 69.2113L26.6385 68.9061L26.2288 70.7335L26.8332 70.8575L26.5914 71.9563L24.5162 71.531L24.76 70.4322L25.2598 70.5346L26.2841 65.9129L25.7843 65.8105L26.026 64.7117L28.9658 65.3123L29.7156 66.6139L29.3304 68.3567H29.3427ZM23.0555 66.096L22.2115 65.7534L22.5823 64.9145L21.6399 64.5305L19.7122 68.8785L20.1916 69.0754L19.7347 70.1092L17.8664 69.3472L18.3212 68.3133L18.8005 68.5102L20.7221 64.1524L19.7798 63.7684L19.409 64.6053L18.567 64.2627L19.3864 62.39L23.8688 64.2194L23.0494 66.0901L23.0555 66.096ZM14.7136 66.6336L13.2406 67.0944L11.741 66.228L11.4727 64.7629L14.0047 60.7123L15.4777 60.2515L16.9773 61.1179L17.2456 62.583L16.7581 63.3707L15.8874 62.8685L16.1906 62.3802L16.123 61.9351L15.1315 61.3641L14.691 61.5157L12.5236 64.9657L12.5912 65.4107L13.5827 65.9838L14.0232 65.8321L14.3243 65.3497L15.195 65.8538L14.7136 66.6336Z" fill="#D00B21"/>
</g>
<defs>
<clipPath id="clip0_13_305">
<rect width="74" height="96" fill="white" transform="translate(0.5)"/>
</clipPath>
</defs>
</svg>
