<svg width="32" height="32" viewBox="0 0 32 32" fill="none" xmlns="http://www.w3.org/2000/svg">
<path d="M18.56 3.19995H13.44C8.512 3.19995 4.48 7.23195 4.48 12.16V16C4.48 19.456 6.496 22.624 9.6 24.096V28.3839C9.6 28.7679 10.08 28.96 10.336 28.672L14.048 24.96H18.56C23.488 24.96 27.52 20.928 27.52 16V12.16C27.52 7.23195 23.488 3.19995 18.56 3.19995ZM21.92 20L20.608 21.28C19.232 22.624 15.68 21.088 12.544 17.888C9.408 14.688 8.032 11.104 9.344 9.75995L10.624 8.47995C11.104 7.99995 11.904 8.03195 12.448 8.51195L14.304 10.432C14.976 11.104 14.688 12.256 13.824 12.512C13.216 12.704 12.8 13.376 12.992 13.984C13.312 15.392 15.104 17.184 16.448 17.536C17.056 17.664 17.728 17.344 17.952 16.736C18.24 15.872 19.392 15.616 20.032 16.288L21.888 18.208C22.4 18.656 22.4 19.456 21.92 20ZM17.152 9.27995C17.024 9.27995 16.896 9.27995 16.768 9.31195C16.544 9.34395 16.32 9.15195 16.288 8.92795C16.256 8.70395 16.448 8.47995 16.672 8.44795C16.832 8.41595 16.992 8.41595 17.152 8.41595C19.488 8.41595 21.408 10.336 21.408 12.672C21.408 12.832 21.408 12.992 21.376 13.152C21.344 13.376 21.12 13.568 20.896 13.536C20.672 13.504 20.48 13.28 20.512 13.056C20.512 12.928 20.544 12.8 20.544 12.672C20.576 10.816 19.04 9.27995 17.152 9.27995ZM19.712 12.704C19.712 12.928 19.52 13.12 19.296 13.12C19.072 13.12 18.88 12.928 18.88 12.704C18.88 11.776 18.112 11.008 17.184 11.008C16.96 11.008 16.768 10.816 16.768 10.592C16.768 10.368 16.96 10.176 17.184 10.176C18.56 10.144 19.712 11.296 19.712 12.704ZM22.976 14.08C22.912 14.304 22.688 14.464 22.432 14.4C22.208 14.336 22.08 14.112 22.144 13.888C22.24 13.504 22.272 13.12 22.272 12.704C22.272 9.88795 19.968 7.58395 17.152 7.58395H16.768C16.544 7.58395 16.32 7.42395 16.32 7.19995C16.32 6.97595 16.48 6.75195 16.704 6.75195C16.864 6.75195 17.024 6.71995 17.152 6.71995C20.448 6.71995 23.136 9.40795 23.136 12.704C23.136 13.152 23.072 13.632 22.976 14.08Z" fill="white"/>
</svg>
