<svg width="32" height="32" viewBox="0 0 32 32" fill="none" xmlns="http://www.w3.org/2000/svg">
<g clip-path="url(#clip0_0_613)">
<path fill-rule="evenodd" clip-rule="evenodd" d="M27.5405 18.4599C28.602 19.4962 29.7224 20.4713 30.6744 21.6122C31.0949 22.1191 31.4931 22.6423 31.7977 23.2307C32.2293 24.067 31.8384 24.9874 31.0884 25.0374L26.4266 25.0353C25.2242 25.135 24.265 24.651 23.4585 23.8289C22.8131 23.1715 22.2154 22.4718 21.5947 21.7922C21.3403 21.5144 21.074 21.253 20.7558 21.0464C20.1194 20.6333 19.567 20.7598 19.2033 21.4235C18.8329 22.0986 18.7489 22.8462 18.7126 23.5985C18.6626 24.6963 18.3308 24.9849 17.2281 25.0352C14.8715 25.1463 12.635 24.7898 10.5574 23.601C8.72564 22.5529 7.30522 21.0734 6.06889 19.3985C3.66174 16.137 1.81835 12.5531 0.161573 8.86882C-0.211354 8.03875 0.0613755 7.59318 0.977238 7.57741C2.49807 7.54786 4.01869 7.54997 5.54131 7.5753C6.15942 7.58435 6.56862 7.93887 6.80728 8.52281C7.6301 10.546 8.6369 12.4709 9.90067 14.2551C10.2372 14.7301 10.5804 15.2051 11.0691 15.5395C11.6097 15.9096 12.0213 15.7869 12.2756 15.1847C12.437 14.8029 12.5077 14.3915 12.5441 13.9826C12.6646 12.5755 12.6804 11.1708 12.4691 9.76871C12.3394 8.89364 11.8465 8.32715 10.9733 8.16156C10.5277 8.07713 10.5941 7.91133 10.8098 7.657C11.1845 7.21836 11.5369 6.94531 12.2395 6.94531H17.5081C18.3375 7.10901 18.5217 7.48162 18.6353 8.31622L18.6398 14.1685C18.6308 14.4916 18.8012 15.4504 19.3831 15.6642C19.8489 15.8165 20.1559 15.4439 20.4354 15.1485C21.6968 13.8097 22.5971 12.2275 23.4014 10.5891C23.7584 9.86869 24.0653 9.12053 24.3627 8.37299C24.5831 7.81828 24.9289 7.54534 25.5537 7.55743L30.6244 7.56195C30.7748 7.56195 30.9269 7.56416 31.0725 7.58908C31.927 7.73469 32.1612 8.10226 31.8973 8.93664C31.4814 10.2457 30.6724 11.3366 29.8813 12.4326C29.0357 13.6027 28.1313 14.7327 27.2927 15.9097C26.5223 16.9846 26.5834 17.5264 27.5405 18.4599Z" fill="white"/>
</g>
<defs>
<clipPath id="clip0_0_613">
<rect width="32" height="32" fill="white"/>
</clipPath>
</defs>
</svg>
